<svg id="logomark" xmlns="http://www.w3.org/2000/svg" viewBox="0 0 508 504"><defs><style>.cls-1{fill:#27272a}.cls-2{fill:#ffc905}@media (prefers-color-scheme:dark){.cls-1{fill:#fff}.cls-2{fill:#ffc905}}</style></defs><path class="cls-1" d="M200.37 89.87a13.08 13.08 0 01-6.16 17.45 11.51 11.51 0 01-1.26.52c-66.42 23.59-113.77 84.55-113.77 156V277H4.26v-13.11c0-101.28 66.43-187.72 160-222a13.09 13.09 0 0116.32 6.64zM4.26 301.95h74.92v199.8H4.26zM503.74 263.89V277h-74.92v-13.11c0-71.5-47.31-132.45-113.77-156a13.07 13.07 0 01-8-16.69c.15-.43.33-.86.52-1.28l19.77-41.42a13.1 13.1 0 0116.32-6.65c93.65 34.32 160.08 120.8 160.08 222.04zM428.82 301.95h74.92v199.8h-74.92z"/><path class="cls-2" d="M301.53 5.47a13.11 13.11 0 0110.08 18.62L308 31.61l-27.82 58.28a13.15 13.15 0 01-12.64 7.42q-6.72-.37-13.54-.37t-13.54.37a13.15 13.15 0 01-12.64-7.42L200 31.61l-3.6-7.52a13.11 13.11 0 016.22-17.47 13.33 13.33 0 013.86-1.15 352.67 352.67 0 0195.06 0zM403.85 263.89v237.85h-74.93V263.89c0-39.42-33.55-71.36-74.92-71.36s-74.92 31.91-74.92 71.36v237.85h-74.93V263.89c0-78.82 67.1-142.71 149.85-142.71s149.85 63.89 149.85 142.71z"/></svg>