<svg data-name="github" class="github icon" viewBox="0 0 32 31.21"><title>GitHub</title><path class="path-1" d="M16 .29a15.72 15.72 0 00-5 30.64c.79.14 1.08-.34 1.08-.76V27.5c-4.38.95-5.3-2.11-5.3-2.11A4.16 4.16 0 005 23.09c-1.42-1 .11-1 .11-1a3.3 3.3 0 012.41 1.62 3.35 3.35 0 004.58 1.31 3.31 3.31 0 011-2.1C9.64 22.56 6 21.21 6 15.19A6.1 6.1 0 017.59 11a5.68 5.68 0 01.15-4.16s1.32-.42 4.33 1.61a14.87 14.87 0 017.87 0c3-2 4.32-1.61 4.32-1.61a5.58 5.58 0 01.15 4.16A6.06 6.06 0 0126 15.19c0 6-3.68 7.37-7.18 7.76a3.72 3.72 0 011.07 2.91v4.31c0 .52.28.91 1.08.76A15.73 15.73 0 0016 .29z"/></svg>
