<svg data-name="rome-logo" viewBox="0 0 1620 504"><defs><style>.cls-1{fill:#27272a}.cls-2{fill:#ffc905}</style></defs><path class="cls-1" d="M214.64 133.66a9.43 9.43 0 01-5.38 13c-47.87 17-82 60.94-82 112.47v9.43h-54v-9.43c0-73 47.88-135.3 115.35-160a9.44 9.44 0 0111.77 4.79zM73.29 286.51h54v144h-54zM433.29 259.08v9.43h-54v-9.43c0-51.53-34.09-95.46-82-112.47a9.43 9.43 0 01-5.38-13l14.24-29.82A9.44 9.44 0 01318 99.05c67.41 24.73 115.29 87.06 115.29 160.03zM379.29 286.51h54v144h-54z"/><path class="cls-2" d="M287.55 72.83a9.45 9.45 0 017.26 13.42l-2.59 5.42-20.05 42a9.51 9.51 0 01-9.12 5.35q-4.85-.27-9.76-.27c-3.27 0-6.53.09-9.76.27a9.49 9.49 0 01-9.11-5.35l-20.06-42-2.59-5.42A9.45 9.45 0 01219 72.83a254.12 254.12 0 0168.52 0zM361.29 259.08v171.43h-54V259.08c0-28.41-24.18-51.43-54-51.43s-54 23-54 51.43v171.43h-54V259.08c0-56.81 48.36-102.86 108-102.86s108 46.05 108 102.86z"/><path class="cls-1" d="M747.58 411.4a55.48 55.48 0 01-20-14.9l-81.35-93.28q36.81-6.64 53.65-26.29a68.83 68.83 0 0015.87-35.4 89.87 89.87 0 001-13.34q0-31.91-27.7-49.8t-78.56-17.88H489.16v14a104.37 104.37 0 0117.35 2.28 17.66 17.66 0 0110 6q3.5 4.38 4.56 11.92a149.6 149.6 0 011 19.81v162a118.07 118.07 0 01-1.41 20.16q-1.4 7.89-5.43 12.28t-11.22 6a90.74 90.74 0 01-18.76 1.57v14h139.26v-14q-16.83 0-26.83-1.57t-15.25-6.14q-5.26-4.56-7-12.8a104.11 104.11 0 01-1.76-21.21V306q5.61 0 12.1 3.68T601 323.91l87 106.6h83.11v-14a57.93 57.93 0 01-23.53-5.11zM596.46 285h-22.8v-98.89q0-6 6.31-6h30.5q24.21 0 37.88 13.67T662 229.94a88.36 88.36 0 01-.72 11.59q-2.68 20.53-15.59 30.66Q629.42 285 596.46 285zM967.94 297.87a93 93 0 00-22.4-29.87 106.16 106.16 0 00-32.9-19.77 107.89 107.89 0 00-28.55-6.65c-3.67-.36-7.39-.53-11.17-.53s-7.45.18-11.09.53a108.27 108.27 0 00-28.11 6.42 101.85 101.85 0 00-32.54 19.6 91.3 91.3 0 00-22 30.1 90.13 90.13 0 00-8 38.15 95.4 95.4 0 008 39.37 93.47 93.47 0 0022 31 101 101 0 0032.54 20.12 103.15 103.15 0 0013.52 4.2 112.7 112.7 0 0051.49 0 104.33 104.33 0 0013.91-4.37 105.42 105.42 0 0032.9-20.3 95.28 95.28 0 0022.4-30.8 92.55 92.55 0 008.22-39.19 87.46 87.46 0 00-8.22-38.01zm-50.22 69.47a82 82 0 01-9.8 24 46.92 46.92 0 01-15.23 15.4 37.29 37.29 0 01-19.77 5.42 35.51 35.51 0 01-19.42-5.42 47.11 47.11 0 01-14.7-15.23 78.78 78.78 0 01-9.45-23.8A136.37 136.37 0 01826 336.2a131 131 0 013.32-30.63A79.11 79.11 0 01838.8 282a46.51 46.51 0 0114.87-15.22 35.79 35.79 0 0119.25-5.43 37.3 37.3 0 0119.77 5.43 46.92 46.92 0 0115.23 15.4 82.25 82.25 0 019.8 23.62 122.82 122.82 0 013.5 30.45 128.6 128.6 0 01-3.5 31.09zM1343.43 414.41a14.64 14.64 0 01-9.1-6q-3.15-4.54-4-12.95t-.88-22.75v-53.84q0-23.1-3.32-36.05t-10.33-21q-8.74-9.78-24.32-15t-36.57-5.24a87 87 0 00-37.45 8.22 89.08 89.08 0 00-30.1 22.92h-1.4a53.18 53.18 0 00-22.74-23.1q-15.06-8-38.15-8-19.6 0-34.47 7T1061 272h-2.1l-4.2-30.44-67.54 13.29v11.9q8.4 0 13.65.53a26.33 26.33 0 018.57 2.1 11 11 0 014.9 4.2 25.13 25.13 0 012.63 7.17q1.4 4.9 1.92 18.2t.53 33.25v43.39a168.09 168.09 0 01-1.05 21.18q-1 7.88-4.2 12.07t-9.45 5.6a114.49 114.49 0 01-16.8 2.1v14h110.59v-14a104.89 104.89 0 01-16.45-2.1 14.92 14.92 0 01-9.1-5.77q-3.15-4.38-3.85-12.78t-.7-23.1v-46.22a101.63 101.63 0 012.45-22.4 74.92 74.92 0 017-19.25 43.14 43.14 0 0112.43-15.05q7.51-5.6 19.07-5.6t19.25 3.33a27 27 0 0112.42 11q4.72 7.71 6.83 20.3a191.3 191.3 0 012.1 30.8v45.84a202.08 202.08 0 01-.88 21.18q-.87 7.88-4.2 12.07a16.18 16.18 0 01-9.45 5.6 109.44 109.44 0 01-16.62 2.1v14h110.94v-14a111 111 0 01-17-2.1 14.73 14.73 0 01-9.28-6q-3.15-4.54-3.85-12.95t-.7-22.75v-46.12q0-24.49 9.1-40.95a48.52 48.52 0 0113.13-15.4q7.88-5.94 20.12-6 10.85 0 18.37 3.33a26.22 26.22 0 0112.08 11q4.55 7.71 6.65 20.3a191.3 191.3 0 012.1 30.8v45.84a196.69 196.69 0 01-.88 21q-.87 7.71-4.2 12.08a16.61 16.61 0 01-9.45 5.95 80.09 80.09 0 01-16.62 1.92v14h110.59v-14a104.89 104.89 0 01-16.42-2.03zM1546.42 308.65q-2.14-30.11-20.35-47.7-17.31-16.71-46.15-19.42-5.58-.54-11.6-.53t-11.5.53a103 103 0 00-28.92 6.82 96.38 96.38 0 00-31.85 20.48 90.85 90.85 0 00-20.82 31.17 104.28 104.28 0 00-7.35 39.73q0 21 7 38.14a85.69 85.69 0 0049.87 48.82 95.5 95.5 0 0012.5 3.85 116 116 0 0026.87 3 110.8 110.8 0 0026.05-3q30.69-7.38 53.39-33.07l-9.79-12.25a112.42 112.42 0 01-28.18 18.9 69.51 69.51 0 01-29.22 6.65q-25.55 0-40.42-19.95t-14.87-54.24q0-8.4 1.4-11.55h112.69q8 0 9.79-1.23a4.48 4.48 0 001.46-3 21.37 21.37 0 00.29-3.8q0-4.31-.29-8.35zm-52.73-4.83q-4 1.57-18 1.58h-50.74q3.48-19.25 15.22-31.67t26.77-12.43a28.3 28.3 0 0122 9.8q8.74 9.81 8.75 25.2c.03 3.97-1.32 6.47-4 7.52z"/></svg>