<svg data-name="rome-logo" viewBox="0 0 1620 399.11"><title>Rome</title><defs><style>.cls-1{fill:#27272a}.cls-2{fill:#ffc905}</style></defs><path class="cls-1" d="M155.44,69.43a10.36,10.36,0,0,1-4.83,13.84,10.24,10.24,0,0,1-1.08.45c-52.63,18.69-90.16,67-90.16,123.66v10.37H0V207.38C0,127.12,52.64,58.62,126.82,31.47a10.37,10.37,0,0,1,12.94,5.26Z"/><rect class="cls-1" x="0.03" y="237.48" width="59.37" height="158.32"/><path class="cls-1" d="M395.84,207.33v10.36H336.47V207.33c0-56.66-37.48-105-90.16-123.66A10.37,10.37,0,0,1,240,70.46a10.24,10.24,0,0,1,.45-1.08l15.65-32.79A10.39,10.39,0,0,1,269,31.32C343.2,58.57,395.84,127.1,395.84,207.33Z"/><rect class="cls-1" x="336.47" y="237.48" width="59.37" height="158.32"/><path class="cls-2" d="M235.6,2.55a10.4,10.4,0,0,1,8.9,11.7,10.91,10.91,0,0,1-.91,3.06l-2.85,6L218.69,69.44a10.44,10.44,0,0,1-10,5.88Q203.33,75,197.94,75t-10.74.29a10.43,10.43,0,0,1-10-5.88L155.13,23.26l-2.84-6a10.39,10.39,0,0,1,4.92-13.85,10.59,10.59,0,0,1,3.06-.91,279.44,279.44,0,0,1,75.33,0Z"/><path class="cls-2" d="M316.68,207.33V395.81H257.31V207.33c0-31.24-26.59-56.55-59.37-56.55s-59.38,25.29-59.38,56.55V395.81H79.19V207.33c0-62.47,53.17-113.1,118.75-113.1S316.68,144.86,316.68,207.33Z"/><path class="cls-1" d="M741.39,374.79a60.94,60.94,0,0,1-22-16.38L630,255.86q40.47-7.31,59-28.91A75.61,75.61,0,0,0,706.39,188a98.73,98.73,0,0,0,1.1-14.67q0-35.09-30.45-54.75T590.67,99H457.27v15.39a115.47,115.47,0,0,1,19.06,2.54,19.39,19.39,0,0,1,11,6.6q3.85,4.81,5,13.11a165,165,0,0,1,1.1,21.78V336.48a130.45,130.45,0,0,1-1.55,22.16q-1.54,8.69-6,13.5t-12.34,6.6A99.79,99.79,0,0,1,453,380.47v15.39H606.07V380.47q-18.51,0-29.5-1.73T559.8,372q-5.77-5-7.7-14.07a114.71,114.71,0,0,1-1.93-23.32V258.91q6.17,0,13.3,4t16.77,15.61l95.65,117.2h91.38V380.38A63.63,63.63,0,0,1,741.39,374.79Zm-166.11-139H550.21V127.1q0-6.6,6.94-6.6h33.52q26.63,0,41.65,15t15,39.71a97.1,97.1,0,0,1-.79,12.75q-2.94,22.56-17.14,33.7Q611.48,235.82,575.28,235.82Z"/><path class="cls-1" d="M983.66,250A102.22,102.22,0,0,0,959,217.13a116.51,116.51,0,0,0-36.17-21.73,118.44,118.44,0,0,0-31.39-7.32q-6-.59-12.28-.58c-4.16,0-8.19.2-12.19.58a119.42,119.42,0,0,0-30.87,7.06,112.11,112.11,0,0,0-35.77,21.55,100.42,100.42,0,0,0-24.19,33.1,99,99,0,0,0-8.8,41.94,105,105,0,0,0,8.8,43.29,102.78,102.78,0,0,0,24.19,34.08,111.08,111.08,0,0,0,35.77,22.12A113.7,113.7,0,0,0,851,395.84a123.86,123.86,0,0,0,56.61,0A113.9,113.9,0,0,0,922.86,391,115.77,115.77,0,0,0,959,368.71a104.63,104.63,0,0,0,24.62-33.86,101.74,101.74,0,0,0,9-43.09A96.21,96.21,0,0,0,983.66,250Zm-55.21,76.38a90.17,90.17,0,0,1-10.78,26.39,51.5,51.5,0,0,1-16.74,16.93,41,41,0,0,1-21.74,6,39.11,39.11,0,0,1-21.35-6,51.73,51.73,0,0,1-16.16-16.75,86.36,86.36,0,0,1-10.39-26.16,149.87,149.87,0,0,1-3.65-34.62,144,144,0,0,1,3.65-33.68,87.13,87.13,0,0,1,10.39-25.92A51.15,51.15,0,0,1,858,215.79a39.34,39.34,0,0,1,21.16-6,41,41,0,0,1,21.74,6,51.5,51.5,0,0,1,16.74,16.93,90.43,90.43,0,0,1,10.78,26,135.33,135.33,0,0,1,3.85,33.48A141.45,141.45,0,0,1,928.45,326.35Z"/><path class="cls-1" d="M1396.5,378.1a16.14,16.14,0,0,1-10-6.59q-3.45-5-4.39-14.24t-1-25v-59.2q0-25.4-3.65-39.63t-11.36-23.09q-9.6-10.76-26.74-16.49t-40.2-5.77a95.86,95.86,0,0,0-41.18,9,98,98,0,0,0-33.09,25.2h-1.54a58.52,58.52,0,0,0-25-25.4q-16.56-8.79-41.95-8.79-21.54,0-37.9,7.69T1086,221.53h-2.31l-4.62-33.47-74.25,14.61v13.09c6.15,0,11.16.19,15,.58a29,29,0,0,1,9.43,2.31,12.08,12.08,0,0,1,5.38,4.62,27.35,27.35,0,0,1,2.89,7.88q1.55,5.39,2.12,20t.58,36.56v47.7a184.9,184.9,0,0,1-1.16,23.29q-1.1,8.67-4.61,13.27T1024,378.14a127.72,127.72,0,0,1-18.47,2.31v15.39h121.64V380.45a117.17,117.17,0,0,1-18.09-2.31,16.41,16.41,0,0,1-10-6.35q-3.46-4.82-4.23-14.05t-.77-25.4V281.53a111.43,111.43,0,0,1,2.69-24.63,81.83,81.83,0,0,1,7.7-21.16,47.39,47.39,0,0,1,13.66-16.55q8.26-6.16,21-6.16t21.16,3.66a29.68,29.68,0,0,1,13.66,12.1q5.19,8.47,7.51,22.32a210.77,210.77,0,0,1,2.31,33.86v50.4a223.42,223.42,0,0,1-1,23.28q-1,8.67-4.62,13.28a17.78,17.78,0,0,1-10.39,6.15,119.47,119.47,0,0,1-18.27,2.31v15.39h122V380.39a122.37,122.37,0,0,1-18.69-2.31,16.19,16.19,0,0,1-10.2-6.59q-3.46-5-4.23-14.24t-.77-25v-50.7q0-26.92,10-45a53.46,53.46,0,0,1,14.44-16.93q8.65-6.52,22.12-6.59,11.92,0,20.2,3.66a28.84,28.84,0,0,1,13.28,12.09q5,8.47,7.31,22.32a210.84,210.84,0,0,1,2.31,33.86v50.4a217,217,0,0,1-1,23.09q-1,8.48-4.62,13.28a18.17,18.17,0,0,1-10.39,6.54,88.42,88.42,0,0,1-18.27,2.12v15.39h121.59V380.34A114.91,114.91,0,0,1,1396.5,378.1Z"/><path class="cls-1" d="M1619.68,261.83q-2.36-33.1-22.37-52.45-19-18.37-50.74-21.35-6.13-.6-12.76-.58t-12.64.58a113,113,0,0,0-31.8,7.5,106,106,0,0,0-35,22.51,100,100,0,0,0-22.89,34.27,114.81,114.81,0,0,0-8.08,43.69q0,23.08,7.7,41.93a94.22,94.22,0,0,0,54.83,53.68,106.36,106.36,0,0,0,13.74,4.23,127.73,127.73,0,0,0,29.54,3.3,122.15,122.15,0,0,0,28.64-3.3q33.75-8.11,58.7-36.36L1605.77,346a123.5,123.5,0,0,1-31,20.78,76.44,76.44,0,0,1-32.13,7.31q-28.1,0-44.44-21.93t-16.35-59.64q0-9.22,1.54-12.7h123.9q8.79,0,10.76-1.35a4.92,4.92,0,0,0,1.61-3.3A23.29,23.29,0,0,0,1620,271Q1620,266.27,1619.68,261.83Zm-58-5.32q-4.4,1.74-19.79,1.74h-55.78q3.82-21.17,16.73-34.82t29.43-13.66a31.11,31.11,0,0,1,24.19,10.77q9.62,10.78,9.62,27.71c0,4.36-1.45,7.11-4.4,8.26Z"/></svg>
