<svg data-name="twitter" class="twitter icon" viewBox="0 0 32 31.21"><title>Twitter</title><path class="path-1" d="M10.21 28.28c11.77 0 18.21-9.75 18.21-18.21v-.83a12.75 12.75 0 003.2-3.31 12.74 12.74 0 01-3.68 1 6.37 6.37 0 002.79-3.53A12.84 12.84 0 0126.67 5a6.41 6.41 0 00-10.91 5.84A18.15 18.15 0 012.58 4.1a6.39 6.39 0 002 8.54 6.32 6.32 0 01-2.91-.8v.08a6.41 6.41 0 005.12 6.28 6.42 6.42 0 01-2.89.11 6.4 6.4 0 006 4.44 12.89 12.89 0 01-8 2.75 11.23 11.23 0 01-1.5-.1 18.09 18.09 0 009.81 2.87"/></svg>
