<?xml version="1.0" encoding="iso-8859-1"?>
<!-- Generator: Adobe Illustrator 16.0.0, SVG Export Plug-In . SVG Version: 6.00 Build 0)  -->
<!DOCTYPE svg PUBLIC "-//W3C//DTD SVG 1.1//EN" "http://www.w3.org/Graphics/SVG/1.1/DTD/svg11.dtd">
<svg version="1.1" id="Capa_1" xmlns="http://www.w3.org/2000/svg" xmlns:xlink="http://www.w3.org/1999/xlink" x="0px" y="0px"
	 width="96.25px" height="96.25px" viewBox="0 0 96.25 96.25" style="enable-background:new 0 0 96.25 96.25;" xml:space="preserve"
	>
<g>
	<path d="M48.125,0C21.547,0,0,21.546,0,48.125S21.547,96.25,48.125,96.25c26.579,0,48.125-21.546,48.125-48.125S74.704,0,48.125,0z
		 M55.191,80.261c0,0.829-0.67,1.5-1.5,1.5H42.558c-0.829,0-1.5-0.671-1.5-1.5V37.829c0-0.829,0.671-1.5,1.5-1.5h11.135
		c0.828,0,1.5,0.671,1.5,1.5v42.432H55.191z M48.125,31.988c-4.825,0-8.75-3.925-8.75-8.75c0-4.825,3.925-8.75,8.75-8.75
		s8.75,3.925,8.75,8.75C56.875,28.063,52.95,31.988,48.125,31.988z"/>
</g>
<g>
</g>
<g>
</g>
<g>
</g>
<g>
</g>
<g>
</g>
<g>
</g>
<g>
</g>
<g>
</g>
<g>
</g>
<g>
</g>
<g>
</g>
<g>
</g>
<g>
</g>
<g>
</g>
<g>
</g>
</svg>
