<svg id="Layer_1" data-name="Layer 1" xmlns="http://www.w3.org/2000/svg" viewBox="0 0 508 504"><defs><style>.cls-1{fill:#fff;}.cls-2{fill:#ffc905;}</style></defs><title>logomark_white_yellow</title><path class="cls-1" d="M215.35,135.15A9.43,9.43,0,0,1,210,148.1c-47.87,17-82,60.94-82,112.47V270H74v-9.43c0-73,47.88-135.3,115.35-160a9.43,9.43,0,0,1,11.76,4.79Z"/><rect class="cls-1" x="74" y="288" width="54" height="144"/><path class="cls-1" d="M434,260.57V270H380v-9.43c0-51.53-34.1-95.46-82-112.47a9.43,9.43,0,0,1-5.38-12.95l14.24-29.82a9.43,9.43,0,0,1,11.76-4.79C386.12,125.27,434,187.6,434,260.57Z"/><rect class="cls-1" x="380" y="288" width="54" height="144"/><path class="cls-2" d="M288.26,74.32a9.45,9.45,0,0,1,7.26,13.42l-2.59,5.42-20.06,42a9.48,9.48,0,0,1-9.11,5.35q-4.85-.27-9.76-.27t-9.76.27a9.49,9.49,0,0,1-9.11-5.35l-20.06-42-2.59-5.42a9.45,9.45,0,0,1,7.26-13.42,254.12,254.12,0,0,1,68.52,0Z"/><path class="cls-2" d="M362,260.57V432H308V260.57c0-28.41-24.18-51.43-54-51.43s-54,23-54,51.43V432H146V260.57c0-56.81,48.36-102.86,108-102.86S362,203.76,362,260.57Z"/></svg>