<svg width="1620" height="401" viewBox="0 0 1620 401" fill="none" xmlns="http://www.w3.org/2000/svg">
  <path fill-rule="evenodd" clip-rule="evenodd" d="M395.84 208.33V218.69H336.47V208.33C336.47 151.67 298.99 103.33 246.31 84.67C243.724 83.751 241.609 81.8446 240.426 79.3686C239.243 76.8926 239.09 74.0487 240 71.46C240.129 71.0917 240.28 70.7311 240.45 70.38L256.1 37.59C257.215 35.2694 259.152 33.4455 261.536 32.4718C263.919 31.4981 266.579 31.444 269 32.32C343.2 59.57 395.84 128.1 395.84 208.33ZM156.455 74.3454C156.377 72.9862 156.032 71.6558 155.44 70.43L139.76 37.73C138.646 35.3988 136.702 33.5675 134.308 32.5945C131.915 31.6216 129.245 31.5772 126.82 32.47C52.64 59.62 0 128.12 0 208.38V218.75H59.37V208.38C59.37 151.72 96.9 103.41 149.53 84.72C149.898 84.5907 150.259 84.4405 150.61 84.27C151.836 83.6789 152.934 82.8519 153.841 81.8363C154.747 80.8207 155.445 79.6364 155.893 78.351C156.342 77.0657 156.533 75.7045 156.455 74.3454ZM0.03 238.48H59.4V396.8H0.03V238.48ZM336.47 238.48H395.84V396.8H336.47V238.48ZM741.39 375.79C732.907 372.073 725.383 366.471 719.39 359.41L630 256.86C656.98 251.987 676.647 242.35 689 227.95C698.415 216.905 704.452 203.383 706.39 189C707.121 184.144 707.489 179.241 707.49 174.33C707.49 150.937 697.34 132.687 677.04 119.58C656.74 106.473 627.95 99.9467 590.67 100H457.27V115.39C463.683 115.705 470.058 116.555 476.33 117.93C480.639 118.818 484.518 121.146 487.33 124.53C489.897 127.737 491.563 132.107 492.33 137.64C493.177 144.868 493.544 152.144 493.43 159.42V337.48C493.544 344.897 493.026 352.311 491.88 359.64C490.853 365.433 488.853 369.933 485.88 373.14C482.907 376.347 478.793 378.547 473.54 379.74C466.771 381.024 459.888 381.604 453 381.47V396.86H606.07V381.47C593.73 381.47 583.897 380.893 576.57 379.74C569.243 378.587 563.653 376.34 559.8 373C555.953 369.667 553.387 364.977 552.1 358.93C550.663 351.243 550.017 343.429 550.17 335.61V259.91C554.283 259.91 558.717 261.243 563.47 263.91C568.223 266.577 573.813 271.78 580.24 279.52L675.89 396.72H767.27V381.38C758.347 381.352 749.529 379.447 741.39 375.79ZM575.28 236.79H550.21V128.1C550.21 123.7 552.523 121.5 557.15 121.5H590.67C608.423 121.5 622.307 126.5 632.32 136.5C642.333 146.5 647.333 159.737 647.32 176.21C647.337 180.473 647.073 184.732 646.53 188.96C644.57 204 638.857 215.233 629.39 222.66C617.45 232.1 599.413 236.82 575.28 236.82V236.79ZM959 218.13C969.36 227.304 977.75 238.487 983.66 251C989.738 264.073 992.8 278.345 992.62 292.76C992.8 307.608 989.729 322.316 983.62 335.85C977.778 348.68 969.404 360.197 959 369.71C948.431 379.305 936.178 386.862 922.86 392C917.896 393.969 912.8 395.586 907.61 396.84C888.993 401.21 869.617 401.21 851 396.84C845.933 395.643 840.955 394.099 836.1 392.22C822.877 387.192 810.736 379.684 800.33 370.1C790.018 360.517 781.784 348.917 776.14 336.02C770.17 322.377 767.17 307.621 767.34 292.73C767.176 278.275 770.18 263.96 776.14 250.79C781.841 238.211 790.076 226.942 800.33 217.69C810.798 208.33 822.932 201.02 836.1 196.14C846.031 192.427 856.412 190.053 866.97 189.08C870.97 188.7 875 188.5 879.16 188.5C883.347 188.493 887.44 188.687 891.44 189.08C902.188 190.078 912.749 192.541 922.83 196.4C936.109 201.382 948.366 208.746 959 218.13ZM917.67 353.77C922.64 345.601 926.279 336.693 928.45 327.38V327.35C931.106 316.164 932.389 304.696 932.27 293.2C932.387 281.923 931.093 270.676 928.42 259.72C926.206 250.544 922.568 241.771 917.64 233.72C913.459 226.847 907.726 221.048 900.9 216.79C894.357 212.797 886.825 210.718 879.16 210.79C871.68 210.738 864.339 212.819 858 216.79C851.336 221.047 845.75 226.79 841.68 233.57C836.846 241.595 833.337 250.348 831.29 259.49C828.752 270.534 827.527 281.839 827.64 293.17C827.508 304.813 828.733 316.431 831.29 327.79C833.299 337.02 836.809 345.857 841.68 353.95C845.724 360.688 851.251 366.417 857.84 370.7C864.229 374.718 871.643 376.802 879.19 376.7C886.855 376.772 894.387 374.693 900.93 370.7C907.756 366.442 913.489 360.643 917.67 353.77ZM1396.5 379.1C1392.44 378.267 1388.86 375.908 1386.5 372.51C1384.2 369.177 1382.74 364.43 1382.11 358.27C1381.48 352.11 1381.15 343.777 1381.11 333.27V274.07C1381.11 257.137 1379.89 243.927 1377.46 234.44C1375.03 224.953 1371.24 217.257 1366.1 211.35C1359.7 204.177 1350.79 198.68 1339.36 194.86C1327.93 191.04 1314.53 189.117 1299.16 189.09C1284.94 188.997 1270.87 192.072 1257.98 198.09C1245.27 204.026 1233.99 212.619 1224.89 223.29H1223.35C1217.86 212.43 1209.12 203.551 1198.35 197.89C1187.31 192.03 1173.33 189.1 1156.4 189.1C1142.04 189.1 1129.41 191.663 1118.5 196.79C1107.59 201.917 1096.76 210.497 1086 222.53H1083.69L1079.07 189.06L1004.82 203.67V216.76C1010.97 216.76 1015.98 216.95 1019.82 217.34C1023.07 217.575 1026.26 218.356 1029.25 219.65C1031.47 220.617 1033.34 222.226 1034.63 224.27C1035.99 226.732 1036.97 229.39 1037.52 232.15C1038.55 235.743 1039.26 242.41 1039.64 252.15C1040.02 261.89 1040.21 274.077 1040.22 288.71V336.41C1040.32 344.19 1039.94 351.969 1039.06 359.7C1038.33 365.48 1036.79 369.903 1034.45 372.97C1032.11 376.037 1028.63 378.093 1024 379.14C1017.91 380.358 1011.73 381.13 1005.53 381.45V396.84H1127.17V381.45C1121.09 381.151 1115.04 380.379 1109.08 379.14C1105.07 378.342 1101.51 376.078 1099.08 372.79C1096.77 369.577 1095.36 364.893 1094.85 358.74C1094.34 352.587 1094.08 344.12 1094.08 333.34V282.53C1094.06 274.246 1094.96 265.984 1096.77 257.9C1098.35 250.526 1100.94 243.405 1104.47 236.74C1107.7 230.251 1112.37 224.59 1118.13 220.19C1123.64 216.083 1130.64 214.03 1139.13 214.03C1147.62 214.03 1154.68 215.25 1160.29 217.69C1166 220.189 1170.78 224.422 1173.95 229.79C1177.41 235.437 1179.91 242.877 1181.46 252.11C1183.14 263.316 1183.91 274.64 1183.77 285.97V336.37C1183.84 344.142 1183.51 351.913 1182.77 359.65C1182.1 365.43 1180.56 369.857 1178.15 372.93C1175.51 376.129 1171.83 378.305 1167.76 379.08C1161.74 380.319 1155.63 381.091 1149.49 381.39V396.78H1271.49V381.39C1265.21 381.101 1258.96 380.329 1252.8 379.08C1248.67 378.29 1245.02 375.927 1242.6 372.49C1240.29 369.157 1238.88 364.41 1238.37 358.25C1237.86 352.09 1237.6 343.757 1237.6 333.25V282.55C1237.6 264.603 1240.93 249.603 1247.6 237.55C1251.17 230.956 1256.09 225.188 1262.04 220.62C1267.81 216.273 1275.18 214.077 1284.16 214.03C1292.11 214.03 1298.84 215.25 1304.36 217.69C1309.96 220.204 1314.61 224.439 1317.64 229.78C1320.97 235.427 1323.41 242.867 1324.95 252.1C1326.63 263.306 1327.4 274.63 1327.26 285.96V336.36C1327.34 344.069 1327 351.777 1326.26 359.45C1325.59 365.103 1324.05 369.53 1321.64 372.73C1319.04 376.049 1315.37 378.361 1311.25 379.27C1305.25 380.61 1299.13 381.32 1292.98 381.39V396.78H1414.57V381.34C1408.5 381.072 1402.45 380.323 1396.5 379.1ZM1597.31 210.38C1610.65 223.28 1618.11 240.763 1619.68 262.83C1619.89 265.79 1620 268.847 1620 272C1620.01 273.397 1619.9 274.793 1619.66 276.17C1619.57 277.437 1618.99 278.619 1618.05 279.47C1616.74 280.37 1613.15 280.82 1607.29 280.82H1483.39C1482.36 283.14 1481.85 287.373 1481.85 293.52C1481.86 318.66 1487.31 338.54 1498.2 353.16C1509.09 367.78 1523.91 375.09 1542.64 375.09C1553.75 375.018 1564.72 372.524 1574.77 367.78C1586.1 362.464 1596.55 355.457 1605.77 347L1616.55 360.48C1599.92 379.313 1580.35 391.433 1557.85 396.84C1548.47 399.067 1538.85 400.174 1529.21 400.14C1519.27 400.193 1509.35 399.086 1499.67 396.84C1495 395.741 1490.41 394.328 1485.93 392.61C1473.54 388.01 1462.25 380.853 1452.8 371.604C1443.36 362.356 1435.96 351.223 1431.1 338.93C1425.97 326.363 1423.4 312.387 1423.4 297C1423.22 282.049 1425.97 267.208 1431.48 253.31C1436.65 240.421 1444.44 228.75 1454.37 219.04C1464.43 209.298 1476.33 201.647 1489.37 196.53C1499.55 192.503 1510.26 189.976 1521.17 189.03C1525.18 188.657 1529.39 188.463 1533.81 188.45C1538.23 188.437 1542.48 188.63 1546.57 189.03C1567.73 191.017 1584.64 198.133 1597.31 210.38ZM1541.89 259.25C1552.15 259.25 1558.75 258.67 1561.68 257.51C1564.63 256.36 1566.08 253.61 1566.08 249.25C1566.08 237.963 1562.87 228.727 1556.46 221.54C1553.47 218.076 1549.75 215.315 1545.57 213.453C1541.39 211.591 1536.85 210.675 1532.27 210.77C1521.26 210.777 1511.45 215.33 1502.84 224.43C1494.23 233.53 1488.66 245.137 1486.11 259.25H1541.89Z" fill="#27272A" stroke="white" stroke-width="4" />
  <path fill-rule="evenodd" clip-rule="evenodd" d="M242.471 7.55808C240.803 5.36424 238.331 3.92264 235.6 3.55V3.5C210.605 0.0999752 185.265 0.0999752 160.27 3.5C159.21 3.64696 158.178 3.95378 157.21 4.41C155.977 4.99605 154.872 5.81924 153.958 6.83255C153.043 7.84586 152.337 9.02942 151.88 10.3156C151.424 11.6018 151.225 12.9654 151.295 14.3286C151.365 15.6917 151.703 17.0276 152.29 18.26L155.13 24.26L177.2 70.41C178.097 72.27 179.527 73.8217 181.307 74.8685C183.087 75.9153 185.138 76.41 187.2 76.29C190.767 76.0967 194.347 76 197.94 76C201.533 76 205.117 76.1067 208.69 76.32C210.751 76.4387 212.802 75.9434 214.582 74.8968C216.362 73.8501 217.792 72.2992 218.69 70.44L240.74 24.31L243.59 18.31C244.042 17.3401 244.348 16.3091 244.5 15.25C244.87 12.5185 244.14 9.75191 242.471 7.55808ZM316.68 396.81V208.33C316.68 145.86 263.52 95.23 197.94 95.23C132.36 95.23 79.19 145.86 79.19 208.33V396.81H138.56V208.33C138.56 177.07 165.16 151.78 197.94 151.78C230.72 151.78 257.31 177.09 257.31 208.33V396.81H316.68Z" fill="#FFC905"/>
</svg>
