<svg id="Layer_1" data-name="Layer 1" xmlns="http://www.w3.org/2000/svg" xmlns:xlink="http://www.w3.org/1999/xlink" viewBox="0 0 128 128"><defs><style>.cls-1{fill:none;}.cls-2{fill:#27272a;}.cls-3{fill:url(#Pattern_3);}</style><pattern id="Pattern_3" data-name="Pattern 3" width="128" height="128" patternTransform="translate(89 14)" patternUnits="userSpaceOnUse" viewBox="0 0 128 128"><rect class="cls-1" width="128" height="128"/><path class="cls-2" d="M5.06,95.84v1.6H-4.09v-1.6A20.39,20.39,0,0,0-18,76.79a1.59,1.59,0,0,1-.91-2.19l2.41-5a1.6,1.6,0,0,1,2-.82C-3,72.92,5.06,83.48,5.06,95.84Z"/><rect class="cls-2" x="-4.09" y="100.49" width="9.15" height="24.39"/><path class="cls-2" d="M12.19,10.7a1.6,1.6,0,0,1-.92,2.19A20.41,20.41,0,0,0-2.61,31.94v1.6h-9.15v-1.6C-11.76,19.58-3.65,9,7.78,4.83a1.59,1.59,0,0,1,2,.82Z"/><rect class="cls-2" x="-11.76" y="36.58" width="9.15" height="24.39"/><path class="cls-2" d="M49.22,31.94v1.6H40.07v-1.6a20.39,20.39,0,0,0-13.88-19,1.59,1.59,0,0,1-.91-2.19l2.41-5a1.6,1.6,0,0,1,2-.82C41.11,9,49.22,19.58,49.22,31.94Z"/><rect class="cls-2" x="40.07" y="36.58" width="9.15" height="24.39"/><path class="cls-2" d="M24.53.39a1.6,1.6,0,0,1,1.23,2.28l-.43.91-3.4,7.12a1.61,1.61,0,0,1-1.54.91c-.55,0-1.1,0-1.66,0s-1.1,0-1.65,0a1.64,1.64,0,0,1-1.55-.91L12.14,3.58l-.44-.91A1.61,1.61,0,0,1,12.93.39a43.32,43.32,0,0,1,11.6,0Z"/><path class="cls-2" d="M37,31.94V61H27.88v-29a8.94,8.94,0,0,0-9.15-8.71,8.93,8.93,0,0,0-9.14,8.71V61H.44v-29c0-9.62,8.19-17.42,18.29-17.42S37,22.32,37,31.94Z"/><path class="cls-2" d="M32,74.6a1.59,1.59,0,0,1-.91,2.19,20.39,20.39,0,0,0-13.88,19v1.6H8.06v-1.6c0-12.36,8.11-22.92,19.54-27.11a1.6,1.6,0,0,1,2,.82Z"/><rect class="cls-2" x="8.06" y="100.49" width="9.15" height="24.39"/><path class="cls-2" d="M69,95.84v1.6H59.89v-1.6A20.41,20.41,0,0,0,46,76.79a1.6,1.6,0,0,1-.92-2.19l2.42-5a1.59,1.59,0,0,1,2-.82C60.93,72.92,69,83.48,69,95.84Z"/><rect class="cls-2" x="59.89" y="100.49" width="9.15" height="24.39"/><path class="cls-2" d="M44.35,64.29a1.61,1.61,0,0,1,1.23,2.28l-.44.91L41.75,74.6a1.64,1.64,0,0,1-1.55.91c-.55,0-1.1-.05-1.65-.05s-1.11,0-1.65.05a1.62,1.62,0,0,1-1.55-.91L32,67.48l-.43-.91a1.6,1.6,0,0,1,1.23-2.28,43.32,43.32,0,0,1,11.6,0Z"/><path class="cls-2" d="M56.84,95.84v29H47.69v-29a8.93,8.93,0,0,0-9.14-8.71,8.94,8.94,0,0,0-9.15,8.71v29H20.26v-29c0-9.62,8.19-17.42,18.29-17.42S56.84,86.22,56.84,95.84Z"/><path class="cls-2" d="M76.08,10.7a1.59,1.59,0,0,1-.91,2.19A20.39,20.39,0,0,0,61.29,31.94v1.6H52.14v-1.6C52.14,19.58,60.25,9,71.68,4.83a1.6,1.6,0,0,1,2,.82Z"/><rect class="cls-2" x="52.14" y="36.58" width="9.15" height="24.39"/><path class="cls-2" d="M113.12,31.94v1.6H104v-1.6a20.41,20.41,0,0,0-13.88-19,1.6,1.6,0,0,1-.92-2.19l2.42-5a1.59,1.59,0,0,1,2-.82C105,9,113.12,19.58,113.12,31.94Z"/><rect class="cls-2" x="103.97" y="36.58" width="9.15" height="24.39"/><path class="cls-2" d="M88.43.39a1.61,1.61,0,0,1,1.23,2.28l-.44.91L85.83,10.7a1.64,1.64,0,0,1-1.55.91c-.55,0-1.1,0-1.65,0s-1.11,0-1.65,0a1.62,1.62,0,0,1-1.55-.91L76,3.58l-.43-.91A1.6,1.6,0,0,1,76.83.39a43.32,43.32,0,0,1,11.6,0Z"/><path class="cls-2" d="M100.92,31.94V61H91.77v-29a9.16,9.16,0,0,0-18.29,0V61H64.34v-29c0-9.62,8.19-17.42,18.29-17.42S100.92,22.32,100.92,31.94Z"/><path class="cls-2" d="M96,74.6a1.6,1.6,0,0,1-.92,2.19,20.41,20.41,0,0,0-13.88,19v1.6H72.08v-1.6c0-12.36,8.11-22.92,19.54-27.11a1.59,1.59,0,0,1,2,.82Z"/><rect class="cls-2" x="72.08" y="100.49" width="9.15" height="24.39"/><path class="cls-2" d="M133.06,95.84v1.6h-9.15v-1.6a20.39,20.39,0,0,0-13.88-19,1.59,1.59,0,0,1-.91-2.19l2.41-5a1.6,1.6,0,0,1,2-.82C125,72.92,133.06,83.48,133.06,95.84Z"/><rect class="cls-2" x="123.91" y="100.49" width="9.15" height="24.39"/><path class="cls-2" d="M108.37,64.29a1.6,1.6,0,0,1,1.23,2.28l-.43.91-3.4,7.12a1.61,1.61,0,0,1-1.54.91c-.55,0-1.1-.05-1.66-.05s-1.1,0-1.65.05a1.61,1.61,0,0,1-1.54-.91L96,67.48l-.44-.91a1.61,1.61,0,0,1,1.23-2.28,43.32,43.32,0,0,1,11.6,0Z"/><path class="cls-2" d="M120.86,95.84v29h-9.14v-29a9.16,9.16,0,0,0-18.29,0v29H84.28v-29c0-9.62,8.19-17.42,18.29-17.42S120.86,86.22,120.86,95.84Z"/><path class="cls-2" d="M140.19,10.7a1.6,1.6,0,0,1-.92,2.19,20.41,20.41,0,0,0-13.88,19.05v1.6h-9.15v-1.6c0-12.36,8.11-22.92,19.54-27.11a1.59,1.59,0,0,1,2,.82Z"/><rect class="cls-2" x="116.24" y="36.58" width="9.15" height="24.39"/></pattern></defs><title>patern_black</title><rect class="cls-3" width="128" height="128"/></svg>