<svg id="Layer_1" data-name="Layer 1" xmlns="http://www.w3.org/2000/svg" xmlns:xlink="http://www.w3.org/1999/xlink" viewBox="0 0 128 128"><defs><style>.cls-1{fill:none;}.cls-2{fill:#27272a;}.cls-3{fill:#ffb300;}.cls-4{clip-path:url(#clip-path);}.cls-5{clip-path:url(#clip-path-2);}.cls-6{clip-path:url(#clip-path-3);}.cls-7{fill:url(#Pattern_1);}</style><clipPath id="clip-path"><polygon class="cls-1" points="123.32 40.48 126.37 40.48 126.37 51.06 123.32 51.06 123.32 40.48"/></clipPath><clipPath id="clip-path-2"><rect class="cls-1" x="116.12" y="46.34" width="60.97" height="60.97"/></clipPath><clipPath id="clip-path-3"><rect class="cls-1" x="116.12" y="-14.63" width="60.97" height="60.97"/></clipPath><pattern id="Pattern_1" data-name="Pattern 1" width="128" height="128" patternTransform="translate(-66 -145)" patternUnits="userSpaceOnUse" viewBox="0 0 128 128"><rect class="cls-1" width="128" height="128"/><path class="cls-2" d="M5.06,95.84v1.6H-4.09v-1.6A20.39,20.39,0,0,0-18,76.79a1.59,1.59,0,0,1-.91-2.19l2.41-5a1.6,1.6,0,0,1,2-.82C-3,72.92,5.06,83.48,5.06,95.84Z"/><rect class="cls-2" x="-4.09" y="100.49" width="9.15" height="24.39"/><path class="cls-2" d="M12.19,10.7a1.6,1.6,0,0,1-.92,2.19A20.41,20.41,0,0,0-2.61,31.94v1.6h-9.15v-1.6C-11.76,19.58-3.65,9,7.78,4.83a1.59,1.59,0,0,1,2,.82Z"/><rect class="cls-2" x="-11.76" y="36.58" width="9.15" height="24.39"/><path class="cls-2" d="M49.22,31.94v1.6H40.07v-1.6a20.39,20.39,0,0,0-13.88-19,1.59,1.59,0,0,1-.91-2.19l2.41-5a1.6,1.6,0,0,1,2-.82C41.11,9,49.22,19.58,49.22,31.94Z"/><rect class="cls-2" x="40.07" y="36.58" width="9.15" height="24.39"/><path class="cls-3" d="M24.53.39a1.6,1.6,0,0,1,1.23,2.28l-.43.91-3.4,7.12a1.61,1.61,0,0,1-1.54.91c-.55,0-1.1,0-1.66,0s-1.1,0-1.65,0a1.64,1.64,0,0,1-1.55-.91L12.14,3.58l-.44-.91A1.61,1.61,0,0,1,12.93.39a43.32,43.32,0,0,1,11.6,0Z"/><path class="cls-3" d="M37,31.94V61H27.88v-29a8.94,8.94,0,0,0-9.15-8.71,8.93,8.93,0,0,0-9.14,8.71V61H.44v-29c0-9.62,8.19-17.42,18.29-17.42S37,22.32,37,31.94Z"/><path class="cls-2" d="M32,74.6a1.59,1.59,0,0,1-.91,2.19,20.39,20.39,0,0,0-13.88,19v1.6H8.06v-1.6c0-12.36,8.11-22.92,19.54-27.11a1.6,1.6,0,0,1,2,.82Z"/><rect class="cls-2" x="8.06" y="100.49" width="9.15" height="24.39"/><path class="cls-2" d="M69,95.84v1.6H59.89v-1.6A20.41,20.41,0,0,0,46,76.79a1.6,1.6,0,0,1-.92-2.19l2.42-5a1.59,1.59,0,0,1,2-.82C60.93,72.92,69,83.48,69,95.84Z"/><rect class="cls-2" x="59.89" y="100.49" width="9.15" height="24.39"/><path class="cls-3" d="M44.35,64.29a1.61,1.61,0,0,1,1.23,2.28l-.44.91L41.75,74.6a1.64,1.64,0,0,1-1.55.91c-.55,0-1.1-.05-1.65-.05s-1.11,0-1.65.05a1.62,1.62,0,0,1-1.55-.91L32,67.48l-.43-.91a1.6,1.6,0,0,1,1.23-2.28,43.32,43.32,0,0,1,11.6,0Z"/><path class="cls-3" d="M56.84,95.84v29H47.69v-29a8.93,8.93,0,0,0-9.14-8.71,8.94,8.94,0,0,0-9.15,8.71v29H20.26v-29c0-9.62,8.19-17.42,18.29-17.42S56.84,86.22,56.84,95.84Z"/><g class="cls-4"><g class="cls-5"><path class="cls-2" d="M129.56,84a1.61,1.61,0,0,1,.91-2.2,20.39,20.39,0,0,0,13.88-19V61.18h9.15v1.59c0,12.36-8.11,22.92-19.54,27.11a1.61,1.61,0,0,1-2-.81Z"/><rect class="cls-2" x="144.35" y="33.74" width="9.15" height="24.39"/><path class="cls-2" d="M92.53,62.77V61.18h9.14v1.59a20.4,20.4,0,0,0,13.89,19,1.61,1.61,0,0,1,.91,2.2l-2.42,5a1.6,1.6,0,0,1-2,.81C100.63,85.69,92.53,75.13,92.53,62.77Z"/><path class="cls-3" d="M117.21,94.32A1.6,1.6,0,0,1,116,92.05l.44-.92,3.4-7.12a1.61,1.61,0,0,1,1.54-.91c.55,0,1.1.05,1.65.05s1.11,0,1.66-.05a1.61,1.61,0,0,1,1.54.91l3.4,7.12.43.92a1.59,1.59,0,0,1-1.22,2.27,43.4,43.4,0,0,1-11.61,0Z"/><path class="cls-3" d="M104.72,62.77v-29h9.15v29a9.16,9.16,0,0,0,18.29,0v-29h9.14v29c0,9.63-8.19,17.43-18.29,17.43S104.72,72.4,104.72,62.77Z"/><path class="cls-2" d="M190.53,84a1.61,1.61,0,0,1,.91-2.2,20.4,20.4,0,0,0,13.89-19V61.18h9.14v1.59c0,12.36-8.1,22.92-19.53,27.11a1.61,1.61,0,0,1-2-.81Z"/><rect class="cls-2" x="205.33" y="33.74" width="9.15" height="24.39"/><path class="cls-2" d="M153.5,62.77V61.18h9.15v1.59a20.39,20.39,0,0,0,13.88,19,1.61,1.61,0,0,1,.91,2.2l-2.41,5a1.61,1.61,0,0,1-2,.81C161.61,85.69,153.5,75.13,153.5,62.77Z"/><rect class="cls-2" x="153.5" y="33.74" width="9.15" height="24.39"/><path class="cls-3" d="M178.18,94.32A1.59,1.59,0,0,1,177,92.05l.43-.92,3.4-7.12a1.61,1.61,0,0,1,1.54-.91c.55,0,1.1.05,1.66.05s1.1,0,1.65-.05a1.61,1.61,0,0,1,1.54.91l3.4,7.12.44.92a1.6,1.6,0,0,1-1.23,2.27,43.4,43.4,0,0,1-11.61,0Z"/><path class="cls-3" d="M165.69,62.77v-29h9.15v29a9.16,9.16,0,0,0,18.29,0v-29h9.15v29c0,9.63-8.19,17.43-18.29,17.43S165.69,72.4,165.69,62.77Z"/><rect class="cls-2" x="144.35" y="94.71" width="9.15" height="24.39"/><path class="cls-3" d="M104.72,123.75v-29h9.15v29a9.16,9.16,0,0,0,18.29,0v-29h9.14v29c0,9.62-8.19,17.42-18.29,17.42S104.72,133.37,104.72,123.75Z"/><rect class="cls-2" x="153.5" y="94.71" width="9.15" height="24.39"/><path class="cls-3" d="M165.69,123.75v-29h9.15v29a9.16,9.16,0,0,0,18.29,0v-29h9.15v29c0,9.62-8.19,17.42-18.29,17.42S165.69,133.37,165.69,123.75Z"/></g><g class="cls-6"><path class="cls-2" d="M129.56,23a1.6,1.6,0,0,1,.91-2.19,20.39,20.39,0,0,0,13.88-19V.2h9.15V1.8c0,12.36-8.11,22.92-19.54,27.11a1.6,1.6,0,0,1-2-.82Z"/><rect class="cls-2" x="144.35" y="-27.24" width="9.15" height="24.39"/><path class="cls-2" d="M92.53,1.8V.2h9.14V1.8a20.4,20.4,0,0,0,13.89,19.05,1.61,1.61,0,0,1,.91,2.19l-2.42,5.05a1.59,1.59,0,0,1-2,.82C100.63,24.72,92.53,14.16,92.53,1.8Z"/><path class="cls-3" d="M117.21,33.34A1.6,1.6,0,0,1,116,31.07l.44-.92,3.4-7.11a1.6,1.6,0,0,1,1.54-.91c.55,0,1.1.05,1.65.05s1.11,0,1.66-.05a1.6,1.6,0,0,1,1.54.91l3.4,7.11.43.92a1.59,1.59,0,0,1-1.22,2.27,42.84,42.84,0,0,1-5.81.4A42.58,42.58,0,0,1,117.21,33.34Z"/><path class="cls-3" d="M104.72,1.8v-29h9.15v29a9.16,9.16,0,0,0,18.29,0v-29h9.14v29c0,9.62-8.19,17.42-18.29,17.42S104.72,11.42,104.72,1.8Z"/><path class="cls-2" d="M190.53,23a1.6,1.6,0,0,1,.91-2.19,20.4,20.4,0,0,0,13.89-19V.2h9.14V1.8c0,12.36-8.1,22.92-19.53,27.11a1.61,1.61,0,0,1-2-.82Z"/><rect class="cls-2" x="205.33" y="-27.24" width="9.15" height="24.39"/><path class="cls-2" d="M153.5,1.8V.2h9.15V1.8a20.39,20.39,0,0,0,13.88,19.05,1.6,1.6,0,0,1,.91,2.19L175,28.09a1.6,1.6,0,0,1-2,.82C161.61,24.72,153.5,14.16,153.5,1.8Z"/><rect class="cls-2" x="153.5" y="-27.24" width="9.15" height="24.39"/><path class="cls-3" d="M178.18,33.34A1.59,1.59,0,0,1,177,31.07l.43-.92,3.4-7.11a1.6,1.6,0,0,1,1.54-.91c.55,0,1.1.05,1.66.05s1.1,0,1.65-.05a1.6,1.6,0,0,1,1.54.91l3.4,7.11.44.92a1.6,1.6,0,0,1-1.23,2.27,42.58,42.58,0,0,1-5.8.4A42.84,42.84,0,0,1,178.18,33.34Z"/><path class="cls-3" d="M165.69,1.8v-29h9.15v29a9.16,9.16,0,0,0,18.29,0v-29h9.15v29c0,9.62-8.19,17.42-18.29,17.42S165.69,11.42,165.69,1.8Z"/><rect class="cls-2" x="144.35" y="33.74" width="9.15" height="24.39"/><path class="cls-3" d="M104.72,62.77v-29h9.15v29a9.16,9.16,0,0,0,18.29,0v-29h9.14v29c0,9.63-8.19,17.43-18.29,17.43S104.72,72.4,104.72,62.77Z"/><rect class="cls-2" x="153.5" y="33.74" width="9.15" height="24.39"/><path class="cls-3" d="M165.69,62.77v-29h9.15v29a9.16,9.16,0,0,0,18.29,0v-29h9.15v29c0,9.63-8.19,17.43-18.29,17.43S165.69,72.4,165.69,62.77Z"/></g></g><path class="cls-2" d="M76.08,10.7a1.59,1.59,0,0,1-.91,2.19A20.39,20.39,0,0,0,61.29,31.94v1.6H52.14v-1.6C52.14,19.58,60.25,9,71.68,4.83a1.6,1.6,0,0,1,2,.82Z"/><rect class="cls-2" x="52.14" y="36.58" width="9.15" height="24.39"/><path class="cls-2" d="M113.12,31.94v1.6H104v-1.6a20.41,20.41,0,0,0-13.88-19,1.6,1.6,0,0,1-.92-2.19l2.42-5a1.59,1.59,0,0,1,2-.82C105,9,113.12,19.58,113.12,31.94Z"/><rect class="cls-2" x="103.97" y="36.58" width="9.15" height="24.39"/><path class="cls-3" d="M88.43.39a1.61,1.61,0,0,1,1.23,2.28l-.44.91L85.83,10.7a1.64,1.64,0,0,1-1.55.91c-.55,0-1.1,0-1.65,0s-1.11,0-1.65,0a1.62,1.62,0,0,1-1.55-.91L76,3.58l-.43-.91A1.6,1.6,0,0,1,76.83.39a43.32,43.32,0,0,1,11.6,0Z"/><path class="cls-3" d="M100.92,31.94V61H91.77v-29a9.16,9.16,0,0,0-18.29,0V61H64.34v-29c0-9.62,8.19-17.42,18.29-17.42S100.92,22.32,100.92,31.94Z"/><path class="cls-2" d="M96,74.6a1.6,1.6,0,0,1-.92,2.19,20.41,20.41,0,0,0-13.88,19v1.6H72.08v-1.6c0-12.36,8.11-22.92,19.54-27.11a1.59,1.59,0,0,1,2,.82Z"/><rect class="cls-2" x="72.08" y="100.49" width="9.15" height="24.39"/><path class="cls-2" d="M133.06,95.84v1.6h-9.15v-1.6a20.39,20.39,0,0,0-13.88-19,1.59,1.59,0,0,1-.91-2.19l2.41-5a1.6,1.6,0,0,1,2-.82C125,72.92,133.06,83.48,133.06,95.84Z"/><rect class="cls-2" x="123.91" y="100.49" width="9.15" height="24.39"/><path class="cls-3" d="M108.37,64.29a1.6,1.6,0,0,1,1.23,2.28l-.43.91-3.4,7.12a1.61,1.61,0,0,1-1.54.91c-.55,0-1.1-.05-1.66-.05s-1.1,0-1.65.05a1.61,1.61,0,0,1-1.54-.91L96,67.48l-.44-.91a1.61,1.61,0,0,1,1.23-2.28,43.32,43.32,0,0,1,11.6,0Z"/><path class="cls-3" d="M120.86,95.84v29h-9.14v-29a9.16,9.16,0,0,0-18.29,0v29H84.28v-29c0-9.62,8.19-17.42,18.29-17.42S120.86,86.22,120.86,95.84Z"/><path class="cls-2" d="M140.19,10.7a1.6,1.6,0,0,1-.92,2.19,20.41,20.41,0,0,0-13.88,19.05v1.6h-9.15v-1.6c0-12.36,8.11-22.92,19.54-27.11a1.59,1.59,0,0,1,2,.82Z"/><rect class="cls-2" x="116.24" y="36.58" width="9.15" height="24.39"/></pattern></defs><title>pattern</title><rect class="cls-7" width="128" height="128"/></svg>