<svg id="logomark" xmlns="http://www.w3.org/2000/svg" viewBox="0 0 508 504">
<defs>
<style>
  .cls-1{ fill:#27272a; }
  .cls-2{ fill:#ffc905; }

  @media (prefers-color-scheme: dark) {
    .cls-1{ fill:#fff; }
    .cls-2{ fill:#ffc905; }
  }
</style>
</defs><title>logomark</title><path class="cls-1" d="M200.37,89.87a13.08,13.08,0,0,1-6.16,17.45,11.51,11.51,0,0,1-1.26.52c-66.42,23.59-113.77,84.55-113.77,156V277H4.26V263.89c0-101.28,66.43-187.72,160-222a13.09,13.09,0,0,1,16.32,6.64Z"/><rect class="cls-1" x="4.26" y="301.95" width="74.92" height="199.8"/><path class="cls-1" d="M503.74,263.89V277H428.82V263.89c0-71.5-47.31-132.45-113.77-156a13.07,13.07,0,0,1-8-16.69c.15-.43.33-.86.52-1.28L327.34,48.5a13.1,13.1,0,0,1,16.32-6.65C437.31,76.17,503.74,162.65,503.74,263.89Z"/><rect class="cls-1" x="428.82" y="301.95" width="74.92" height="199.8"/><path class="cls-2" d="M301.53,5.47a13.11,13.11,0,0,1,10.08,18.62L308,31.61,280.18,89.89a13.15,13.15,0,0,1-12.64,7.42q-6.72-.37-13.54-.37t-13.54.37a13.15,13.15,0,0,1-12.64-7.42L200,31.61l-3.6-7.52a13.11,13.11,0,0,1,6.22-17.47,13.33,13.33,0,0,1,3.86-1.15,352.67,352.67,0,0,1,95.06,0Z"/><path class="cls-2" d="M403.85,263.89V501.74H328.92V263.89c0-39.42-33.55-71.36-74.92-71.36s-74.92,31.91-74.92,71.36V501.74H104.15V263.89c0-78.82,67.1-142.71,149.85-142.71S403.85,185.07,403.85,263.89Z"/></svg>