<svg id="logomark" xmlns="http://www.w3.org/2000/svg" viewBox="0 0 32 32"><title>pinned-romelogo.svg</title><path d="M12.62,5.78a.82.82,0,0,1-.39,1.1l-.08,0A10.54,10.54,0,0,0,5,16.75v.82H.26v-.82a15,15,0,0,1,10.09-14,.83.83,0,0,1,1,.42Z"/><rect x="0.26" y="19.15" width="4.72" height="12.6"/><path d="M31.74,16.75v.82H27v-.82a10.54,10.54,0,0,0-7.17-9.84.83.83,0,0,1-.51-1s0-.05,0-.08l1.24-2.61a.84.84,0,0,1,1-.42A15,15,0,0,1,31.74,16.75Z"/><rect x="27.02" y="19.15" width="4.72" height="12.6"/><path d="M19,.46a.82.82,0,0,1,.7.93.67.67,0,0,1-.07.24l-.22.48L17.65,5.78a.84.84,0,0,1-.8.47c-.28,0-.56,0-.85,0s-.57,0-.85,0a.84.84,0,0,1-.8-.47L12.59,2.11l-.22-.48a.82.82,0,0,1,.39-1.1A.73.73,0,0,1,13,.46a22.32,22.32,0,0,1,6,0Z"/><path d="M25.45,16.75v15H20.72v-15A4.61,4.61,0,0,0,16,12.25a4.61,4.61,0,0,0-4.72,4.5v15H6.55v-15a9.23,9.23,0,0,1,9.45-9A9.23,9.23,0,0,1,25.45,16.75Z"/></svg>