<svg xmlns="http://www.w3.org/2000/svg" width="22" height="30" fill="none"><path fill="#264DE4" d="m21.754 5.896-1.936 21.691L11.114 30l-8.68-2.41L.5 5.896h21.254Z"/><path fill="#2965F1" d="M18.16 26.206 19.815 7.67h-8.688v20.486l7.033-1.95Z"/><path fill="#EBEBEB" d="m4.934 15.716.239 2.66h5.954v-2.66H4.934Zm6.193-5.386H4.455l.242 2.661h6.43v-2.66Zm0 15.065v-2.769l-.012.003-2.963-.8-.19-2.122h-2.67l.372 4.178 5.45 1.513.013-.003Z"/><path fill="#000" d="M5.502 0h3.223v1.348H6.85v1.347h1.875v1.348H5.502V0ZM9.37 0h3.222v1.172h-1.875v.234h1.875v2.696H9.369v-1.23h1.875v-.235H9.37V0Zm3.866 0h3.223v1.172h-1.875v.234h1.875v2.696h-3.223v-1.23h1.875v-.235h-1.875V0Z"/><path fill="#fff" d="m14.394 18.377-.309 3.45-2.967.801v2.768l5.454-1.511.04-.45.626-7.005.065-.714.48-5.386h-6.665v2.661h3.749l-.242 2.725h-3.507v2.66h3.276Z"/></svg>