<svg xmlns="http://www.w3.org/2000/svg" width="30" height="30" fill="none"><path fill="#000" d="M6.352 0h1.347v1.336h1.242V0h1.348v4.043H8.941V2.695h-1.23v1.348H6.35m5.72-2.695h-1.19V0h3.732v1.348h-1.195v2.695H12.07M15.205 0h1.412l.867 1.424L18.352 0h1.412v4.043h-1.348V2.039l-.943 1.453-.944-1.453v2.004h-1.324M20.432 0h1.347v2.707h1.91v1.336h-3.257"/><path fill="#E44D26" d="M6.305 27.598 4.37 5.895h21.26l-1.934 21.69L14.982 30"/><path fill="#F16529" d="M15 28.154V7.676h8.69L22.03 26.19"/><path fill="#EBEBEB" d="M8.32 10.33H15v2.66h-3.762l.246 2.725H15v2.654H9.047m.117 1.336h2.672l.187 2.127 2.977.797v2.777l-5.46-1.523"/><path fill="#fff" d="M21.656 10.33h-6.668v2.66h6.422m-.24 2.725h-6.182v2.66h3.282l-.311 3.457-2.97.797v2.765l5.448-1.511"/></svg>