<svg xmlns="http://www.w3.org/2000/svg" width="30" height="30" fill="none"><g clip-path="url(#a)"><path fill="#F7DF1E" d="M30 0H0v30h30V0Z"/><path fill="#000" d="M20.152 23.438c.605.986 1.39 1.712 2.781 1.712 1.168 0 1.915-.584 1.915-1.391 0-.967-.767-1.309-2.053-1.871l-.705-.303c-2.034-.867-3.385-1.952-3.385-4.247 0-2.115 1.61-3.724 4.128-3.724 1.793 0 3.081.624 4.01 2.257l-2.195 1.41c-.484-.867-1.005-1.209-1.815-1.209-.825 0-1.349.524-1.349 1.208 0 .846.524 1.188 1.734 1.712l.704.302c2.396 1.027 3.748 2.075 3.748 4.429 0 2.538-1.994 3.928-4.671 3.928-2.618 0-4.31-1.247-5.138-2.883l2.291-1.33Zm-9.958.244c.443.786.845 1.45 1.814 1.45.926 0 1.51-.363 1.51-1.772v-9.585h2.82v9.623c0 2.92-1.712 4.248-4.21 4.248-2.257 0-3.564-1.168-4.229-2.575l2.295-1.39Z"/></g><defs><clipPath id="a"><path fill="#fff" d="M0 0h30v30H0z"/></clipPath></defs></svg>