<svg width="30" height="30" viewBox="0 0 30 30" fill="none" xmlns="http://www.w3.org/2000/svg"><g clip-path="url(#clip0_236_1000)"><path fill-rule="evenodd" clip-rule="evenodd" d="M14.9747 22.3312C21.6118 31.3791 28.1072 19.8058 28.0976 12.8462C28.0863 4.61755 19.7462 0.0185547 14.9693 0.0185547C7.302 0.0185547 0 6.3553 0 15.0253C0 24.6621 8.37 30 14.9693 30C13.4759 29.785 8.49938 28.7186 8.43244 17.2562C8.38746 9.50362 10.9614 6.4063 14.9584 7.76887C15.0479 7.80207 19.3673 9.50596 19.3673 15.0722C19.3673 20.6147 14.9747 22.3312 14.9747 22.3312V22.3312Z" fill="url(#paint0_linear_236_1000)"/><path fill-rule="evenodd" clip-rule="evenodd" d="M14.9668 7.76271C10.5812 6.25111 5.20874 9.86571 5.20874 17.1056C5.20874 28.9272 13.9689 30 15.0307 30C22.698 30 30 23.6633 30 14.9933C30 5.35652 21.63 0.0185867 15.0307 0.0185867C16.8585 -0.234538 24.8822 1.99671 24.8822 12.963C24.8822 20.1145 18.891 24.0077 14.9944 22.3442C14.9048 22.311 10.5855 20.6071 10.5855 15.0409C10.5855 9.4984 14.9668 7.76252 14.9668 7.76252V7.76271Z" fill="url(#paint1_linear_236_1000)"/></g><defs><linearGradient id="paint0_linear_236_1000" x1="4.43676" y1="4.43681" x2="25.5686" y2="25.5754" gradientUnits="userSpaceOnUse"><stop/><stop offset="1" stop-color="white"/></linearGradient><linearGradient id="paint1_linear_236_1000" x1="25.5716" y1="25.5725" x2="4.43971" y2="4.43576" gradientUnits="userSpaceOnUse"><stop/><stop offset="1" stop-color="white"/></linearGradient><clipPath id="clip0_236_1000"><rect width="30" height="30" fill="white"/></clipPath></defs></svg>