<svg xmlns="http://www.w3.org/2000/svg" width="24" height="24" fill="none"><path fill="#0C0C0D" fill-rule="evenodd" d="M11.776 1.553a.5.5 0 0 1 .448 0l10 5a.5.5 0 0 1 0 .894l-10 5a.5.5 0 0 1-.448 0l-10-5a.5.5 0 0 1 0-.894l10-5ZM3.118 7 12 11.441 20.882 7 12 2.559 3.118 7Zm-1.342 5.33.448.223L12 17.44l9.776-4.888.448-.224.447.895-.447.223-10 5a.5.5 0 0 1-.448 0l-10-5-.447-.223.447-.895Zm.448 5.223-.448-.224-.447.895.447.223 10 5a.5.5 0 0 0 .448 0l10-5 .447-.223-.447-.895-.448.224L12 22.44l-9.776-4.888Z" clip-rule="evenodd"/></svg>