<svg xmlns="http://www.w3.org/2000/svg" width="30" height="19" fill="none"><g fill="#000" clip-path="url(#a)"><path fill-rule="evenodd" d="M2.163 1.442a.721.721 0 0 0-.72.721v14.135a.72.72 0 0 0 .72.721h25.674a.721.721 0 0 0 .72-.72V2.162a.721.721 0 0 0-.72-.72H2.163ZM0 2.163C0 .97.969 0 2.163 0h25.674C29.03 0 30 .969 30 2.163v14.135a2.163 2.163 0 0 1-2.163 2.164H2.163A2.163 2.163 0 0 1 0 16.297V2.163Z" clip-rule="evenodd"/><path d="M4.327 14.135V4.327h2.885l2.884 3.606 2.885-3.606h2.884v9.808h-2.884V8.51l-2.885 3.605L7.212 8.51v5.625H4.327Zm18.029 0-4.327-4.76h2.884V4.327h2.885v5.048h2.885l-4.327 4.76Z"/></g><defs><clipPath id="a"><path fill="#fff" d="M0 0h30v18.462H0z"/></clipPath></defs></svg>