<svg xmlns="http://www.w3.org/2000/svg" width="30" height="30" fill="none"><g clip-path="url(#a)"><path fill="#3178C6" d="M27.07 0H2.93A2.93 2.93 0 0 0 0 2.93v24.14A2.93 2.93 0 0 0 2.93 30h24.14A2.93 2.93 0 0 0 30 27.07V2.93A2.93 2.93 0 0 0 27.07 0Z"/><path fill="#fff" fill-rule="evenodd" d="M18.574 23.848v2.93c.475.245 1.055.427 1.7.55.644.123 1.347.182 2.05.182a9.57 9.57 0 0 0 1.992-.2 5.053 5.053 0 0 0 1.641-.644c.475-.31.879-.703 1.113-1.23a4.43 4.43 0 0 0 .416-1.875c0-.534-.082-.997-.24-1.407a2.76 2.76 0 0 0-.703-1.054 4.653 4.653 0 0 0-1.055-.82 13.04 13.04 0 0 0-1.406-.704c-.387-.158-.703-.31-1.055-.463a4.578 4.578 0 0 1-.761-.457 2.09 2.09 0 0 1-.498-.492 1.029 1.029 0 0 1-.176-.586c0-.2.052-.38.158-.545.106-.164.252-.299.44-.416.187-.117.421-.205.703-.27.275-.064.58-.093.937-.093.246 0 .504.018.762.055a6.512 6.512 0 0 1 1.64.457c.258.117.498.252.704.404v-2.754a7.244 7.244 0 0 0-1.465-.38 11.752 11.752 0 0 0-1.817-.123c-.703 0-1.347.076-1.992.222a4.637 4.637 0 0 0-1.64.703c-.475.317-.82.703-1.114 1.23-.275.493-.41 1.055-.41 1.758 0 .88.252 1.641.762 2.227.504.645 1.289 1.113 2.285 1.582.404.164.762.328 1.113.486a5 5 0 0 1 .88.493c.251.17.45.357.585.556.146.2.223.434.223.703 0 .188-.046.364-.135.528a1.153 1.153 0 0 1-.416.422 2.376 2.376 0 0 1-.703.28c-.276.065-.586.1-.996.1a5.31 5.31 0 0 1-1.875-.334 5.566 5.566 0 0 1-1.758-.996l.111-.025Zm-4.922-7.207h3.75v-2.403H6.914v2.403h3.75v10.722h2.988V16.641Z" clip-rule="evenodd"/></g><defs><clipPath id="a"><path fill="#fff" d="M0 0h30v30H0z"/></clipPath></defs></svg>