<svg width="20" height="20" viewBox="0 0 20 20" fill="none" xmlns="http://www.w3.org/2000/svg"><g clip-path="url(#clip0_251_1282)"><mask id="mask0_251_1282" style="mask-type:alpha" maskUnits="userSpaceOnUse" x="0" y="0" width="20" height="20"><path fill-rule="evenodd" clip-rule="evenodd" d="M14.1824 19.8634C14.4974 19.9861 14.8566 19.9783 15.1745 19.8253L19.2922 17.8439C19.7248 17.6357 20 17.1978 20 16.7174V3.28266C20 2.80226 19.7249 2.36436 19.2922 2.15616L15.1745 0.174751C14.7572 -0.0260259 14.2689 0.0231519 13.9027 0.28939C13.8504 0.327422 13.8006 0.369886 13.7538 0.416682L5.87102 7.6083L2.43744 5.00192C2.1178 4.7593 1.67073 4.77918 1.37387 5.04922L0.272606 6.05098C-0.0905103 6.38128 -0.0909265 6.95254 0.271706 7.2834L3.24942 10L0.271706 12.7166C-0.0909265 13.0475 -0.0905103 13.6188 0.272606 13.9491L1.37387 14.9508C1.67073 15.2209 2.1178 15.2407 2.43744 14.9981L5.87102 12.3917L13.7538 19.5833C13.8785 19.7081 14.0249 19.8021 14.1824 19.8634ZM15.003 5.45978L9.02182 10L15.003 14.5402V5.45978Z" fill="white"/></mask><g mask="url(#mask0_251_1282)"><path d="M19.2922 2.15932L15.1713 0.175188C14.6943 -0.0544752 14.1243 0.0424016 13.7499 0.416745L0.259665 12.7167C-0.103189 13.0475 -0.102772 13.6188 0.260565 13.9491L1.36249 14.9509C1.65954 15.2209 2.10689 15.2408 2.42671 14.9982L18.6721 2.67406C19.2171 2.2606 19.9999 2.64932 19.9999 3.33342V3.28558C19.9999 2.80538 19.7249 2.36764 19.2922 2.15932Z" fill="#0065A9"/><g filter="url(#filter0_d_251_1282)"><path d="M19.2922 17.8407L15.1713 19.8249C14.6943 20.0546 14.1243 19.9577 13.7499 19.5833L0.259665 7.28336C-0.103189 6.95252 -0.102772 6.38124 0.260565 6.05094L1.36249 5.04918C1.65954 4.77914 2.10689 4.75926 2.42671 5.00188L18.6721 17.326C19.2171 17.7395 19.9999 17.3507 19.9999 16.6667V16.7145C19.9999 17.1947 19.7249 17.6324 19.2922 17.8407Z" fill="#007ACC"/></g><g filter="url(#filter1_d_251_1282)"><path d="M15.1716 19.8253C14.6944 20.0548 14.1244 19.9577 13.75 19.5833C14.2113 20.0446 15 19.7179 15 19.0656V0.93442C15 0.282072 14.2113 -0.0446272 13.75 0.416652C14.1244 0.0422744 14.6944 -0.0547392 15.1716 0.174721L19.2917 2.15613C19.7247 2.36433 20 2.80223 20 3.28263V16.7174C20 17.1978 19.7247 17.6357 19.2917 17.8439L15.1716 19.8253Z" fill="#1F9CF0"/></g><g style="mix-blend-mode:overlay" opacity="0.25"><path fill-rule="evenodd" clip-rule="evenodd" d="M14.1702 19.8635C14.4852 19.9862 14.8444 19.9783 15.1623 19.8253L19.28 17.844C19.7126 17.6358 19.9878 17.1979 19.9878 16.7175V3.2827C19.9878 2.80228 19.7127 2.36438 19.28 2.15618L15.1623 0.174782C14.7451 -0.0259953 14.2567 0.0231825 13.8905 0.289419C13.8382 0.327453 13.7884 0.369917 13.7416 0.416713L5.85881 7.60832L2.42523 5.00196C2.10561 4.75932 1.65852 4.77922 1.36166 5.04924L0.260399 6.051C-0.102717 6.38132 -0.103134 6.95258 0.259499 7.28342L3.23721 10L0.259499 12.7167C-0.103134 13.0475 -0.102717 13.6188 0.260399 13.9491L1.36166 14.9508C1.65852 15.2209 2.10561 15.2408 2.42523 14.9981L5.85881 12.3918L13.7416 19.5834C13.8663 19.7081 14.0127 19.8021 14.1702 19.8635ZM14.9908 5.45982L9.00961 10L14.9908 14.5403V5.45982Z" fill="url(#paint0_linear_251_1282)"/></g></g></g><defs><filter id="filter0_d_251_1282" x="-8.34555" y="-3.50088" width="36.6789" height="31.7825" filterUnits="userSpaceOnUse" color-interpolation-filters="sRGB"><feFlood flood-opacity="0" result="BackgroundImageFix"/><feColorMatrix in="SourceAlpha" type="matrix" values="0 0 0 0 0 0 0 0 0 0 0 0 0 0 0 0 0 0 127 0" result="hardAlpha"/><feOffset/><feGaussianBlur stdDeviation="4.16667"/><feColorMatrix type="matrix" values="0 0 0 0 0 0 0 0 0 0 0 0 0 0 0 0 0 0 0.25 0"/><feBlend mode="overlay" in2="BackgroundImageFix" result="effect1_dropShadow_251_1282"/><feBlend mode="normal" in="SourceGraphic" in2="effect1_dropShadow_251_1282" result="shape"/></filter><filter id="filter1_d_251_1282" x="5.41666" y="-8.2818" width="22.9167" height="36.5636" filterUnits="userSpaceOnUse" color-interpolation-filters="sRGB"><feFlood flood-opacity="0" result="BackgroundImageFix"/><feColorMatrix in="SourceAlpha" type="matrix" values="0 0 0 0 0 0 0 0 0 0 0 0 0 0 0 0 0 0 127 0" result="hardAlpha"/><feOffset/><feGaussianBlur stdDeviation="4.16667"/><feColorMatrix type="matrix" values="0 0 0 0 0 0 0 0 0 0 0 0 0 0 0 0 0 0 0.25 0"/><feBlend mode="overlay" in2="BackgroundImageFix" result="effect1_dropShadow_251_1282"/><feBlend mode="normal" in="SourceGraphic" in2="effect1_dropShadow_251_1282" result="shape"/></filter><linearGradient id="paint0_linear_251_1282" x1="9.98779" y1="0.0516051" x2="9.98779" y2="19.9485" gradientUnits="userSpaceOnUse"><stop stop-color="white"/><stop offset="1" stop-color="white" stop-opacity="0"/></linearGradient><clipPath id="clip0_251_1282"><rect width="20" height="20" fill="white"/></clipPath></defs></svg>
