<?xml version="1.0" standalone="no"?>
<!DOCTYPE svg PUBLIC "-//W3C//DTD SVG 1.1//EN" "http://www.w3.org/Graphics/SVG/1.1/DTD/svg11.dtd">
<svg xmlns="http://www.w3.org/2000/svg">
<defs >
<font id="FiraCode" horiz-adv-x="1201" ><font-face
    font-family="Fira Code Light"
    units-per-em="2000"
    panose-1="2 11 8 9 5 0 0 2 0 4"
    ascent="1980"
    descent="-644"
    alphabetic="0" />
<glyph unicode=" " horiz-adv-x="1200" />
<glyph unicode="!" horiz-adv-x="1200" d="M768 1386L728 510H473L432 1386H768ZM600 328Q676 328 728 275T781 147Q781 73 729 20T600 -34Q526 -34 473 19T419 147Q419 221 472 274T600 328Z" />
<glyph unicode="&quot;" horiz-adv-x="1200" d="M296 925L258 1484H557L520 925H296ZM678 925L641 1484H942L904 925H678Z" />
<glyph unicode="#" horiz-adv-x="1200" d="M982 893L932 497H1057V289H904L866 0H605L643 289H453L415 0H154L190 289H71V497H218L270 893H145V1102H298L334 1386H597L558 1102H749L787 1386H1048L1010 1102H1131V893H982ZM479 497H669L721 893H531L479 497Z" />
<glyph unicode="$" horiz-adv-x="1200" d="M698 1712V1415Q821 1405 919 1362T1091 1257L938 1097Q883 1142 822 1166T698 1194V845Q832 800 925 745T1068 608T1117 407Q1117 296 1069 204T927 52T698 -26V-324H537V-32Q389 -21 273 33T83 158L236 334Q304 276
376 241T537 200V616Q320 687 227 784T134 1023Q134 1131 183 1214T322 1349T537 1414V1712H698ZM698 552V206Q822 234 822 370Q822 428 797 471T698 552ZM537 1192Q476 1182 447 1145T417 1060Q417 1010 437 977T537 906V1192Z" />
<glyph unicode="%" horiz-adv-x="1200" d="M850 1432L1019 1362L336 -58L169 12L850 1432ZM907 459Q858 459 843 417T827 300Q827 229 844 186T907 143Q957 143 972 184T987 300Q987 380 972 419T907 459ZM293 1266Q244 1266 229 1224T213 1107Q213 1036 230 993T293
950Q343 950 358 991T373 1107Q373 1187 358 1226T293 1266ZM293 1421Q382 1421 445 1382T543 1273T577 1107Q577 1013 543 943T446 834T293 795Q203 795 139 833T41 942T7 1107Q7 1198 41 1269T139 1380T293 1421ZM907 614Q996 614 1059 575T1157 466T1191 300Q1191
206 1157 136T1060 27T907 -12Q817 -12 753 26T655 135T621 300Q621 391 655 462T753 573T907 614Z" />
<glyph unicode="&amp;" horiz-adv-x="1200" d="M558 1419Q680 1419 772 1384T947 1262L776 1115Q731 1162 692 1183T595 1204Q524 1204 486 1162T447 1047Q447 995 470 954T536 889T633 865H1156V663H1024V141Q983 97 921 57T770 -8T562 -34Q404 -34 296 22T131
176T75 396Q75 562 156 653T379 778V786Q301 807 249 847T170 946T143 1086Q143 1181 197 1256T344 1375T558 1419ZM732 663H615Q535 663 484 628T408 538T383 419Q383 353 405 303T471 224T579 196Q630 196 669 211T732 251V663Z" />
<glyph unicode="&apos;" horiz-adv-x="1200" d="M487 925L449 1484H749L711 925H487Z" />
<glyph unicode="(" horiz-adv-x="1200" d="M521 700Q521 535 556 402T674 138T901 -149L717 -315Q559 -179 443 -28T264 302T201 700Q201 919 264 1098T443 1428T717 1715L901 1549Q800 1439 728 1339T610 1138T543 931T521 700Z" />
<glyph unicode=")" horiz-adv-x="1200" d="M679 700Q679 824 658 931T590 1138T472 1338T299 1549L483 1715Q641 1579 757 1428T936 1098T999 700Q999 481 936 302T757 -28T483 -315L299 -149Q443 7 526 137T644 401T679 700Z" />
<glyph unicode="*" horiz-adv-x="1200" d="M450 1185L493 808L148 966L55 681L428 606L172 325L413 151L600 479L787 151L1028 325L772 606L1145 681L1052 966L707 808L750 1185H450Z" />
<glyph unicode="+" horiz-adv-x="1200" d="M731 1158V747H1134V503H731V92H467V503H66V747H467V1158H731Z" />
<glyph unicode="," horiz-adv-x="1200" d="M600 412Q694 412 756 350T818 195Q818 136 797 77T732 -80L587 -407H377L479 18Q433 47 409 94T384 197Q384 288 446 350T600 412Z" />
<glyph unicode="-" horiz-adv-x="1200" d="M167 503V749H1033V503H167Z" />
<glyph unicode="." horiz-adv-x="1200" d="M377 189Q377 250 407 300T488 381T600 412Q662 412 712 382T793 301T823 189Q823 129 793 78T713 -3T600 -34Q539 -34 488 -4T407 78T377 189Z" />
<glyph unicode="/" horiz-adv-x="1200" d="M304 -224L57 -111L898 1634L1143 1521L304 -224Z" />
<glyph unicode="0" horiz-adv-x="1200" d="M600 1421Q848 1421 974 1230T1101 696Q1101 353 975 160T600 -34Q350 -34 225 159T99 696Q99 1038 224 1229T600 1421ZM600 1192Q494 1192 445 1079T396 696Q396 488 414 380T476 233T600 194Q671 194 715 242T781 400T802
696Q802 900 784 1007T723 1153T600 1192ZM757 1148L838 975L468 211L377 353L757 1148Z" />
<glyph unicode="1" horiz-adv-x="1200" d="M843 1386V40H535V1075L250 897L116 1114L563 1386H843ZM1102 239V0H201V239H1102Z" />
<glyph unicode="2" horiz-adv-x="1200" d="M552 1421Q710 1421 816 1366T976 1221T1030 1024Q1030 940 1002 860T908 690T736 491T470 241H1062L1028 0H107V224Q244 356 345 458T515 639T627 780T689 894T708 996Q708 1080 660 1129T522 1178Q443 1178 385 1145T273
1038L79 1184Q157 1292 271 1356T552 1421Z" />
<glyph unicode="3" horiz-adv-x="1200" d="M544 1421Q694 1421 799 1373T960 1244T1016 1066Q1016 978 981 913T883 803T733 734Q829 721 902 683T1018 573T1060 390Q1060 273 996 177T811 24T524 -34Q369 -34 246 20T36 174L214 340Q274 271 347 240T503 208Q606
208 671 260T736 412Q736 486 709 531T629 598T501 619H375L411 837H501Q562 837 609 857T683 917T710 1018Q710 1096 654 1141T509 1186Q426 1186 359 1154T232 1066L70 1234Q165 1326 283 1373T544 1421Z" />
<glyph unicode="4" horiz-adv-x="1200" d="M474 1421L743 1322L415 528H1107V291H89V501L474 1421ZM968 862V0H665L661 496L701 862H968Z" />
<glyph unicode="5" horiz-adv-x="1200" d="M1030 1386L995 1160H488V861Q539 885 593 895T693 905Q800 905 888 851T1029 696T1082 455Q1082 315 1014 204T823 30T538 -34Q387 -34 271 22T78 173L260 339Q310 275 375 242T513 208Q623 208 689 275T756 450Q756
536 733 588T667 663T569 687Q531 687 488 677T399 641H186V1386H1030Z" />
<glyph unicode="6" horiz-adv-x="1200" d="M701 1421Q793 1421 868 1397T1002 1332L882 1140Q842 1169 797 1182T707 1196Q627 1196 565 1145T466 996T427 756L429 659Q428 424 468 308T620 192Q709 192 750 268T792 452Q792 594 752 652T638 711Q575 711 514
676T407 577L405 777Q470 855 554 892T720 929Q828 929 916 876T1056 720T1108 470Q1108 331 1048 217T878 34T616 -34Q478 -34 380 18T220 162T129 373T100 627Q100 861 172 1040T379 1320T701 1421Z" />
<glyph unicode="7" horiz-adv-x="1200" d="M528 -32L228 61L745 1148H136V1386H1065V1172L528 -32Z" />
<glyph unicode="8" horiz-adv-x="1200" d="M1061 1054Q1061 957 1009 887T846 754Q986 684 1050 589T1115 376Q1115 269 1057 176T883 24T594 -34Q425 -34 312 22T142 169T85 368Q85 487 154 575T340 714Q234 782 187 852T139 1038Q139 1127 174 1197T271 1318T418
1394T602 1421Q703 1421 787 1396T932 1322T1027 1207T1061 1054ZM799 378Q799 447 772 490T686 564T534 629Q494 603 464 568T418 487T401 387Q401 301 451 247T602 192Q705 192 752 247T799 378ZM440 1038Q440 989 461 952T528 886T642 831Q710 881 735 929T760
1036Q760 1110 721 1158T602 1206Q525 1206 483 1164T440 1038Z" />
<glyph unicode="9" horiz-adv-x="1200" d="M592 1421Q762 1421 875 1351T1045 1157T1102 868Q1102 669 1052 516T898 250T635 62T257 -60L192 162Q370 207 492 272T684 431T776 653V760Q778 907 766 1004T713 1148T590 1196Q505 1196 455 1132T405 932Q405 804
455 752T577 700Q646 700 702 730T815 817L811 639Q738 564 661 522T479 479Q370 479 281 534T140 689T87 923Q87 1073 153 1185T334 1359T592 1421Z" />
<glyph unicode=":" horiz-adv-x="1200" d="M389 177Q389 262 450 323T600 384Q688 384 748 323T809 177Q809 91 749 29T600 -34Q512 -34 451 28T389 177ZM389 868Q389 953 450 1015T600 1078Q688 1078 748 1016T809 868Q809 783 749 721T600 659Q512 659 451 721T389
868Z" />
<glyph unicode=";" horiz-adv-x="1200" d="M600 394Q689 394 749 335T809 186Q809 131 788 72T726 -80L587 -395H383L481 15Q389 74 389 188Q389 276 450 335T600 394ZM600 1078Q688 1078 748 1016T809 868Q809 783 749 721T600 659Q512 659 451 721T389 868Q389
953 450 1015T600 1078Z" />
<glyph unicode="&lt;" horiz-adv-x="1200" d="M923 1225L1061 1007L412 628L1061 256L918 31L139 515V739L923 1225Z" />
<glyph unicode="=" horiz-adv-x="1200" d="M1054 956V709H146V956H1054ZM1054 535V290H146V535H1054Z" />
<glyph unicode="&gt;" horiz-adv-x="1200" d="M279 1225L1061 741V515L282 31L139 246L789 628L139 998L279 1225Z" />
<glyph unicode="?" horiz-adv-x="1200" d="M592 1421Q745 1421 847 1375T1000 1252T1052 1086Q1052 989 1015 928T922 825T812 747T719 666T681 551V510H392V561Q392 664 425 729T508 837T607 910T689 975T723 1059Q723 1114 678 1143T563 1172Q495 1172 431 1142T312
1050L112 1206Q198 1307 316 1364T592 1421ZM540 328Q615 328 668 275T721 147Q721 73 668 20T540 -34Q464 -34 412 19T360 147Q360 221 412 274T540 328Z" />
<glyph unicode="@" horiz-adv-x="1200" d="M574 1421Q716 1421 821 1383T998 1273T1114 1099T1177 869T1197 591Q1197 339 1172 166T1078 -98T882 -188Q825 -188 783 -166T711 -106T665 -18T642 88H634Q612 38 574 -4T481 -72T354 -98Q236 -98 165 -38T63 125T31
358Q31 605 134 750T456 896Q536 896 623 875T792 808V208Q792 134 800 91T827 28T872 9Q901 9 917 39T942 137T952 312T955 574Q955 731 938 852T877 1057T756 1184T558 1227Q451 1227 345 1186T122 1043L-3 1190Q134 1310 272 1365T574 1421ZM450 698Q371 698
343 624T314 358Q314 267 322 210T352 127T411 100Q456 100 479 122T512 177T526 241V679Q489 698 450 698Z" />
<glyph unicode="A" horiz-adv-x="1200" d="M800 299H394L321 0H-22L402 1386H800L1224 0H873L800 299ZM446 537H746L596 1150L446 537Z" />
<glyph unicode="B" horiz-adv-x="1200" d="M804 419Q804 492 776 534T696 595T575 613H440V239H561Q609 239 652 246T730 272T784 326T804 419ZM752 999Q752 1081 701 1117T541 1154H440V833H551Q657 833 704 872T752 999ZM1142 406Q1142 286 1096 207T970 83T788
19T572 0H112V1386H551Q658 1386 753 1369T923 1311T1039 1202T1082 1032Q1082 949 1047 889T954 790T828 734Q902 722 974 688T1094 585T1142 406Z" />
<glyph unicode="C" horiz-adv-x="1200" d="M716 1421Q865 1421 969 1382T1161 1270L1000 1076Q943 1123 874 1150T724 1178Q637 1178 565 1129T450 973T407 696Q407 529 448 424T563 269T730 219Q834 219 903 258T1030 343L1179 153Q1101 76 987 21T712 -34Q524
-34 379 49T151 295T68 696Q68 928 153 1090T386 1336T716 1421Z" />
<glyph unicode="D" horiz-adv-x="1200" d="M809 700Q809 840 786 928T721 1064T623 1130T502 1148H432V237H502Q570 237 626 258T724 331T787 473T809 700ZM1149 700Q1149 489 1094 352T943 139T728 31T478 0H104V1386H454Q587 1386 711 1359T934 1258T1091 1050T1149
700Z" />
<glyph unicode="E" horiz-adv-x="1200" d="M514 1152V819H994V589H514V235H1093V0H186V1386H1092L1059 1152H514Z" />
<glyph unicode="F" horiz-adv-x="1200" d="M545 1152V785H1031V550H545V0H216V1386H1127L1093 1152H545Z" />
<glyph unicode="G" horiz-adv-x="1200" d="M651 -34Q454 -34 319 49T115 295T45 696Q45 873 94 1008T232 1235T437 1374T689 1421Q841 1421 945 1374T1130 1250L958 1072Q895 1128 837 1155T705 1182Q635 1182 577 1155T475 1069T407 918T383 694Q383 513 412
406T502 253T654 206Q703 206 746 217T826 248V565H652L620 795H1136V106Q1032 42 913 4T651 -34Z" />
<glyph unicode="H" horiz-adv-x="1200" d="M768 0V584H432V0H104V1386H432V854H768V1386H1096V0H768Z" />
<glyph unicode="I" horiz-adv-x="1200" d="M1050 1386V1146H764V241H1050V0H150V241H436V1146H150V1386H1050Z" />
<glyph unicode="J" horiz-adv-x="1200" d="M1054 1386V499Q1054 378 1017 280T909 113T734 7T497 -30Q363 -30 266 4T78 100L203 302Q274 253 336 234T477 214Q584 214 655 282T727 495V1146H301V1386H1054Z" />
<glyph unicode="K" horiz-adv-x="1200" d="M446 0H118V1386H446V0ZM456 740L835 1386H1179L787 764L1217 0H837L456 740Z" />
<glyph unicode="L" horiz-adv-x="1200" d="M186 0V1386H514V259H1115L1081 0H186Z" />
<glyph unicode="M" horiz-adv-x="1200" d="M1087 1386L1165 0H879L862 593Q860 676 860 741T863 863T869 979T879 1107L723 236H475L307 1107Q313 1041 317 983T324 865T327 739T326 588L316 0H35L113 1386H450L604 490L750 1386H1087Z" />
<glyph unicode="N" horiz-adv-x="1200" d="M698 0L333 1115Q340 1070 348 1007T365 866T378 701T383 523V0H104V1386H513L867 277Q856 340 845 427T825 623T817 855V1386H1096V0H698Z" />
<glyph unicode="O" horiz-adv-x="1200" d="M1155 694Q1155 474 1092 311T906 57T600 -34Q419 -34 295 54T108 306T45 694Q45 914 108 1077T295 1330T600 1421Q782 1421 905 1333T1092 1082T1155 694ZM819 694Q819 950 768 1066T600 1182Q483 1182 432 1066T381
694Q381 438 433 322T600 206Q720 206 769 323T819 694Z" />
<glyph unicode="P" horiz-adv-x="1200" d="M815 934Q815 1008 788 1056T705 1128T565 1152H453V699H582Q655 699 707 724T787 801T815 934ZM1153 935Q1153 774 1084 669T891 513T603 461H453V0H125V1386H561Q843 1386 998 1274T1153 935Z" />
<glyph unicode="Q" horiz-adv-x="1200" d="M1149 694Q1149 489 1086 326T857 79Q966 61 1043 26T1175 -76T1268 -255L1000 -346Q956 -242 905 -171T778 -64T580 -28Q407 -28 293 59T122 307T65 694Q65 914 124 1077T304 1330T606 1421Q788 1421 908 1333T1089
1082T1149 694ZM807 694Q807 948 766 1064T606 1180Q489 1180 447 1064T404 694Q404 440 447 323T606 206Q726 206 766 323T807 694Z" />
<glyph unicode="R" horiz-adv-x="1200" d="M1123 965Q1123 866 1086 792T986 667T845 585L1208 0H837L537 530H444V0H116V1386H552Q835 1386 979 1283T1123 965ZM785 965Q785 1065 727 1110T553 1156H444V755H566Q673 755 729 805T785 965Z" />
<glyph unicode="S" horiz-adv-x="1200" d="M1136 405Q1136 276 1069 177T875 22T572 -34Q376 -34 244 23T24 166L190 350Q267 283 360 247T564 210Q633 210 685 230T766 288T795 380Q795 431 772 466T695 529T543 586Q381 636 283 696T140 835T95 1019Q95 1146
165 1236T355 1373T617 1421Q778 1421 901 1375T1114 1242L959 1064Q889 1123 808 1151T643 1180Q581 1180 534 1165T461 1119T435 1044Q435 1000 460 970T547 914T719 852Q850 812 943 757T1086 617T1136 405Z" />
<glyph unicode="T" horiz-adv-x="1200" d="M762 1135V0H434V1135H45V1386H1167L1133 1135H762Z" />
<glyph unicode="U" horiz-adv-x="1200" d="M1116 1386V464Q1116 322 1059 210T887 32T600 -34Q427 -34 313 29T141 204T84 464V1386H413V586Q413 399 447 305T600 210Q719 210 753 304T787 586V1386H1116Z" />
<glyph unicode="V" horiz-adv-x="1200" d="M606 256L867 1386H1203L803 0H397L-1 1386H347L606 256Z" />
<glyph unicode="W" horiz-adv-x="1200" d="M1206 1386L1044 0H703L602 991L491 0H144L-6 1386H301L348 280L463 1226H745L852 280L921 1386H1206Z" />
<glyph unicode="X" horiz-adv-x="1200" d="M38 1386H391L600 941L814 1386H1160L792 750L1194 0H841L596 529L355 0H7L401 736L38 1386Z" />
<glyph unicode="Y" horiz-adv-x="1200" d="M764 520V0H436V518L-16 1386H343L606 789L871 1386H1216L764 520Z" />
<glyph unicode="Z" horiz-adv-x="1200" d="M464 261H1124L1090 0H78V245L736 1133H150V1386H1109V1139L464 261Z" />
<glyph unicode="[" horiz-adv-x="1200" d="M312 -246V1646H928V1410H610V-12H928V-246H312Z" />
<glyph unicode="\" horiz-adv-x="1200" d="M57 1521L304 1634L1143 -111L896 -224L57 1521Z" />
<glyph unicode="]" horiz-adv-x="1200" d="M888 1646V-246H272V-10H590V1410H272V1646H888Z" />
<glyph unicode="^" horiz-adv-x="1200" d="M744 1688L1122 1054H814L598 1452L390 1054H78L456 1688H744Z" />
<glyph unicode="_" horiz-adv-x="1200" d="M100 -372V-124H1100V-372H100Z" />
<glyph unicode="`" horiz-adv-x="1200" d="M797 1244L325 1432L448 1669L884 1404L797 1244Z" />
<glyph unicode="a" horiz-adv-x="1200" d="M1034 306Q1034 246 1050 219T1104 178L1039 -30Q945 -21 881 11T779 110Q718 37 623 2T429 -34Q265 -34 168 59T70 300Q70 473 205 567T587 661H730V701Q730 784 677 824T520 864Q469 864 389 850T229 808L156 1018Q259
1057 370 1077T570 1097Q807 1097 920 1001T1034 722V306ZM538 192Q589 192 645 222T730 309V481H652Q520 481 458 441T396 322Q396 261 433 227T538 192Z" />
<glyph unicode="b" horiz-adv-x="1200" d="M456 953Q506 1019 576 1058T728 1097Q865 1097 951 1028T1079 833T1120 534Q1120 370 1072 242T928 40T695 -34Q528 -34 432 96L420 0H140V1484L456 1517V953ZM612 196Q696 196 745 273T794 530Q794 662 774 734T716
835T628 864Q575 864 533 831T456 741V293Q486 246 523 221T612 196Z" />
<glyph unicode="c" horiz-adv-x="1200" d="M703 215Q768 215 825 240T940 306L1081 106Q1011 46 911 6T686 -34Q515 -34 392 36T203 232T137 524Q137 690 204 819T396 1023T692 1097Q813 1097 907 1064T1081 964L944 774Q890 812 830 833T705 854Q598 854 533
779T467 524Q467 407 498 340T582 244T703 215Z" />
<glyph unicode="d" horiz-adv-x="1200" d="M744 1517L1060 1484V0H780L764 117Q720 55 647 11T470 -34Q338 -34 252 37T123 235T80 534Q80 698 131 825T277 1024T503 1097Q574 1097 635 1072T744 999V1517ZM588 866Q506 866 456 789T406 532Q406 401 427 329T485
227T570 198Q623 198 666 231T744 321V779Q711 820 674 843T588 866Z" />
<glyph unicode="e" horiz-adv-x="1200" d="M414 439Q425 352 459 299T548 221T669 196Q742 196 810 220T941 284L1068 112Q993 48 887 7T644 -34Q462 -34 339 38T154 238T92 530Q92 687 152 815T327 1020T610 1097Q762 1097 873 1032T1046 845T1108 552Q1108 525
1107 494T1102 439H414ZM610 885Q525 885 473 824T410 629H800Q799 745 755 815T610 885Z" />
<glyph unicode="f" horiz-adv-x="1200" d="M816 1517Q932 1517 1021 1499T1180 1450L1093 1244Q1038 1265 980 1274T865 1284Q771 1284 731 1250T690 1137V995H1036L1001 776H690V0H376V776H153V995H376V1149Q376 1254 426 1337T574 1468T816 1517Z" />
<glyph unicode="g" horiz-adv-x="1200" d="M1083 1232L1157 1000Q1101 978 1026 968T851 958Q951 915 1003 852T1056 685Q1056 582 1001 502T845 375T606 329Q572 329 542 332T483 341Q466 332 457 315T448 280Q448 255 468 235T565 215H739Q863 215 953 175T1094
66T1144 -92Q1144 -255 1001 -349T576 -443Q372 -443 261 -402T106 -284T62 -102H342Q342 -148 360 -177T431 -221T584 -235Q685 -235 738 -219T810 -176T830 -114Q830 -67 793 -38T676 -9H507Q335 -9 257 54T179 203Q179 262 210 315T299 404Q197 458 153 531T109
708Q109 828 170 914T338 1048T584 1095Q703 1093 791 1111T949 1162T1083 1232ZM592 890Q517 890 473 843T429 712Q429 624 474 577T592 530Q671 530 712 577T754 716Q754 805 713 847T592 890Z" />
<glyph unicode="h" horiz-adv-x="1200" d="M456 1515V957Q523 1028 601 1062T768 1097Q910 1097 985 1014T1060 780V0H744V692Q744 788 723 826T642 864Q609 864 578 849T516 804T456 735V0H140V1484L456 1515Z" />
<glyph unicode="i" horiz-adv-x="1200" d="M789 1062V216H1059V0H172V216H473V846H182V1062H789ZM598 1618Q680 1618 732 1567T784 1440Q784 1364 732 1313T598 1261Q515 1261 463 1312T410 1440Q410 1516 462 1567T598 1618Z" />
<glyph unicode="j" horiz-adv-x="1200" d="M945 1062V308Q945 78 860 -70T606 -306T189 -443L139 -202Q300 -165 409 -110T573 39T629 288V846H247V1062H945ZM740 1618Q822 1618 874 1567T926 1440Q926 1364 874 1313T740 1261Q657 1261 605 1312T552 1440Q552
1516 604 1567T740 1618Z" />
<glyph unicode="k" horiz-adv-x="1200" d="M1148 1062L799 592L1177 0H817L468 582L817 1062H1148ZM456 1517V0H140V1484L456 1517Z" />
<glyph unicode="l" horiz-adv-x="1200" d="M694 1484V334Q694 270 730 243T831 215Q872 215 910 224T981 247L1057 36Q1003 8 927 -13T750 -34Q558 -34 468 76T378 373V1268H65V1484H694Z" />
<glyph unicode="m" horiz-adv-x="1200" d="M925 1097Q1001 1097 1050 1065T1123 965T1147 786V0H876V750Q876 806 866 829T823 852Q798 852 772 838T713 783V0H491V750Q491 806 481 829T438 852Q413 852 387 838T328 783V0H53V1062H285L306 959Q356 1027 407 1062T528
1097Q588 1097 630 1067T691 971Q739 1027 797 1062T925 1097Z" />
<glyph unicode="n" horiz-adv-x="1200" d="M140 0V1062H416L438 939Q509 1019 588 1058T768 1097Q904 1097 982 1014T1060 780V0H744V689Q744 754 735 792T704 847T642 864Q609 864 578 850T516 808T456 743V0H140Z" />
<glyph unicode="o" horiz-adv-x="1200" d="M600 1097Q764 1097 879 1027T1055 831T1116 534Q1116 357 1055 230T878 34T600 -34Q438 -34 323 33T146 227T84 532Q84 701 145 828T322 1026T600 1097ZM600 864Q503 864 457 785T410 532Q410 356 456 277T600 198Q697
198 743 277T790 534Q790 706 744 785T600 864Z" />
<glyph unicode="p" horiz-adv-x="1200" d="M728 1097Q867 1097 952 1028T1076 833T1116 534Q1116 370 1068 242T929 40T708 -34Q553 -34 456 77V-410L140 -443V1062H420L434 943Q499 1026 576 1061T728 1097ZM630 864Q575 864 533 831T456 741V293Q489 244 525
221T612 198Q696 198 743 274T790 530Q790 662 771 734T716 835T630 864Z" />
<glyph unicode="q" horiz-adv-x="1200" d="M509 1097Q588 1097 655 1067T770 977L784 1062H1060V-443L744 -410V89Q698 34 632 0T472 -34Q336 -34 250 36T124 234T84 534Q84 698 133 825T278 1024T509 1097ZM592 866Q505 866 458 789T410 532Q410 401 430 329T486
229T572 200Q627 200 669 232T744 321V779Q713 820 677 843T592 866Z" />
<glyph unicode="r" horiz-adv-x="1200" d="M150 0V212H290V852H150V1062H531L589 823Q646 960 734 1027T951 1094Q1005 1094 1047 1086T1126 1062L1030 801Q1001 809 972 813T908 817Q804 817 726 732T606 516V212H816V0H150ZM869 618V928L916 1062H1126L1067 618H869Z" />
<glyph unicode="s" horiz-adv-x="1200" d="M566 192Q645 192 693 217T742 292Q742 326 723 349T650 393T490 443Q393 469 319 509T203 612T161 769Q161 864 214 938T370 1054T622 1097Q764 1097 869 1061T1052 968L926 782Q860 823 784 847T631 872Q554 872 517
852T479 790Q479 763 498 744T572 704T730 653Q833 624 909 586T1028 485T1070 317Q1070 201 1001 123T818 5T568 -34Q414 -34 296 10T95 126L254 304Q316 256 394 224T566 192Z" />
<glyph unicode="t" horiz-adv-x="1200" d="M1096 62Q1034 22 946 -6T748 -34Q540 -34 439 72T338 362V844H115V1062H338V1292L654 1330V1062H996L965 844H654V362Q654 283 690 249T805 215Q861 215 907 228T991 263L1096 62Z" />
<glyph unicode="u" horiz-adv-x="1200" d="M456 1062V335Q456 258 484 229T564 200Q613 200 662 231T744 315V1062H1060V0H784L770 124Q716 46 628 6T444 -34Q290 -34 215 55T140 296V1062H456Z" />
<glyph unicode="v" horiz-adv-x="1200" d="M1142 1062L788 0H416L58 1062H399L606 242L822 1062H1142Z" />
<glyph unicode="w" horiz-adv-x="1200" d="M1042 0H693L602 714L507 0H164L7 1062H296L365 197L477 928H743L843 197L914 1062H1193L1042 0Z" />
<glyph unicode="x" horiz-adv-x="1200" d="M386 0H44L408 558L78 1062H432L602 722L766 1062H1102L790 570L1156 0H798L588 397L386 0Z" />
<glyph unicode="y" horiz-adv-x="1200" d="M1144 1062L790 0Q743 -141 666 -236T473 -384T195 -445L159 -222Q264 -209 328 -183T432 -113T501 0H393L56 1062H390L596 202L820 1062H1144Z" />
<glyph unicode="z" horiz-adv-x="1200" d="M517 239H1049L1019 0H144V223L671 824H188V1062H1039V840L517 239Z" />
<glyph unicode="{" horiz-adv-x="1200" d="M933 1680V1460Q872 1460 829 1450T764 1412T747 1333L778 1038Q790 926 754 857T643 752T467 700Q574 684 648 648T756 544T778 362L747 67Q742 17 763 -11T829 -49T933 -60V-280Q795 -280 699 -260T546 -197T467 -83T455
89L485 375Q493 451 460 494T361 554T211 572V828Q295 828 360 845T459 906T485 1025L455 1309Q444 1412 465 1483T544 1597T698 1660T933 1680Z" />
<glyph unicode="|" horiz-adv-x="1200" d="M746 1620V-210H452V1620H746Z" />
<glyph unicode="}" horiz-adv-x="1200" d="M267 1680Q405 1680 501 1660T654 1597T734 1483T745 1311L715 1025Q707 949 741 906T839 846T989 828V572Q905 572 840 555T741 494T715 375L745 91Q756 -12 735 -83T656 -197T502 -260T267 -280V-60Q328 -60 371 -50T436
-11T453 67L422 362Q410 475 446 543T558 648T734 700Q627 716 553 752T444 856T422 1038L453 1333Q458 1384 437 1411T372 1449T267 1460V1680Z" />
<glyph unicode="~" horiz-adv-x="1200" d="M406 860Q480 860 534 830T632 760T716 690T802 660Q859 660 899 700T980 817L1157 737Q1115 644 1065 573T949 462T794 421Q722 421 668 451T569 521T484 591T398 621Q340 621 300 579T220 465L43 544Q84 628 134 700T250
816T406 860Z" />
<glyph unicode="&#xa0;" horiz-adv-x="1200" />
<glyph unicode="&#xa1;" horiz-adv-x="1200" d="M726 479L770 -410H432L473 479H726ZM600 1023Q676 1023 728 969T781 841Q781 768 729 715T600 662Q526 662 473 715T419 841Q419 915 472 969T600 1023Z" />
<glyph unicode="&#xa2;" horiz-adv-x="1200" d="M785 1384V1085Q857 1074 921 1044T1043 966L906 776Q852 820 803 837T703 854Q600 854 544 779T487 524Q487 346 545 281T701 215Q754 215 798 233T900 294L1043 92Q985 46 921 17T785 -24V-322H557V-18Q365 20
261 165T157 524Q157 668 204 784T342 978T559 1082V1384H785Z" />
<glyph unicode="&#xa3;" horiz-adv-x="1200" d="M706 1421Q842 1421 942 1372T1116 1218L922 1078Q882 1137 837 1160T731 1184Q651 1184 607 1140T562 997V803H927V639H562V486Q562 410 537 347T434 239H1085L1047 0H84V228Q160 252 195 285T240 370T250 495V639H103V803H250V1005Q250
1125 302 1219T456 1367T706 1421Z" />
<glyph unicode="&#xa4;" horiz-adv-x="1200" d="M203 1224L366 1061Q416 1091 475 1105T602 1120Q667 1120 726 1106T836 1061L997 1222L1138 1081L981 922Q1011 873 1028 813T1046 684Q1046 614 1028 553T979 444L1138 285L997 146L836 303Q787 274 727 260T602
246Q536 246 476 260T364 303L203 142L62 283L223 446Q193 494 177 554T160 684Q160 752 175 812T221 922L62 1083L203 1224ZM602 906Q504 906 454 847T404 684Q404 578 454 519T602 460Q699 460 747 519T796 684Q796 788 748 847T602 906Z" />
<glyph unicode="&#xa5;" horiz-adv-x="1200" d="M1184 1386L829 704H1028V541H760V404H1028V239H760V0H444V239H179V404H444V541H179V704H372L16 1386H352L604 816H612L858 1386H1184Z" />
<glyph unicode="&#xa6;" horiz-adv-x="1200" d="M746 1620V892H452V1620H746ZM746 518V-210H452V518H746Z" />
<glyph unicode="&#xa7;" horiz-adv-x="1200" d="M638 1421Q748 1421 846 1391T1023 1310L911 1125Q848 1164 784 1183T651 1202Q581 1202 545 1176T508 1108Q508 1076 524 1053T589 1007T740 953Q883 910 963 841T1044 641Q1044 555 998 491T886 384Q940 342 969
286T999 156Q999 61 944 -12T790 -126T554 -167Q434 -167 338 -137T167 -55L275 139Q339 98 403 76T539 53Q613 53 654 79T696 146Q696 178 681 201T615 248T458 305Q315 349 236 417T156 615Q156 701 204 764T319 869Q263 913 233 970T203 1096Q203 1190 256 1263T407
1379T638 1421ZM484 787Q456 756 445 723T433 660Q433 617 455 589T538 535T714 469Q740 502 753 536T767 600Q767 641 745 668T662 721T484 787Z" />
<glyph unicode="&#xa8;" horiz-adv-x="1200" d="M369 1275Q300 1275 252 1321T204 1435Q204 1502 252 1548T369 1594Q439 1594 486 1548T533 1435Q533 1367 486 1321T369 1275ZM831 1275Q764 1275 716 1321T667 1435Q667 1502 715 1548T831 1594Q901 1594 948
1548T996 1435Q996 1367 949 1321T831 1275Z" />
<glyph unicode="&#xa9;" horiz-adv-x="1200" d="M602 1517Q787 1517 916 1428T1114 1187T1183 849Q1183 663 1115 512T917 273T602 184Q412 184 282 272T84 512T17 849Q17 1036 86 1187T287 1427T602 1517ZM620 1244Q694 1244 749 1221T852 1149L754 1027Q727
1049 701 1060T641 1072Q584 1072 546 1022T508 851Q508 732 544 682T641 632Q682 632 714 648T772 686L862 555Q816 512 757 484T622 455Q465 455 374 558T282 851Q282 974 325 1062T445 1197T620 1244ZM602 1378Q457 1378 365 1307T228 1115T184 849Q184 704
228 585T364 394T602 323Q746 323 838 394T974 584T1018 849Q1018 995 975 1115T839 1306T602 1378Z" />
<glyph unicode="&#xaa;" horiz-adv-x="1200" d="M582 1517Q790 1517 877 1439T965 1212V884Q965 841 979 820T1025 788L963 612Q877 621 824 647T741 728Q692 670 623 639T473 608Q335 608 251 685T167 886Q167 1023 280 1101T601 1179H707V1204Q707 1275 669
1298T542 1321Q505 1321 442 1310T308 1275L243 1456Q335 1488 424 1502T582 1517ZM1027 216V0H200V216H1027ZM707 1015H644Q540 1015 496 986T452 896Q452 846 477 820T552 794Q596 794 637 820T707 889V1015Z" />
<glyph unicode="&#xab;" horiz-adv-x="1200" d="M626 149L444 34L104 473V673L444 1113L626 998L395 574L626 149ZM1096 149L914 34L572 473V673L914 1113L1096 998L865 574L1096 149Z" />
<glyph unicode="&#xac;" horiz-adv-x="1200" d="M1034 758V208H773V515H166V758H1034Z" />
<glyph unicode="&#xad;" horiz-adv-x="1200" d="M270 503V749H930V503H270Z" />
<glyph unicode="&#xae;" horiz-adv-x="1200" d="M602 1517Q758 1517 881 1445T1077 1249T1149 968Q1149 814 1077 691T882 495T602 423Q445 423 320 495T122 690T49 968Q49 1124 121 1248T319 1445T602 1517ZM602 1384Q487 1384 397 1329T256 1180T204 968Q204
852 255 759T397 612T602 558Q716 558 804 612T943 759T994 968Q994 1086 944 1180T805 1329T602 1384ZM560 1270Q828 1270 828 1094Q828 1037 795 998T711 938L866 702H701L576 908H530V702H386V1270H560ZM574 1163H530V1024H576Q626 1024 653 1041T681 1098Q681
1163 574 1163Z" />
<glyph unicode="&#xaf;" horiz-adv-x="1200" d="M905 1315H295V1535H905V1315Z" />
<glyph unicode="&#xb0;" horiz-adv-x="1200" d="M499 1517Q587 1517 669 1478T803 1363T856 1180Q856 1073 804 997T669 880T499 839Q411 839 329 879T195 996T142 1180Q142 1287 194 1362T329 1477T499 1517ZM499 1335Q436 1335 398 1293T360 1180Q360 1109 398
1066T499 1023Q562 1023 600 1066T638 1180Q638 1251 600 1293T499 1335Z" />
<glyph unicode="&#xb1;" horiz-adv-x="1200" d="M733 1117V803H1034V564H733V349H467V564H166V803H467V1117H733ZM1034 239V0H166V239H1034Z" />
<glyph unicode="&#xb2;" horiz-adv-x="1200" d="M886 1076Q886 1019 861 974T773 886T600 795H909L884 630H314V777Q460 857 531 904T625 983T648 1048Q648 1079 627 1099T567 1119Q529 1119 498 1104T431 1048L290 1152Q410 1284 602 1284Q742 1284 814 1222T886 1076Z" />
<glyph unicode="&#xb3;" horiz-adv-x="1200" d="M612 1284Q747 1284 819 1234T892 1106Q892 1048 858 1015T753 966Q839 953 880 919T922 816Q922 725 833 672T592 618Q502 618 417 643T271 728L400 837Q445 804 487 791T584 777Q634 777 660 793T686 840Q686
866 665 881T587 897H481L507 1025H586Q623 1025 642 1038T662 1072Q662 1125 585 1125Q535 1125 496 1113T406 1069L293 1182Q359 1235 438 1259T612 1284Z" />
<glyph unicode="&#xb4;" horiz-adv-x="1200" d="M752 1670L875 1432L403 1245L316 1405L752 1670Z" />
<glyph unicode="&#xb5;" horiz-adv-x="1200" d="M1048 1062V377Q1048 275 1055 181T1073 0L788 -28Q781 1 774 41T761 127Q718 56 661 13T532 -30Q476 -30 440 -10T359 66Q394 -5 413 -69T432 -230V-410L133 -442V1062H447V458Q447 374 453 318T482 233T557 204Q610
204 654 235T732 317V1062H1048Z" />
<glyph unicode="&#xb6;" horiz-adv-x="1200" d="M1163 1386V-420L898 -442V1172H732V-420L467 -442V529Q325 542 229 596T85 742T37 956Q37 1081 93 1178T262 1330T541 1386H1163Z" />
<glyph unicode="&#xb7;" horiz-adv-x="1200" d="M377 684Q377 745 407 795T488 876T600 907Q662 907 712 877T793 796T823 684Q823 624 793 573T713 492T600 461Q539 461 488 491T407 573T377 684Z" />
<glyph unicode="&#xb8;" horiz-adv-x="1200" d="M639 -290Q639 -250 593 -237T455 -223L483 32H659V-96Q764 -108 815 -160T867 -294Q867 -362 830 -414T726 -495T568 -525Q497 -525 436 -506T333 -463L407 -318Q436 -333 469 -342T535 -352Q583 -352 611 -338T639 -290Z" />
<glyph unicode="&#xb9;" horiz-adv-x="1200" d="M617 630V1052L460 971L355 1114L651 1272H843V630H617Z" />
<glyph unicode="&#xba;" horiz-adv-x="1200" d="M600 1517Q738 1517 837 1458T989 1297T1043 1064Q1043 929 990 826T837 666T600 608Q462 608 363 665T210 825T157 1064Q157 1193 210 1295T363 1457T600 1517ZM1013 216V0H187V216H1013ZM600 1321Q523 1321 479
1262T434 1064Q434 924 478 865T600 806Q677 806 721 865T766 1064Q766 1203 722 1262T600 1321Z" />
<glyph unicode="&#xbb;" horiz-adv-x="1200" d="M803 574L572 998L754 1113L1096 673V473L754 34L572 149L803 574ZM335 574L104 998L285 1113L626 673V473L285 34L104 149L335 574Z" />
<glyph unicode="&#xbc;" horiz-adv-x="1200" d="M227 742V1164L70 1083L-35 1226L261 1384H453V742H227ZM112 350L28 501L1098 1013L1180 862L112 350ZM1149 112V0H940V112H579V243L819 660L1010 596L813 261H944L974 420H1149V261H1235V112H1149Z" />
<glyph unicode="&#xbd;" horiz-adv-x="1200" d="M221 742V1164L64 1083L-41 1226L255 1384H447V742H221ZM104 350L20 501L1090 1013L1172 862L104 350ZM1216 446Q1216 389 1191 344T1103 256T930 165H1239L1214 0H644V147Q790 227 861 274T955 353T978 418Q978
449 957 469T897 489Q859 489 828 474T761 418L620 522Q740 654 932 654Q1072 654 1144 592T1216 446Z" />
<glyph unicode="&#xbe;" horiz-adv-x="1200" d="M314 1396Q449 1396 521 1346T594 1218Q594 1160 560 1127T455 1078Q541 1065 582 1031T624 928Q624 837 535 784T294 730Q204 730 119 755T-27 840L102 949Q147 916 189 903T286 889Q336 889 362 905T388 952Q388
978 367 993T289 1009H183L209 1137H288Q325 1137 344 1150T364 1184Q364 1237 287 1237Q237 1237 198 1225T108 1181L-5 1294Q61 1347 140 1371T314 1396ZM122 350L38 501L1108 1013L1190 862L122 350ZM1143 112V0H934V112H573V243L813 660L1004 596L807 261H938L968
420H1143V261H1229V112H1143Z" />
<glyph unicode="&#xbf;" horiz-adv-x="1200" d="M634 1023Q709 1023 762 969T815 841Q815 768 762 715T634 662Q558 662 506 715T454 841Q454 915 506 969T634 1023ZM781 479V415Q781 312 748 247T666 140T568 67T485 3T452 -81Q452 -136 496 -165T612 -194Q680
-194 743 -164T861 -74L1063 -228Q978 -328 859 -385T581 -443Q430 -443 328 -397T174 -274T122 -108Q122 -11 159 50T252 153T363 232T456 316T494 438V479H781Z" />
<glyph unicode="&#xc0;" horiz-adv-x="1200" d="M800 299H394L321 0H-22L402 1386H800L1224 0H873L800 299ZM446 537H746L596 1150L446 537ZM700 1906L1131 1662L1055 1502L581 1670L700 1906Z" />
<glyph unicode="&#xc1;" horiz-adv-x="1200" d="M800 299H394L321 0H-22L402 1386H800L1224 0H873L800 299ZM446 537H746L596 1150L446 537ZM1012 1905L1131 1670L656 1502L581 1662L1012 1905Z" />
<glyph unicode="&#xc2;" horiz-adv-x="1200" d="M800 299H394L321 0H-22L402 1386H800L1224 0H873L800 299ZM446 537H746L596 1150L446 537ZM697 1886L979 1625L866 1497L600 1666L334 1497L219 1625L503 1886H697Z" />
<glyph unicode="&#xc3;" horiz-adv-x="1200" d="M800 299H394L321 0H-22L402 1386H800L1224 0H873L800 299ZM446 537H746L596 1150L446 537ZM968 1519Q910 1519 872 1541T803 1586T740 1609Q703 1609 681 1587T634 1521L475 1599Q513 1694 578 1764T734 1835Q795
1835 834 1813T902 1768T966 1745Q999 1745 1022 1766T1070 1831L1229 1753Q1190 1653 1124 1586T968 1519Z" />
<glyph unicode="&#xc4;" horiz-adv-x="1200" d="M800 299H394L321 0H-22L402 1386H800L1224 0H873L800 299ZM446 537H746L596 1150L446 537ZM625 1525Q556 1525 508 1571T460 1685Q460 1752 508 1798T625 1844Q695 1844 742 1798T789 1685Q789 1617 742 1571T625
1525ZM1087 1525Q1020 1525 972 1571T923 1685Q923 1752 971 1798T1087 1844Q1157 1844 1204 1798T1252 1685Q1252 1617 1205 1571T1087 1525Z" />
<glyph unicode="&#xc5;" horiz-adv-x="1200" d="M800 299H394L321 0H-22L402 1386H800L1224 0H873L800 299ZM446 537H746L596 1150L446 537ZM854 1980Q984 1980 1058 1902T1133 1717Q1133 1647 1100 1587T1004 1490T854 1453Q769 1453 707 1489T612 1586T578 1717Q578
1824 652 1902T854 1980ZM854 1816Q815 1816 791 1792T766 1717Q766 1666 790 1642T854 1617Q895 1617 920 1641T945 1717Q945 1767 920 1791T854 1816Z" />
<glyph unicode="&#xc6;" horiz-adv-x="1200" d="M627 305H345L290 0H-24L325 1386H1130L1096 1164H732L798 813H1112V591H838L909 222H1206V0H676L627 305ZM382 529H593L490 1166L382 529Z" />
<glyph unicode="&#xc7;" horiz-adv-x="1200" d="M716 1421Q865 1421 969 1382T1161 1270L1000 1076Q943 1123 874 1150T724 1178Q637 1178 565 1129T450 973T407 696Q407 529 448 424T563 269T730 219Q834 219 903 258T1030 343L1179 153Q1101 76 987 21T712 -34Q524
-34 379 49T151 295T68 696Q68 928 153 1090T386 1336T716 1421ZM743 -290Q743 -250 697 -237T559 -223L587 32H763V-96Q868 -108 919 -160T971 -294Q971 -362 934 -414T830 -495T672 -525Q601 -525 540 -506T437 -463L511 -318Q540 -333 573 -342T639 -352Q687
-352 715 -338T743 -290Z" />
<glyph unicode="&#xc8;" horiz-adv-x="1200" d="M514 1152V819H994V589H514V235H1093V0H186V1386H1092L1059 1152H514ZM484 1906L915 1662L839 1502L365 1670L484 1906Z" />
<glyph unicode="&#xc9;" horiz-adv-x="1200" d="M514 1152V819H994V589H514V235H1093V0H186V1386H1092L1059 1152H514ZM796 1905L915 1670L440 1502L365 1662L796 1905Z" />
<glyph unicode="&#xca;" horiz-adv-x="1200" d="M514 1152V819H994V589H514V235H1093V0H186V1386H1092L1059 1152H514ZM737 1886L1019 1625L906 1497L640 1666L374 1497L259 1625L543 1886H737Z" />
<glyph unicode="&#xcb;" horiz-adv-x="1200" d="M514 1152V819H994V589H514V235H1093V0H186V1386H1092L1059 1152H514ZM409 1525Q340 1525 292 1571T244 1685Q244 1752 292 1798T409 1844Q479 1844 526 1798T573 1685Q573 1617 526 1571T409 1525ZM871 1525Q804
1525 756 1571T707 1685Q707 1752 755 1798T871 1844Q941 1844 988 1798T1036 1685Q1036 1617 989 1571T871 1525Z" />
<glyph unicode="&#xcc;" horiz-adv-x="1200" d="M1050 1386V1146H764V241H1050V0H150V241H436V1146H150V1386H1050ZM700 1906L1131 1662L1055 1502L581 1670L700 1906Z" />
<glyph unicode="&#xcd;" horiz-adv-x="1200" d="M1050 1386V1146H764V241H1050V0H150V241H436V1146H150V1386H1050ZM1012 1905L1131 1670L656 1502L581 1662L1012 1905Z" />
<glyph unicode="&#xce;" horiz-adv-x="1200" d="M1050 1386V1146H764V241H1050V0H150V241H436V1146H150V1386H1050ZM697 1886L979 1625L866 1497L600 1666L334 1497L219 1625L503 1886H697Z" />
<glyph unicode="&#xcf;" horiz-adv-x="1200" d="M1050 1386V1146H764V241H1050V0H150V241H436V1146H150V1386H1050ZM625 1525Q556 1525 508 1571T460 1685Q460 1752 508 1798T625 1844Q695 1844 742 1798T789 1685Q789 1617 742 1571T625 1525ZM1087 1525Q1020
1525 972 1571T923 1685Q923 1752 971 1798T1087 1844Q1157 1844 1204 1798T1252 1685Q1252 1617 1205 1571T1087 1525Z" />
<glyph unicode="&#xd0;" horiz-adv-x="1200" d="M697 805V607H19V805H697ZM835 700Q835 840 812 928T747 1064T649 1130T528 1148H458V237H528Q596 237 652 258T750 331T813 473T835 700ZM1175 700Q1175 489 1120 352T969 139T754 31T504 0H130V1386H480Q613 1386
737 1359T960 1258T1117 1050T1175 700Z" />
<glyph unicode="&#xd1;" horiz-adv-x="1200" d="M698 0L333 1115Q340 1070 348 1007T365 866T378 701T383 523V0H104V1386H513L867 277Q856 340 845 427T825 623T817 855V1386H1096V0H698ZM731 1519Q673 1519 635 1541T566 1586T503 1609Q466 1609 444 1587T397
1521L238 1599Q276 1694 341 1764T497 1835Q558 1835 597 1813T665 1768T729 1745Q762 1745 785 1766T833 1831L992 1753Q953 1653 887 1586T731 1519Z" />
<glyph unicode="&#xd2;" horiz-adv-x="1200" d="M1155 694Q1155 474 1092 311T906 57T600 -34Q419 -34 295 54T108 306T45 694Q45 914 108 1077T295 1330T600 1421Q782 1421 905 1333T1092 1082T1155 694ZM819 694Q819 950 768 1066T600 1182Q483 1182 432 1066T381
694Q381 438 433 322T600 206Q720 206 769 323T819 694ZM700 1906L1131 1662L1055 1502L581 1670L700 1906Z" />
<glyph unicode="&#xd3;" horiz-adv-x="1200" d="M1155 694Q1155 474 1092 311T906 57T600 -34Q419 -34 295 54T108 306T45 694Q45 914 108 1077T295 1330T600 1421Q782 1421 905 1333T1092 1082T1155 694ZM819 694Q819 950 768 1066T600 1182Q483 1182 432 1066T381
694Q381 438 433 322T600 206Q720 206 769 323T819 694ZM1012 1905L1131 1670L656 1502L581 1662L1012 1905Z" />
<glyph unicode="&#xd4;" horiz-adv-x="1200" d="M1155 694Q1155 474 1092 311T906 57T600 -34Q419 -34 295 54T108 306T45 694Q45 914 108 1077T295 1330T600 1421Q782 1421 905 1333T1092 1082T1155 694ZM819 694Q819 950 768 1066T600 1182Q483 1182 432 1066T381
694Q381 438 433 322T600 206Q720 206 769 323T819 694ZM697 1886L979 1625L866 1497L600 1666L334 1497L219 1625L503 1886H697Z" />
<glyph unicode="&#xd5;" horiz-adv-x="1200" d="M1155 694Q1155 474 1092 311T906 57T600 -34Q419 -34 295 54T108 306T45 694Q45 914 108 1077T295 1330T600 1421Q782 1421 905 1333T1092 1082T1155 694ZM819 694Q819 950 768 1066T600 1182Q483 1182 432 1066T381
694Q381 438 433 322T600 206Q720 206 769 323T819 694ZM968 1519Q910 1519 872 1541T803 1586T740 1609Q703 1609 681 1587T634 1521L475 1599Q513 1694 578 1764T734 1835Q795 1835 834 1813T902 1768T966 1745Q999 1745 1022 1766T1070 1831L1229 1753Q1190
1653 1124 1586T968 1519Z" />
<glyph unicode="&#xd6;" horiz-adv-x="1200" d="M1155 694Q1155 474 1092 311T906 57T600 -34Q419 -34 295 54T108 306T45 694Q45 914 108 1077T295 1330T600 1421Q782 1421 905 1333T1092 1082T1155 694ZM819 694Q819 950 768 1066T600 1182Q483 1182 432 1066T381
694Q381 438 433 322T600 206Q720 206 769 323T819 694ZM625 1525Q556 1525 508 1571T460 1685Q460 1752 508 1798T625 1844Q695 1844 742 1798T789 1685Q789 1617 742 1571T625 1525ZM1087 1525Q1020 1525 972 1571T923 1685Q923 1752 971 1798T1087 1844Q1157
1844 1204 1798T1252 1685Q1252 1617 1205 1571T1087 1525Z" />
<glyph unicode="&#xd7;" horiz-adv-x="1200" d="M830 1019L1005 844L770 614L1005 384L830 209L600 444L370 209L195 384L430 614L195 844L370 1019L600 784L830 1019Z" />
<glyph unicode="&#xd8;" horiz-adv-x="1200" d="M600 1421Q772 1421 896 1333T1088 1082T1155 694Q1155 474 1092 311T906 57T600 -34Q428 -34 304 54T112 306T45 694Q45 914 108 1077T295 1330T600 1421ZM761 1606L983 1541L907 1300L797 1088L539 203L505 8L439
-218L217 -153L303 125L413 324L681 1235L695 1386L761 1606ZM600 1188Q477 1188 423 1071T369 694Q369 520 392 411T466 251T600 200Q726 200 778 318T831 694Q831 868 809 977T735 1137T600 1188Z" />
<glyph unicode="&#xd9;" horiz-adv-x="1200" d="M1116 1386V464Q1116 322 1059 210T887 32T600 -34Q427 -34 313 29T141 204T84 464V1386H413V586Q413 399 447 305T600 210Q719 210 753 304T787 586V1386H1116ZM700 1906L1131 1662L1055 1502L581 1670L700 1906Z" />
<glyph unicode="&#xda;" horiz-adv-x="1200" d="M1116 1386V464Q1116 322 1059 210T887 32T600 -34Q427 -34 313 29T141 204T84 464V1386H413V586Q413 399 447 305T600 210Q719 210 753 304T787 586V1386H1116ZM1012 1905L1131 1670L656 1502L581 1662L1012 1905Z" />
<glyph unicode="&#xdb;" horiz-adv-x="1200" d="M1116 1386V464Q1116 322 1059 210T887 32T600 -34Q427 -34 313 29T141 204T84 464V1386H413V586Q413 399 447 305T600 210Q719 210 753 304T787 586V1386H1116ZM697 1886L979 1625L866 1497L600 1666L334 1497L219
1625L503 1886H697Z" />
<glyph unicode="&#xdc;" horiz-adv-x="1200" d="M1116 1386V464Q1116 322 1059 210T887 32T600 -34Q427 -34 313 29T141 204T84 464V1386H413V586Q413 399 447 305T600 210Q719 210 753 304T787 586V1386H1116ZM625 1525Q556 1525 508 1571T460 1685Q460 1752
508 1798T625 1844Q695 1844 742 1798T789 1685Q789 1617 742 1571T625 1525ZM1087 1525Q1020 1525 972 1571T923 1685Q923 1752 971 1798T1087 1844Q1157 1844 1204 1798T1252 1685Q1252 1617 1205 1571T1087 1525Z" />
<glyph unicode="&#xdd;" horiz-adv-x="1200" d="M764 520V0H436V518L-16 1386H343L606 789L871 1386H1216L764 520ZM1012 1905L1131 1670L656 1502L581 1662L1012 1905Z" />
<glyph unicode="&#xde;" horiz-adv-x="1200" d="M448 1386V1162H559Q840 1162 996 1050T1153 708Q1153 545 1087 440T897 284T602 233H448V0H119V1386H448ZM567 928H448V470H581Q653 470 704 493T783 567T811 706Q811 823 749 875T567 928Z" />
<glyph unicode="&#xdf;" horiz-adv-x="1200" d="M582 1517Q776 1517 881 1427T987 1206Q987 1151 969 1112T923 1042T870 985T825 930T806 864Q806 818 841 783T928 712T1032 629T1120 511T1155 336Q1155 218 1103 136T959 10T752 -34Q676 -34 614 -17T498 28L599
240Q629 225 657 217T712 209Q771 209 800 241T829 334Q829 389 808 427T752 496T680 555T607 618T552 698T530 809Q530 863 545 904T583 980T628 1047T665 1114T681 1192Q681 1225 668 1248T632 1284T574 1296Q500 1296 468 1242T436 1076V0H120V1062Q120 1277
237 1397T582 1517Z" />
<glyph unicode="&#xe0;" horiz-adv-x="1200" d="M1034 306Q1034 246 1050 219T1104 178L1039 -30Q945 -21 881 11T779 110Q718 37 623 2T429 -34Q265 -34 168 59T70 300Q70 473 205 567T587 661H730V701Q730 784 677 824T520 864Q469 864 389 850T229 808L156
1018Q259 1057 370 1077T570 1097Q807 1097 920 1001T1034 722V306ZM538 192Q589 192 645 222T730 309V481H652Q520 481 458 441T396 322Q396 261 433 227T538 192ZM1039 1244L567 1432L690 1669L1126 1404L1039 1244Z" />
<glyph unicode="&#xe1;" horiz-adv-x="1200" d="M1034 306Q1034 246 1050 219T1104 178L1039 -30Q945 -21 881 11T779 110Q718 37 623 2T429 -34Q265 -34 168 59T70 300Q70 473 205 567T587 661H730V701Q730 784 677 824T520 864Q469 864 389 850T229 808L156
1018Q259 1057 370 1077T570 1097Q807 1097 920 1001T1034 722V306ZM538 192Q589 192 645 222T730 309V481H652Q520 481 458 441T396 322Q396 261 433 227T538 192ZM994 1670L1117 1432L645 1245L558 1405L994 1670Z" />
<glyph unicode="&#xe2;" horiz-adv-x="1200" d="M1034 306Q1034 246 1050 219T1104 178L1039 -30Q945 -21 881 11T779 110Q718 37 623 2T429 -34Q265 -34 168 59T70 300Q70 473 205 567T587 661H730V701Q730 784 677 824T520 864Q469 864 389 850T229 808L156
1018Q259 1057 370 1077T570 1097Q807 1097 920 1001T1034 722V306ZM538 192Q589 192 645 222T730 309V481H652Q520 481 458 441T396 322Q396 261 433 227T538 192ZM577 1223L461 1352L745 1631H939L1221 1352L1108 1223L842 1411L577 1223Z" />
<glyph unicode="&#xe3;" horiz-adv-x="1200" d="M1034 306Q1034 246 1050 219T1104 178L1039 -30Q945 -21 881 11T779 110Q718 37 623 2T429 -34Q265 -34 168 59T70 300Q70 473 205 567T587 661H730V701Q730 784 677 824T520 864Q469 864 389 850T229 808L156
1018Q259 1057 370 1077T570 1097Q807 1097 920 1001T1034 722V306ZM538 192Q589 192 645 222T730 309V481H652Q520 481 458 441T396 322Q396 261 433 227T538 192ZM954 1269Q896 1269 858 1291T789 1336T726 1359Q689 1359 667 1337T620 1271L461 1349Q499 1444
564 1514T720 1585Q781 1585 820 1563T888 1518T952 1495Q985 1495 1008 1516T1056 1581L1215 1503Q1176 1403 1110 1336T954 1269Z" />
<glyph unicode="&#xe4;" horiz-adv-x="1200" d="M1034 306Q1034 246 1050 219T1104 178L1039 -30Q945 -21 881 11T779 110Q718 37 623 2T429 -34Q265 -34 168 59T70 300Q70 473 205 567T587 661H730V701Q730 784 677 824T520 864Q469 864 389 850T229 808L156
1018Q259 1057 370 1077T570 1097Q807 1097 920 1001T1034 722V306ZM538 192Q589 192 645 222T730 309V481H652Q520 481 458 441T396 322Q396 261 433 227T538 192ZM611 1275Q542 1275 494 1321T446 1435Q446 1502 494 1548T611 1594Q681 1594 728 1548T775 1435Q775
1367 728 1321T611 1275ZM1073 1275Q1006 1275 958 1321T909 1435Q909 1502 957 1548T1073 1594Q1143 1594 1190 1548T1238 1435Q1238 1367 1191 1321T1073 1275Z" />
<glyph unicode="&#xe5;" horiz-adv-x="1200" d="M1034 306Q1034 246 1050 219T1104 178L1039 -30Q945 -21 881 11T779 110Q718 37 623 2T429 -34Q265 -34 168 59T70 300Q70 473 205 567T587 661H730V701Q730 784 677 824T520 864Q469 864 389 850T229 808L156
1018Q259 1057 370 1077T570 1097Q807 1097 920 1001T1034 722V306ZM538 192Q589 192 645 222T730 309V481H652Q520 481 458 441T396 322Q396 261 433 227T538 192ZM840 1730Q970 1730 1044 1652T1119 1467Q1119 1397 1086 1337T990 1240T840 1203Q755 1203 693
1239T598 1336T564 1467Q564 1574 638 1652T840 1730ZM840 1566Q801 1566 777 1542T752 1467Q752 1416 776 1392T840 1367Q881 1367 906 1391T931 1467Q931 1517 906 1541T840 1566Z" />
<glyph unicode="&#xe6;" horiz-adv-x="1200" d="M856 1097Q1044 1097 1122 956T1200 552Q1200 500 1194 452H713Q727 310 774 242T906 174Q954 174 995 191T1080 239L1199 80Q1141 31 1065 -1T888 -34Q777 -34 699 10T569 135Q511 49 450 8T286 -34Q147 -34 68
61T-12 304Q-12 474 87 564T393 654H475V701Q475 803 429 853T297 903Q249 903 210 893T110 853L39 1026Q116 1060 182 1078T328 1097Q438 1097 502 1059T604 956Q640 1020 703 1058T856 1097ZM475 483H432Q333 483 293 440T252 318Q252 250 275 211T343 172Q386
172 419 203T483 296Q479 341 477 389T475 483ZM845 899Q783 899 751 840T713 623H962Q961 765 938 832T845 899Z" />
<glyph unicode="&#xe7;" horiz-adv-x="1200" d="M703 215Q768 215 825 240T940 306L1081 106Q1011 46 911 6T686 -34Q515 -34 392 36T203 232T137 524Q137 690 204 819T396 1023T692 1097Q813 1097 907 1064T1081 964L944 774Q890 812 830 833T705 854Q598 854
533 779T467 524Q467 407 498 340T582 244T703 215ZM717 -290Q717 -250 671 -237T533 -223L561 32H737V-96Q842 -108 893 -160T945 -294Q945 -362 908 -414T804 -495T646 -525Q575 -525 514 -506T411 -463L485 -318Q514 -333 547 -342T613 -352Q661 -352 689 -338T717
-290Z" />
<glyph unicode="&#xe8;" horiz-adv-x="1200" d="M414 439Q425 352 459 299T548 221T669 196Q742 196 810 220T941 284L1068 112Q993 48 887 7T644 -34Q462 -34 339 38T154 238T92 530Q92 687 152 815T327 1020T610 1097Q762 1097 873 1032T1046 845T1108 552Q1108
525 1107 494T1102 439H414ZM610 885Q525 885 473 824T410 629H800Q799 745 755 815T610 885ZM811 1244L339 1432L462 1669L898 1404L811 1244Z" />
<glyph unicode="&#xe9;" horiz-adv-x="1200" d="M414 439Q425 352 459 299T548 221T669 196Q742 196 810 220T941 284L1068 112Q993 48 887 7T644 -34Q462 -34 339 38T154 238T92 530Q92 687 152 815T327 1020T610 1097Q762 1097 873 1032T1046 845T1108 552Q1108
525 1107 494T1102 439H414ZM610 885Q525 885 473 824T410 629H800Q799 745 755 815T610 885ZM766 1670L889 1432L417 1245L330 1405L766 1670Z" />
<glyph unicode="&#xea;" horiz-adv-x="1200" d="M414 439Q425 352 459 299T548 221T669 196Q742 196 810 220T941 284L1068 112Q993 48 887 7T644 -34Q462 -34 339 38T154 238T92 530Q92 687 152 815T327 1020T610 1097Q762 1097 873 1032T1046 845T1108 552Q1108
525 1107 494T1102 439H414ZM610 885Q525 885 473 824T410 629H800Q799 745 755 815T610 885ZM349 1223L233 1352L517 1631H711L993 1352L880 1223L614 1411L349 1223Z" />
<glyph unicode="&#xeb;" horiz-adv-x="1200" d="M414 439Q425 352 459 299T548 221T669 196Q742 196 810 220T941 284L1068 112Q993 48 887 7T644 -34Q462 -34 339 38T154 238T92 530Q92 687 152 815T327 1020T610 1097Q762 1097 873 1032T1046 845T1108 552Q1108
525 1107 494T1102 439H414ZM610 885Q525 885 473 824T410 629H800Q799 745 755 815T610 885ZM383 1275Q314 1275 266 1321T218 1435Q218 1502 266 1548T383 1594Q453 1594 500 1548T547 1435Q547 1367 500 1321T383 1275ZM845 1275Q778 1275 730 1321T681 1435Q681
1502 729 1548T845 1594Q915 1594 962 1548T1010 1435Q1010 1367 963 1321T845 1275Z" />
<glyph unicode="&#xec;" horiz-adv-x="1200" d="M789 1062V216H1059V0H172V216H473V846H182V1062H789ZM1051 1244L579 1432L702 1669L1138 1404L1051 1244Z" />
<glyph unicode="&#xed;" horiz-adv-x="1200" d="M789 1062V216H1059V0H172V216H473V846H182V1062H789ZM1006 1670L1129 1432L657 1245L570 1405L1006 1670Z" />
<glyph unicode="&#xee;" horiz-adv-x="1200" d="M789 1062V216H1059V0H172V216H473V846H182V1062H789ZM589 1223L473 1352L757 1631H951L1233 1352L1120 1223L854 1411L589 1223Z" />
<glyph unicode="&#xef;" horiz-adv-x="1200" d="M789 1062V216H1059V0H172V216H473V846H182V1062H789ZM623 1275Q554 1275 506 1321T458 1435Q458 1502 506 1548T623 1594Q693 1594 740 1548T787 1435Q787 1367 740 1321T623 1275ZM1085 1275Q1018 1275 970 1321T921
1435Q921 1502 969 1548T1085 1594Q1155 1594 1202 1548T1250 1435Q1250 1367 1203 1321T1085 1275Z" />
<glyph unicode="&#xf0;" horiz-adv-x="1200" d="M252 1142L368 1263Q327 1277 282 1288T186 1310L248 1516Q331 1503 404 1485T540 1443L686 1595L848 1454L741 1346Q936 1222 1024 1022T1113 553Q1113 389 1053 256T875 45T588 -34Q445 -34 330 25T147 197T79
468Q79 616 138 727T296 901T509 964Q598 964 660 939T777 863Q743 966 689 1039T563 1164L452 1050L252 1142ZM793 513Q793 551 793 586T791 656Q753 698 702 720T592 742Q535 742 492 713T425 624T401 472Q401 326 453 261T594 196Q697 196 745 274T793 513Z"
/>
<glyph unicode="&#xf1;" horiz-adv-x="1200" d="M140 0V1062H416L438 939Q509 1019 588 1058T768 1097Q904 1097 982 1014T1060 780V0H744V689Q744 754 735 792T704 847T642 864Q609 864 578 850T516 808T456 743V0H140ZM714 1269Q656 1269 618 1291T549 1336T486
1359Q449 1359 427 1337T380 1271L221 1349Q259 1444 324 1514T480 1585Q541 1585 580 1563T648 1518T712 1495Q745 1495 768 1516T816 1581L975 1503Q936 1403 870 1336T714 1269Z" />
<glyph unicode="&#xf2;" horiz-adv-x="1200" d="M600 1097Q764 1097 879 1027T1055 831T1116 534Q1116 357 1055 230T878 34T600 -34Q438 -34 323 33T146 227T84 532Q84 701 145 828T322 1026T600 1097ZM600 864Q503 864 457 785T410 532Q410 356 456 277T600
198Q697 198 743 277T790 534Q790 706 744 785T600 864ZM797 1244L325 1432L448 1669L884 1404L797 1244Z" />
<glyph unicode="&#xf3;" horiz-adv-x="1200" d="M600 1097Q764 1097 879 1027T1055 831T1116 534Q1116 357 1055 230T878 34T600 -34Q438 -34 323 33T146 227T84 532Q84 701 145 828T322 1026T600 1097ZM600 864Q503 864 457 785T410 532Q410 356 456 277T600
198Q697 198 743 277T790 534Q790 706 744 785T600 864ZM752 1670L875 1432L403 1245L316 1405L752 1670Z" />
<glyph unicode="&#xf4;" horiz-adv-x="1200" d="M600 1097Q764 1097 879 1027T1055 831T1116 534Q1116 357 1055 230T878 34T600 -34Q438 -34 323 33T146 227T84 532Q84 701 145 828T322 1026T600 1097ZM600 864Q503 864 457 785T410 532Q410 356 456 277T600
198Q697 198 743 277T790 534Q790 706 744 785T600 864ZM335 1223L219 1352L503 1631H697L979 1352L866 1223L600 1411L335 1223Z" />
<glyph unicode="&#xf5;" horiz-adv-x="1200" d="M600 1097Q764 1097 879 1027T1055 831T1116 534Q1116 357 1055 230T878 34T600 -34Q438 -34 323 33T146 227T84 532Q84 701 145 828T322 1026T600 1097ZM600 864Q503 864 457 785T410 532Q410 356 456 277T600
198Q697 198 743 277T790 534Q790 706 744 785T600 864ZM712 1269Q654 1269 616 1291T547 1336T484 1359Q447 1359 425 1337T378 1271L219 1349Q257 1444 322 1514T478 1585Q539 1585 578 1563T646 1518T710 1495Q743 1495 766 1516T814 1581L973 1503Q934 1403
868 1336T712 1269Z" />
<glyph unicode="&#xf6;" horiz-adv-x="1200" d="M600 1097Q764 1097 879 1027T1055 831T1116 534Q1116 357 1055 230T878 34T600 -34Q438 -34 323 33T146 227T84 532Q84 701 145 828T322 1026T600 1097ZM600 864Q503 864 457 785T410 532Q410 356 456 277T600
198Q697 198 743 277T790 534Q790 706 744 785T600 864ZM369 1275Q300 1275 252 1321T204 1435Q204 1502 252 1548T369 1594Q439 1594 486 1548T533 1435Q533 1367 486 1321T369 1275ZM831 1275Q764 1275 716 1321T667 1435Q667 1502 715 1548T831 1594Q901 1594
948 1548T996 1435Q996 1367 949 1321T831 1275Z" />
<glyph unicode="&#xf7;" horiz-adv-x="1200" d="M1034 758V515H166V758H1034ZM600 389Q676 389 728 336T781 209Q781 134 729 81T600 28Q524 28 472 81T419 209Q419 283 471 336T600 389ZM600 1245Q676 1245 728 1192T781 1065Q781 992 729 939T600 886Q524 886
472 939T419 1065Q419 1139 471 1192T600 1245Z" />
<glyph unicode="&#xf8;" horiz-adv-x="1200" d="M600 1097Q764 1097 879 1027T1055 831T1116 534Q1116 357 1055 230T878 34T600 -34Q438 -34 323 33T146 227T84 532Q84 701 145 828T322 1026T600 1097ZM739 1326L969 1258L883 998L768 805L561 157L543 -14L463
-274L231 -206L322 66L432 244L643 904L657 1077L739 1326ZM600 870Q499 870 452 790T404 532Q404 402 420 328T480 223T600 192Q701 192 748 272T796 534Q796 662 780 735T721 839T600 870Z" />
<glyph unicode="&#xf9;" horiz-adv-x="1200" d="M456 1062V335Q456 258 484 229T564 200Q613 200 662 231T744 315V1062H1060V0H784L770 124Q716 46 628 6T444 -34Q290 -34 215 55T140 296V1062H456ZM797 1244L325 1432L448 1669L884 1404L797 1244Z" />
<glyph unicode="&#xfa;" horiz-adv-x="1200" d="M456 1062V335Q456 258 484 229T564 200Q613 200 662 231T744 315V1062H1060V0H784L770 124Q716 46 628 6T444 -34Q290 -34 215 55T140 296V1062H456ZM752 1670L875 1432L403 1245L316 1405L752 1670Z" />
<glyph unicode="&#xfb;" horiz-adv-x="1200" d="M456 1062V335Q456 258 484 229T564 200Q613 200 662 231T744 315V1062H1060V0H784L770 124Q716 46 628 6T444 -34Q290 -34 215 55T140 296V1062H456ZM335 1223L219 1352L503 1631H697L979 1352L866 1223L600 1411L335
1223Z" />
<glyph unicode="&#xfc;" horiz-adv-x="1200" d="M456 1062V335Q456 258 484 229T564 200Q613 200 662 231T744 315V1062H1060V0H784L770 124Q716 46 628 6T444 -34Q290 -34 215 55T140 296V1062H456ZM369 1275Q300 1275 252 1321T204 1435Q204 1502 252 1548T369
1594Q439 1594 486 1548T533 1435Q533 1367 486 1321T369 1275ZM831 1275Q764 1275 716 1321T667 1435Q667 1502 715 1548T831 1594Q901 1594 948 1548T996 1435Q996 1367 949 1321T831 1275Z" />
<glyph unicode="&#xfd;" horiz-adv-x="1200" d="M1144 1062L790 0Q743 -141 666 -236T473 -384T195 -445L159 -222Q264 -209 328 -183T432 -113T501 0H393L56 1062H390L596 202L820 1062H1144ZM752 1670L875 1432L403 1245L316 1405L752 1670Z" />
<glyph unicode="&#xfe;" horiz-adv-x="1200" d="M456 1517V955Q504 1023 574 1060T728 1097Q867 1097 952 1028T1076 833T1116 534Q1116 370 1068 242T929 40T708 -34Q553 -34 456 77V-410L140 -443V1484L456 1517ZM630 864Q575 864 533 831T456 741V293Q489 244
525 221T612 198Q696 198 743 274T790 530Q790 662 771 734T716 835T630 864Z" />
<glyph unicode="&#xff;" horiz-adv-x="1200" d="M1144 1062L790 0Q743 -141 666 -236T473 -384T195 -445L159 -222Q264 -209 328 -183T432 -113T501 0H393L56 1062H390L596 202L820 1062H1144ZM369 1275Q300 1275 252 1321T204 1435Q204 1502 252 1548T369 1594Q439
1594 486 1548T533 1435Q533 1367 486 1321T369 1275ZM831 1275Q764 1275 716 1321T667 1435Q667 1502 715 1548T831 1594Q901 1594 948 1548T996 1435Q996 1367 949 1321T831 1275Z" />
<glyph unicode="&#x2013;" horiz-adv-x="1200" d="M54 503V749H1146V503H54Z" />
<glyph unicode="&#x2014;" horiz-adv-x="1200" d="M0 503V749H1200V503H0Z" />
<glyph unicode="&#x2018;" horiz-adv-x="1200" d="M783 1073Q783 997 729 945T594 892Q513 892 460 944T407 1073Q407 1116 420 1163T470 1281L613 1578H791L705 1224Q741 1199 762 1161T783 1073Z" />
<glyph unicode="&#x2019;" horiz-adv-x="1200" d="M415 1397Q415 1473 469 1525T604 1578Q685 1578 738 1526T791 1397Q791 1354 778 1307T728 1189L585 892H407L493 1246Q457 1272 436 1309T415 1397Z" />
<glyph unicode="&#x201a;" horiz-adv-x="1200" d="M417 141Q417 218 471 270T606 322Q687 322 740 270T793 141Q793 97 779 51T730 -67L585 -364H407L495 -10Q459 16 438 53T417 141Z" />
<glyph unicode="&#x201c;" horiz-adv-x="1200" d="M549 1073Q549 997 495 945T360 892Q280 892 228 944T175 1073Q175 1116 188 1163T236 1281L379 1578H558L472 1224Q507 1199 528 1161T549 1073ZM1016 1073Q1016 997 962 945T827 892Q747 892 694 944T640 1073Q640
1116 654 1163T704 1281L846 1578H1025L937 1224Q973 1199 994 1161T1016 1073Z" />
<glyph unicode="&#x201d;" horiz-adv-x="1200" d="M184 1414Q184 1491 239 1542T373 1594Q453 1594 506 1543T560 1414Q560 1370 546 1324T496 1205L354 909H175L261 1264Q225 1289 205 1325T184 1414ZM649 1414Q649 1491 704 1542T838 1594Q918 1594 971 1543T1025
1414Q1025 1370 1011 1324T962 1205L819 909H640L728 1264Q692 1289 671 1325T649 1414Z" />
<glyph unicode="&#x201e;" horiz-adv-x="1200" d="M184 141Q184 218 239 270T373 322Q453 322 506 270T560 141Q560 97 546 51T496 -67L354 -364H175L263 -10Q227 16 206 53T184 141ZM649 141Q649 218 704 270T838 322Q918 322 971 270T1025 141Q1025 97 1011
51T962 -67L819 -364H640L728 -10Q692 16 671 53T649 141Z" />
<glyph unicode="&#x2022;" horiz-adv-x="1200" d="M600 399Q519 399 455 436T353 539T315 684Q315 766 352 829T454 930T600 967Q682 967 746 930T847 828T885 682Q885 601 848 537T746 436T600 399Z" />
<glyph unicode="&#x2039;" horiz-adv-x="1200" d="M886 162L691 34L314 473V673L691 1113L886 984L630 574L886 162Z" />
<glyph unicode="&#x203a;" horiz-adv-x="1200" d="M568 574L314 984L507 1113L886 673V473L507 34L314 162L568 574Z" />
</font>
</defs>
</svg>
