<?xml version="1.0" standalone="no"?>
<!DOCTYPE svg PUBLIC "-//W3C//DTD SVG 1.1//EN" "http://www.w3.org/Graphics/SVG/1.1/DTD/svg11.dtd">
<svg xmlns="http://www.w3.org/2000/svg">
<defs >
<font id="LibreBaskerville" horiz-adv-x="458" ><font-face
    font-family="Libre Baskerville"
    units-per-em="1000"
    panose-1="2 0 0 0 0 0 0 0 0 0"
    ascent="970"
    descent="-270"
    alphabetic="0" />
<glyph unicode=" " glyph-name="space" horiz-adv-x="275" />
<glyph unicode="!" glyph-name="exclam" horiz-adv-x="317" d="M129 207L177 662Q184 726 200 753T252 780Q280 780 293 763T307 705Q307 686 304 668T293 626T273 571T243 494Q229 459 217 420T194 343T176 270T164 207H129ZM119 -10Q94 -10 76 7T57 51Q57 78
75 97T120 116Q147 116 165 97T183 52Q183 26 164 8T119 -10Z" />
<glyph unicode="&quot;" glyph-name="quotedbl" horiz-adv-x="359" d="M154 564Q162 624 165 673T174 757T195 811T239 830Q256 830 265 821T275 795Q275 789 266 766T244 710T214 639T183 564H154ZM306 564Q314 624 317 673T326 757T347 811T391 830Q408 830
417 821T427 795Q427 789 418 766T396 710T366 639T335 564H306Z" />
<glyph unicode="#" glyph-name="numbersign" horiz-adv-x="670" d="M612 255H473L436 0H377L412 255H261L223 0H163L201 255H61L69 305H211L235 475H92L100 525H244L279 770H339L304 525H455L489 770H549L515 525H649L641 475H506L483 305H620L612 255ZM295 475L271
305H422L445 475H295Z" />
<glyph unicode="$" glyph-name="dollar" horiz-adv-x="584" d="M175 -3Q142 5 114 21T66 58T34 106T22 162Q22 185 30 206T51 243T82 269T119 279Q149 279 168 255Q140 244 124 217T107 154Q107 114 128 87T188 49L267 374Q241 393 217 414T174 459T144 511T132
574Q132 616 150 653T199 718T272 762T365 780L386 865H443L421 776Q484 765 522 729T561 641Q561 597 535 571T466 544Q449 544 440 549T425 565Q448 572 464 596T480 650Q480 712 409 726L345 461Q373 441 401 419T451 370T488 310T503 233Q503 183 482 139T424
62T339 10T235 -10H231L198 -146H141L175 -3ZM414 185Q414 233 385 269T315 337L244 43Q280 44 311 55T365 85T401 129T414 185ZM230 613Q230 577 249 550T297 498L352 727Q297 722 264 692T230 613Z" />
<glyph unicode="%" glyph-name="percent" horiz-adv-x="683" d="M80 0H13L636 770H694L80 0ZM207 465Q169 465 145 494T121 572Q121 611 134 648T170 715T221 763T278 781Q317 781 341 753T365 679Q365 641 351 603T315 534T264 484T207 465ZM274 755Q257 755
239 736T207 687T184 620T175 546Q175 491 213 491Q230 491 247 510T279 559T301 627T310 703Q310 755 274 755ZM449 -10Q411 -10 387 19T363 97Q363 136 376 173T412 240T463 288T520 306Q559 306 583 278T607 204Q607 166 593 128T557 59T506 9T449 -10ZM516
280Q499 280 481 261T449 212T426 145T417 71Q417 16 455 16Q472 16 489 35T521 84T543 152T552 228Q552 280 516 280Z" />
<glyph unicode="&amp;" glyph-name="ampersand" horiz-adv-x="898" d="M388 780Q449 780 486 749T524 667Q524 643 515 627T491 607Q474 645 444 666T376 688Q330 688 301 658T271 579Q271 528 305 517Q329 509 345 503T370 489T382 473T386 452Q386 430 374 418T338
406Q317 406 304 415T280 434T257 454T227 463Q192 463 169 429T146 342Q146 290 168 245T230 167T323 114T437 95Q493 95 543 113T632 162T692 234T714 321Q714 352 703 379T674 427T630 458T574 470Q525 470 495 446T465 380Q465 350 480 330T519 309Q542 309
542 333Q542 340 541 348T540 364Q540 381 551 392T579 404Q600 404 615 386T630 342Q630 324 622 309T600 282T567 263T527 256Q503 256 483 265T448 292T425 332T416 384Q416 420 430 450T470 501T531 535T610 547H715Q775 547 811 572T847 639Q847 665 831 684T795
704Q778 704 774 693T767 670T757 646T724 635Q700 635 687 648T673 686Q673 719 698 738T766 758Q797 758 823 747T869 717T899 672T910 614Q910 579 896 550T856 498T795 464T717 450L715 446Q741 430 757 389T774 297Q774 233 746 177T668 80T552 14T409 -10Q334
-10 270 13T159 76T86 170T59 289Q59 377 104 438T228 520Q220 537 216 563T211 614Q211 651 224 681T260 734T316 768T388 780Z" />
<glyph unicode="&apos;" glyph-name="quotesingle" horiz-adv-x="207" d="M154 564Q162 624 165 673T174 757T195 811T239 830Q256 830 265 821T275 795Q275 789 266 766T244 710T214 639T183 564H154Z" />
<glyph unicode="(" glyph-name="parenleft" horiz-adv-x="337" d="M443 803Q359 718 299 638T199 474T141 299T122 101Q122 25 140 -40T198 -166L160 -194Q32 -27 32 167Q32 343 131 512T419 831L443 803Z" />
<glyph unicode=")" glyph-name="parenright" horiz-adv-x="335" d="M192 831Q252 750 281 663T310 482Q310 393 283 304T205 129T79 -38T-92 -194L-115 -166Q-45 -106 17 -27T125 144T197 336T224 537Q224 602 207 664T153 803L192 831Z" />
<glyph unicode="*" glyph-name="asterisk" horiz-adv-x="532" d="M332 536Q326 517 322 502T317 474T314 448T313 421Q311 360 268 360Q244 360 233 375T222 408Q222 421 228 429T251 455Q258 462 264 469T275 486T287 510T303 546Q262 539 239 530T201 512T178
497T157 491Q138 491 125 505T112 538Q112 555 125 569T161 583Q178 583 197 577T242 570Q265 570 298 576Q269 609 246 624T207 649T181 666T172 693Q172 719 187 729T219 740Q238 740 247 729T265 697T285 651T322 595Q334 630 336 657T339 713Q339 740 351 755T384
770Q405 770 418 756T431 725Q431 712 423 699T402 670T375 634T350 584Q386 591 409 600T447 619T474 634T496 640Q513 640 526 626T540 593Q540 579 529 564T494 549Q478 549 462 554T419 560Q407 560 391 559T356 554Q379 527 402 512T443 487T472 465T484 435Q484
412 470 401T438 390Q424 390 416 395T401 409T392 428T387 446Q383 462 368 489T332 536Z" />
<glyph unicode="+" glyph-name="plus" horiz-adv-x="578" d="M263 104V313H55V363H263V572H315V363H523V313H315V104H263Z" />
<glyph unicode="," glyph-name="comma" horiz-adv-x="265" d="M71 3Q59 0 50 0Q24 0 12 16T-1 58Q-1 88 19 109T68 130Q99 130 119 109T139 59Q139 3 99 -59T-16 -175L-39 -143Q15 -105 43 -66T71 3Z" />
<glyph unicode="-" glyph-name="hyphen" horiz-adv-x="465" d="M60 248L83 331H392L369 248H60Z" />
<glyph unicode="." glyph-name="period" horiz-adv-x="262" d="M68 -10Q40 -10 20 9T-1 58Q-1 88 19 109T68 130Q99 130 119 109T139 59Q139 30 118 10T68 -10Z" />
<glyph unicode="/" glyph-name="slash" horiz-adv-x="390" d="M40 0H-29L395 770H457L40 0Z" />
<glyph unicode="0" glyph-name="zero" horiz-adv-x="656" d="M260 -10Q217 -10 182 9T122 64T83 148T69 258Q69 354 101 447T185 615T303 734T437 780Q480 780 515 762T576 710T615 629T629 525Q629 462 614 398T573 274T510 163T433 73T348 12T260 -10ZM427 728Q398
728 369 705T312 643T260 550T219 435T191 309T180 179Q180 114 204 79T273 43Q302 43 331 66T387 129T438 222T479 338T507 466T517 598Q517 661 494 694T427 728Z" />
<glyph unicode="1" glyph-name="one" horiz-adv-x="474" d="M297 268Q287 228 279 192T270 127Q270 107 275 91T292 64T325 46T377 40L366 0H-4L7 40Q42 40 68 46T114 68T148 111T172 179L274 590Q275 595 275 599T276 606Q276 619 261 619Q244 619 209 611T115
603L121 645Q164 645 201 656T271 686T333 729T389 780H426L297 268Z" />
<glyph unicode="2" glyph-name="two" horiz-adv-x="625" d="M165 98H369Q393 98 411 101T445 113T474 136T501 173H538L475 0H11L20 53Q145 153 231 231T371 374T448 493T472 600Q472 658 442 693T359 728Q330 728 305 717T260 688T231 644T220 591Q220 546 244
521T314 496Q305 471 282 457T228 443Q179 443 149 477T119 566Q119 611 139 650T195 718T278 764T380 781Q427 781 466 768T532 731T575 673T590 597Q590 546 567 493T492 381T361 254T165 103V98Z" />
<glyph unicode="3" glyph-name="three" horiz-adv-x="617" d="M411 219Q411 252 403 280T379 330T344 363T299 375Q282 375 260 371T220 367Q188 367 188 387Q188 404 208 411T257 425T321 440T385 469T435 524T455 618Q455 675 434 702T365 729Q312 729 279 700T246
626Q246 595 262 578T308 561Q300 544 282 534T240 523Q202 523 179 548T155 616Q155 651 171 681T217 733T286 767T373 780Q461 780 513 739T565 626Q565 591 551 558T513 496T455 447T384 417V411Q453 393 491 347T529 235Q529 184 506 140T442 62T347 10T231
-10Q185 -10 147 1T82 33T39 81T24 145Q24 173 34 198T60 243T99 273T147 284Q173 284 192 272T215 240Q197 240 181 232T152 209T132 175T124 134Q124 90 154 66T239 42Q278 42 309 54T363 90T398 146T411 219Z" />
<glyph unicode="4" glyph-name="four" horiz-adv-x="578" d="M424 346H547L532 285H409L340 0H236L308 285H13L26 336L491 780H535L424 346ZM325 346L397 608L394 609L117 346H325Z" />
<glyph unicode="5" glyph-name="five" horiz-adv-x="610" d="M318 491Q369 491 412 475T486 428T535 357T553 268Q553 211 528 160T460 72T360 12T237 -10Q190 -10 152 1T87 33T46 83T31 149Q31 176 39 200T62 243T96 273T137 284Q161 284 179 272T202 240Q170
240 148 213T126 145Q126 97 157 70T243 42Q285 42 320 60T380 109T420 184T435 280Q435 359 400 400T295 441Q259 441 235 432T193 412T164 391T143 382Q137 382 133 386T128 399Q128 406 130 412L255 780Q279 772 321 767T418 762Q473 762 516 767T585 781L591
780Q549 661 417 661Q402 661 385 662T349 666T312 672T278 679L211 482L215 476Q222 479 234 481T260 486T289 490T318 491Z" />
<glyph unicode="6" glyph-name="six" horiz-adv-x="635" d="M559 279Q559 221 537 169T476 77T389 14T284 -10Q235 -10 196 9T129 65T86 153T71 270Q71 369 104 461T192 624T319 737T468 780Q501 780 529 772T579 750T612 716T624 673Q624 647 610 632T570 616Q549
616 535 629T521 671Q521 703 510 719T468 735Q428 735 389 714T316 655T254 565T210 450L213 448Q278 488 350 488Q397 488 435 473T501 431T544 365T559 279ZM332 439Q296 439 267 422T216 374T184 299T172 202Q172 121 199 78T278 35Q312 35 342 54T393 107T427
186T440 285Q440 439 332 439Z" />
<glyph unicode="7" glyph-name="seven" horiz-adv-x="524" d="M313 680Q277 680 254 678T216 669T189 647T165 608L144 569H101L194 806H224Q224 804 224 803T223 798Q223 783 239 777T296 770H599L596 750Q566 706 531 648T453 515T358 345T242 136Q218 93 200
65T167 20T139 -3T110 -10Q89 -10 76 1T62 31Q62 41 67 54T89 93T136 163T218 280L499 680H313Z" />
<glyph unicode="8" glyph-name="eight" horiz-adv-x="639" d="M416 429Q483 387 513 335T543 222Q543 171 523 129T465 56T377 8T266 -10Q161 -10 102 40T43 182Q43 344 253 404Q201 439 174 483T146 577Q146 619 166 656T219 720T297 764T392 780Q435 780 472
768T538 734T581 683T597 619Q597 586 583 555T545 498T487 454T416 429ZM290 383Q144 317 144 175Q144 110 176 77T272 43Q309 43 339 54T392 85T426 132T439 192Q439 241 415 278T342 349L290 383ZM378 450Q438 482 470 522T502 615Q502 664 472 696T384 728Q356
728 332 720T289 696T261 659T250 611Q250 577 271 541T337 476L378 450Z" />
<glyph unicode="9" glyph-name="nine" horiz-adv-x="634" d="M113 501Q113 557 135 607T196 696T283 757T388 780Q437 780 476 761T543 705T586 616T601 500Q601 401 568 309T480 146T353 33T204 -10Q171 -10 143 -2T93 20T60 54T48 97Q48 123 62 138T102 154Q123
154 137 141T151 99Q151 67 162 51T204 35Q244 35 283 57T356 118T418 211T462 330L459 332Q394 292 322 292Q275 292 237 307T171 349T128 415T113 501ZM340 341Q376 341 405 357T456 403T488 475T500 568Q500 649 473 692T394 735Q359 735 330 717T279 666T245
590T232 495Q232 341 340 341Z" />
<glyph unicode=":" glyph-name="colon" horiz-adv-x="304" d="M84 -10Q56 -10 36 9T15 58Q15 88 35 109T84 130Q115 130 135 109T155 59Q155 30 134 10T84 -10ZM166 300Q138 300 118 319T97 368Q97 398 117 419T166 440Q197 440 217 419T237 369Q237 340 216 320T166
300Z" />
<glyph unicode=";" glyph-name="semicolon" horiz-adv-x="306" d="M166 300Q138 300 118 319T97 368Q97 398 117 419T166 440Q197 440 217 419T237 369Q237 340 216 320T166 300ZM87 3Q75 0 66 0Q40 0 28 16T15 58Q15 88 35 109T84 130Q115 130 135 109T155 59Q155
3 115 -59T0 -175L-23 -143Q31 -105 59 -66T87 3Z" />
<glyph unicode="&lt;" glyph-name="less" horiz-adv-x="618" d="M514 126V72L56 304V368L514 600V544L101 336L514 126Z" />
<glyph unicode="=" glyph-name="equal" horiz-adv-x="637" d="M524 252H70L84 302H538L524 252ZM574 422H120L134 472H588L574 422Z" />
<glyph unicode="&gt;" glyph-name="greater" horiz-adv-x="621" d="M535 336L122 544V600L580 368V304L122 72V126L535 336Z" />
<glyph unicode="?" glyph-name="question" horiz-adv-x="468" d="M195 -10Q169 -10 151 8T133 52Q133 79 151 97T196 116Q222 116 240 97T259 52Q259 26 241 8T195 -10ZM142 290Q142 338 162 372T214 434T282 483T349 529T401 578T422 638Q422 680 392 706T314
733Q272 733 244 713T215 660Q215 640 226 634T250 623T274 611T285 582Q285 559 271 546T230 533Q189 533 162 562T134 634Q134 664 148 691T188 738T247 769T319 781Q357 781 388 770T440 737T474 687T486 621Q486 570 465 533T411 466T341 413T271 368T218 324T196
274Q196 234 242 234Q288 234 316 285L343 269Q305 191 232 191Q188 191 165 216T142 290Z" />
<glyph unicode="@" glyph-name="at" horiz-adv-x="1030" d="M707 530H803L736 293Q725 253 718 218T710 167Q710 148 722 138T754 127Q787 127 819 152T877 219T919 313T935 420Q935 488 909 545T836 645T725 711T585 735Q495 735 417 702T281 610T190 471T157
299Q157 213 186 142T269 21T398 -58T564 -86Q733 -86 878 14L899 -17Q811 -78 728 -106T551 -134Q444 -134 355 -102T202 -13T102 125T66 300Q66 401 105 489T214 641T377 743T579 780Q669 780 742 754T869 681T951 568T980 422Q980 353 960 291T904 181T823 105T726
77Q628 77 619 191L616 192Q585 140 540 109T448 77Q416 77 389 90T341 125T310 179T298 248Q298 303 321 355T381 449T466 515T564 540Q611 540 639 517T681 442L684 441L707 530ZM572 498Q539 498 508 475T451 413T411 327T396 227Q396 122 463 122Q495 122 528
146T587 210T631 297T648 394Q648 443 628 470T572 498Z" />
<glyph unicode="A" glyph-name="A" horiz-adv-x="763" d="M551 166Q539 113 539 89Q539 60 558 50T632 40L622 0H326L336 40Q365 40 384 44T415 62T437 101T455 167L482 290H267L204 224Q163 181 140 155T104 112T89 88T86 74Q86 55 102 48T161 40L151 0H-108L-98
40Q-74 40 -51 49T1 81T64 139T145 231L606 780H690L551 166ZM491 340L573 650H569L310 340H491Z" />
<glyph unicode="B" glyph-name="B" horiz-adv-x="736" d="M231 207Q228 198 225 184T218 156T213 128T210 105Q210 85 219 73T241 55T271 47T304 45Q359 45 402 59T476 100T521 161T537 239Q537 315 488 350T337 385H280L231 207ZM-18 40Q12 40 33 44T69 60T95
96T117 159L235 600Q246 644 246 669Q246 703 225 716T154 730L165 770H433Q476 770 521 763T602 736T662 683T686 597Q686 548 666 515T615 461T547 428T474 411V407Q562 389 608 342T654 221Q654 170 630 129T564 60T464 16T337 0H-29L-18 40ZM293 436H367Q414
436 453 448T521 482T564 534T580 602Q580 667 544 696T420 725Q393 725 377 707T349 645L293 436Z" />
<glyph unicode="C" glyph-name="C" horiz-adv-x="728" d="M665 189Q630 136 597 98T527 36T451 1T365 -10Q297 -10 243 11T152 73T94 171T73 301Q73 396 108 482T201 635T337 740T498 780Q546 780 589 766T678 720L715 770H752L706 519H668Q660 628 622 678T506
728Q440 728 383 695T284 604T218 468T194 300Q194 52 387 52Q459 52 517 91T629 213L665 189Z" />
<glyph unicode="D" glyph-name="D" horiz-adv-x="836" d="M165 770H436Q505 770 570 754T688 693Q745 646 771 582T797 447Q797 402 787 357T758 269T714 189T658 121Q588 52 503 26T321 0H-29L-18 40Q14 40 35 44T71 60T96 96T117 158L232 600Q234 607 237 618T245
642T251 667T254 688Q254 703 246 711T225 723T198 729T171 730H152L165 770ZM237 231Q229 201 224 182T217 150T213 130T212 118Q212 91 223 77T251 55T284 46T312 44Q377 44 430 62T524 111T594 184T643 271T672 364T681 457Q681 583 614 651T428 720Q399 720
382 712T355 669L237 231Z" />
<glyph unicode="E" glyph-name="E" horiz-adv-x="740" d="M-15 40Q18 40 39 45T75 63T100 99T119 158L235 599Q242 625 245 644T249 677Q249 710 226 720T149 730L160 770H706V568H668Q655 616 639 646T603 694T557 719T500 726H370L292 429H355Q382 429 401 434T435
451T464 486T494 543H531L471 247H431Q434 277 434 299Q434 344 417 364T354 385H279L222 170Q213 137 213 114Q213 78 245 61T355 43Q412 43 454 52T528 80T583 132T628 211H675L597 0H-26L-15 40Z" />
<glyph unicode="F" glyph-name="F" horiz-adv-x="659" d="M-15 40Q18 40 39 45T75 63T100 99T119 158L235 599Q242 625 245 644T249 677Q249 710 226 720T149 730L160 770H706V568H668Q655 616 639 646T603 694T557 719T500 726H370L292 429H360Q387 429 406 434T440
451T469 486T499 543H536L466 227H426Q429 263 429 289Q429 339 414 362T359 385H279L222 170Q213 137 213 114Q213 78 240 61T335 43L324 0H-26L-15 40Z" />
<glyph unicode="G" glyph-name="G" horiz-adv-x="809" d="M387 44Q429 44 464 55T526 89T567 145T582 222Q582 262 565 281T497 300L506 339H780L770 300Q749 300 735 297T709 281T688 240T666 166Q658 137 651 108T643 49Q620 45 595 36T537 16T462 -2T365 -10Q297
-10 243 11T152 73T94 171T73 301Q73 396 109 482T207 635T349 740T518 780Q572 780 620 766T718 720L755 770H792L756 550H718Q708 642 663 685T526 728Q456 728 396 695T290 604T220 468T194 300Q194 44 387 44Z" />
<glyph unicode="H" glyph-name="H" horiz-adv-x="911" d="M715 168Q703 124 703 98Q703 64 724 52T794 40L782 0H463L474 40Q504 40 525 44T561 62T588 98T609 158L664 367H276L224 168Q212 124 212 98Q212 64 233 52T304 40L291 0H-28L-17 40Q13 40 34 44T70
62T97 98T118 158L235 600Q250 655 250 682Q250 713 228 721T151 730L162 770H487L476 730Q443 730 421 724T383 699T355 649T329 566L290 418H678L726 600Q741 655 741 682Q741 713 719 721T642 730L653 770H978L967 730Q934 730 912 724T874 699T846 649T820
566L715 168Z" />
<glyph unicode="I" glyph-name="I" horiz-adv-x="420" d="M224 168Q212 124 212 98Q212 64 233 52T303 40L291 0H-28L-17 40Q13 40 34 44T70 62T97 98T118 158L235 600Q250 655 250 682Q250 713 228 721T151 730L162 770H487L476 730Q443 730 421 724T383 699T355
649T329 566L224 168Z" />
<glyph unicode="J" glyph-name="J" horiz-adv-x="543" d="M134 43Q183 43 221 90T282 222L381 600Q396 655 396 682Q396 696 391 705T374 720T341 728T287 730L298 770H623L612 730Q582 730 562 724T527 700T500 650T475 566L375 186Q350 91 288 41T135 -10Q59
-10 18 24T-23 121Q-23 169 2 200T65 231Q92 231 109 215T127 173Q127 154 119 144T101 125T83 108T75 87Q75 67 91 55T134 43Z" />
<glyph unicode="K" glyph-name="K" horiz-adv-x="825" d="M291 427L498 575Q561 620 590 651T619 702Q619 730 552 730L562 770H846L836 730Q820 730 803 723T757 697T679 643T552 553L398 445L594 187Q634 134 658 104T700 60T733 43T768 40L757 0H443L454 40Q489
40 508 45T528 68Q528 82 514 107T471 173L313 385L273 357L223 168Q211 124 211 98Q211 64 234 52T313 40L300 0H-19L-8 40Q20 40 39 44T72 62T97 98T117 158L234 600Q249 655 249 682Q249 713 227 721T150 730L161 770H486L475 730Q442 730 420 724T382 699T354
649T328 566L291 427Z" />
<glyph unicode="L" glyph-name="L" horiz-adv-x="702" d="M-14 40Q19 40 40 45T76 63T101 99T120 158L233 600Q240 628 244 648T248 682Q248 709 231 719T171 730H149L160 770H485L474 730Q441 730 419 724T381 699T353 649T327 566L223 170Q214 137 214 114Q214
78 238 61T326 43Q386 43 429 53T506 85T563 143T609 231H656L568 0H-25L-14 40Z" />
<glyph unicode="M" glyph-name="M" horiz-adv-x="1020" d="M845 655L435 0H392L314 655H310L182 168Q179 156 177 145T175 124Q175 82 198 62T261 40L249 0H-27L-16 40Q31 40 68 73T119 158L236 600Q251 655 251 682Q251 713 229 721T152 730L163 770H403L474
174H478L855 770H1066L1055 730Q1026 730 1008 724T977 699T952 649T928 566L823 168Q811 124 811 98Q811 64 834 52T912 40L900 0H581L592 40Q619 40 638 44T671 62T696 98T717 158L849 655H845Z" />
<glyph unicode="N" glyph-name="N" horiz-adv-x="842" d="M580 0L318 602H314L200 168Q194 144 194 125Q194 83 219 62T289 40L277 0H-9L2 40Q49 40 86 73T137 158L255 602Q259 617 259 633Q259 681 219 705T112 730L124 770H359L609 197H613L719 602Q724 624
724 639Q724 682 700 705T640 730L652 770H908L897 730Q878 730 860 721T827 697T801 659T782 612L620 0H580Z" />
<glyph unicode="O" glyph-name="O" horiz-adv-x="820" d="M505 780Q569 780 620 758T708 696T764 598T784 469Q784 373 750 286T656 133T520 29T356 -10Q292 -10 240 12T151 76T94 174T74 303Q74 399 109 485T203 637T340 741T505 780ZM505 728Q440 728 384 695T285
604T219 468T195 300Q195 172 239 108T370 44Q433 44 486 78T579 172T641 315T663 496Q663 616 625 672T505 728Z" />
<glyph unicode="P" glyph-name="P" horiz-adv-x="667" d="M233 207Q223 172 218 145T212 105Q212 45 326 45L315 0H-17L-6 40Q42 40 72 68T119 159L237 600Q250 648 250 675Q250 690 245 700T228 716T196 726T146 730L157 770H435Q564 770 636 725T708 598Q708
546 681 502T606 426T492 376T347 358H275L233 207ZM288 409H337Q394 409 441 423T523 464T577 525T597 604Q597 725 437 725Q417 725 404 722T381 709T364 685T351 645L288 409Z" />
<glyph unicode="Q" glyph-name="Q" horiz-adv-x="834" d="M513 780Q578 780 631 758T721 695T778 597T798 467Q798 399 781 336T731 217T655 117T559 44L342 -74L344 -77Q386 -77 418 -91T481 -122T542 -154T614 -168Q665 -168 704 -142T758 -64L791 -79Q782 -120
762 -153T711 -210T644 -247T565 -260Q508 -260 465 -240T387 -195T320 -150T258 -129Q231 -129 215 -144T186 -177T156 -211T113 -226Q89 -226 76 -213T62 -176Q62 -151 82 -133T155 -91L347 -10Q285 -7 235 16T149 80T94 178T74 304Q74 399 109 485T205 637T345
741T513 780ZM513 728Q446 728 388 695T287 605T220 469T195 301Q195 179 241 116T375 52Q440 52 495 85T590 178T654 318T677 494Q677 615 638 671T513 728Z" />
<glyph unicode="R" glyph-name="R" horiz-adv-x="763" d="M233 207Q223 172 218 145T212 105Q212 45 326 45L315 0H-17L-6 40Q42 40 72 68T119 159L237 600Q250 648 250 675Q250 690 245 700T228 716T196 726T146 730L157 770H435Q555 770 624 725T693 598Q693
557 678 523T633 462T564 416T474 387L548 204Q569 153 585 121T620 71T660 47T716 40L705 0H515L368 375H280L233 207ZM293 426H342Q394 426 438 438T514 472T564 528T582 604Q582 664 545 694T437 725Q417 725 404 722T381 709T364 685T351 645L293 426Z" />
<glyph unicode="S" glyph-name="S" horiz-adv-x="598" d="M558 755H588L546 558H512Q509 649 479 689T385 729Q354 729 328 721T284 696T255 659T244 612Q244 576 264 548T314 496T380 446T446 391T497 323T517 234Q517 183 497 139T443 61T362 9T263 -10Q154
-10 72 76L51 0H16L58 254H91Q98 151 142 97T264 43Q300 43 330 53T381 82T415 126T428 182Q428 224 407 256T355 316T287 370T219 425T167 490T146 572Q146 615 164 653T215 719T290 763T382 780Q429 780 466 764T538 713L558 755Z" />
<glyph unicode="T" glyph-name="T" horiz-adv-x="780" d="M407 168Q401 145 396 129T391 98Q391 66 417 53T506 40L494 0H146L157 40Q187 40 209 44T248 60T278 95T302 158L424 614Q433 650 433 674Q433 703 420 715T378 728Q290 728 226 683T118 557H78L173 770H841L821
557H783Q783 653 748 690T642 728Q617 728 600 723T569 705T545 669T525 610L407 168Z" />
<glyph unicode="U" glyph-name="U" horiz-adv-x="808" d="M200 599Q205 619 209 640T213 676Q213 706 192 718T119 730L132 770H451L440 730Q404 730 382 725T345 702T318 652T292 565L227 314Q220 288 217 265T214 220Q214 140 255 93T375 46Q424 46 462 64T531
115T583 192T622 290Q637 338 651 397T677 511T695 609T702 670Q702 700 675 714T600 730L612 770H875L863 730Q839 730 822 726T793 706T772 664T753 592L710 392Q667 193 582 92T367 -10Q239 -10 177 49T114 219Q114 251 119 283T134 353L200 599Z" />
<glyph unicode="V" glyph-name="V" horiz-adv-x="752" d="M586 546Q643 614 670 649T698 705Q698 720 681 725T629 730L639 770H898L888 730Q864 730 841 721T789 690T725 631T645 539L194 -10H110L249 604Q261 656 261 681Q261 710 242 720T168 730L178 770H474L464
730Q435 730 416 726T384 708T363 669T345 603L244 142H248L586 546Z" />
<glyph unicode="W" glyph-name="W" horiz-adv-x="1064" d="M896 546Q950 615 976 652T1002 707Q1002 721 987 725T939 730L949 770H1208L1198 730Q1174 730 1150 722T1097 692T1033 633T955 539L534 -10H450L558 467L192 -10H108L247 604Q259 656 259 681Q259
710 240 720T166 730L176 770H452L442 730Q421 730 407 726T381 707T361 668T343 603L242 152H246L585 587L589 604Q601 656 601 681Q601 710 584 720T518 730L528 770H814L804 730Q775 730 756 726T724 708T703 669T685 603L584 152H588L896 546Z" />
<glyph unicode="X" glyph-name="X" horiz-adv-x="781" d="M571 167Q588 129 603 105T636 66T674 46T722 40L713 0H383L392 40Q476 40 476 90Q476 103 471 121T458 159L377 338L294 246Q234 180 208 139T181 76Q181 57 199 49T259 40L250 0H-39L-29 40Q-1 43 16
46T49 58T80 83T122 129L353 395L245 622Q229 655 215 676T186 709T152 725T108 730L119 770H430L419 730Q352 730 352 680Q352 648 383 579L432 471L518 567Q564 618 585 650T606 700Q606 730 548 730L560 770H818L807 730Q785 730 766 724T727 705T683 669T629
614L454 422L571 167Z" />
<glyph unicode="Y" glyph-name="Y" horiz-adv-x="689" d="M393 168Q381 124 381 98Q381 64 404 52T482 40L470 0H131L142 40Q174 40 197 44T237 62T265 98T287 158L333 336L213 624Q198 660 186 681T161 713T132 727T90 730L101 770H382L371 730Q333 730 317 723T300
695Q300 688 301 679T308 659L415 401L554 604Q576 635 585 652T595 687Q595 708 576 719T521 730L532 770H779L768 730Q748 730 734 727T708 715T684 690T654 649L440 348L393 168Z" />
<glyph unicode="Z" glyph-name="Z" horiz-adv-x="672" d="M158 50H283Q378 50 449 88T565 221H608L524 0H-7V21L536 722H435Q375 722 335 717T263 695T207 649T153 572H110L211 770H696V751L158 50Z" />
<glyph unicode="[" glyph-name="bracketleft" horiz-adv-x="369" d="M319 773L82 -103H233L220 -150H-20L242 820H483L470 773H319Z" />
<glyph unicode="\" glyph-name="backslash" horiz-adv-x="463" d="M150 770H205L351 0H287L150 770Z" />
<glyph unicode="]" glyph-name="bracketright" horiz-adv-x="369" d="M61 -103L298 773H147L160 820H401L138 -150H-102L-89 -103H61Z" />
<glyph unicode="^" glyph-name="asciicircum" horiz-adv-x="481" d="M315 409L387 230H342L254 348L104 230H60L225 409H315Z" />
<glyph unicode="_" glyph-name="underscore" horiz-adv-x="731" d="M-45 -143L-22 -75H548L525 -143H-45Z" />
<glyph unicode="`" glyph-name="grave" horiz-adv-x="275" d="M187 651L68 716Q50 726 40 736T29 760Q29 780 44 791T78 803Q109 803 136 770L234 651H187Z" />
<glyph unicode="a" glyph-name="a" horiz-adv-x="570" d="M332 488Q294 488 254 453T180 366T126 253T105 140Q105 104 120 83T161 61Q184 61 209 79T257 128T302 198T339 278T364 360T373 432Q373 458 362 473T332 488ZM435 530H518L461 377Q447 339 434 296T410
213T393 140T387 91Q387 62 406 62Q420 62 446 91T506 166L532 145Q490 71 442 31T348 -10Q325 -10 313 7T300 65Q300 74 300 86T303 118L299 119Q284 91 264 68T219 27T169 0T118 -10Q67 -10 39 28T10 135Q10 204 39 276T114 406T216 502T326 540Q359 540 380
525T414 474L435 530Z" />
<glyph unicode="b" glyph-name="b" horiz-adv-x="534" d="M204 444L207 442Q236 488 279 513T372 539Q433 539 466 501T499 397Q499 350 485 301T447 207T389 123T319 54T240 7T158 -10Q101 -10 65 24T28 114Q28 140 39 187T71 301L192 691Q197 709 202 727T207
755Q207 790 130 790L139 820L331 829L204 444ZM174 41Q197 41 223 57T274 102T322 167T362 244T389 326T400 405Q400 440 384 463T345 486Q323 486 298 470T248 425T201 360T161 283T133 201T123 123Q123 41 174 41Z" />
<glyph unicode="c" glyph-name="c" horiz-adv-x="441" d="M373 161Q331 78 276 34T157 -10Q92 -10 53 34T14 153Q14 197 27 243T62 332T114 413T178 479T248 523T320 540Q368 540 399 514T430 449Q430 424 416 409T378 393Q355 393 341 407T326 443Q326 456 330
464T334 479Q334 493 310 493Q277 493 243 462T182 382T137 273T119 152Q119 104 137 77T189 49Q207 49 226 59T266 86T304 128T338 181L373 161Z" />
<glyph unicode="d" glyph-name="d" horiz-adv-x="598" d="M468 692Q476 719 480 737T484 763Q484 778 464 784T392 790L403 830H596L485 425Q464 347 450 292T428 200T416 138T413 98Q413 75 420 66T438 57Q460 57 485 94T531 191L569 182Q535 83 495 37T403 -10Q367
-10 348 13T328 79Q328 90 330 102T335 125L327 127Q289 61 235 26T132 -10Q106 -10 84 1T46 33T21 82T11 146Q11 189 24 235T61 325T116 408T181 476T252 523T324 540Q358 540 375 527T410 486L468 692ZM331 487Q305 487 279 471T227 427T181 363T143 288T118
209T108 134Q108 98 126 77T174 55Q197 55 221 73T268 122T311 190T347 269T372 349T381 421Q381 452 369 469T331 487Z" />
<glyph unicode="e" glyph-name="e" horiz-adv-x="456" d="M371 133Q284 -10 157 -10Q88 -10 51 32T14 153Q14 222 42 291T117 415T220 505T334 540Q382 540 412 516T443 453Q443 418 417 381T347 311T243 251T116 209Q114 195 113 182T112 154Q112 45 189 45Q226
45 265 74T339 154L371 133ZM314 493Q288 493 260 473T207 420T160 343T126 254Q174 267 215 288T285 335T332 391T349 451Q349 493 314 493Z" />
<glyph unicode="f" glyph-name="f" horiz-adv-x="334" d="M152 73Q126 -29 100 -93T44 -195T-20 -246T-98 -260Q-140 -260 -167 -238T-194 -184Q-194 -159 -181 -145T-145 -130Q-124 -130 -116 -141T-103 -165T-90 -189T-63 -200Q-40 -200 -21 -176T8 -113L153
450H57L70 496H165Q187 586 213 649T269 752T333 811T406 830Q465 830 503 806T541 744Q541 721 529 705T493 689Q474 689 464 696T448 714T440 737T433 760T421 778T397 785Q377 785 358 764T320 704T286 612T257 496H358L344 450H246L152 73Z" />
<glyph unicode="g" glyph-name="g" horiz-adv-x="550" d="M435 -73Q435 -116 417 -150T364 -209T280 -247T170 -260Q115 -260 70 -250T-7 -221T-57 -177T-75 -119Q-75 -78 -49 -51T19 -24Q31 -24 42 -27T70 -38Q14 -61 14 -125Q14 -167 56 -191T173 -215Q213 -215
247 -206T305 -183T343 -152T357 -117Q357 -89 324 -67T229 -33Q120 -14 69 11T18 81Q18 110 43 130T135 170L137 174Q61 228 61 313Q61 359 80 400T131 473T207 523T299 541Q373 541 423 487Q470 540 514 540Q546 540 570 521T594 475Q594 455 581 442T547 428Q532
428 524 434T509 449T496 463T475 470Q468 470 462 468T440 454Q445 440 447 428T449 396Q449 286 388 221T220 147Q172 143 152 135T131 111Q131 90 153 80T210 62T283 48T356 28T412 -9T435 -73ZM225 191Q249 191 272 210T313 260T343 332T354 414Q354 454 336
477T289 501Q266 501 242 481T199 428T167 356T155 276Q155 238 174 215T225 191Z" />
<glyph unicode="h" glyph-name="h" horiz-adv-x="574" d="M356 311Q373 362 380 392T388 445Q388 468 381 477T355 487Q324 487 294 463T234 388T170 258T100 69L77 0H-7L191 678Q198 703 202 722T206 752Q206 772 187 780T117 790L124 830H328L214 444L217 442Q249
489 291 514T379 540Q427 540 452 512T477 431Q477 398 467 354T436 253Q416 199 405 168T389 121T383 98T381 88Q381 65 400 65Q420 65 449 88T509 154L537 133Q521 104 498 78T447 33T391 2T337 -10Q310 -10 298 5T286 53Q286 70 289 89T299 136T320 206T356
311Z" />
<glyph unicode="i" glyph-name="i" horiz-adv-x="344" d="M131 330Q145 369 151 393T157 431Q157 445 153 449T143 454Q132 454 119 444T93 419T70 391T56 369L27 387Q39 409 60 436T109 486T165 524T220 540Q245 540 257 526T270 473Q270 444 253 395T207 269L170
168Q168 163 165 153T158 131T152 108T149 90Q149 81 154 74T170 67Q185 67 201 79T232 109T259 143T277 171L307 154Q295 130 275 101T228 48T171 7T107 -10Q78 -10 64 5T49 55Q49 84 58 117T86 202L131 330ZM278 704Q253 704 235 721T216 765Q216 792 234 811T278
830Q306 830 324 811T342 766Q342 740 323 722T278 704Z" />
<glyph unicode="j" glyph-name="j" horiz-adv-x="299" d="M237 704Q212 704 194 721T175 765Q175 792 193 811T237 830Q265 830 283 811T301 766Q301 740 282 722T237 704ZM122 331Q132 370 137 395T143 434Q143 454 128 454Q117 454 104 444T79 419T56 391T42
369L13 387Q25 409 46 436T95 486T151 524T206 540Q256 540 256 484Q256 451 243 397T208 267L125 -34Q113 -77 91 -117T39 -189T-25 -240T-95 -260Q-137 -260 -164 -238T-191 -184Q-191 -157 -178 -141T-142 -125Q-121 -125 -111 -136T-95 -162T-81 -188T-60 -200Q-36
-200 -18 -176T11 -113L122 331Z" />
<glyph unicode="k" glyph-name="k" horiz-adv-x="513" d="M357 80Q386 80 439 155L465 141Q393 -10 316 -10Q292 -10 277 7T242 68L175 228L153 218L90 0H-1L192 717Q199 744 199 754Q199 775 180 782T105 790L115 820L314 830L210 445L214 444Q272 541 361 541Q408
541 435 519T462 458Q462 411 416 364T286 279L260 267L311 135Q331 80 357 80ZM162 268Q205 283 242 303T305 345T347 389T362 432Q362 473 321 473Q300 473 277 457T232 412T192 347T162 268Z" />
<glyph unicode="l" glyph-name="l" horiz-adv-x="313" d="M183 691Q188 709 193 727T198 755Q198 790 122 790L130 820L313 829L134 172Q126 145 122 125T118 90Q118 81 123 74T139 67Q155 67 173 80T207 112T237 150T256 181L286 164Q271 130 247 99T196 43T142
5T91 -10Q56 -10 40 5T23 55Q23 75 29 109T50 202L183 691Z" />
<glyph unicode="m" glyph-name="m" horiz-adv-x="870" d="M663 333Q676 370 683 392T695 426T700 446T701 459Q701 488 681 488Q654 488 617 452T537 346Q522 322 509 298T481 237T446 144T395 0H301L367 201Q388 265 402 308T424 381T435 427T439 455Q439 488
414 488Q394 488 366 465T309 405T254 322T209 227L125 0H37L111 229Q130 287 142 326T161 391T171 432T174 457Q174 485 157 485Q146 485 132 472T102 437T73 385T47 324L17 339Q52 442 95 491T195 540Q227 540 240 522T254 462Q254 414 237 370L240 367Q333 540
437 540Q476 540 498 517T520 451Q520 437 517 419T503 366L505 363Q533 411 558 444T608 499T656 530T707 540Q746 540 765 519T785 453Q785 439 782 423T773 384T758 332T735 262Q718 211 708 181T693 132T687 105T685 87Q685 68 695 68Q710 68 740 96T818 185L844
171Q827 138 801 106T745 48T688 6T638 -10Q613 -10 599 11T584 69Q584 81 586 96T597 139T621 213T663 333Z" />
<glyph unicode="n" glyph-name="n" horiz-adv-x="627" d="M425 488Q401 488 371 464T309 399T248 306T199 200L125 0H37L111 229Q129 284 141 323T160 388T171 431T174 458Q174 485 157 485Q146 485 131 471T101 435T71 383T47 324L17 339Q52 442 95 491T195 540Q227
540 240 522T254 461Q254 410 237 370L240 367Q291 457 343 498T458 540Q502 540 525 519T548 459Q548 446 546 430T537 392T521 338T495 262Q472 194 457 148T442 83Q442 68 452 68Q466 68 493 91T566 165L592 151Q576 121 551 93T498 41T443 4T396 -10Q371 -10
357 12T342 70Q342 84 344 98T355 140T378 212T421 333Q430 359 436 377T445 408T450 432T452 451Q452 488 425 488Z" />
<glyph unicode="o" glyph-name="o" horiz-adv-x="523" d="M187 -10Q153 -10 124 3T72 43T37 106T24 191Q24 256 48 319T113 431T204 510T311 540Q347 540 377 527T429 488T463 427T476 348Q476 285 451 221T386 106T293 23T187 -10ZM193 40Q227 40 260 75T320
163T363 280T380 400Q380 453 362 473T311 493Q289 493 267 478T224 435T187 373T156 299T136 220T129 142Q129 86 147 63T193 40Z" />
<glyph unicode="p" glyph-name="p" horiz-adv-x="563" d="M15 375Q52 417 98 450T195 505L242 665H318L283 532Q299 535 314 537T346 539Q431 539 478 493T525 364Q525 298 494 240T410 135T289 59T146 18L109 -121Q104 -136 103 -146T101 -164Q101 -189 121 -199T194
-210L188 -250H-95L-89 -210Q-47 -210 -28 -200T-1 -164L180 454Q142 434 107 407T42 347L15 375ZM320 490Q307 490 295 489T270 485L157 61Q207 71 254 98T339 165T398 254T421 358Q421 418 394 454T320 490Z" />
<glyph unicode="q" glyph-name="q" horiz-adv-x="535" d="M303 85L300 87Q273 39 234 15T146 -10Q83 -10 49 32T15 153Q15 221 41 290T109 414T203 505T308 540Q343 540 367 524T414 469L438 540H514L330 -139Q323 -164 323 -174Q323 -192 339 -200T400 -210L394
-250H136L142 -210Q184 -210 203 -200T230 -164L303 85ZM313 488Q281 488 247 455T184 372T137 262T119 146Q119 50 177 50Q210 50 244 80T307 159T353 265T371 379Q371 488 313 488Z" />
<glyph unicode="r" glyph-name="r" horiz-adv-x="463" d="M21 391Q32 416 54 442T103 490T157 526T204 540Q228 540 239 522T250 464Q250 448 249 433T243 398L246 395Q258 424 280 452T327 501T379 536T429 550Q458 550 477 532T497 486Q497 460 481 443T438
426Q422 426 413 432T396 444T383 457T368 463Q349 463 324 438T272 368T219 265T170 138L125 0H32L97 207Q116 267 128 306T148 372T157 414T160 440Q160 462 145 462Q135 462 121 454T92 434T66 407T47 378L21 391Z" />
<glyph unicode="s" glyph-name="s" horiz-adv-x="381" d="M77 387Q77 420 89 448T124 496T176 528T243 540Q291 540 323 516T355 454Q355 433 344 421T312 409Q289 409 279 422T262 452T247 483T220 497Q198 497 183 478T168 431Q168 398 187 370T231 310T274
242T294 155Q294 121 280 91T241 39T184 3T118 -10Q58 -10 23 16T-13 84Q-13 113 0 129T37 146Q80 146 86 87Q89 55 96 45T127 34Q163 34 184 55T205 115Q205 155 185 186T141 246T97 309T77 387Z" />
<glyph unicode="t" glyph-name="t" horiz-adv-x="365" d="M235 447L152 172Q135 118 134 90Q134 81 138 74T154 67Q172 67 192 80T230 112T263 150T285 181L314 164Q297 130 271 99T216 43T158 5T104 -10Q69 -10 54 5T38 55Q38 75 45 109T69 202L143 447H57L70
493H157L209 665H301L249 493H358L344 447H235Z" />
<glyph unicode="u" glyph-name="u" horiz-adv-x="593" d="M169 62Q185 62 211 84T266 144T322 230T369 330L443 530H536L462 301Q446 251 435 216T417 156T407 116T404 91Q404 65 422 65Q432 65 446 74T474 100T502 137T526 181L556 166Q543 133 522 102T477 45T425
5T372 -10Q341 -10 330 12T319 75Q319 92 320 111T326 150L323 153Q296 105 271 74T221 24T174 -2T129 -10Q82 -10 64 16T45 80Q45 122 61 172T95 268Q113 313 125 344T145 396T156 430T160 451Q160 455 159 458T151 462Q138 462 114 439T47 365L21 379Q36 408
59 437T108 489T162 526T214 540Q264 540 264 482Q264 447 245 392T194 259Q174 210 161 171T148 100Q148 79 154 71T169 62Z" />
<glyph unicode="v" glyph-name="v" horiz-adv-x="578" d="M461 357Q461 377 458 393T450 425T442 454T438 483Q438 540 490 540Q521 540 534 518T548 445Q548 392 535 338T499 233T445 138T379 61T307 9T232 -10Q205 -10 182 0T141 30T115 75T105 131Q105 188
136 265T224 424L222 427Q195 427 177 435T147 453T125 471T105 479Q88 479 88 462Q88 453 93 446T105 432T117 417T123 396Q123 378 109 367T73 355Q47 355 33 371T19 416Q19 441 29 463T56 503T95 530T143 540Q163 540 177 534T203 519T226 504T254 497Q273 497
288 512Q309 531 316 535T336 540Q356 540 356 523Q356 519 355 516T351 507T339 491T315 463Q292 435 273 400T240 327T218 251T210 178Q210 124 228 92T276 59Q304 59 336 89T396 163T442 260T461 357Z" />
<glyph unicode="w" glyph-name="w" horiz-adv-x="850" d="M407 97Q362 45 313 18T215 -10Q160 -10 129 25T98 125Q98 250 227 424L225 427Q198 427 180 435T150 453T128 471T107 479Q91 479 91 462Q91 453 96 446T108 432T120 417T126 396Q126 378 112 367T76
355Q50 355 36 371T22 416Q22 440 32 462T59 502T98 530T145 540Q166 540 180 534T206 519T229 504T256 497Q264 497 270 500T286 512Q297 523 308 531T333 540Q354 540 354 520Q354 517 353 514T348 504T335 489T313 463Q284 429 262 391T224 315T201 239T193
168Q193 119 209 92T254 64Q281 64 317 90T394 165Q392 186 391 208T389 248Q389 302 401 354T434 448T480 515T533 540Q555 540 572 521T590 457Q590 403 561 332T477 183Q486 135 510 105T564 75Q592 75 621 101T674 167T713 257T729 354Q729 377 726 394T718
425T710 453T706 483Q706 540 758 540Q789 540 802 517T816 440Q816 360 790 280T723 135T629 30T525 -10Q483 -10 453 17T407 97ZM463 247Q489 290 505 333T522 420Q522 458 507 458Q497 458 488 445T473 410T462 359T458 296Q458 282 459 270T463 247Z" />
<glyph unicode="x" glyph-name="x" horiz-adv-x="578" d="M314 233Q298 165 298 121Q298 44 351 44Q384 44 420 72T503 161L533 143Q515 109 491 81T440 33T384 1T328 -10Q282 -10 253 21T217 109L214 110Q199 83 179 61T135 24T87 -1T37 -10Q-2 -10 -26 12T-51
69Q-51 97 -35 114T8 131Q33 131 42 118T55 90T65 61T88 48Q104 48 121 61T154 98T186 157T213 233L241 330Q259 391 259 427Q259 481 226 481Q212 481 193 471T152 444T111 405T74 359L44 377Q57 407 82 436T136 488T194 525T248 540Q286 540 311 511T336 436Q365
483 406 511T485 540Q520 540 544 517T568 461Q568 437 555 422T518 407Q497 407 489 418T476 444T466 470T445 482Q429 482 412 468T380 429T351 370T328 294L314 233Z" />
<glyph unicode="y" glyph-name="y" horiz-adv-x="515" d="M161 292Q145 374 129 405T94 437Q75 437 60 409T28 318L-9 328Q1 374 17 413T53 480T95 524T139 540Q158 540 171 526T199 474Q211 442 225 390T254 269L288 108H292Q311 132 330 162T366 226T392 294T402
359Q402 369 401 384T399 416T396 446T395 470Q395 506 413 523T451 540Q477 540 489 518T501 467Q501 426 479 362T421 225T338 75T241 -66Q165 -165 101 -212T-20 -260Q-62 -260 -86 -237T-111 -181Q-111 -156 -97 -141T-60 -125Q-40 -125 -31 -136T-15 -162T-3
-188T18 -200Q37 -200 66 -179T124 -127T178 -58T215 11L161 292Z" />
<glyph unicode="z" glyph-name="z" horiz-adv-x="519" d="M160 155L162 152Q184 152 207 142T255 119T303 96T350 85Q379 85 400 103T439 169L473 156Q463 119 445 89T404 36T353 2T296 -10Q261 -10 236 4T189 35T149 67T107 81Q86 81 79 69T66 41T54 13T24 0Q-9
0 -9 30Q-9 49 7 69T57 122L333 389L331 392Q311 392 289 405T243 434T196 463T151 476Q134 476 125 468T115 445Q115 431 123 424T140 411T158 395T166 368Q166 322 117 322Q85 322 68 342T50 399Q50 429 62 454T95 499T146 529T208 540Q245 540 270 528T313 501T348
474T382 462Q399 462 407 472T422 496T436 519T461 530Q490 530 490 499Q490 491 488 484T480 467T460 444T424 408L160 155Z" />
<glyph unicode="{" glyph-name="braceleft" horiz-adv-x="336" d="M126 0Q121 -17 119 -31T116 -58Q116 -84 130 -101T177 -128L171 -150Q93 -150 59 -133T25 -68Q25 -40 37 4L90 200Q98 229 98 254Q98 283 85 305T36 330L43 355Q73 361 93 371T126 396T149 433T166
484L214 659Q227 707 242 739T282 792T342 821T432 830L426 807Q376 795 350 765T309 680L261 501Q253 470 243 445T217 399T178 366T121 345L120 340Q159 332 174 314T190 266Q190 239 179 198L126 0Z" />
<glyph unicode="|" glyph-name="bar" horiz-adv-x="350" d="M207 820V-250H127V820H207Z" />
<glyph unicode="}" glyph-name="braceright" horiz-adv-x="336" d="M94 198Q102 228 112 252T138 294T176 323T231 340L232 345Q193 353 178 373T163 424Q163 441 166 460T176 501L224 680Q233 713 233 737Q233 791 177 807L183 830Q260 830 292 811T324 746Q324
728 320 707T309 659L261 484Q250 445 250 422Q250 395 265 379T316 355L309 330Q283 328 263 316T227 285T202 245T185 200L132 4Q120 -41 103 -71T61 -118T1 -143T-85 -150L-79 -128Q-26 -114 0 -84T41 0L94 198Z" />
<glyph unicode="~" glyph-name="asciitilde" horiz-adv-x="533" d="M70 249Q78 299 107 331T174 363Q194 363 219 358T286 339Q322 327 343 322T380 317Q397 317 406 326T423 359H456Q454 339 446 318T424 277Q394 241 359 241Q341 241 319 246T253 266Q229 273
212 278T183 285T163 288T146 289Q130 289 121 280T104 249H70Z" />
<glyph unicode="&#xa0;" glyph-name="uni00A0" horiz-adv-x="275" />
<glyph unicode="&#xa1;" glyph-name="exclamdown" horiz-adv-x="318" d="M226 563L179 108Q172 44 156 17T104 -10Q76 -10 63 7T49 65Q49 84 52 102T62 144T82 199T113 276Q127 311 139 350T162 427T180 500T192 563H226ZM237 780Q262 780 280 763T299 719Q299
692 281 673T236 654Q209 654 191 673T173 718Q173 744 192 762T237 780Z" />
<glyph unicode="&#xa2;" glyph-name="cent" horiz-adv-x="468" d="M381 161Q341 81 288 38T175 -9L131 -147H79L124 -4Q76 9 49 50T22 153Q22 214 46 277T108 395T195 487T294 536L348 698H400L348 539Q387 533 412 509T438 449Q438 424 424 409T386 393Q363 393
349 407T334 443Q334 456 338 464T342 479Q342 493 318 493Q285 493 251 462T190 382T145 273T127 152Q127 104 145 77T197 49Q215 49 234 59T274 86T312 128T346 181L381 161Z" />
<glyph unicode="&#xa3;" glyph-name="sterling" horiz-adv-x="682" d="M511 780Q586 780 630 752T675 675Q675 633 652 607T591 581Q579 581 567 584T549 593Q558 600 566 622T574 665Q574 729 493 729Q422 729 385 679T347 534V431H564L550 381H346Q346 345 340
308T323 235T295 168T260 111Q278 106 299 102T343 95T385 91T422 89Q473 89 512 105T589 158L598 154Q554 -10 406 -10Q386 -10 367 -7T326 5T279 26T220 59Q192 28 149 9T63 -10Q-18 -10 -18 58Q-18 81 -9 100T18 134T58 157T108 165Q161 165 211 132Q225 163
231 195T237 276Q237 315 236 338T233 381H94L108 431H228V470Q228 537 249 594T308 692T397 757T511 780ZM181 83Q133 109 101 109Q78 109 63 98T48 70Q48 45 88 45Q137 45 181 83Z" />
<glyph unicode="&#xa4;" glyph-name="currency" horiz-adv-x="697" d="M165 128Q142 156 130 190T118 263Q118 341 165 399L93 471L128 506L200 434Q228 457 262 469T335 481Q374 481 407 469T470 434L542 506L577 471L505 399Q553 340 553 263Q553 224 541 190T506
128L577 57L542 22L471 93Q413 46 335 46Q256 46 199 94L128 23L94 57L165 128ZM168 263Q168 228 181 198T217 145T270 109T335 96Q369 96 400 109T453 145T489 198T503 263Q503 297 490 328T454 381T400 417T335 431Q300 431 270 418T217 382T181 328T168 263Z"
/>
<glyph unicode="&#xa5;" glyph-name="yen" horiz-adv-x="765" d="M624 193H448L442 168Q430 124 430 98Q430 64 453 52T531 40L519 0H180L191 40Q223 40 246 44T286 62T314 98T336 158L345 193H170L184 243H358L382 336H211L225 386H361L262 624Q247 660 235 681T210
713T181 727T139 730L150 770H431L420 730Q382 730 366 723T349 695Q349 688 350 679T357 659L464 401L603 604Q625 635 634 652T644 687Q644 708 625 719T570 730L581 770H828L817 730Q797 730 783 727T757 715T733 690T703 649L516 386H679L665 336H486L461 243H638L624
193Z" />
<glyph unicode="&#xa6;" glyph-name="brokenbar" horiz-adv-x="338" d="M202 750V365H122V750H202ZM202 205V-180H122V205H202Z" />
<glyph unicode="&#xa7;" glyph-name="section" horiz-adv-x="621" d="M121 -47Q121 -90 134 -108T169 -127Q204 -127 220 -94T237 2Q237 53 221 121T185 261T149 404T133 529Q133 612 161 669T235 762T334 814T442 830Q475 830 506 821T560 795T598 754T613 698Q613
666 598 647T557 628Q547 628 538 630T520 640T507 660T502 693Q502 701 503 711T505 732Q505 756 493 773T445 790Q420 790 401 767T381 693Q381 635 400 565T441 421T483 272T502 132Q502 48 471 -10T393 -105T289 -157T181 -173Q145 -173 112 -165T54 -141T14
-100T-1 -42Q-1 -10 16 9T64 28Q93 28 107 10T121 -47ZM401 89Q401 143 385 213T350 356T315 499T299 621Q299 646 300 666T305 704T319 738T344 771Q285 743 259 699T233 589Q233 538 248 468T281 321T315 171T330 36Q330 -20 317 -56T263 -122Q336 -104 368 -49T401
89Z" />
<glyph unicode="&#xa8;" glyph-name="dieresis" horiz-adv-x="323" d="M19 709Q25 734 46 750T92 767Q113 767 125 755T137 724Q137 709 131 696T113 673T89 657T61 651Q41 651 29 662T17 693Q17 697 17 700T19 709ZM186 709Q192 734 213 750T259 767Q280 767
292 755T304 724Q304 709 298 696T280 673T256 657T228 651Q208 651 196 662T184 693Q184 697 184 700T186 709Z" />
<glyph unicode="&#xa9;" glyph-name="copyright" horiz-adv-x="918" d="M865 386Q865 303 835 231T751 106T628 21T476 -10Q396 -10 326 21T204 106T121 232T91 385Q91 466 121 538T203 664T325 749T475 780Q556 780 627 749T751 665T834 540T865 386ZM817 386Q817
458 790 521T717 631T608 705T475 732Q404 732 343 705T237 630T165 519T139 385Q139 313 165 250T237 140T344 66T476 38Q546 38 608 65T717 140T790 250T817 386ZM651 305Q637 239 595 198T478 157Q428 157 388 172T320 216T276 285T260 375Q260 427 276 470T322
544T393 592T484 609Q517 609 546 600T610 568L620 603H641L646 472H620Q608 517 573 543T489 569Q421 569 384 519T347 379Q347 291 384 245T491 198Q589 198 618 305H651Z" />
<glyph unicode="&#xaa;" glyph-name="ordfeminine" horiz-adv-x="379" d="M293 749Q276 749 258 733T225 692T201 639T191 589Q191 569 198 558T218 547Q234 547 251 565T282 611T306 667T315 718Q315 735 309 742T293 749ZM350 775H401L373 699Q366 681 360 660T348
620T339 586T336 562Q336 557 338 553T345 548Q353 548 365 562T395 599L408 584Q385 548 359 528T309 507Q283 507 283 538Q283 543 283 550T285 566H281Q267 540 242 524T191 507Q164 507 147 526T129 581Q129 614 144 649T183 713T236 761T295 780Q327 780 339
748L350 775Z" />
<glyph unicode="&#xab;" glyph-name="guillemotleft" horiz-adv-x="478" d="M29 262L242 421L256 400L120 262L181 124L157 104L29 262ZM200 262L413 421L427 400L291 262L352 124L328 104L200 262Z" />
<glyph unicode="&#xac;" glyph-name="logicalnot" horiz-adv-x="676" d="M504 313H96V363H554V110H504V313Z" />
<glyph unicode="&#xad;" glyph-name="uni00AD" horiz-adv-x="488" d="M81 248V331H390V248H81Z" />
<glyph unicode="&#xae;" glyph-name="registered" horiz-adv-x="918" d="M865 386Q865 303 835 231T751 106T628 21T476 -10Q396 -10 326 21T204 106T121 232T91 385Q91 466 121 538T203 664T325 749T475 780Q556 780 627 749T751 665T834 540T865 386ZM817 386Q817
458 790 521T717 631T608 705T475 732Q404 732 343 705T237 630T165 519T139 385Q139 313 165 250T237 140T344 66T476 38Q546 38 608 65T717 140T790 250T817 386ZM626 507Q626 462 601 432T518 393L642 243Q656 226 671 218T709 205V183H601L463 354Q456 363
451 369T439 378T424 382T403 383V271Q403 251 405 238T414 218T436 208T475 205V183H277V205Q313 206 323 218T333 268V527Q333 546 331 558T324 577T309 586T283 590V615H458Q539 615 582 587T626 507ZM403 416H443Q494 416 518 436T543 504Q543 549 523 567T458
585H412Q403 585 403 576V416Z" />
<glyph unicode="&#xaf;" glyph-name="overscore" horiz-adv-x="310" d="M13 702L26 752H296L283 702H13Z" />
<glyph unicode="&#xb0;" glyph-name="degree" horiz-adv-x="342" d="M139 660Q139 685 148 706T174 744T212 770T259 780Q284 780 305 771T343 745T369 707T379 660Q379 635 370 614T344 576T306 550T259 540Q234 540 213 549T175 575T149 613T139 660ZM169 660Q169
623 195 597T259 570Q296 570 322 596T348 660Q348 697 322 723T259 749Q222 749 196 723T169 660Z" />
<glyph unicode="&#xb1;" glyph-name="plusminus" horiz-adv-x="659" d="M299 234V443H91V493H299V702H351V493H559V443H351V234H299ZM559 95H91V145H559V95Z" />
<glyph unicode="&#xb2;" glyph-name="twosuperior" horiz-adv-x="282" d="M163 507H235Q255 507 266 513T288 537H307L282 468H97L100 489Q150 529 184 560T240 618T271 665T281 708Q281 729 269 741T236 754Q213 754 197 740T180 705Q180 667 218 667Q210 645
183 645Q161 645 148 658T135 695Q135 713 143 728T167 755T201 774T244 781Q285 781 309 761T333 707Q333 666 294 620T163 511V507Z" />
<glyph unicode="&#xb3;" glyph-name="threesuperior" horiz-adv-x="287" d="M258 556Q258 582 246 600T213 618Q206 618 197 617T182 615Q169 615 169 623Q169 636 185 639T222 647T259 664T276 710Q276 755 240 755Q219 755 206 745T192 718Q192 692 217 692Q210
677 190 677Q172 677 162 687T151 714Q151 743 177 761T243 780Q281 780 303 764T325 718Q325 690 304 667T252 636V632Q280 625 295 607T310 562Q310 542 301 524T274 493T235 472T186 464Q147 464 123 481T98 526Q98 549 114 565T152 582Q163 582 170 577T180
564Q165 564 154 552T143 522Q143 490 189 490Q220 490 239 508T258 556Z" />
<glyph unicode="&#xb4;" glyph-name="acute" horiz-adv-x="275" d="M20 651L150 770Q186 803 217 803Q234 803 244 794T255 768Q255 752 242 740T204 716L67 651H20Z" />
<glyph unicode="&#xb5;" glyph-name="mu" horiz-adv-x="685" d="M143 268Q155 305 163 331T175 375T182 406T184 428Q184 449 173 449Q149 449 80 365L54 379Q70 411 94 440T144 491T198 527T247 540Q270 540 283 526T297 485Q297 473 296 462T287 427T267 365T231
259Q214 210 205 170T196 104Q196 62 223 62Q242 62 267 83T319 142T371 227T417 330L491 530H584L510 301Q493 250 482 214T465 154T455 115T452 91Q452 65 469 65Q479 65 493 74T522 100T550 137T574 181L604 166Q589 129 567 97T521 41T470 4T419 -10Q391 -10
379 11T367 81Q367 96 368 110T372 138L369 141Q337 68 298 29T218 -10Q171 -10 155 26L152 25L118 -181Q111 -222 96 -241T51 -260Q6 -260 6 -210Q6 -193 12 -169Q18 -145 32 -95T65 18T104 146T143 268Z" />
<glyph unicode="&#xb6;" glyph-name="paragraph" horiz-adv-x="548" d="M354 73Q328 -29 302 -93T246 -195T182 -246T104 -260Q62 -260 35 -238T8 -184Q8 -159 21 -145T57 -130Q78 -130 86 -141T99 -165T112 -189T139 -200Q162 -200 180 -176T210 -113L326 336Q315
334 305 333T283 332Q249 332 217 342T159 372T118 425T102 501Q102 565 127 615T196 699T302 752T436 770H602L592 732Q569 732 554 728T527 709T505 661T480 573L354 73Z" />
<glyph unicode="&#xb7;" glyph-name="middot" horiz-adv-x="275" d="M61 274Q61 302 80 321T126 340Q154 340 173 321T192 274Q192 247 173 228T126 209Q99 209 80 228T61 274Z" />
<glyph unicode="&#xb8;" glyph-name="cedilla" horiz-adv-x="232" d="M136 -72Q187 -72 213 -88T240 -135Q240 -161 227 -183T193 -223T144 -250T88 -260Q43 -260 16 -242T-11 -197Q-11 -176 1 -162T30 -148Q42 -148 46 -159T54 -182T65 -206T90 -217Q114 -217
134 -199T155 -154Q155 -113 88 -113Q78 -113 68 -113T53 -115L52 -112L137 12H190L136 -72Z" />
<glyph unicode="&#xb9;" glyph-name="onesuperior" horiz-adv-x="273" d="M236 580Q232 565 229 550T226 524Q226 508 235 499T268 489L263 468H110L115 489Q144 489 158 501T181 545L221 704Q222 706 222 710Q222 716 216 716Q209 716 195 713T158 709L165 731Q198
731 222 745T267 780H287L236 580Z" />
<glyph unicode="&#xba;" glyph-name="ordmasculine" horiz-adv-x="338" d="M224 507Q187 507 160 533T133 607Q133 639 146 670T180 725T229 765T286 780Q327 780 352 755T378 685Q378 654 365 622T330 565T281 523T224 507ZM232 537Q247 537 262 553T289 595T308
649T315 705Q315 732 306 742T281 752Q266 752 251 736T225 696T207 643T200 587Q200 560 209 549T232 537Z" />
<glyph unicode="&#xbb;" glyph-name="guillemotright" horiz-adv-x="478" d="M209 104L195 124L330 262L268 400L294 421L421 262L209 104ZM38 104L24 124L159 262L97 400L123 421L250 262L38 104Z" />
<glyph unicode="&#xbc;" glyph-name="onequarter" horiz-adv-x="634" d="M54 0H-13L610 770H668L54 0ZM235 580Q231 565 228 550T225 524Q225 508 234 499T267 489L262 468H109L114 489Q143 489 157 501T180 545L220 704Q221 706 221 710Q221 716 215 716Q208
716 194 713T157 709L164 731Q197 731 221 745T266 780H286L235 580ZM498 138H547L541 114H492L459 0H417L446 114H328L333 134L519 312H542L498 138ZM453 138L482 243L479 244L370 138H453Z" />
<glyph unicode="&#xbd;" glyph-name="onehalf" horiz-adv-x="656" d="M55 0H-12L611 770H669L55 0ZM236 580Q232 565 229 550T226 524Q226 508 235 499T268 489L263 468H110L115 489Q144 489 158 501T181 545L221 704Q222 706 222 710Q222 716 216 716Q209 716
195 713T158 709L165 731Q198 731 222 745T267 780H287L236 580ZM408 39H480Q500 39 511 45T533 69H552L527 0H342L345 21Q395 61 429 92T485 150T516 197T526 240Q526 261 514 273T481 286Q458 286 442 272T425 237Q425 199 463 199Q455 177 428 177Q406 177 393
190T380 227Q380 245 388 260T412 287T446 306T489 313Q530 313 554 293T578 239Q578 219 569 198T539 153T487 102T408 43V39Z" />
<glyph unicode="&#xbe;" glyph-name="threequarters" horiz-adv-x="660" d="M80 0H13L636 770H694L80 0ZM524 138H573L567 114H518L485 0H443L472 114H354L359 134L545 312H568L524 138ZM479 138L508 243L505 244L396 138H479ZM266 556Q266 582 254 600T221 618Q214
618 205 617T190 615Q177 615 177 623Q177 636 193 639T230 647T267 664T284 710Q284 755 248 755Q227 755 214 745T200 718Q200 692 225 692Q218 677 198 677Q180 677 170 687T159 714Q159 743 185 761T251 780Q289 780 311 764T333 718Q333 690 312 667T260 636V632Q288
625 303 607T318 562Q318 542 309 524T282 493T243 472T194 464Q155 464 131 481T106 526Q106 549 122 565T160 582Q171 582 178 577T188 564Q173 564 162 552T151 522Q151 490 197 490Q228 490 247 508T266 556Z" />
<glyph unicode="&#xbf;" glyph-name="questiondown" horiz-adv-x="470" d="M312 781Q338 781 356 763T374 719Q374 692 356 674T311 655Q285 655 267 674T248 719Q248 745 266 763T312 781ZM365 481Q365 433 345 399T293 337T225 288T158 242T106 193T85 133Q85
91 115 65T193 38Q235 38 263 58T292 111Q292 131 281 137T257 148T233 160T222 189Q222 212 236 225T277 238Q318 238 345 209T373 137Q373 107 359 80T319 33T260 2T188 -10Q150 -10 119 1T67 34T33 84T21 150Q21 201 42 238T96 305T166 358T236 403T289 447T311
497Q311 537 265 537Q219 537 191 486L164 502Q202 580 275 580Q319 580 342 555T365 481Z" />
<glyph unicode="&#xc0;" glyph-name="Agrave" horiz-adv-x="763" d="M551 166Q539 113 539 89Q539 60 558 50T632 40L622 0H326L336 40Q365 40 384 44T415 62T437 101T455 167L482 290H267L204 224Q163 181 140 155T104 112T89 88T86 74Q86 55 102 48T161 40L151
0H-108L-98 40Q-74 40 -51 49T1 81T64 139T145 231L606 780H690L551 166ZM491 340L573 650H569L310 340H491ZM642 850L529 878Q500 885 483 895T466 919Q466 938 481 949T514 960Q534 960 551 952T592 927L702 850H642Z" />
<glyph unicode="&#xc1;" glyph-name="Aacute" horiz-adv-x="763" d="M551 166Q539 113 539 89Q539 60 558 50T632 40L622 0H326L336 40Q365 40 384 44T415 62T437 101T455 167L482 290H267L204 224Q163 181 140 155T104 112T89 88T86 74Q86 55 102 48T161 40L151
0H-108L-98 40Q-74 40 -51 49T1 81T64 139T145 231L606 780H690L551 166ZM491 340L573 650H569L310 340H491ZM625 850L775 927Q807 944 829 952T871 960Q901 960 901 935Q901 915 878 901T812 878L685 850H625Z" />
<glyph unicode="&#xc2;" glyph-name="Acircumflex" horiz-adv-x="763" d="M551 166Q539 113 539 89Q539 60 558 50T632 40L622 0H326L336 40Q365 40 384 44T415 62T437 101T455 167L482 290H267L204 224Q163 181 140 155T104 112T89 88T86 74Q86 55 102 48T161
40L151 0H-108L-98 40Q-74 40 -51 49T1 81T64 139T145 231L606 780H690L551 166ZM491 340L573 650H569L310 340H491ZM757 960L837 851H792L687 905L554 851H509L647 960H757Z" />
<glyph unicode="&#xc3;" glyph-name="Atilde" horiz-adv-x="763" d="M551 166Q539 113 539 89Q539 60 558 50T632 40L622 0H326L336 40Q365 40 384 44T415 62T437 101T455 167L482 290H267L204 224Q163 181 140 155T104 112T89 88T86 74Q86 55 102 48T161 40L151
0H-108L-98 40Q-74 40 -51 49T1 81T64 139T145 231L606 780H690L551 166ZM491 340L573 650H569L310 340H491ZM513 846Q521 897 550 928T618 960Q640 960 661 953T702 937T740 921T777 914Q794 914 804 923T821 956H854Q851 933 843 912T822 875T792 848T755 838Q733
838 711 845T667 862T625 878T589 886Q572 886 563 877T547 846H513Z" />
<glyph unicode="&#xc4;" glyph-name="Adieresis" horiz-adv-x="763" d="M551 166Q539 113 539 89Q539 60 558 50T632 40L622 0H326L336 40Q365 40 384 44T415 62T437 101T455 167L482 290H267L204 224Q163 181 140 155T104 112T89 88T86 74Q86 55 102 48T161 40L151
0H-108L-98 40Q-74 40 -51 49T1 81T64 139T145 231L606 780H690L551 166ZM491 340L573 650H569L310 340H491ZM551 910Q556 931 574 945T614 960Q632 960 643 950T654 923Q654 910 648 899T633 878T611 864T587 859Q570 859 560 869T549 895Q549 905 551 910ZM733
910Q738 931 756 945T797 960Q814 960 825 950T836 923Q836 910 830 899T815 878T794 864T770 859Q752 859 742 869T731 895Q731 905 733 910Z" />
<glyph unicode="&#xc5;" glyph-name="Aring" horiz-adv-x="763" d="M551 166Q539 113 539 89Q539 60 558 50T632 40L622 0H326L336 40Q365 40 384 44T415 62T437 101T455 167L482 290H267L204 224Q163 181 140 155T104 112T89 88T86 74Q86 55 102 48T161 40L151
0H-108L-98 40Q-74 40 -51 49T1 81T64 139T145 231L606 780H690L551 166ZM491 340L573 650H569L310 340H491ZM616 878Q616 894 623 908T642 934T669 953T701 960Q724 960 737 947T751 911Q751 895 744 881T724 855T697 837T665 830Q642 830 629 843T616 878ZM692
928Q675 928 662 915T648 885Q648 861 673 861Q690 861 704 873T718 903Q718 928 692 928Z" />
<glyph unicode="&#xc6;" glyph-name="AE" horiz-adv-x="1071" d="M349 0L359 40Q388 40 407 44T438 62T460 101T478 167L505 290H290L227 224Q186 181 163 155T127 112T112 88T109 74Q109 55 125 48T184 40L174 0H-85L-75 40Q-51 40 -28 49T24 81T87 139T168 231L542
677Q558 696 558 706Q558 719 533 724T450 730L461 770H1037V568H999Q986 616 970 646T934 694T888 719T831 726H701L633 429H686Q713 429 732 434T766 451T795 486T825 543H862L802 247H762Q765 277 765 299Q765 344 748 364T685 385H623L574 166Q562 113 562
89Q562 77 568 69T588 54T627 46T686 43Q743 43 785 52T859 80T914 132T959 211H1006L928 0H349ZM514 340L596 650H592L333 340H514Z" />
<glyph unicode="&#xc7;" glyph-name="Ccedilla" horiz-adv-x="728" d="M665 189Q604 95 544 49T409 -7L368 -72Q419 -72 445 -88T472 -135Q472 -161 459 -183T425 -223T376 -250T320 -260Q275 -260 248 -242T221 -197Q221 -176 233 -162T262 -148Q274 -148 278
-159T286 -182T297 -206T322 -217Q346 -217 366 -199T387 -154Q387 -113 320 -113Q310 -113 300 -113T285 -115L284 -112L354 -10Q289 -8 237 14T149 77T93 174T73 301Q73 396 108 482T201 635T337 740T498 780Q546 780 589 766T678 720L715 770H752L706 519H668Q660
628 622 678T506 728Q440 728 383 695T284 604T218 468T194 300Q194 52 387 52Q459 52 517 91T629 213L665 189V189Z" />
<glyph unicode="&#xc8;" glyph-name="Egrave" horiz-adv-x="740" d="M-15 40Q18 40 39 45T75 63T100 99T119 158L235 599Q242 625 245 644T249 677Q249 710 226 720T149 730L160 770H706V568H668Q655 616 639 646T603 694T557 719T500 726H370L292 429H355Q382
429 401 434T435 451T464 486T494 543H531L471 247H431Q434 277 434 299Q434 344 417 364T354 385H279L222 170Q213 137 213 114Q213 78 245 61T355 43Q412 43 454 52T528 80T583 132T628 211H675L597 0H-26L-15 40ZM524 850L411 878Q382 885 365 895T348 919Q348
938 363 949T396 960Q416 960 433 952T474 927L584 850H524Z" />
<glyph unicode="&#xc9;" glyph-name="Eacute" horiz-adv-x="740" d="M-15 40Q18 40 39 45T75 63T100 99T119 158L235 599Q242 625 245 644T249 677Q249 710 226 720T149 730L160 770H706V568H668Q655 616 639 646T603 694T557 719T500 726H370L292 429H355Q382
429 401 434T435 451T464 486T494 543H531L471 247H431Q434 277 434 299Q434 344 417 364T354 385H279L222 170Q213 137 213 114Q213 78 245 61T355 43Q412 43 454 52T528 80T583 132T628 211H675L597 0H-26L-15 40ZM378 850L528 927Q560 944 582 952T624 960Q654
960 654 935Q654 915 631 901T565 878L438 850H378Z" />
<glyph unicode="&#xca;" glyph-name="Ecircumflex" horiz-adv-x="740" d="M-15 40Q18 40 39 45T75 63T100 99T119 158L235 599Q242 625 245 644T249 677Q249 710 226 720T149 730L160 770H706V568H668Q655 616 639 646T603 694T557 719T500 726H370L292 429H355Q382
429 401 434T435 451T464 486T494 543H531L471 247H431Q434 277 434 299Q434 344 417 364T354 385H279L222 170Q213 137 213 114Q213 78 245 61T355 43Q412 43 454 52T528 80T583 132T628 211H675L597 0H-26L-15 40ZM562 960L642 851H597L492 905L359 851H314L452
960H562Z" />
<glyph unicode="&#xcb;" glyph-name="Edieresis" horiz-adv-x="740" d="M-15 40Q18 40 39 45T75 63T100 99T119 158L235 599Q242 625 245 644T249 677Q249 710 226 720T149 730L160 770H706V568H668Q655 616 639 646T603 694T557 719T500 726H370L292 429H355Q382
429 401 434T435 451T464 486T494 543H531L471 247H431Q434 277 434 299Q434 344 417 364T354 385H279L222 170Q213 137 213 114Q213 78 245 61T355 43Q412 43 454 52T528 80T583 132T628 211H675L597 0H-26L-15 40ZM352 910Q357 931 375 945T415 960Q433 960 444
950T455 923Q455 910 449 899T434 878T412 864T388 859Q371 859 361 869T350 895Q350 905 352 910ZM534 910Q539 931 557 945T598 960Q615 960 626 950T637 923Q637 910 631 899T616 878T595 864T571 859Q553 859 543 869T532 895Q532 905 534 910Z" />
<glyph unicode="&#xcc;" glyph-name="Igrave" horiz-adv-x="420" d="M224 168Q212 124 212 98Q212 64 233 52T303 40L291 0H-28L-17 40Q13 40 34 44T70 62T97 98T118 158L235 600Q250 655 250 682Q250 713 228 721T151 730L162 770H487L476 730Q443 730 421 724T383
699T355 649T329 566L224 168ZM382 850L269 878Q240 885 223 895T206 919Q206 938 221 949T254 960Q274 960 291 952T332 927L442 850H382Z" />
<glyph unicode="&#xcd;" glyph-name="Iacute" horiz-adv-x="420" d="M224 168Q212 124 212 98Q212 64 233 52T303 40L291 0H-28L-17 40Q13 40 34 44T70 62T97 98T118 158L235 600Q250 655 250 682Q250 713 228 721T151 730L162 770H487L476 730Q443 730 421 724T383
699T355 649T329 566L224 168ZM236 850L386 927Q418 944 440 952T482 960Q512 960 512 935Q512 915 489 901T423 878L296 850H236Z" />
<glyph unicode="&#xce;" glyph-name="Icircumflex" horiz-adv-x="420" d="M224 168Q212 124 212 98Q212 64 233 52T303 40L291 0H-28L-17 40Q13 40 34 44T70 62T97 98T118 158L235 600Q250 655 250 682Q250 713 228 721T151 730L162 770H487L476 730Q443 730 421
724T383 699T355 649T329 566L224 168ZM428 960L508 851H463L358 905L225 851H180L318 960H428Z" />
<glyph unicode="&#xcf;" glyph-name="Idieresis" horiz-adv-x="420" d="M224 168Q212 124 212 98Q212 64 233 52T303 40L291 0H-28L-17 40Q13 40 34 44T70 62T97 98T118 158L235 600Q250 655 250 682Q250 713 228 721T151 730L162 770H487L476 730Q443 730 421
724T383 699T355 649T329 566L224 168ZM226 910Q231 931 249 945T289 960Q307 960 318 950T329 923Q329 910 323 899T308 878T286 864T262 859Q245 859 235 869T224 895Q224 905 226 910ZM408 910Q413 931 431 945T472 960Q489 960 500 950T511 923Q511 910 505
899T490 878T469 864T445 859Q427 859 417 869T406 895Q406 905 408 910Z" />
<glyph unicode="&#xd0;" glyph-name="Eth" horiz-adv-x="839" d="M168 770H439Q508 770 573 754T691 693Q748 646 774 582T800 447Q800 402 790 357T761 269T717 189T661 121Q591 52 506 26T324 0H-26L-15 40Q17 40 38 44T74 60T99 96T120 158L174 366H81L94 416H187L235
600Q237 607 240 618T248 642T254 667T257 688Q257 703 249 711T228 723T201 729T174 730H155L168 770ZM290 416H404L391 366H276L240 231Q232 201 227 182T220 150T216 130T215 118Q215 91 226 77T254 55T287 46T315 44Q380 44 433 62T527 111T597 184T646 271T675
364T684 457Q684 583 617 651T431 720Q402 720 385 712T358 669L290 416Z" />
<glyph unicode="&#xd1;" glyph-name="Ntilde" horiz-adv-x="842" d="M580 0L318 602H314L200 168Q194 144 194 125Q194 83 219 62T289 40L277 0H-9L2 40Q49 40 86 73T137 158L255 602Q259 617 259 633Q259 681 219 705T112 730L124 770H359L609 197H613L719 602Q724
624 724 639Q724 682 700 705T640 730L652 770H908L897 730Q878 730 860 721T827 697T801 659T782 612L620 0H580ZM386 846Q394 897 423 928T491 960Q513 960 534 953T575 937T613 921T650 914Q667 914 677 923T694 956H727Q724 933 716 912T695 875T665 848T628
838Q606 838 584 845T540 862T498 878T462 886Q445 886 436 877T420 846H386Z" />
<glyph unicode="&#xd2;" glyph-name="Ograve" horiz-adv-x="820" d="M505 780Q569 780 620 758T708 696T764 598T784 469Q784 373 750 286T656 133T520 29T356 -10Q292 -10 240 12T151 76T94 174T74 303Q74 399 109 485T203 637T340 741T505 780ZM505 728Q440
728 384 695T285 604T219 468T195 300Q195 172 239 108T370 44Q433 44 486 78T579 172T641 315T663 496Q663 616 625 672T505 728ZM565 850L452 878Q423 885 406 895T389 919Q389 938 404 949T437 960Q457 960 474 952T515 927L625 850H565Z" />
<glyph unicode="&#xd3;" glyph-name="Oacute" horiz-adv-x="820" d="M505 780Q569 780 620 758T708 696T764 598T784 469Q784 373 750 286T656 133T520 29T356 -10Q292 -10 240 12T151 76T94 174T74 303Q74 399 109 485T203 637T340 741T505 780ZM505 728Q440
728 384 695T285 604T219 468T195 300Q195 172 239 108T370 44Q433 44 486 78T579 172T641 315T663 496Q663 616 625 672T505 728ZM419 850L569 927Q601 944 623 952T665 960Q695 960 695 935Q695 915 672 901T606 878L479 850H419Z" />
<glyph unicode="&#xd4;" glyph-name="Ocircumflex" horiz-adv-x="820" d="M505 780Q569 780 620 758T708 696T764 598T784 469Q784 373 750 286T656 133T520 29T356 -10Q292 -10 240 12T151 76T94 174T74 303Q74 399 109 485T203 637T340 741T505 780ZM505 728Q440
728 384 695T285 604T219 468T195 300Q195 172 239 108T370 44Q433 44 486 78T579 172T641 315T663 496Q663 616 625 672T505 728ZM619 960L699 851H654L549 905L416 851H371L509 960H619Z" />
<glyph unicode="&#xd5;" glyph-name="Otilde" horiz-adv-x="820" d="M505 780Q569 780 620 758T708 696T764 598T784 469Q784 373 750 286T656 133T520 29T356 -10Q292 -10 240 12T151 76T94 174T74 303Q74 399 109 485T203 637T340 741T505 780ZM505 728Q440
728 384 695T285 604T219 468T195 300Q195 172 239 108T370 44Q433 44 486 78T579 172T641 315T663 496Q663 616 625 672T505 728ZM381 846Q389 897 418 928T486 960Q508 960 529 953T570 937T608 921T645 914Q662 914 672 923T689 956H722Q719 933 711 912T690
875T660 848T623 838Q601 838 579 845T535 862T493 878T457 886Q440 886 431 877T415 846H381Z" />
<glyph unicode="&#xd6;" glyph-name="Odieresis" horiz-adv-x="820" d="M505 780Q569 780 620 758T708 696T764 598T784 469Q784 373 750 286T656 133T520 29T356 -10Q292 -10 240 12T151 76T94 174T74 303Q74 399 109 485T203 637T340 741T505 780ZM505 728Q440
728 384 695T285 604T219 468T195 300Q195 172 239 108T370 44Q433 44 486 78T579 172T641 315T663 496Q663 616 625 672T505 728ZM418 910Q423 931 441 945T481 960Q499 960 510 950T521 923Q521 910 515 899T500 878T478 864T454 859Q437 859 427 869T416 895Q416
905 418 910ZM600 910Q605 931 623 945T664 960Q681 960 692 950T703 923Q703 910 697 899T682 878T661 864T637 859Q619 859 609 869T598 895Q598 905 600 910Z" />
<glyph unicode="&#xd7;" glyph-name="multiply" horiz-adv-x="543" d="M82 184L237 339L83 493L118 528L272 374L427 529L464 492L309 337L463 183L428 148L274 302L119 147L82 184Z" />
<glyph unicode="&#xd8;" glyph-name="Oslash" horiz-adv-x="820" d="M505 780Q554 780 595 767T671 729L749 828H818L711 693Q746 652 765 596T784 469Q784 373 750 286T656 133T520 29T356 -10Q260 -10 193 37L115 -62H47L153 73Q115 114 95 172T74 303Q74 399
109 485T203 637T340 741T505 780ZM505 728Q440 728 384 695T285 604T219 468T195 300Q195 210 217 153L625 671Q586 728 505 728ZM663 496Q663 564 649 615L244 102Q290 44 370 44Q433 44 486 78T579 172T641 315T663 496Z" />
<glyph unicode="&#xd9;" glyph-name="Ugrave" horiz-adv-x="808" d="M200 599Q205 619 209 640T213 676Q213 706 192 718T119 730L132 770H451L440 730Q404 730 382 725T345 702T318 652T292 565L227 314Q220 288 217 265T214 220Q214 140 255 93T375 46Q424 46
462 64T531 115T583 192T622 290Q637 338 651 397T677 511T695 609T702 670Q702 700 675 714T600 730L612 770H875L863 730Q839 730 822 726T793 706T772 664T753 592L710 392Q667 193 582 92T367 -10Q239 -10 177 49T114 219Q114 251 119 283T134 353L200 599ZM574
850L461 878Q432 885 415 895T398 919Q398 938 413 949T446 960Q466 960 483 952T524 927L634 850H574Z" />
<glyph unicode="&#xda;" glyph-name="Uacute" horiz-adv-x="808" d="M200 599Q205 619 209 640T213 676Q213 706 192 718T119 730L132 770H451L440 730Q404 730 382 725T345 702T318 652T292 565L227 314Q220 288 217 265T214 220Q214 140 255 93T375 46Q424 46
462 64T531 115T583 192T622 290Q637 338 651 397T677 511T695 609T702 670Q702 700 675 714T600 730L612 770H875L863 730Q839 730 822 726T793 706T772 664T753 592L710 392Q667 193 582 92T367 -10Q239 -10 177 49T114 219Q114 251 119 283T134 353L200 599ZM428
850L578 927Q610 944 632 952T674 960Q704 960 704 935Q704 915 681 901T615 878L488 850H428Z" />
<glyph unicode="&#xdb;" glyph-name="Ucircumflex" horiz-adv-x="808" d="M200 599Q205 619 209 640T213 676Q213 706 192 718T119 730L132 770H451L440 730Q404 730 382 725T345 702T318 652T292 565L227 314Q220 288 217 265T214 220Q214 140 255 93T375 46Q424
46 462 64T531 115T583 192T622 290Q637 338 651 397T677 511T695 609T702 670Q702 700 675 714T600 730L612 770H875L863 730Q839 730 822 726T793 706T772 664T753 592L710 392Q667 193 582 92T367 -10Q239 -10 177 49T114 219Q114 251 119 283T134 353L200 599ZM612
960L692 851H647L542 905L409 851H364L502 960H612Z" />
<glyph unicode="&#xdc;" glyph-name="Udieresis" horiz-adv-x="808" d="M200 599Q205 619 209 640T213 676Q213 706 192 718T119 730L132 770H451L440 730Q404 730 382 725T345 702T318 652T292 565L227 314Q220 288 217 265T214 220Q214 140 255 93T375 46Q424
46 462 64T531 115T583 192T622 290Q637 338 651 397T677 511T695 609T702 670Q702 700 675 714T600 730L612 770H875L863 730Q839 730 822 726T793 706T772 664T753 592L710 392Q667 193 582 92T367 -10Q239 -10 177 49T114 219Q114 251 119 283T134 353L200 599ZM402
910Q407 931 425 945T465 960Q483 960 494 950T505 923Q505 910 499 899T484 878T462 864T438 859Q421 859 411 869T400 895Q400 905 402 910ZM584 910Q589 931 607 945T648 960Q665 960 676 950T687 923Q687 910 681 899T666 878T645 864T621 859Q603 859 593
869T582 895Q582 905 584 910Z" />
<glyph unicode="&#xdd;" glyph-name="Yacute" horiz-adv-x="689" d="M393 168Q381 124 381 98Q381 64 404 52T482 40L470 0H131L142 40Q174 40 197 44T237 62T265 98T287 158L333 336L213 624Q198 660 186 681T161 713T132 727T90 730L101 770H382L371 730Q333
730 317 723T300 695Q300 688 301 679T308 659L415 401L554 604Q576 635 585 652T595 687Q595 708 576 719T521 730L532 770H779L768 730Q748 730 734 727T708 715T684 690T654 649L440 348L393 168ZM365 850L515 927Q547 944 569 952T611 960Q641 960 641 935Q641
915 618 901T552 878L425 850H365Z" />
<glyph unicode="&#xde;" glyph-name="Thorn" horiz-adv-x="705" d="M338 596H447Q688 596 688 425Q688 368 662 322T587 244T469 194T315 176H225L220 157Q214 134 212 119T209 93Q209 61 234 50T327 38L316 0H-36L-25 38Q10 39 32 44T70 61T95 95T114 152L239
618Q245 640 247 655T250 682Q250 710 231 720T159 732L170 770H523L512 732Q467 732 440 728T394 712T365 676T343 613L338 596ZM239 226H310Q367 226 413 241T493 285T543 355T561 446Q561 502 532 525T434 549H342Q326 549 321 532L239 226Z" />
<glyph unicode="&#xdf;" glyph-name="germandbls" horiz-adv-x="586" d="M150 586Q179 702 243 766T399 830Q477 830 522 791T567 683Q567 644 553 608T513 544T451 495T373 467L371 462Q443 462 484 416T526 288Q526 230 504 176T444 81T357 15T256 -10Q214 -10
190 7T166 53Q166 79 182 98T220 118Q232 118 237 112T245 97T248 77T252 57T261 42T283 36Q311 36 336 55T380 108T410 185T421 278Q421 360 384 398T265 436L278 487Q350 487 393 523T459 633Q461 650 464 663T467 691Q467 739 443 759T367 780Q345 780 328 770T296
737T270 679T245 592L120 73Q98 -17 74 -80T21 -183T-42 -241T-120 -260Q-170 -260 -198 -240T-226 -183Q-226 -159 -213 -145T-177 -130Q-156 -130 -148 -141T-135 -165T-122 -189T-97 -200Q-73 -200 -54 -178T-24 -113L150 586Z" />
<glyph unicode="&#xe0;" glyph-name="agrave" horiz-adv-x="570" d="M332 488Q294 488 254 453T180 366T126 253T105 140Q105 104 120 83T161 61Q184 61 209 79T257 128T302 198T339 278T364 360T373 432Q373 458 362 473T332 488ZM435 530H518L461 377Q447 339
434 296T410 213T393 140T387 91Q387 62 406 62Q420 62 446 91T506 166L532 145Q490 71 442 31T348 -10Q325 -10 313 7T300 65Q300 74 300 86T303 118L299 119Q284 91 264 68T219 27T169 0T118 -10Q67 -10 39 28T10 135Q10 204 39 276T114 406T216 502T326 540Q359
540 380 525T414 474L435 530ZM402 651L283 716Q265 726 255 736T244 760Q244 780 259 791T293 803Q324 803 351 770L449 651H402Z" />
<glyph unicode="&#xe1;" glyph-name="aacute" horiz-adv-x="570" d="M332 488Q294 488 254 453T180 366T126 253T105 140Q105 104 120 83T161 61Q184 61 209 79T257 128T302 198T339 278T364 360T373 432Q373 458 362 473T332 488ZM435 530H518L461 377Q447 339
434 296T410 213T393 140T387 91Q387 62 406 62Q420 62 446 91T506 166L532 145Q490 71 442 31T348 -10Q325 -10 313 7T300 65Q300 74 300 86T303 118L299 119Q284 91 264 68T219 27T169 0T118 -10Q67 -10 39 28T10 135Q10 204 39 276T114 406T216 502T326 540Q359
540 380 525T414 474L435 530ZM280 651L410 770Q446 803 477 803Q494 803 504 794T515 768Q515 752 502 740T464 716L327 651H280Z" />
<glyph unicode="&#xe2;" glyph-name="acircumflex" horiz-adv-x="570" d="M332 488Q294 488 254 453T180 366T126 253T105 140Q105 104 120 83T161 61Q184 61 209 79T257 128T302 198T339 278T364 360T373 432Q373 458 362 473T332 488ZM435 530H518L461 377Q447
339 434 296T410 213T393 140T387 91Q387 62 406 62Q420 62 446 91T506 166L532 145Q490 71 442 31T348 -10Q325 -10 313 7T300 65Q300 74 300 86T303 118L299 119Q284 91 264 68T219 27T169 0T118 -10Q67 -10 39 28T10 135Q10 204 39 276T114 406T216 502T326
540Q359 540 380 525T414 474L435 530ZM432 780L516 651H471L370 719L233 651H188L342 780H432Z" />
<glyph unicode="&#xe3;" glyph-name="atilde" horiz-adv-x="570" d="M332 488Q294 488 254 453T180 366T126 253T105 140Q105 104 120 83T161 61Q184 61 209 79T257 128T302 198T339 278T364 360T373 432Q373 458 362 473T332 488ZM435 530H518L461 377Q447 339
434 296T410 213T393 140T387 91Q387 62 406 62Q420 62 446 91T506 166L532 145Q490 71 442 31T348 -10Q325 -10 313 7T300 65Q300 74 300 86T303 118L299 119Q284 91 264 68T219 27T169 0T118 -10Q67 -10 39 28T10 135Q10 204 39 276T114 406T216 502T326 540Q359
540 380 525T414 474L435 530ZM199 660Q207 711 236 742T304 774Q319 774 340 769T390 750Q419 737 434 733T463 728Q480 728 490 737T507 770H540Q538 750 529 727T508 688Q481 652 441 652Q427 652 410 657T357 677Q323 690 305 695T275 700Q258 700 249 691T233
660H199Z" />
<glyph unicode="&#xe4;" glyph-name="adieresis" horiz-adv-x="570" d="M332 488Q294 488 254 453T180 366T126 253T105 140Q105 104 120 83T161 61Q184 61 209 79T257 128T302 198T339 278T364 360T373 432Q373 458 362 473T332 488ZM435 530H518L461 377Q447
339 434 296T410 213T393 140T387 91Q387 62 406 62Q420 62 446 91T506 166L532 145Q490 71 442 31T348 -10Q325 -10 313 7T300 65Q300 74 300 86T303 118L299 119Q284 91 264 68T219 27T169 0T118 -10Q67 -10 39 28T10 135Q10 204 39 276T114 406T216 502T326
540Q359 540 380 525T414 474L435 530ZM229 709Q235 734 256 750T302 767Q323 767 335 755T347 724Q347 709 341 696T323 673T299 657T271 651Q251 651 239 662T227 693Q227 697 227 700T229 709ZM396 709Q402 734 423 750T469 767Q490 767 502 755T514 724Q514
709 508 696T490 673T466 657T438 651Q418 651 406 662T394 693Q394 697 394 700T396 709Z" />
<glyph unicode="&#xe5;" glyph-name="aring" horiz-adv-x="570" d="M332 488Q294 488 254 453T180 366T126 253T105 140Q105 104 120 83T161 61Q184 61 209 79T257 128T302 198T339 278T364 360T373 432Q373 458 362 473T332 488ZM435 530H518L461 377Q447 339
434 296T410 213T393 140T387 91Q387 62 406 62Q420 62 446 91T506 166L532 145Q490 71 442 31T348 -10Q325 -10 313 7T300 65Q300 74 300 86T303 118L299 119Q284 91 264 68T219 27T169 0T118 -10Q67 -10 39 28T10 135Q10 204 39 276T114 406T216 502T326 540Q359
540 380 525T414 474L435 530ZM280 718Q280 739 289 759T313 795T349 820T393 830Q425 830 443 813T461 768Q461 745 452 725T426 689T389 665T346 656Q315 656 298 673T280 718ZM383 788Q361 788 342 772T322 730Q322 715 332 706T359 696Q381 696 399 713T418
756Q418 770 409 779T383 788Z" />
<glyph unicode="&#xe6;" glyph-name="ae" horiz-adv-x="756" d="M671 133Q584 -10 457 -10Q395 -10 359 25T315 124Q298 95 274 71T224 28T170 0T117 -10Q67 -10 39 28T10 135Q10 204 39 276T114 406T216 502T326 540Q359 540 380 525T414 474L442 550H525L495
476L498 474Q525 510 561 525T634 540Q682 540 712 516T743 453Q743 418 717 381T647 311T543 251T416 209Q414 195 413 182T412 154Q412 45 489 45Q526 45 565 74T639 154L671 133ZM329 488Q306 488 281 472T231 430T183 369T143 296T116 218T105 144Q105 105
119 83T160 61Q184 61 209 77T257 121T302 185T339 262T364 345T373 427Q373 488 329 488ZM614 493Q588 493 560 473T507 420T460 343T426 254Q474 267 515 288T585 335T632 391T649 451Q649 493 614 493Z" />
<glyph unicode="&#xe7;" glyph-name="ccedilla" horiz-adv-x="441" d="M373 161Q340 95 298 53T206 -3L162 -72Q213 -72 239 -88T266 -135Q266 -161 253 -183T219 -223T170 -250T114 -260Q69 -260 42 -242T15 -197Q15 -176 27 -162T56 -148Q68 -148 72 -159T80
-182T91 -206T116 -217Q140 -217 160 -199T181 -154Q181 -113 114 -113Q104 -113 94 -113T79 -115L78 -112L148 -10Q87 -6 51 37T14 153Q14 197 27 243T62 332T114 413T178 479T248 523T320 540Q368 540 399 514T430 449Q430 424 416 409T378 393Q355 393 341 407T326
443Q326 456 330 464T334 479Q334 493 310 493Q277 493 243 462T182 382T137 273T119 152Q119 104 137 77T189 49Q207 49 226 59T266 86T304 128T338 181L373 161Z" />
<glyph unicode="&#xe8;" glyph-name="egrave" horiz-adv-x="456" d="M371 133Q284 -10 157 -10Q88 -10 51 32T14 153Q14 222 42 291T117 415T220 505T334 540Q382 540 412 516T443 453Q443 418 417 381T347 311T243 251T116 209Q114 195 113 182T112 154Q112 45
189 45Q226 45 265 74T339 154L371 133ZM314 493Q288 493 260 473T207 420T160 343T126 254Q174 267 215 288T285 335T332 391T349 451Q349 493 314 493ZM392 651L273 716Q255 726 245 736T234 760Q234 780 249 791T283 803Q314 803 341 770L439 651H392Z" />
<glyph unicode="&#xe9;" glyph-name="eacute" horiz-adv-x="456" d="M371 133Q284 -10 157 -10Q88 -10 51 32T14 153Q14 222 42 291T117 415T220 505T334 540Q382 540 412 516T443 453Q443 418 417 381T347 311T243 251T116 209Q114 195 113 182T112 154Q112 45
189 45Q226 45 265 74T339 154L371 133ZM314 493Q288 493 260 473T207 420T160 343T126 254Q174 267 215 288T285 335T332 391T349 451Q349 493 314 493ZM270 651L400 770Q436 803 467 803Q484 803 494 794T505 768Q505 752 492 740T454 716L317 651H270Z" />
<glyph unicode="&#xea;" glyph-name="ecircumflex" horiz-adv-x="456" d="M371 133Q284 -10 157 -10Q88 -10 51 32T14 153Q14 222 42 291T117 415T220 505T334 540Q382 540 412 516T443 453Q443 418 417 381T347 311T243 251T116 209Q114 195 113 182T112 154Q112
45 189 45Q226 45 265 74T339 154L371 133ZM314 493Q288 493 260 473T207 420T160 343T126 254Q174 267 215 288T285 335T332 391T349 451Q349 493 314 493ZM422 780L506 651H461L360 719L223 651H178L332 780H422Z" />
<glyph unicode="&#xeb;" glyph-name="edieresis" horiz-adv-x="456" d="M371 133Q284 -10 157 -10Q88 -10 51 32T14 153Q14 222 42 291T117 415T220 505T334 540Q382 540 412 516T443 453Q443 418 417 381T347 311T243 251T116 209Q114 195 113 182T112 154Q112
45 189 45Q226 45 265 74T339 154L371 133ZM314 493Q288 493 260 473T207 420T160 343T126 254Q174 267 215 288T285 335T332 391T349 451Q349 493 314 493ZM219 709Q225 734 246 750T292 767Q313 767 325 755T337 724Q337 709 331 696T313 673T289 657T261 651Q241
651 229 662T217 693Q217 697 217 700T219 709ZM386 709Q392 734 413 750T459 767Q480 767 492 755T504 724Q504 709 498 696T480 673T456 657T428 651Q408 651 396 662T384 693Q384 697 384 700T386 709Z" />
<glyph unicode="&#xec;" glyph-name="igrave" horiz-adv-x="344" d="M131 330Q145 369 151 393T157 431Q157 445 153 449T143 454Q132 454 119 444T93 419T70 391T56 369L27 387Q39 409 60 436T109 486T165 524T220 540Q245 540 257 526T270 473Q270 444 253 396T207
269L170 168Q168 163 165 153T158 131T152 108T149 90Q149 81 154 74T170 67Q185 67 201 79T232 109T259 143T277 171L307 154Q295 130 275 101T228 48T171 7T107 -10Q78 -10 64 5T49 55Q49 84 58 117T86 202L131 330ZM296 651L177 716Q159 726 149 736T138 760Q138
780 153 791T187 803Q218 803 245 770L343 651H296Z" />
<glyph unicode="&#xed;" glyph-name="iacute" horiz-adv-x="344" d="M131 330Q145 369 151 393T157 431Q157 445 153 449T143 454Q132 454 119 444T93 419T70 391T56 369L27 387Q39 409 60 436T109 486T165 524T220 540Q245 540 257 526T270 473Q270 444 253 396T207
269L170 168Q168 163 165 153T158 131T152 108T149 90Q149 81 154 74T170 67Q185 67 201 79T232 109T259 143T277 171L307 154Q295 130 275 101T228 48T171 7T107 -10Q78 -10 64 5T49 55Q49 84 58 117T86 202L131 330ZM174 651L304 770Q340 803 371 803Q388 803
398 794T409 768Q409 752 396 740T358 716L221 651H174Z" />
<glyph unicode="&#xee;" glyph-name="icircumflex" horiz-adv-x="344" d="M131 330Q145 369 151 393T157 431Q157 445 153 449T143 454Q132 454 119 444T93 419T70 391T56 369L27 387Q39 409 60 436T109 486T165 524T220 540Q245 540 257 526T270 473Q270 444
253 396T207 269L170 168Q168 163 165 153T158 131T152 108T149 90Q149 81 154 74T170 67Q185 67 201 79T232 109T259 143T277 171L307 154Q295 130 275 101T228 48T171 7T107 -10Q78 -10 64 5T49 55Q49 84 58 117T86 202L131 330ZM326 780L410 651H365L264 719L127
651H82L236 780H326Z" />
<glyph unicode="&#xef;" glyph-name="idieresis" horiz-adv-x="344" d="M131 330Q145 369 151 393T157 431Q157 445 153 449T143 454Q132 454 119 444T93 419T70 391T56 369L27 387Q39 409 60 436T109 486T165 524T220 540Q245 540 257 526T270 473Q270 444 253
396T207 269L170 168Q168 163 165 153T158 131T152 108T149 90Q149 81 154 74T170 67Q185 67 201 79T232 109T259 143T277 171L307 154Q295 130 275 101T228 48T171 7T107 -10Q78 -10 64 5T49 55Q49 84 58 117T86 202L131 330ZM123 709Q129 734 150 750T196 767Q217
767 229 755T241 724Q241 709 235 696T217 673T193 657T165 651Q145 651 133 662T121 693Q121 697 121 700T123 709ZM290 709Q296 734 317 750T363 767Q384 767 396 755T408 724Q408 709 402 696T384 673T360 657T332 651Q312 651 300 662T288 693Q288 697 288
700T290 709Z" />
<glyph unicode="&#xf0;" glyph-name="eth" horiz-adv-x="581" d="M301 449Q275 449 253 435T213 396T182 341T159 277T146 212T141 152Q141 95 160 65T216 35Q262 35 296 66T353 144T387 240T399 330Q399 387 374 418T301 449ZM252 780Q296 766 337 750T408 712L557
787L577 749L443 681Q496 636 520 572T545 430Q545 338 517 258T441 118T332 24T204 -10Q162 -10 129 4T71 43T34 103T21 180Q21 243 45 301T109 402T199 472T303 498Q412 498 434 412L438 414Q437 494 422 549T374 646L225 571L206 609L345 680Q327 697 300 712T225
746L252 780Z" />
<glyph unicode="&#xf1;" glyph-name="ntilde" horiz-adv-x="627" d="M425 488Q401 488 371 464T309 399T248 306T199 200L125 0H37L111 229Q129 284 141 323T160 388T171 431T174 458Q174 485 157 485Q146 485 131 471T101 435T71 383T47 324L17 339Q52 442 95
491T195 540Q227 540 240 522T254 461Q254 410 237 370L240 367Q291 457 343 498T458 540Q502 540 525 519T548 459Q548 446 546 430T537 392T521 338T495 262Q472 194 457 148T442 83Q442 68 452 68Q466 68 493 91T566 165L592 151Q576 121 551 93T498 41T443
4T396 -10Q371 -10 357 12T342 70Q342 84 344 98T355 140T378 212T421 333Q430 359 436 377T445 408T450 432T452 451Q452 488 425 488ZM212 660Q220 711 249 742T317 774Q332 774 353 769T403 750Q432 737 447 733T476 728Q493 728 503 737T520 770H553Q551 750
542 727T521 688Q494 652 454 652Q440 652 423 657T370 677Q336 690 318 695T288 700Q271 700 262 691T246 660H212Z" />
<glyph unicode="&#xf2;" glyph-name="ograve" horiz-adv-x="523" d="M187 -10Q153 -10 124 3T72 43T37 106T24 191Q24 256 48 319T113 431T204 510T311 540Q347 540 377 527T429 488T463 427T476 348Q476 285 451 221T386 106T293 23T187 -10ZM193 40Q227 40 260
75T320 163T363 280T380 400Q380 453 362 473T311 493Q289 493 267 478T224 435T187 373T156 299T136 220T129 142Q129 86 147 63T193 40ZM383 651L264 716Q246 726 236 736T225 760Q225 780 240 791T274 803Q305 803 332 770L430 651H383Z" />
<glyph unicode="&#xf3;" glyph-name="oacute" horiz-adv-x="523" d="M187 -10Q153 -10 124 3T72 43T37 106T24 191Q24 256 48 319T113 431T204 510T311 540Q347 540 377 527T429 488T463 427T476 348Q476 285 451 221T386 106T293 23T187 -10ZM193 40Q227 40 260
75T320 163T363 280T380 400Q380 453 362 473T311 493Q289 493 267 478T224 435T187 373T156 299T136 220T129 142Q129 86 147 63T193 40ZM261 651L391 770Q427 803 458 803Q475 803 485 794T496 768Q496 752 483 740T445 716L308 651H261Z" />
<glyph unicode="&#xf4;" glyph-name="ocircumflex" horiz-adv-x="523" d="M187 -10Q153 -10 124 3T72 43T37 106T24 191Q24 256 48 319T113 431T204 510T311 540Q347 540 377 527T429 488T463 427T476 348Q476 285 451 221T386 106T293 23T187 -10ZM193 40Q227
40 260 75T320 163T363 280T380 400Q380 453 362 473T311 493Q289 493 267 478T224 435T187 373T156 299T136 220T129 142Q129 86 147 63T193 40ZM441 780L525 651H480L379 719L242 651H197L351 780H441Z" />
<glyph unicode="&#xf5;" glyph-name="otilde" horiz-adv-x="523" d="M187 -10Q153 -10 124 3T72 43T37 106T24 191Q24 256 48 319T113 431T204 510T311 540Q347 540 377 527T429 488T463 427T476 348Q476 285 451 221T386 106T293 23T187 -10ZM193 40Q227 40 260
75T320 163T363 280T380 400Q380 453 362 473T311 493Q289 493 267 478T224 435T187 373T156 299T136 220T129 142Q129 86 147 63T193 40ZM180 660Q188 711 217 742T285 774Q300 774 321 769T371 750Q400 737 415 733T444 728Q461 728 471 737T488 770H521Q519
750 510 727T489 688Q462 652 422 652Q408 652 391 657T338 677Q304 690 286 695T256 700Q239 700 230 691T214 660H180Z" />
<glyph unicode="&#xf6;" glyph-name="odieresis" horiz-adv-x="523" d="M187 -10Q153 -10 124 3T72 43T37 106T24 191Q24 256 48 319T113 431T204 510T311 540Q347 540 377 527T429 488T463 427T476 348Q476 285 451 221T386 106T293 23T187 -10ZM193 40Q227 40
260 75T320 163T363 280T380 400Q380 453 362 473T311 493Q289 493 267 478T224 435T187 373T156 299T136 220T129 142Q129 86 147 63T193 40ZM235 709Q241 734 262 750T308 767Q329 767 341 755T353 724Q353 709 347 696T329 673T305 657T277 651Q257 651 245
662T233 693Q233 697 233 700T235 709ZM402 709Q408 734 429 750T475 767Q496 767 508 755T520 724Q520 709 514 696T496 673T472 657T444 651Q424 651 412 662T400 693Q400 697 400 700T402 709Z" />
<glyph unicode="&#xf7;" glyph-name="divide" horiz-adv-x="602" d="M243 162Q243 190 262 209T308 228Q336 228 355 209T374 162Q374 135 355 116T308 97Q281 97 262 116T243 162ZM243 512Q243 540 262 559T308 578Q336 578 355 559T374 512Q374 485 355 466T308
447Q281 447 262 466T243 512ZM540 313H72V363H540V313Z" />
<glyph unicode="&#xf8;" glyph-name="oslash" horiz-adv-x="523" d="M187 -10Q133 -10 92 23L25 -61H-43L56 64Q41 89 33 121T24 191Q24 256 48 319T113 431T204 510T311 540Q366 540 407 508L473 592H542L444 468Q459 444 467 414T476 348Q476 285 451 221T386
106T293 23T187 -10ZM193 40Q226 40 258 73T317 157T361 269T380 387L138 81Q154 40 193 40ZM311 493Q278 493 247 461T190 380T148 271T129 156L369 460Q360 478 346 485T311 493Z" />
<glyph unicode="&#xf9;" glyph-name="ugrave" horiz-adv-x="593" d="M169 62Q185 62 211 84T266 144T322 230T369 330L443 530H536L462 301Q446 251 435 216T417 156T407 116T404 91Q404 65 422 65Q432 65 446 74T474 100T502 137T526 181L556 166Q543 133 522
102T477 45T425 5T372 -10Q341 -10 330 12T319 75Q319 92 320 111T326 150L323 153Q296 105 271 74T221 24T174 -2T129 -10Q82 -10 64 16T45 80Q45 122 61 172T95 268Q113 313 125 344T145 396T156 430T160 451Q160 455 159 458T151 462Q138 462 114 439T47 365L21
379Q36 408 59 437T108 489T162 526T214 540Q264 540 264 482Q264 447 245 392T194 259Q174 210 161 171T148 100Q148 79 154 71T169 62ZM404 651L285 716Q267 726 257 736T246 760Q246 780 261 791T295 803Q326 803 353 770L451 651H404Z" />
<glyph unicode="&#xfa;" glyph-name="uacute" horiz-adv-x="593" d="M169 62Q185 62 211 84T266 144T322 230T369 330L443 530H536L462 301Q446 251 435 216T417 156T407 116T404 91Q404 65 422 65Q432 65 446 74T474 100T502 137T526 181L556 166Q543 133 522
102T477 45T425 5T372 -10Q341 -10 330 12T319 75Q319 92 320 111T326 150L323 153Q296 105 271 74T221 24T174 -2T129 -10Q82 -10 64 16T45 80Q45 122 61 172T95 268Q113 313 125 344T145 396T156 430T160 451Q160 455 159 458T151 462Q138 462 114 439T47 365L21
379Q36 408 59 437T108 489T162 526T214 540Q264 540 264 482Q264 447 245 392T194 259Q174 210 161 171T148 100Q148 79 154 71T169 62ZM282 651L412 770Q448 803 479 803Q496 803 506 794T517 768Q517 752 504 740T466 716L329 651H282Z" />
<glyph unicode="&#xfb;" glyph-name="ucircumflex" horiz-adv-x="593" d="M169 62Q185 62 211 84T266 144T322 230T369 330L443 530H536L462 301Q446 251 435 216T417 156T407 116T404 91Q404 65 422 65Q432 65 446 74T474 100T502 137T526 181L556 166Q543 133
522 102T477 45T425 5T372 -10Q341 -10 330 12T319 75Q319 92 320 111T326 150L323 153Q296 105 271 74T221 24T174 -2T129 -10Q82 -10 64 16T45 80Q45 122 61 172T95 268Q113 313 125 344T145 396T156 430T160 451Q160 455 159 458T151 462Q138 462 114 439T47
365L21 379Q36 408 59 437T108 489T162 526T214 540Q264 540 264 482Q264 447 245 392T194 259Q174 210 161 171T148 100Q148 79 154 71T169 62ZM434 780L518 651H473L372 719L235 651H190L344 780H434Z" />
<glyph unicode="&#xfc;" glyph-name="udieresis" horiz-adv-x="593" d="M169 62Q185 62 211 84T266 144T322 230T369 330L443 530H536L462 301Q446 251 435 216T417 156T407 116T404 91Q404 65 422 65Q432 65 446 74T474 100T502 137T526 181L556 166Q543 133
522 102T477 45T425 5T372 -10Q341 -10 330 12T319 75Q319 92 320 111T326 150L323 153Q296 105 271 74T221 24T174 -2T129 -10Q82 -10 64 16T45 80Q45 122 61 172T95 268Q113 313 125 344T145 396T156 430T160 451Q160 455 159 458T151 462Q138 462 114 439T47
365L21 379Q36 408 59 437T108 489T162 526T214 540Q264 540 264 482Q264 447 245 392T194 259Q174 210 161 171T148 100Q148 79 154 71T169 62ZM231 709Q237 734 258 750T304 767Q325 767 337 755T349 724Q349 709 343 696T325 673T301 657T273 651Q253 651 241
662T229 693Q229 697 229 700T231 709ZM398 709Q404 734 425 750T471 767Q492 767 504 755T516 724Q516 709 510 696T492 673T468 657T440 651Q420 651 408 662T396 693Q396 697 396 700T398 709Z" />
<glyph unicode="&#xfd;" glyph-name="yacute" horiz-adv-x="515" d="M161 292Q145 374 129 405T94 437Q75 437 60 409T28 318L-9 328Q1 374 17 413T53 480T95 524T139 540Q158 540 171 526T199 474Q211 442 225 390T254 269L288 108H292Q311 132 330 162T366 226T392
294T402 359Q402 369 401 384T399 416T396 446T395 470Q395 506 413 523T451 540Q477 540 489 518T501 467Q501 426 479 362T421 225T338 75T241 -66Q165 -165 101 -212T-20 -260Q-62 -260 -86 -237T-111 -181Q-111 -156 -97 -141T-60 -125Q-40 -125 -31 -136T-15
-162T-3 -188T18 -200Q37 -200 66 -179T124 -127T178 -58T215 11L161 292ZM226 651L356 770Q392 803 423 803Q440 803 450 794T461 768Q461 752 448 740T410 716L273 651H226Z" />
<glyph unicode="&#xfe;" glyph-name="thorn" horiz-adv-x="540" d="M164 -10Q117 -10 91 25L88 24L51 -121Q47 -136 45 -146T43 -164Q43 -189 63 -199T136 -210L130 -250H-153L-147 -210Q-105 -210 -86 -200T-59 -164L198 691Q203 709 208 727T213 755Q213 790
137 790L145 820L337 829L210 444L213 442Q242 488 285 513T378 539Q439 539 472 501T505 397Q505 350 491 301T453 207T395 123T325 54T246 7T164 -10ZM180 41Q203 41 229 57T280 102T328 167T368 244T395 326T406 405Q406 440 390 463T351 486Q329 486 304 470T254
425T207 360T167 283T139 201T129 123Q129 41 180 41Z" />
<glyph unicode="&#xff;" glyph-name="ydieresis" horiz-adv-x="515" d="M161 292Q145 374 129 405T94 437Q75 437 60 409T28 318L-9 328Q1 374 17 413T53 480T95 524T139 540Q158 540 171 526T199 474Q211 442 225 390T254 269L288 108H292Q311 132 330 162T366
226T392 294T402 359Q402 369 401 384T399 416T396 446T395 470Q395 506 413 523T451 540Q477 540 489 518T501 467Q501 426 479 362T421 225T338 75T241 -66Q165 -165 101 -212T-20 -260Q-62 -260 -86 -237T-111 -181Q-111 -156 -97 -141T-60 -125Q-40 -125 -31
-136T-15 -162T-3 -188T18 -200Q37 -200 66 -179T124 -127T178 -58T215 11L161 292ZM178 709Q184 734 205 750T251 767Q272 767 284 755T296 724Q296 709 290 696T272 673T248 657T220 651Q200 651 188 662T176 693Q176 697 176 700T178 709ZM345 709Q351 734 372
750T418 767Q439 767 451 755T463 724Q463 709 457 696T439 673T415 657T387 651Q367 651 355 662T343 693Q343 697 343 700T345 709Z" />
<glyph unicode="&#x2013;" glyph-name="endash" horiz-adv-x="726" d="M60 248L83 331H653L630 248H60Z" />
<glyph unicode="&#x2014;" glyph-name="emdash" horiz-adv-x="1114" d="M60 248L83 331H1041L1018 248H60Z" />
<glyph unicode="&#x2018;" glyph-name="quoteleft" horiz-adv-x="251" d="M325 803Q269 768 242 737T203 667Q217 675 235 675Q254 675 264 664T275 636Q275 619 268 605T248 581T221 565T188 559Q136 559 136 612Q136 644 145 671T176 724T230 775T309 830L325 803Z" />
<glyph unicode="&#x2019;" glyph-name="quoteright" horiz-adv-x="249" d="M129 586Q185 621 212 652T251 722Q237 714 219 714Q199 714 189 724T179 753Q179 769 186 783T206 808T233 824T266 830Q318 830 318 777Q318 744 309 717T278 664T224 613T145 559L129 586Z" />
<glyph unicode="&#x201a;" glyph-name="quotesinglbase" horiz-adv-x="260" d="M-58 -138Q-2 -103 25 -72T64 -2Q50 -10 32 -10Q12 -10 2 0T-8 29Q-8 45 -1 59T19 84T46 100T79 106Q131 106 131 53Q131 20 122 -7T91 -60T37 -111T-42 -165L-58 -138Z" />
<glyph unicode="&#x201c;" glyph-name="quotedblleft" horiz-adv-x="443" d="M517 803Q461 768 434 737T395 667Q409 675 427 675Q446 675 456 664T467 636Q467 619 460 605T440 581T413 565T380 559Q328 559 328 612Q328 644 337 671T368 724T422 775T501 830L517
803ZM325 803Q269 768 242 737T203 667Q217 675 235 675Q254 675 264 664T275 636Q275 619 268 605T248 581T221 565T188 559Q136 559 136 612Q136 644 145 671T176 724T230 775T309 830L325 803Z" />
<glyph unicode="&#x201d;" glyph-name="quotedblright" horiz-adv-x="441" d="M129 586Q185 621 212 652T251 722Q237 714 219 714Q199 714 189 724T179 753Q179 769 186 783T206 808T233 824T266 830Q318 830 318 777Q318 744 309 717T278 664T224 613T145 559L129
586ZM321 586Q377 621 404 652T443 722Q429 714 411 714Q391 714 381 724T371 753Q371 769 378 783T398 808T425 824T458 830Q510 830 510 777Q510 744 501 717T470 664T416 613T337 559L321 586Z" />
<glyph unicode="&#x201e;" glyph-name="quotedblbase" horiz-adv-x="452" d="M-58 -138Q-2 -103 25 -72T64 -2Q50 -10 32 -10Q12 -10 2 0T-8 29Q-8 45 -1 59T19 84T46 100T79 106Q131 106 131 53Q131 20 122 -7T91 -60T37 -111T-42 -165L-58 -138ZM134 -138Q190
-103 217 -72T256 -2Q242 -10 224 -10Q204 -10 194 0T184 29Q184 45 191 59T211 84T238 100T271 106Q323 106 323 53Q323 20 314 -7T283 -60T229 -111T150 -165L134 -138Z" />
<glyph unicode="&#x2022;" glyph-name="bullet" horiz-adv-x="485" d="M250 216Q220 216 193 228T145 260T112 309T99 369Q99 401 111 428T145 476T194 509T255 521Q286 521 313 509T362 477T395 429T407 369Q407 337 395 309T361 261T312 228T250 216Z" />
<glyph unicode="&#x2039;" glyph-name="guilsinglleft" horiz-adv-x="307" d="M29 262L242 421L256 400L120 262L181 124L157 104L29 262Z" />
<glyph unicode="&#x203a;" glyph-name="guilsinglright" horiz-adv-x="307" d="M38 104L24 124L159 262L97 400L123 421L250 262L38 104Z" />
</font>
</defs>
</svg>
