<?xml version="1.0" standalone="no"?>
<!DOCTYPE svg PUBLIC "-//W3C//DTD SVG 1.1//EN" "http://www.w3.org/Graphics/SVG/1.1/DTD/svg11.dtd">
<svg xmlns="http://www.w3.org/2000/svg">
<defs >
<font id="LibreBaskerville" horiz-adv-x="513" ><font-face
    font-family="Libre Baskerville"
    units-per-em="1000"
    panose-1="2 0 0 0 0 0 0 0 0 0"
    ascent="970"
    descent="-270"
    alphabetic="0" />
<glyph unicode=" " glyph-name="space" horiz-adv-x="287" />
<glyph unicode="!" glyph-name="exclam" horiz-adv-x="308" d="M89 55Q89 83 108 102T154 121Q182 121 201 102T220 55Q220 28 201 9T154 -10Q127 -10 108 9T89 55ZM130 207Q130 287 129 343T124 441T115 516T104 584Q99 612 96 630T92 662T90 687T89 714Q89 741
106 760T154 780Q184 780 201 761T219 714Q219 700 219 689T218 663T213 630T204 580Q198 547 193 515T185 441T180 343T178 207H130Z" />
<glyph unicode="&quot;" glyph-name="quotedbl" horiz-adv-x="367" d="M93 564Q89 592 84 625T73 689T64 744T60 781Q60 802 73 816T107 830Q127 830 140 816T154 780Q154 768 151 743T142 688T132 625T122 564H93ZM245 564Q241 592 236 625T225 689T216 744T212
781Q212 802 225 816T259 830Q279 830 292 816T306 780Q306 768 303 743T294 688T284 625T274 564H245Z" />
<glyph unicode="#" glyph-name="numbersign" horiz-adv-x="666" d="M590 255H451L414 0H355L390 255H239L201 0H141L179 255H39L47 305H189L213 475H70L78 525H222L257 770H317L282 525H433L467 770H527L493 525H627L619 475H484L461 305H598L590 255ZM273 475L249
305H400L423 475H273Z" />
<glyph unicode="$" glyph-name="dollar" horiz-adv-x="622" d="M343 900V778Q385 774 423 760T489 725T534 678T551 624Q551 598 537 584T499 570Q477 570 467 581T450 608T439 645T424 682T396 713T343 731V455Q409 426 453 400T526 345T566 285T578 217Q578
170 561 131T513 62T439 14T343 -8V-170H288V-9Q238 -7 193 7T114 44T59 98T38 168Q38 202 53 216T87 230Q106 230 117 219T136 191T147 156T154 126Q158 110 166 96T190 69T229 50T288 41V341Q250 357 213 375T147 419T100 481T82 568Q82 613 96 650T138 715T203
759T288 779V900H343ZM474 169Q474 198 464 220T436 260T394 291T343 317V43Q409 51 441 84T474 169ZM176 618Q176 576 202 542T288 479V730Q236 722 206 693T176 618Z" />
<glyph unicode="%" glyph-name="percent" horiz-adv-x="671" d="M92 0H35L588 770H636L92 0ZM200 780Q224 780 245 768T283 734T308 683T318 620Q318 587 309 559T283 509T246 476T200 464Q176 464 155 476T117 509T92 558T82 620Q82 654 91 683T117 733T154 767T200
780ZM200 489Q229 489 245 516T261 618Q261 657 257 683T245 726T226 748T200 755Q185 755 174 749T155 726T143 684T139 618Q139 543 155 516T200 489ZM471 306Q495 306 516 294T554 260T579 209T589 146Q589 113 580 85T554 35T517 2T471 -10Q447 -10 426 2T388
35T363 84T353 146Q353 180 362 209T388 259T425 293T471 306ZM471 15Q500 15 516 42T532 144Q532 183 528 209T516 252T497 274T471 281Q456 281 445 275T426 252T414 210T410 144Q410 69 426 42T471 15Z" />
<glyph unicode="&amp;" glyph-name="ampersand" horiz-adv-x="878" d="M347 458Q395 495 417 533T439 617Q439 664 418 691T362 719Q296 719 296 618Q296 574 309 534T347 458ZM290 364Q227 328 192 280T157 179Q157 124 192 89T284 53Q326 53 374 74T465 133L290
364ZM537 209Q561 239 581 267T617 321T640 368T648 402Q648 418 634 425T587 432V467H817V432Q795 432 780 430T752 421T730 405T709 379L567 171Q609 114 654 85T745 55Q758 55 768 57T786 66T802 84T818 112L843 105Q832 49 794 20T695 -10Q670 -10 648 -5T602
14T553 48T496 100Q446 48 381 19T247 -10Q201 -10 163 3T96 40T52 96T36 167Q36 235 90 292T263 408Q231 455 217 496T202 582Q202 626 214 662T250 725T305 765T376 780Q410 780 438 769T488 738T520 691T532 631Q532 575 496 526T375 420L537 209Z" />
<glyph unicode="&apos;" glyph-name="quotesingle" horiz-adv-x="215" d="M93 564Q89 592 84 625T73 689T64 744T60 781Q60 802 73 816T107 830Q127 830 140 816T154 780Q154 768 151 743T142 688T132 625T122 564H93Z" />
<glyph unicode="(" glyph-name="parenleft" horiz-adv-x="332" d="M312 803Q263 737 231 682T181 573T155 464T147 340Q147 257 156 187T187 56T241 -60T320 -166L289 -194Q169 -77 108 53T47 323Q47 459 106 587T281 831L312 803Z" />
<glyph unicode=")" glyph-name="parenright" horiz-adv-x="332" d="M51 831Q167 715 226 587T285 323Q285 184 224 54T43 -194L12 -166Q58 -115 91 -61T145 55T175 187T185 340Q185 408 178 464T152 573T101 681T20 803L51 831Z" />
<glyph unicode="*" glyph-name="asterisk" horiz-adv-x="516" d="M272 539Q272 508 276 485T286 445T296 415T301 394Q301 376 288 363T257 349Q236 349 224 363T211 398Q211 405 215 416T225 443T236 483T242 539Q201 516 182 497T153 464T135 443T109 435Q90
435 77 448T63 481Q63 504 76 513T111 527T163 539T227 565Q197 582 175 589T137 599T110 603T89 610Q77 617 71 627T65 650Q65 670 79 682T112 695Q125 695 137 685T163 659T197 625T243 591Q243 653 226 693Q221 701 217 713T213 734Q213 754 225 767T258 780Q278
780 291 767T304 734Q304 726 300 715T291 693Q281 672 278 648T273 591Q309 612 328 631T358 664T378 687T404 695Q423 695 437 682T451 650Q451 626 441 619T411 607T360 596T289 565Q326 543 356 537T408 526T441 514T453 480Q453 460 439 448T406 436Q394 436
382 443T355 474Q346 488 324 506T272 539Z" />
<glyph unicode="+" glyph-name="plus" horiz-adv-x="550" d="M249 104V313H41V363H249V572H301V363H509V313H301V104H249Z" />
<glyph unicode="," glyph-name="comma" horiz-adv-x="273" d="M49 -143Q103 -105 126 -70T149 8Q136 0 119 0Q96 0 82 16T67 59Q67 87 85 104T134 121Q206 121 206 21Q206 -7 199 -31T177 -78T135 -124T72 -175L49 -143Z" />
<glyph unicode="-" glyph-name="hyphen" horiz-adv-x="463" d="M77 248V331H386V248H77Z" />
<glyph unicode="." glyph-name="period" horiz-adv-x="265" d="M67 55Q67 83 86 102T132 121Q160 121 179 102T198 55Q198 28 179 9T132 -10Q105 -10 86 9T67 55Z" />
<glyph unicode="/" glyph-name="slash" horiz-adv-x="460" d="M87 0H29L382 770H431L87 0Z" />
<glyph unicode="0" glyph-name="zero" horiz-adv-x="714" d="M357 780Q418 780 472 749T566 664T629 537T653 379Q653 298 630 227T566 104T472 21T357 -10Q296 -10 242 20T148 103T85 227T61 379Q61 464 84 537T148 664T242 749T357 780ZM357 38Q396 38 426 54T478
109T511 213T523 376Q523 478 512 546T479 655T427 714T357 732Q318 732 287 715T235 656T203 546T191 376Q191 278 202 213T235 109T287 54T357 38Z" />
<glyph unicode="1" glyph-name="one" horiz-adv-x="446" d="M276 162Q276 123 279 100T294 63T325 44T380 38V0H74V38Q107 39 127 44T159 62T174 97T178 155V522Q178 580 178 618T174 668Q169 690 144 695T69 700V738Q118 740 172 751T276 780V162Z" />
<glyph unicode="2" glyph-name="two" horiz-adv-x="616" d="M196 98H395Q419 98 437 102T469 120T494 155T516 213H553L515 0H50V33Q164 135 237 211T353 349T411 461T427 566Q427 644 391 689T291 734Q231 734 194 695T156 594Q156 540 185 508T266 476Q261 452
240 438T188 423Q160 423 137 434T96 465T69 512T59 573Q59 618 78 656T130 721T208 765T307 781Q360 781 404 765T480 720T529 652T547 564Q547 502 520 443T444 326T332 213T195 103L196 98Z" />
<glyph unicode="3" glyph-name="three" horiz-adv-x="616" d="M429 214Q429 297 396 342T301 388Q286 380 268 375T234 370Q214 370 201 379T188 404Q188 418 200 425T232 432Q245 432 261 429T293 421Q347 421 379 469T412 597Q412 737 294 737Q241 737 211 713T180
647Q180 613 200 592T252 571Q247 554 228 544T182 533Q160 533 142 541T110 563T88 597T80 639Q80 671 95 697T139 741T206 770T294 780Q348 780 392 767T467 731T515 675T532 602Q532 568 520 538T488 484T441 442T382 417V411Q419 401 451 382T506 337T542 278T555
207Q555 160 535 121T480 52T397 7T290 -10Q238 -10 195 3T119 40T69 96T51 167Q51 194 60 217T84 257T121 284T166 294Q194 294 216 282T243 250Q205 250 181 223T157 152Q157 101 193 69T288 37Q357 37 393 82T429 214Z" />
<glyph unicode="4" glyph-name="four" horiz-adv-x="585" d="M18 229L370 780H401V227Q432 228 450 231T478 244T491 271T494 318H529V95H494Q494 122 491 139T479 165T451 178T401 183V162Q401 123 404 99T415 62T439 43T480 38V0H199V38Q232 38 252 43T284 61T299
97T303 155V179H18V229ZM303 585H298L68 229H303V585Z" />
<glyph unicode="5" glyph-name="five" horiz-adv-x="568" d="M198 482L200 479Q215 490 244 497T302 505Q346 505 384 488T449 439T493 366T509 274Q509 214 487 163T425 73T332 12T216 -10Q174 -10 138 0T77 29T37 72T22 128Q22 155 34 170T70 185Q91 185 101
174T118 146T129 110T143 73T170 45T219 34Q258 34 289 52T341 105T373 188T385 297Q385 382 362 422T283 462Q241 462 215 440T171 367Q165 349 160 344T147 339Q125 339 125 359Q125 364 126 367L233 780Q255 771 283 767T350 762Q443 762 483 781L489 780Q477
723 437 692T333 661H245L198 482Z" />
<glyph unicode="6" glyph-name="six" horiz-adv-x="643" d="M586 259Q586 203 566 154T509 69T425 11T321 -10Q264 -10 216 15T134 87T80 196T61 337Q61 428 86 508T154 649T255 745T378 780Q414 780 445 772T500 751T537 718T551 678Q551 654 537 640T497 626Q468
626 456 643T432 680T404 718T349 735Q314 735 285 711T234 645T200 545T188 420L191 418Q223 465 260 486T349 508Q400 508 443 489T518 437T568 358T586 259ZM186 283Q186 35 325 35Q394 35 427 88T461 255Q461 355 429 407T335 459Q289 459 254 429T186 332V283Z"
/>
<glyph unicode="7" glyph-name="seven" horiz-adv-x="502" d="M417 671H231Q192 671 168 669T129 658T105 633T85 589L70 550H32L102 830H142Q140 825 139 816T138 799Q138 782 153 776T214 770H507V750Q474 675 449 618T403 513T365 423T331 338T295 246T253
136Q236 91 223 63T197 19T174 -4T149 -10Q131 -10 119 3T106 31Q106 39 107 48T114 73T131 114T162 178T211 273T281 410L417 671Z" />
<glyph unicode="8" glyph-name="eight" horiz-adv-x="606" d="M269 365Q212 333 183 287T154 183Q154 115 194 76T304 36Q373 36 413 74T454 179Q454 201 448 220T427 257T388 293T329 331L269 365ZM385 433Q545 348 545 212Q545 165 527 125T475 54T397 7T300
-10Q249 -10 205 4T129 44T78 105T59 180Q59 305 227 386Q86 462 86 580Q86 621 102 658T150 724Q211 780 300 780Q378 780 440 738Q477 712 496 678T516 603Q516 552 485 509T385 433ZM343 454Q386 483 409 520T433 598Q433 627 423 652T394 695T350 724T295 735Q239
735 206 703T172 619Q172 579 201 547T296 479L343 454Z" />
<glyph unicode="9" glyph-name="nine" horiz-adv-x="643" d="M57 511Q57 567 77 616T134 701T218 759T322 780Q379 780 427 755T509 683T563 573T582 433Q582 342 557 262T489 121T388 25T265 -10Q229 -10 198 -2T143 19T106 52T92 92Q92 116 106 130T146 144Q175
144 187 127T211 90T239 52T294 35Q328 35 357 59T409 125T443 224T455 350L452 352Q420 305 383 284T294 262Q243 262 200 281T125 333T75 412T57 511ZM457 487Q457 735 318 735Q249 735 216 682T182 515Q182 415 214 363T308 311Q354 311 389 341T457 438V487Z"
/>
<glyph unicode=":" glyph-name="colon" horiz-adv-x="285" d="M77 55Q77 83 96 102T142 121Q170 121 189 102T208 55Q208 28 189 9T142 -10Q115 -10 96 9T77 55ZM77 381Q77 409 96 428T142 447Q170 447 189 428T208 381Q208 354 189 335T142 316Q115 316 96 335T77 381Z" />
<glyph unicode=";" glyph-name="semicolon" horiz-adv-x="311" d="M89 381Q89 409 108 428T154 447Q182 447 201 428T220 381Q220 354 201 335T154 316Q127 316 108 335T89 381ZM71 -143Q125 -105 148 -70T171 8Q158 0 141 0Q118 0 104 16T89 59Q89 87 107 104T156
121Q228 121 228 21Q228 -7 221 -31T199 -78T157 -124T94 -175L71 -143Z" />
<glyph unicode="&lt;" glyph-name="less" horiz-adv-x="581" d="M497 126V72L39 304V368L497 600V544L84 336L497 126Z" />
<glyph unicode="=" glyph-name="equal" horiz-adv-x="620" d="M537 422H83V472H537V422ZM537 252H83V302H537V252Z" />
<glyph unicode="&gt;" glyph-name="greater" horiz-adv-x="581" d="M497 336L84 544V600L542 368V304L84 72V126L497 336Z" />
<glyph unicode="?" glyph-name="question" horiz-adv-x="399" d="M125 237V466H154Q284 466 284 565Q284 589 277 610T259 647T231 672T197 681Q179 681 159 676T122 670Q99 670 84 685T69 724Q69 780 131 780Q172 780 210 760T277 705T323 625T341 530Q341 454
299 412T180 370V237H125ZM84 55Q84 83 103 102T149 121Q177 121 196 102T215 55Q215 28 196 9T149 -10Q122 -10 103 9T84 55Z" />
<glyph unicode="@" glyph-name="at" horiz-adv-x="1029" d="M693 530H789L722 293Q711 253 704 218T696 167Q696 148 708 138T740 127Q773 127 805 152T863 219T905 313T921 420Q921 488 895 545T822 645T711 711T571 735Q481 735 403 702T267 610T176 471T143
299Q143 213 172 142T255 21T384 -58T550 -86Q719 -86 864 14L885 -17Q797 -78 714 -106T537 -134Q430 -134 341 -102T188 -13T88 125T52 300Q52 401 91 489T200 641T363 743T565 780Q655 780 728 754T855 681T937 568T966 422Q966 353 946 291T890 181T809 105T712
77Q616 77 607 192H603Q572 140 526 109T434 77Q402 77 375 90T327 125T296 179T284 248Q284 303 307 355T367 449T452 515T550 540Q597 540 625 517T667 442L671 441L693 530ZM558 498Q525 498 494 475T437 413T397 327T382 227Q382 122 449 122Q481 122 514 146T573
210T617 297T634 394Q634 443 614 470T558 498Z" />
<glyph unicode="A" glyph-name="A" horiz-adv-x="772" d="M488 279H221Q204 238 192 207T173 152T162 113T159 87Q159 59 177 49T237 38V0H-6V38Q17 41 33 46T62 60T84 83T103 119L363 770H406L633 206Q656 150 673 117T706 66T740 44T785 39V0H459V39Q512 39
532 49T552 82Q552 92 551 100T548 119T541 141T529 171L488 279ZM241 329H469L358 624L241 329Z" />
<glyph unicode="B" glyph-name="B" horiz-adv-x="767" d="M38 0V38Q77 39 100 44T136 61T153 95T158 152V618Q158 653 155 674T141 708T110 725T58 732V770H357Q492 770 567 722T642 587Q642 521 601 479T469 410V406Q500 403 523 399T564 390T597 376T628 358Q717
295 717 200Q717 147 688 102T605 30Q588 21 570 16T528 7T473 2T398 0H38ZM401 43Q582 43 582 198Q582 311 489 356Q473 363 458 368T423 375T376 379T308 380H263V157Q263 96 295 70T401 43ZM319 430Q350 430 371 431T407 434T433 441T457 454Q489 474 502 502T516
575Q516 654 478 688T357 723H280Q263 723 263 706V430H319Z" />
<glyph unicode="C" glyph-name="C" horiz-adv-x="802" d="M689 770H717L726 540H689Q667 628 604 678T452 728Q391 728 343 704T262 635T212 525T194 378Q194 217 261 131T455 44Q648 44 703 249H744V0H709L686 79Q581 -10 432 -10Q347 -10 279 17T162 93T87 214T60
372Q60 463 88 538T166 667T287 750T443 780Q503 780 556 763T671 708L689 770Z" />
<glyph unicode="D" glyph-name="D" horiz-adv-x="884" d="M38 0V38Q76 39 99 43T136 60T153 94T158 152V618Q158 653 155 674T141 708T110 725T58 732V770H409Q499 770 575 740T707 657T794 531T825 372Q825 290 796 222T715 104T589 28T429 0H38ZM280 721Q263
721 263 704V163Q263 49 412 49Q549 49 622 130T695 370Q695 453 675 518T618 628T527 697T407 721H280Z" />
<glyph unicode="E" glyph-name="E" horiz-adv-x="726" d="M260 423Q314 423 350 429T408 450T439 486T449 538H484V265H449Q449 295 441 317T411 353T353 375T260 383V157Q260 124 268 103T295 68T347 49T426 43Q479 43 516 50T578 76T618 123T643 197H681L666
0H45V38Q80 39 101 44T135 61T151 95T155 152V618Q155 653 152 674T138 708T107 725T55 732V770H633L642 594H607Q601 634 588 659T551 700T491 721T404 727H277Q260 727 260 710V423Z" />
<glyph unicode="F" glyph-name="F" horiz-adv-x="670" d="M260 159Q260 121 264 98T284 62T326 44T399 38V0H45V38Q80 39 101 44T135 61T151 95T155 152V618Q155 653 152 674T138 708T107 725T55 732V770H633L644 579H609Q603 622 590 649T554 693T494 715T404
722H277Q260 722 260 705V403Q308 403 342 408T399 428T434 466T449 528H484V235H449Q444 273 433 298T401 337T345 357T260 363V159Z" />
<glyph unicode="G" glyph-name="G" horiz-adv-x="870" d="M428 -10Q343 -10 275 17T159 93T86 214T60 372Q60 463 88 538T166 667T287 750T443 780Q503 780 556 763T671 708L692 770H727L714 540H666Q666 589 648 624T599 683T531 717T452 728Q391 728 343 704T262
635T212 525T194 378Q194 217 261 131T455 44Q503 44 541 55T605 86T645 131T659 185Q659 243 636 263T559 284V322H843V284Q819 284 803 280T778 266T765 238T761 195V83Q742 83 727 82T694 75T657 60T608 34Q573 14 528 2T428 -10Z" />
<glyph unicode="H" glyph-name="H" horiz-adv-x="925" d="M770 159Q770 121 774 98T789 62T822 44T879 38V0H555V38Q590 39 611 44T645 61T661 95T665 152V369H260V159Q260 121 264 98T279 62T312 44T369 38V0H45V38Q80 39 101 44T135 61T151 95T155 152V618Q155
653 152 674T138 708T107 725T55 732V770H359V732Q327 731 308 726T278 708T264 672T260 611V419H665V618Q665 653 662 674T648 708T617 725T565 732V770H869V732Q837 731 818 726T788 708T774 672T770 611V159Z" />
<glyph unicode="I" glyph-name="I" horiz-adv-x="415" d="M260 189Q260 139 264 110T279 65T312 44T369 38V0H45V38Q80 39 101 44T135 65T151 107T155 182V588Q155 630 152 657T138 701T107 723T55 732V770H359V732Q327 731 308 724T278 701T264 655T260 581V189Z" />
<glyph unicode="J" glyph-name="J" horiz-adv-x="394" d="M145 618Q145 653 142 674T128 708T97 725T45 732V770H349V732Q317 731 298 726T268 708T254 672T250 611V-2Q250 -128 197 -194T42 -260Q-27 -260 -68 -234T-110 -163Q-110 -137 -97 -124T-59 -110Q-40
-110 -29 -119T-2 -157Q15 -189 27 -200T60 -212Q101 -212 123 -168T145 -43V618Z" />
<glyph unicode="K" glyph-name="K" horiz-adv-x="779" d="M260 159Q260 121 264 97T280 60T313 43T369 38V0H45V38Q80 38 101 42T135 59T151 94T155 152V618Q155 656 151 678T135 713T104 728T55 732V770H359V732Q329 732 310 728T280 711T264 675T260 611V364L510
665Q530 690 530 704Q530 732 473 732V770H714V733Q694 733 679 731T650 720T619 697T582 658L394 441L686 90Q711 61 733 50T792 38V0H485V38Q524 38 541 44T558 65Q558 73 550 88T524 125L329 365L260 285V159Z" />
<glyph unicode="L" glyph-name="L" horiz-adv-x="727" d="M691 0H45V38Q80 39 101 44T135 61T151 95T155 152V618Q155 653 152 674T138 708T107 725T55 732V770H359V732Q327 731 308 726T278 708T264 672T260 611V180Q260 138 268 112T297 71T352 51T438 45Q495
45 534 51T599 74T641 120T668 197H706L691 0Z" />
<glyph unicode="M" glyph-name="M" horiz-adv-x="1090" d="M550 179L810 770H1034V732Q1002 731 983 724T953 701T939 655T935 581V189Q935 139 939 110T954 65T987 44T1044 38V0H720V38Q755 39 776 44T810 65T826 107T830 182V646H820L528 -10H506L219 646H215V189Q215
139 219 110T234 65T267 44T324 38V0H45V38Q80 39 101 44T135 65T151 107T155 182V588Q155 630 152 657T138 701T107 723T55 732V770H294L546 179H550Z" />
<glyph unicode="N" glyph-name="N" horiz-adv-x="902" d="M694 -10L219 616H215V189Q215 139 218 110T232 65T262 44T314 38V0H45V38Q80 39 101 44T135 65T151 107T155 182V588Q155 630 152 657T138 701T107 723T55 732V770H253L690 187H694V581Q694 630 691 659T677
705T647 726T595 732V770H864V732Q829 731 808 726T774 705T758 662T754 588V-10H694Z" />
<glyph unicode="O" glyph-name="O" horiz-adv-x="946" d="M473 780Q561 780 637 749T769 664T857 537T889 379Q889 298 857 227T768 104T636 21T473 -10Q386 -10 310 20T178 103T90 227T57 379Q57 464 89 537T177 664T309 749T473 780ZM473 45Q539 45 591 68T681
134T739 238T759 376Q759 456 739 520T682 630T592 700T473 725Q407 725 354 701T264 631T207 521T187 376Q187 300 207 239T264 134T354 68T473 45Z" />
<glyph unicode="P" glyph-name="P" horiz-adv-x="687" d="M658 577Q658 524 641 482T588 411T493 366T350 350H260V157Q260 120 264 97T283 60T325 43T398 38V0H45V38Q80 39 101 44T135 61T151 95T155 152V618Q155 653 152 674T138 708T107 725T55 732V770H369Q507
770 582 719T658 577ZM260 400H331Q431 400 479 438T528 565Q528 650 490 686T369 723H277Q260 723 260 706V400Z" />
<glyph unicode="Q" glyph-name="Q" horiz-adv-x="948" d="M474 780Q562 780 638 749T770 664T858 537T890 378Q890 284 852 207T749 73Q707 37 655 13T546 -33Q519 -44 494 -56T447 -84V-88Q453 -87 463 -87T482 -86Q527 -86 566 -97T642 -123T716 -149T794 -161Q841
-161 865 -141T904 -72H929Q931 -81 932 -92T933 -114Q933 -146 920 -172T883 -218T827 -249T758 -260Q702 -260 655 -239T565 -192T483 -145T406 -123Q380 -123 364 -133T335 -155T311 -178T282 -188Q253 -188 253 -163Q253 -156 255 -151T263 -140T283 -125T319
-103L449 -29Q365 -26 293 6T169 93T88 220T58 376Q58 462 90 536T178 664T310 749T474 780ZM474 20Q540 20 592 45T682 116T740 228T760 376Q760 456 740 520T683 630T593 700T474 725Q408 725 355 701T265 631T208 521T188 376Q188 294 208 229T265 117T355 45T474
20Z" />
<glyph unicode="R" glyph-name="R" horiz-adv-x="788" d="M658 577Q658 497 610 444T457 373L678 107Q705 74 737 60T815 38V0H622L377 314Q364 331 353 341T329 356T300 363T260 365V157Q260 120 264 97T283 60T325 43T398 38V0H45V38Q80 39 101 44T135 61T151
95T155 152V618Q155 653 152 674T138 708T107 725T55 732V770H369Q507 770 582 719T658 577ZM260 415H331Q431 415 479 451T528 572Q528 653 490 688T369 723H277Q260 723 260 706V415Z" />
<glyph unicode="S" glyph-name="S" horiz-adv-x="645" d="M58 235H95Q102 190 121 154T170 93T238 55T322 41Q396 41 439 76T482 171Q482 196 474 217T445 257T392 296T307 337Q245 364 203 389T136 441T101 498T90 568Q90 614 106 653T153 720T224 764T314 780Q358
780 396 766T473 721L499 766H522L533 567H496Q472 649 427 689T317 729Q256 729 220 699T184 618Q184 594 192 575T218 538T265 503T337 466Q411 433 460 405T538 348T579 288T591 217Q591 167 571 125T515 53T429 7T319 -10Q262 -10 217 6T124 60L96 11H73L58
235Z" />
<glyph unicode="T" glyph-name="T" horiz-adv-x="803" d="M786 579H745Q742 622 731 651T700 696T648 720T574 727Q537 727 515 726T480 720T465 711T461 696V161Q461 129 465 106T483 69T522 47T590 38V0H212V38Q254 39 280 46T319 68T337 106T342 161V696Q342
705 339 710T325 720T295 725T244 727Q205 727 172 724T114 707T74 662T58 579H21V770H776L786 579Z" />
<glyph unicode="U" glyph-name="U" horiz-adv-x="861" d="M722 310Q722 231 707 171T657 71T567 11T434 -10Q360 -10 305 4T213 52T158 140T140 273V537Q140 611 137 651T116 710Q104 723 84 727T29 732V770H370V732Q336 732 315 728T282 708Q268 690 264 651T260
537V265Q260 214 270 175T305 108T367 66T462 52Q562 52 612 107T662 271V512Q662 601 655 647T629 712Q615 725 594 728T542 732V770H832V732Q800 732 780 727T747 705Q732 684 727 640T722 512V310Z" />
<glyph unicode="V" glyph-name="V" horiz-adv-x="784" d="M424 153L600 587Q615 624 621 645T627 683Q627 710 611 721T549 732V770H792V732Q769 729 753 724T724 710T702 687T683 651L412 -10H377L119 613Q106 643 94 665T66 701T32 722T-13 731V770H313V731Q285
731 268 729T240 721T226 707T222 689Q222 675 227 657T246 603L424 153Z" />
<glyph unicode="W" glyph-name="W" horiz-adv-x="1176" d="M834 151L990 585Q1004 624 1010 647T1016 687Q1016 713 1000 722T941 732V770H1184V732Q1138 732 1115 713T1075 651L824 -10H789L597 559L384 -10H349L141 564Q123 612 109 644T78 696T40 723T-11 731V770H315V731Q264
731 244 722T223 687Q223 674 227 657T239 617L391 154L514 500Q528 539 541 572T563 633Q549 662 538 681T515 711T491 726T464 731V770H770V731Q741 731 723 729T696 723T683 710T679 691Q679 676 684 655T700 600L834 151Z" />
<glyph unicode="X" glyph-name="X" horiz-adv-x="818" d="M695 109Q747 38 822 38V0H481V38Q526 38 542 46T559 70Q559 77 558 84T551 103T535 130T508 172L394 342L308 234Q277 195 256 167T223 119T205 86T199 64Q199 49 216 44T280 38V0H2V38Q26 38 45 43T84
59T122 90T165 139L361 389L158 666Q133 701 102 716T28 732V770H360V732Q295 732 295 693Q295 668 323 627L432 465L530 589Q558 624 569 646T580 688Q580 713 564 722T505 732V770H780V732Q756 732 739 729T705 714T670 682T624 626L465 421L695 109Z" />
<glyph unicode="Y" glyph-name="Y" horiz-adv-x="733" d="M114 646Q99 672 86 688T60 715T31 728T-5 732V770H310V732Q260 732 240 725T219 698Q219 677 242 638L397 373H401L514 563Q546 617 559 648T573 698Q573 717 559 724T508 732V770H737V732Q716 732 700
726T665 702T626 652T573 568L419 308V189Q419 140 422 111T437 65T470 44T528 38V0H204V38Q240 38 261 43T294 64T310 108T314 182V304L114 646Z" />
<glyph unicode="Z" glyph-name="Z" horiz-adv-x="770" d="M710 0H16V4L542 728H268Q197 728 162 696T113 586H76L91 770H700V766L179 46H489Q540 46 573 53T626 82T658 139T679 235H722L710 0Z" />
<glyph unicode="[" glyph-name="bracketleft" horiz-adv-x="371" d="M197 773V-103H348V-150H107V820H348V773H197Z" />
<glyph unicode="\" glyph-name="backslash" horiz-adv-x="460" d="M29 770H78L431 0H373L29 770Z" />
<glyph unicode="]" glyph-name="bracketright" horiz-adv-x="371" d="M174 -103V773H23V820H264V-150H23V-103H174Z" />
<glyph unicode="^" glyph-name="asciicircum" horiz-adv-x="480" d="M285 409L404 230H359L240 348L121 230H76L195 409H285Z" />
<glyph unicode="_" glyph-name="underscore" horiz-adv-x="722" d="M76 -143V-75H646V-143H76Z" />
<glyph unicode="`" glyph-name="grave" horiz-adv-x="275" d="M208 651L71 716Q47 727 34 739T20 768Q20 785 30 794T58 803Q89 803 125 770L255 651H208Z" />
<glyph unicode="a" glyph-name="a" horiz-adv-x="554" d="M349 296Q292 274 253 253T189 211T155 169T144 126Q144 93 166 72T224 51Q250 51 272 64T312 99T339 152T349 217V296ZM349 339V380Q349 502 245 502Q228 502 216 499T196 489T182 469T169 437Q158 408
148 399T117 389Q67 389 67 439Q67 487 118 513T263 540Q363 540 405 505T447 384V160Q447 46 492 46Q506 46 519 49T541 68L555 44Q543 21 511 6T444 -10Q400 -10 379 18T357 97H352Q326 48 280 20T178 -9Q115 -9 79 23T43 109Q43 133 51 155T79 197T129 236T205
276L349 339Z" />
<glyph unicode="b" glyph-name="b" horiz-adv-x="654" d="M189 209Q189 171 200 140T230 86T277 50T337 37Q372 37 400 53T449 98T481 169T493 262Q493 313 481 355T448 428T398 476T333 493Q292 493 260 474T211 419Q189 375 189 298V209ZM187 459H191Q223 501
261 520T351 540Q405 540 451 519T532 461T586 374T606 265Q606 206 586 156T532 68T450 10T348 -11Q291 -11 242 10T160 67L113 0H91V604Q91 705 78 733Q75 740 71 744T59 752T37 759T-1 765V790L187 830V459Z" />
<glyph unicode="c" glyph-name="c" horiz-adv-x="536" d="M506 83Q470 39 413 15T290 -10Q237 -10 193 9T116 64T67 150T49 261Q49 325 69 376T125 464T213 520T327 540Q366 540 398 534T453 516T490 488T503 452Q503 432 490 421T454 410Q436 410 424 417T393
451Q373 474 355 483T307 493Q236 493 200 438T163 276Q163 161 203 102T322 42Q364 42 401 58T476 112L506 83Z" />
<glyph unicode="d" glyph-name="d" horiz-adv-x="675" d="M484 84H480Q444 33 404 12T308 -10Q251 -10 204 10T122 67T68 155T48 266Q48 325 67 375T121 462T204 519T308 540Q356 540 393 524T466 473V575Q466 632 465 670T460 722Q455 744 432 753T357 762V792L562
830V253Q562 184 563 140T569 76Q572 64 576 56T589 44T612 37T650 35V1L484 -10V84ZM464 305Q464 357 459 384T437 431Q414 461 379 476T308 492Q236 492 199 433T161 271Q161 218 170 175T198 102T244 55T308 38Q326 38 344 42T380 54T413 74T438 101Q452 123
458 154T464 239V305Z" />
<glyph unicode="e" glyph-name="e" horiz-adv-x="573" d="M522 93Q437 -10 311 -10Q252 -10 204 9T122 64T68 149T49 259Q49 320 69 372T125 461T212 519T323 540Q420 540 473 488T526 337Q526 323 521 320T495 317H166Q164 309 163 298T162 272Q162 220 174 178T210
105T266 59T339 42Q381 42 417 60T491 121L522 93ZM357 363Q377 363 389 364T407 368T415 376T417 391Q417 437 388 464T307 492Q199 492 173 363H357Z" />
<glyph unicode="f" glyph-name="f" horiz-adv-x="412" d="M22 514H135V586Q135 701 195 765T368 830Q430 830 469 811T508 762Q508 742 496 729T464 715Q452 715 439 722T403 748Q378 769 364 775T331 782Q271 782 245 721Q236 701 233 672T229 592V514H390V467H229V161Q229
124 233 100T249 62T281 42T333 35V0H49V35Q77 36 94 40T120 57T132 92T135 153V467H22V514Z" />
<glyph unicode="g" glyph-name="g" horiz-adv-x="599" d="M274 215Q316 215 339 253T363 360Q363 428 340 465T273 503Q230 503 205 465T179 361Q179 295 205 255T274 215ZM219 98Q243 96 263 94T302 90T341 85T384 79Q456 68 499 24T543 -88Q543 -172 477 -216T284
-260Q228 -260 182 -250T102 -222T51 -177T32 -120Q32 -99 39 -81T58 -50T86 -28T121 -20Q155 -20 182 -41Q155 -47 138 -70T121 -124Q121 -168 164 -192T288 -216Q459 -216 459 -111Q459 -71 432 -45T368 -13Q344 -10 319 -7T269 0T223 5T189 9Q133 15 104 39T75
105Q75 140 104 167T177 201V205Q155 214 136 230T104 268T82 313T74 364Q74 402 88 434T129 489T192 526T271 540Q315 540 354 527T421 487Q455 515 481 527T530 540Q566 540 587 524T609 479Q609 462 598 452T569 442Q555 442 546 447T530 457T514 468T494 473Q470
473 445 456Q469 419 469 363Q469 278 416 230T257 173Q196 168 172 160T148 131Q148 115 166 108T219 98Z" />
<glyph unicode="h" glyph-name="h" horiz-adv-x="688" d="M208 159Q208 118 210 94T220 58T245 41T290 35V0H24V35Q53 37 70 41T96 57T107 91T110 152V571Q110 630 109 665T103 718Q101 730 97 737T83 749T59 756T22 758V792L206 830V449H210Q225 469 247 485T296
514T350 533T406 540Q452 540 490 524T550 481Q567 458 575 421T583 319V159Q583 118 585 95T595 58T620 41T665 35V0H400V35Q428 36 445 40T470 57T481 91T484 152V278Q484 390 458 437T371 485Q324 485 286 461T225 395Q220 384 217 375T211 353T209 326T208
287V159Z" />
<glyph unicode="i" glyph-name="i" horiz-adv-x="341" d="M228 159Q228 120 231 97T245 60T273 41T321 35V0H34V35Q64 36 83 41T112 59T126 94T130 152V280Q130 338 129 375T123 427Q118 450 100 458T32 467V502L228 540V159ZM113 743Q113 769 131 787T175 805Q201
805 219 787T237 743Q237 717 219 699T175 681Q149 681 131 699T113 743Z" />
<glyph unicode="j" glyph-name="j" horiz-adv-x="304" d="M213 -2Q213 -127 161 -193T8 -260Q-56 -260 -96 -235T-137 -167Q-137 -144 -124 -132T-86 -120Q-68 -120 -59 -128T-34 -167Q-20 -197 -8 -207T29 -217Q77 -217 96 -184T115 -68V280Q115 338 114 375T108
427Q103 450 85 458T17 467V502L213 540V-2ZM100 743Q100 769 118 787T162 805Q188 805 206 787T224 743Q224 717 206 699T162 681Q136 681 118 699T100 743Z" />
<glyph unicode="k" glyph-name="k" horiz-adv-x="616" d="M348 35Q381 35 393 38T406 46Q405 54 390 75T351 125L245 253L208 218V159Q208 120 211 97T224 60T252 41T301 35V0H17V35Q47 36 65 41T94 59T109 94T113 152V571Q113 647 112 686T101 739Q92 753 71
755T15 758V792L208 830V281L301 372Q346 417 368 438T390 471Q390 482 369 488T309 495V530H569V495Q550 495 536 493T510 485T483 469T451 442L307 314L505 90Q519 73 530 63T553 46T578 38T611 35V0H348V35Z" />
<glyph unicode="l" glyph-name="l" horiz-adv-x="325" d="M209 156Q209 118 212 95T224 59T251 41T298 35V0H22V35Q52 36 70 41T98 59T112 92T116 149V580Q116 634 115 670T110 720Q105 743 87 751T20 759V793L209 830V156Z" />
<glyph unicode="m" glyph-name="m" horiz-adv-x="1073" d="M221 160Q221 118 223 94T233 58T258 41T303 35V0H37V35Q66 37 83 41T109 57T120 91T123 152V280Q123 337 122 375T116 427Q113 440 109 447T96 459T73 465T35 467V502L198 540L211 440H216Q261 491 310
515T420 540Q483 540 526 515T586 441H590Q627 488 680 514T793 540Q840 540 878 525T937 482Q955 459 962 422T970 319V160Q970 119 972 95T983 58T1007 41T1053 35V0H787V35Q815 36 832 40T858 57T869 92T872 152V278Q872 335 866 374T846 438T810 474T755 485Q711
485 673 461T612 395Q607 385 604 376T598 355T596 327T595 287V160Q595 119 597 95T607 58T633 41T679 35V0H413V35Q441 37 458 41T483 57T494 91T497 152V278Q497 336 491 375T472 439T436 474T382 485Q337 485 298 461T238 395Q233 385 230 376T224 355T222
327T221 287V160Z" />
<glyph unicode="n" glyph-name="n" horiz-adv-x="689" d="M216 157Q216 116 218 93T228 57T253 40T299 34V0H37V34Q65 36 81 40T107 56T118 90T121 150V283Q121 402 115 428Q112 441 108 449T94 462T71 468T35 470V502L195 540L207 441H211Q249 488 300 514T411
540Q457 540 495 525T553 484Q570 461 577 425T584 324V157Q584 116 586 93T597 57T621 40T665 34V0H406V34Q434 35 450 39T475 56T486 90T489 150V282Q489 339 483 378T464 441T428 475T375 486Q330 486 293 463T234 398Q229 388 226 379T220 358T217 331T216
291V157Z" />
<glyph unicode="o" glyph-name="o" horiz-adv-x="654" d="M325 540Q382 540 433 520T522 463T583 378T606 269Q606 208 584 157T523 69T433 11T325 -10Q269 -10 219 10T130 68T70 156T48 269Q48 328 70 378T130 464T218 520T325 540ZM325 492Q288 492 258 476T206
431T173 360T161 268Q161 216 172 174T205 103T257 57T325 41Q363 41 394 57T447 103T481 175T493 268Q493 318 481 359T447 429T394 475T325 492Z" />
<glyph unicode="p" glyph-name="p" horiz-adv-x="679" d="M210 458H214Q246 496 283 518T369 540Q426 540 473 520T556 462T610 375T630 264Q630 203 610 153T555 66T472 10T368 -10Q322 -10 285 5T214 56V-90Q214 -130 218 -154T234 -191T268 -209T328 -215V-250H20V-215Q50
-214 68 -209T97 -191T112 -156T116 -97V277Q116 335 115 372T109 423Q104 447 86 455T18 464V498L210 536V458ZM240 429Q227 409 221 382T214 310V232Q214 205 215 186T220 152T228 127T241 106Q264 74 296 57T363 39Q432 39 474 97T517 260Q517 312 506 354T473
427T423 475T357 492Q321 492 291 476T240 429Z" />
<glyph unicode="q" glyph-name="q" horiz-adv-x="653" d="M464 320Q464 357 453 388T422 442T375 478T317 491Q281 491 253 475T204 430T172 358T161 265Q161 213 172 171T203 100T253 54T318 38Q359 38 392 57T442 111Q464 155 464 232V320ZM467 72H463Q428 28
391 9T300 -10Q244 -10 198 9T119 64T67 149T48 258Q48 317 68 368T123 458T205 518T306 540Q360 540 410 518T493 459L537 528H562V-90Q562 -132 564 -156T577 -193T608 -210T665 -215V-250H360V-215Q392 -214 412 -209T445 -190T462 -154T467 -97V72Z" />
<glyph unicode="r" glyph-name="r" horiz-adv-x="477" d="M222 159Q222 118 224 94T234 58T259 41T304 35V0H38V35Q67 36 84 40T110 57T121 91T124 152V269Q124 337 123 375T113 431T86 452T36 456V491L211 529L225 405H229Q242 435 261 460T304 502T352 530T403
540Q435 540 453 525T472 483Q472 459 457 446T414 432Q398 432 387 436T368 444T352 453T335 457Q308 457 281 423T239 335Q231 306 227 270T222 193V159Z" />
<glyph unicode="s" glyph-name="s" horiz-adv-x="454" d="M86 0H64V172H89Q128 31 231 31Q271 31 294 50T318 110Q318 125 314 135T297 157T262 184T202 222Q168 243 143 261T101 297T76 337T67 386Q67 420 78 448T110 497T157 528T216 540Q243 540 272 532T323
509L343 530H362V386H336Q314 447 288 473T224 499Q190 499 170 481T149 431Q149 414 154 402T172 377T202 353T247 324Q290 297 320 276T370 235T398 192T407 142Q407 71 361 31T240 -10Q162 -10 106 35L86 0Z" />
<glyph unicode="t" glyph-name="t" horiz-adv-x="378" d="M40 467V504Q93 535 123 566T169 640H198V514H332V467H198V163Q198 128 201 104T213 66T234 45T267 39Q292 39 309 49T344 85L369 66Q355 29 321 10T235 -10Q169 -10 135 21T100 112V467H40Z" />
<glyph unicode="u" glyph-name="u" horiz-adv-x="670" d="M463 370Q463 411 461 434T451 470T426 487T380 495V530H561V223Q561 166 562 130T567 76Q569 63 573 56T587 44T610 38T648 36V1L483 -11L472 109H468Q430 47 381 19T277 -10Q235 -10 196 6T136 49Q119
71 112 110T104 211V370Q104 411 102 434T92 470T67 487T21 495V530H202V257Q202 148 227 99T309 50Q397 50 446 165Q451 177 454 187T459 209T462 236T463 272V370Z" />
<glyph unicode="v" glyph-name="v" horiz-adv-x="610" d="M104 406Q92 436 83 453T62 480T38 491T5 495V530H270V495Q250 494 237 493T217 489T206 479T203 460Q203 443 207 428T217 398L323 108H327L418 323Q439 373 448 403T457 456Q457 479 445 487T393 495V530H592V495Q576
495 563 487T540 467Q532 456 524 438T507 399T491 360T478 328L331 -11H273L104 406Z" />
<glyph unicode="w" glyph-name="w" horiz-adv-x="852" d="M278 -10H241L111 406Q102 434 94 451T75 478T49 491T12 495V530H277V495Q238 495 222 486T206 455Q206 445 209 432T217 398L285 159H289L436 530H467L600 159H604L664 321Q676 354 684 376T696 414T703
440T705 459Q705 481 692 488T638 495V530H838V495Q823 495 813 491T792 473T770 436T743 373L588 -10H551L429 359H425L278 -10Z" />
<glyph unicode="x" glyph-name="x" horiz-adv-x="609" d="M392 412Q416 442 416 463Q416 495 357 495V530H576V495Q558 495 544 491T515 478T487 454T454 415L351 284L484 109Q515 68 541 52T598 35V0H332V35Q368 35 382 40T396 62Q396 69 388 82T359 122L289
212L204 104Q189 86 189 68Q189 54 201 45T239 35V0H10V35Q33 35 51 39T85 53T119 81T159 126L261 251L128 440Q105 472 86 483T38 495V530H284V495Q257 495 245 489T233 471Q233 456 252 429L324 324L392 412Z" />
<glyph unicode="y" glyph-name="y" horiz-adv-x="639" d="M281 -157Q235 -260 138 -260Q75 -260 75 -213Q75 -188 92 -177T157 -157Q178 -154 193 -149T220 -135T241 -113T260 -81L295 -11L103 406Q90 434 81 450T61 476T37 489T4 495V530H269V495Q202 495 202
462Q202 449 210 421T230 364L340 98H345L436 323Q449 356 457 377T470 411T476 434T478 451Q478 477 464 486T408 495V530H628V495Q609 495 596 490T570 468T540 417T499 328L281 -157Z" />
<glyph unicode="z" glyph-name="z" horiz-adv-x="557" d="M498 0H18V4L364 488H253Q210 488 183 485T138 471T111 442T97 392H65L81 530H511V526L170 46H287Q338 46 371 50T426 66T460 99T482 155H515L498 0Z" />
<glyph unicode="{" glyph-name="braceleft" horiz-adv-x="335" d="M208 0Q208 -54 225 -84T294 -128V-150Q244 -150 210 -143T156 -119T127 -71T118 4V200Q118 222 114 244T99 285T72 315T29 330V355Q57 361 74 371T101 396T114 433T118 484V659Q118 707 125 739T151
792T203 821T290 830V807Q243 795 226 765T208 680V501Q208 470 205 445T191 399T161 366T110 345V340Q140 335 159 324T189 294T204 252T208 198V0Z" />
<glyph unicode="|" glyph-name="bar" horiz-adv-x="290" d="M185 820V-250H105V820H185Z" />
<glyph unicode="}" glyph-name="braceright" horiz-adv-x="335" d="M127 198Q127 228 131 252T145 294T175 323T225 340V345Q193 352 174 365T145 399T131 444T127 501V680Q127 734 110 764T45 807V830Q98 830 131 821T184 792T210 740T217 659V484Q217 455 220
434T233 397T260 371T306 355V330Q280 328 263 316T236 285T222 245T217 200V4Q217 -41 209 -71T180 -118T125 -143T41 -150V-128Q92 -114 109 -84T127 0V198Z" />
<glyph unicode="~" glyph-name="asciitilde" horiz-adv-x="553" d="M84 249Q93 302 122 332T194 363Q215 363 240 356T290 340T342 324T391 317Q410 317 419 326T437 359H470Q462 306 434 274T367 241Q346 241 321 248T268 265T214 281T163 289Q144 289 135 281T118
249H84Z" />
<glyph unicode="&#xa0;" glyph-name="uni00A0" horiz-adv-x="287" />
<glyph unicode="&#xa1;" glyph-name="exclamdown" horiz-adv-x="308" d="M89 715Q89 742 108 761T154 780Q182 780 201 761T220 715Q220 687 201 668T154 649Q127 649 108 668T89 715ZM178 563Q178 483 180 427T185 330T193 256T204 190Q210 160 213 141T217 107T219
82T219 56Q219 29 202 10T154 -10Q124 -10 107 9T89 56Q89 71 89 82T91 107T96 139T104 186Q110 220 115 253T123 329T128 427T130 563H178Z" />
<glyph unicode="&#xa2;" glyph-name="cent" horiz-adv-x="555" d="M338 683V540Q375 539 406 533T459 515T494 487T507 452Q507 432 494 421T458 410Q440 410 428 417T397 451Q382 468 369 477T338 491V42Q376 44 410 60T480 112L510 83Q480 47 436 24T338 -7V-147H288V-10Q236
-9 193 11T118 66T70 151T53 261Q53 319 69 367T117 450T191 508T288 537V683H338ZM167 276Q167 176 197 118T288 46V491Q228 483 198 429T167 276Z" />
<glyph unicode="&#xa3;" glyph-name="sterling" horiz-adv-x="680" d="M235 83Q210 95 189 102T147 109Q127 109 115 101T103 77Q103 60 116 53T153 45Q203 45 235 83ZM314 431H531V370H327Q335 340 338 319T341 270Q341 220 333 182T307 111Q325 106 346 102T390
95T435 91T476 89Q525 89 560 105T624 158L634 154Q634 67 594 29T488 -10Q467 -10 447 -7T404 4T350 25T280 59Q270 44 254 31T219 9T177 -5T134 -11Q90 -11 65 11T39 71Q39 113 68 139T143 165Q168 165 195 158T249 134Q252 145 253 163T255 194Q255 224 244
273T214 370H75V431H195Q183 472 178 504T172 566Q172 615 188 655T236 722T310 765T407 780Q448 780 483 772T544 748T584 711T599 665Q599 619 555 619Q528 619 517 636T494 675T463 714T397 732Q340 732 308 702T275 621Q275 604 278 581T288 534L314 431Z"
/>
<glyph unicode="&#xa4;" glyph-name="currency" horiz-adv-x="613" d="M136 128Q113 156 101 190T89 263Q89 341 136 399L64 471L99 506L171 434Q199 457 233 469T306 481Q345 481 378 469T441 434L513 506L548 471L476 399Q524 340 524 263Q524 224 512 190T477
128L548 57L513 22L442 93Q384 46 306 46Q227 46 170 94L99 23L65 57L136 128ZM139 263Q139 228 152 198T188 145T241 109T306 96Q340 96 371 109T424 145T460 198T474 263Q474 297 461 328T425 381T371 417T306 431Q271 431 241 418T188 382T152 328T139 263Z"
/>
<glyph unicode="&#xa5;" glyph-name="yen" horiz-adv-x="802" d="M626 175H454Q454 131 458 104T474 63T507 43T563 38V0H239V38Q274 38 295 43T329 63T345 104T349 175H172V235H349V304H172V364H314L149 646Q134 672 121 688T95 715T66 728T30 732V770H345V732Q316
732 299 730T271 724T258 714T254 698Q254 677 277 638L432 373H436L549 563Q581 617 594 648T608 698Q608 717 594 724T543 732V770H772V732Q751 732 735 726T700 702T661 652T608 568L487 364H626V304H454V235H626V175Z" />
<glyph unicode="&#xa6;" glyph-name="brokenbar" horiz-adv-x="298" d="M189 750V365H109V750H189ZM189 205V-180H109V205H189Z" />
<glyph unicode="&#xa7;" glyph-name="section" horiz-adv-x="566" d="M375 196Q406 220 418 238T431 278Q431 310 408 342T339 402L206 481Q168 461 153 444T137 401Q137 370 157 342T213 292L375 196ZM243 145Q194 172 160 197T104 248T73 301T63 361Q63 414
88 451T162 509Q127 538 109 577T91 662Q91 740 142 785T280 830Q321 830 355 820T415 792T455 749T469 695Q469 663 453 644T407 625Q381 625 365 640T348 681Q348 694 352 703T362 718T371 730T376 744Q376 764 349 777T279 790Q225 790 195 765T165 694Q165
657 188 629T270 567L330 532Q423 478 463 427T504 314Q504 269 484 235T417 167Q494 104 494 14Q494 -28 478 -62T432 -121T363 -160T273 -174Q226 -174 187 -162T120 -128T76 -76T60 -10Q60 28 77 50T123 73Q149 73 168 55T187 11Q187 -5 180 -17T165 -38T150
-56T143 -74Q143 -85 154 -95T184 -112T227 -124T278 -129Q343 -129 379 -100T415 -18Q415 19 390 47T302 112L243 145Z" />
<glyph unicode="&#xa8;" glyph-name="dieresis" horiz-adv-x="323" d="M20 709Q20 734 36 750T78 767Q103 767 119 751T136 709Q136 684 120 668T78 651Q53 651 37 667T20 709ZM187 709Q187 734 203 750T245 767Q270 767 286 751T303 709Q303 684 287 668T245
651Q220 651 204 667T187 709Z" />
<glyph unicode="&#xa9;" glyph-name="copyright" horiz-adv-x="888" d="M831 386Q831 303 801 231T717 106T594 21T442 -10Q362 -10 292 21T170 106T87 232T57 385Q57 466 87 538T169 664T291 749T441 780Q522 780 593 749T717 665T800 540T831 386ZM783 386Q783
458 756 521T683 631T574 705T441 732Q370 732 309 705T203 630T131 519T105 385Q105 313 131 250T203 140T310 66T442 38Q512 38 574 65T683 140T756 250T783 386ZM617 305Q603 239 561 198T444 157Q394 157 354 172T286 216T242 285T226 375Q226 427 242 470T288
544T359 592T450 609Q483 609 512 600T576 568L586 603H607L612 472H586Q574 517 539 543T455 569Q387 569 350 519T313 379Q313 291 350 245T457 198Q555 198 584 305H617Z" />
<glyph unicode="&#xaa;" glyph-name="ordfeminine" horiz-adv-x="378" d="M218 654Q167 635 146 617T125 580Q125 563 134 553T160 542Q183 542 200 565T218 620V654ZM218 682V701Q218 756 168 756Q146 756 137 751T123 725Q117 701 97 701Q72 701 72 730Q72 750
100 765T177 780Q231 780 252 763T274 703V591Q274 533 296 533Q311 533 320 546L327 534Q320 522 303 515T267 507Q223 507 223 555H219Q206 533 184 520T135 507Q102 507 83 523T63 566Q63 592 81 611T148 651L218 682Z" />
<glyph unicode="&#xab;" glyph-name="guillemotleft" horiz-adv-x="489" d="M49 262L219 421L239 400L140 262L238 124L219 104L49 262ZM220 262L390 421L410 400L311 262L409 124L390 104L220 262Z" />
<glyph unicode="&#xac;" glyph-name="logicalnot" horiz-adv-x="625" d="M491 313H83V363H541V110H491V313Z" />
<glyph unicode="&#xad;" glyph-name="uni00AD" horiz-adv-x="463" d="M77 248V331H386V248H77Z" />
<glyph unicode="&#xae;" glyph-name="registered" horiz-adv-x="888" d="M831 386Q831 303 801 231T717 106T594 21T442 -10Q362 -10 292 21T170 106T87 232T57 385Q57 466 87 538T169 664T291 749T441 780Q522 780 593 749T717 665T800 540T831 386ZM783 386Q783
458 756 521T683 631T574 705T441 732Q370 732 309 705T203 630T131 519T105 385Q105 313 131 250T203 140T310 66T442 38Q512 38 574 65T683 140T756 250T783 386ZM592 507Q592 462 567 432T484 393L608 243Q622 226 637 218T675 205V183H567L429 354Q422 363
417 369T405 378T390 382T369 383V271Q369 251 371 238T380 218T402 208T441 205V183H243V205Q279 206 289 218T299 268V527Q299 546 297 558T290 577T275 586T249 590V615H424Q505 615 548 587T592 507ZM369 416H409Q460 416 484 436T509 504Q509 549 489 567T424
585H378Q369 585 369 576V416Z" />
<glyph unicode="&#xaf;" glyph-name="overscore" horiz-adv-x="310" d="M20 702V752H290V702H20Z" />
<glyph unicode="&#xb0;" glyph-name="degree" horiz-adv-x="346" d="M53 660Q53 685 62 706T88 744T126 770T173 780Q198 780 219 771T257 745T283 707T293 660Q293 635 284 614T258 576T220 550T173 540Q148 540 127 549T89 575T63 613T53 660ZM83 660Q83 623
109 597T173 570Q210 570 236 596T262 660Q262 697 236 723T173 749Q136 749 110 723T83 660Z" />
<glyph unicode="&#xb1;" glyph-name="plusminus" horiz-adv-x="634" d="M291 234V443H83V493H291V702H343V493H551V443H343V234H291ZM551 95H83V145H551V95Z" />
<glyph unicode="&#xb2;" glyph-name="twosuperior" horiz-adv-x="285" d="M97 507H182Q202 507 212 516T230 553H250L235 468H34V481Q80 522 109 552T155 607T178 652T185 694Q185 723 171 740T130 757Q109 757 95 743T81 706Q81 686 93 675T125 663Q123 652 114
645T89 637Q67 637 53 654T38 697Q38 733 66 756T137 780Q182 780 210 756T238 694Q238 669 227 646T197 600T152 555T97 511V507Z" />
<glyph unicode="&#xb3;" glyph-name="threesuperior" horiz-adv-x="279" d="M186 554Q186 586 173 603T135 621Q121 614 108 614Q90 614 90 630Q90 644 107 644Q119 644 132 639Q153 639 166 657T179 707Q179 758 132 758Q92 758 92 727Q92 716 99 709T120 701Q118
693 109 687T87 681Q70 681 59 693T47 724Q47 750 70 765T132 780Q178 780 205 761T232 709Q232 682 214 662T167 635V631Q199 623 220 602T242 551Q242 513 211 489T131 464Q89 464 62 484T35 535Q35 557 48 571T81 586Q94 586 104 580T117 563Q102 563 92 554T82
529Q82 511 95 500T130 488Q186 488 186 554Z" />
<glyph unicode="&#xb4;" glyph-name="acute" horiz-adv-x="275" d="M20 651L150 770Q186 803 217 803Q234 803 244 794T255 768Q255 752 242 740T204 716L67 651H20Z" />
<glyph unicode="&#xb5;" glyph-name="mu" horiz-adv-x="721" d="M203 81Q211 42 218 0T231 -79T240 -146T244 -190Q244 -222 229 -241T188 -260Q163 -260 147 -242T130 -198V370Q130 410 127 434T115 472T90 490T47 495V530H228V257Q228 145 253 95T336 44Q380
44 412 73T472 165Q477 177 480 187T486 209T488 236T489 272V370Q489 410 486 434T474 472T449 490T406 495V530H587V223Q587 112 593 76Q595 64 599 56T612 44T636 38T674 36V1L509 -11L498 109H494Q462 51 420 21T331 -10Q248 -10 207 82L203 81Z" />
<glyph unicode="&#xb6;" glyph-name="paragraph" horiz-adv-x="631" d="M473 63Q473 6 476 -34T486 -91Q493 -111 514 -119T582 -127V-165H399V726H347V-165H153V-127Q206 -127 230 -118T262 -88Q264 -82 265 -67T268 -31T271 14T272 63V373Q264 373 257 373T238
372Q142 372 89 422T36 564Q36 664 105 717T306 770H582V732Q533 732 513 725T484 696Q478 680 476 654T473 573V63Z" />
<glyph unicode="&#xb7;" glyph-name="middot" horiz-adv-x="285" d="M77 274Q77 302 96 321T142 340Q170 340 189 321T208 274Q208 247 189 228T142 209Q115 209 96 228T77 274Z" />
<glyph unicode="&#xb8;" glyph-name="cedilla" horiz-adv-x="232" d="M123 -72Q247 -72 247 -158Q247 -206 213 -233T121 -260Q70 -260 38 -239T6 -184Q6 -148 37 -148Q48 -148 54 -154T70 -180Q79 -201 88 -209T115 -217Q137 -217 151 -204T165 -167Q165 -113
86 -113Q78 -113 69 -113T51 -115L48 -110L101 12H154L123 -72Z" />
<glyph unicode="&#xb9;" glyph-name="onesuperior" horiz-adv-x="246" d="M147 538Q147 507 154 498T189 488V468H61V488Q88 490 95 498T103 535V672Q103 695 103 710T101 730Q99 738 89 740T59 743V763Q80 764 103 768T147 780V538Z" />
<glyph unicode="&#xba;" glyph-name="ordmasculine" horiz-adv-x="383" d="M190 780Q218 780 243 770T288 742T318 699T330 645Q330 615 319 590T288 546T244 518T190 507Q162 507 137 517T94 546T64 589T53 645Q53 674 64 699T93 742T137 770T190 780ZM190 754Q158
754 138 724T117 645Q117 594 137 564T190 534Q224 534 244 564T265 645Q265 693 245 723T190 754Z" />
<glyph unicode="&#xbb;" glyph-name="guillemotright" horiz-adv-x="489" d="M270 104L251 124L349 262L250 400L270 421L440 262L270 104ZM99 104L80 124L178 262L79 400L99 421L269 262L99 104Z" />
<glyph unicode="&#xbc;" glyph-name="onequarter" horiz-adv-x="669" d="M88 0H31L584 770H632L88 0ZM219 538Q219 507 226 498T261 488V468H133V488Q160 490 167 498T175 535V672Q175 695 175 710T173 730Q171 738 161 740T131 743V763Q152 764 175 768T219 780V538ZM353
97L494 312H516V96Q541 97 547 103T553 132H572V38H553Q553 60 547 66T516 73V65Q516 34 522 25T548 15V0H425V15Q452 17 459 25T467 62V72H353V97ZM467 227H463L378 97H467V227Z" />
<glyph unicode="&#xbd;" glyph-name="onehalf" horiz-adv-x="675" d="M88 0H31L584 770H632L88 0ZM219 538Q219 507 226 498T261 488V468H133V488Q160 490 167 498T175 535V672Q175 695 175 710T173 730Q171 738 161 740T131 743V763Q152 764 175 768T219 780V538ZM432
39H517Q537 39 547 48T565 85H585L570 0H369V13Q415 54 444 84T490 139T513 184T520 226Q520 255 506 272T465 289Q444 289 430 275T416 238Q416 218 428 207T460 195Q458 184 449 177T424 169Q402 169 388 186T373 229Q373 265 401 288T472 312Q517 312 545 288T573
226Q573 201 562 178T532 132T487 87T432 43V39Z" />
<glyph unicode="&#xbe;" glyph-name="threequarters" horiz-adv-x="671" d="M95 0H38L591 770H639L95 0ZM360 97L501 312H523V96Q548 97 554 103T560 132H579V38H560Q560 60 554 66T523 73V65Q523 34 529 25T555 15V0H432V15Q459 17 466 25T474 62V72H360V97ZM474
227H470L385 97H474V227ZM241 554Q241 586 228 603T190 621Q176 614 163 614Q145 614 145 630Q145 644 162 644Q174 644 187 639Q208 639 221 657T234 707Q234 758 187 758Q147 758 147 727Q147 716 154 709T175 701Q173 693 164 687T142 681Q125 681 114 693T102
724Q102 750 125 765T187 780Q233 780 260 761T287 709Q287 682 269 662T222 635V631Q254 623 275 602T297 551Q297 513 266 489T186 464Q144 464 117 484T90 535Q90 557 103 571T136 586Q149 586 159 580T172 563Q157 563 147 554T137 529Q137 511 150 500T185
488Q241 488 241 554Z" />
<glyph unicode="&#xbf;" glyph-name="questiondown" horiz-adv-x="399" d="M274 533V304H245Q115 304 115 205Q115 181 122 160T140 123T168 98T202 89Q220 89 240 94T277 100Q300 100 315 85T330 46Q330 -10 268 -10Q227 -10 189 10T122 65T76 145T58 240Q58
316 100 358T219 400V533H274ZM315 715Q315 687 296 668T250 649Q222 649 203 668T184 715Q184 742 203 761T250 780Q277 780 296 761T315 715Z" />
<glyph unicode="&#xc0;" glyph-name="Agrave" horiz-adv-x="772" d="M488 279H221Q204 238 192 207T173 152T162 113T159 87Q159 59 177 49T237 38V0H-6V38Q17 41 33 46T62 60T84 83T103 119L363 770H406L633 206Q656 150 673 117T706 66T740 44T785 39V0H459V39Q512
39 532 49T552 82Q552 92 551 100T548 119T541 141T529 171L488 279ZM241 329H469L358 624L241 329ZM429 850L309 878Q275 886 255 897T234 925Q234 942 244 951T272 960Q292 960 311 952T359 927L489 850H429Z" />
<glyph unicode="&#xc1;" glyph-name="Aacute" horiz-adv-x="772" d="M488 279H221Q204 238 192 207T173 152T162 113T159 87Q159 59 177 49T237 38V0H-6V38Q17 41 33 46T62 60T84 83T103 119L363 770H406L633 206Q656 150 673 117T706 66T740 44T785 39V0H459V39Q512
39 532 49T552 82Q552 92 551 100T548 119T541 141T529 171L488 279ZM241 329H469L358 624L241 329ZM283 850L413 927Q441 944 460 952T500 960Q517 960 527 951T538 925Q538 909 518 898T463 878L343 850H283Z" />
<glyph unicode="&#xc2;" glyph-name="Acircumflex" horiz-adv-x="772" d="M488 279H221Q204 238 192 207T173 152T162 113T159 87Q159 59 177 49T237 38V0H-6V38Q17 41 33 46T62 60T84 83T103 119L363 770H406L633 206Q656 150 673 117T706 66T740 44T785 39V0H459V39Q512
39 532 49T552 82Q552 92 551 100T548 119T541 141T529 171L488 279ZM241 329H469L358 624L241 329ZM438 960L547 851H502L383 905L264 851H219L328 960H438Z" />
<glyph unicode="&#xc3;" glyph-name="Atilde" horiz-adv-x="772" d="M488 279H221Q204 238 192 207T173 152T162 113T159 87Q159 59 177 49T237 38V0H-6V38Q17 41 33 46T62 60T84 83T103 119L363 770H406L633 206Q656 150 673 117T706 66T740 44T785 39V0H459V39Q512
39 532 49T552 82Q552 92 551 100T548 119T541 141T529 171L488 279ZM241 329H469L358 624L241 329ZM212 846Q220 897 249 928T318 960Q338 960 357 953T396 937T435 921T473 914Q492 914 502 923T520 956H553Q548 905 520 872T453 838Q433 838 413 845T373 862T332
878T291 886Q272 886 263 878T246 846H212Z" />
<glyph unicode="&#xc4;" glyph-name="Adieresis" horiz-adv-x="772" d="M488 279H221Q204 238 192 207T173 152T162 113T159 87Q159 59 177 49T237 38V0H-6V38Q17 41 33 46T62 60T84 83T103 119L363 770H406L633 206Q656 150 673 117T706 66T740 44T785 39V0H459V39Q512
39 532 49T552 82Q552 92 551 100T548 119T541 141T529 171L488 279ZM241 329H469L358 624L241 329ZM242 910Q242 931 256 945T292 960Q314 960 328 946T343 910Q343 888 329 874T292 859Q271 859 257 873T242 910ZM424 910Q424 931 438 945T475 960Q496 960 510
946T525 910Q525 888 511 874T475 859Q453 859 439 873T424 910Z" />
<glyph unicode="&#xc5;" glyph-name="Aring" horiz-adv-x="772" d="M488 279H221Q204 238 192 207T173 152T162 113T159 87Q159 59 177 49T237 38V0H-6V38Q17 41 33 46T62 60T84 83T103 119L363 770H406L633 206Q656 150 673 117T706 66T740 44T785 39V0H459V39Q512
39 532 49T552 82Q552 92 551 100T548 119T541 141T529 171L488 279ZM241 329H469L358 624L241 329ZM318 895Q318 923 336 941T383 960Q411 960 429 942T448 895Q448 867 430 849T383 830Q355 830 337 848T318 895ZM349 895Q349 880 358 871T383 861Q397 861 406
870T416 895Q416 909 407 918T383 928Q368 928 359 919T349 895Z" />
<glyph unicode="&#xc6;" glyph-name="AE" horiz-adv-x="1051" d="M370 38Q405 39 426 44T460 61T476 95T480 152V284H249L245 275Q230 246 215 218T187 164T166 116T158 78Q158 63 165 56T182 45T206 40T231 38V0H-11V38Q12 41 28 46T56 60T79 83T102 119Q111
136 121 153T146 197T180 261T231 356T303 493T402 684Q405 691 407 696T409 707Q409 721 391 726T326 732V770H962V594H927Q921 634 909 659T873 700T815 721T729 727H602Q585 727 585 710V423Q633 423 667 428T724 445T759 480T774 538H809V265H774Q769 300 758
323T726 359T670 377T585 383V157Q585 124 593 103T620 68T672 49T751 43Q804 43 841 50T903 76T943 123T968 197H1006L991 0H370V38ZM480 329V721L273 329H480Z" />
<glyph unicode="&#xc7;" glyph-name="Ccedilla" horiz-adv-x="802" d="M689 770H717L726 540H689Q667 628 604 678T452 728Q391 728 343 704T262 635T212 525T194 378Q194 217 261 131T455 44Q648 44 703 249H744V0H709L686 79Q586 -4 451 -9L428 -72Q552 -72
552 -158Q552 -206 518 -233T426 -260Q375 -260 343 -239T311 -184Q311 -148 342 -148Q353 -148 359 -154T375 -180Q384 -201 393 -209T420 -217Q442 -217 456 -204T470 -167Q470 -113 391 -113Q383 -113 374 -113T356 -115L353 -110L397 -9Q320 -4 258 25T151
103T84 221T60 372Q60 463 88 538T166 667T287 750T443 780Q503 780 556 763T671 708L689 770Z" />
<glyph unicode="&#xc8;" glyph-name="Egrave" horiz-adv-x="726" d="M260 423Q314 423 350 429T408 450T439 486T449 538H484V265H449Q449 295 441 317T411 353T353 375T260 383V157Q260 124 268 103T295 68T347 49T426 43Q479 43 516 50T578 76T618 123T643 197H681L666
0H45V38Q80 39 101 44T135 61T151 95T155 152V618Q155 653 152 674T138 708T107 725T55 732V770H633L642 594H607Q601 634 588 659T551 700T491 721T404 727H277Q260 727 260 710V423ZM425 850L305 878Q271 886 251 897T230 925Q230 942 240 951T268 960Q288 960
307 952T355 927L485 850H425Z" />
<glyph unicode="&#xc9;" glyph-name="Eacute" horiz-adv-x="726" d="M260 423Q314 423 350 429T408 450T439 486T449 538H484V265H449Q449 295 441 317T411 353T353 375T260 383V157Q260 124 268 103T295 68T347 49T426 43Q479 43 516 50T578 76T618 123T643 197H681L666
0H45V38Q80 39 101 44T135 61T151 95T155 152V618Q155 653 152 674T138 708T107 725T55 732V770H633L642 594H607Q601 634 588 659T551 700T491 721T404 727H277Q260 727 260 710V423ZM279 850L409 927Q437 944 456 952T496 960Q513 960 523 951T534 925Q534 909
514 898T459 878L339 850H279Z" />
<glyph unicode="&#xca;" glyph-name="Ecircumflex" horiz-adv-x="726" d="M260 423Q314 423 350 429T408 450T439 486T449 538H484V265H449Q449 295 441 317T411 353T353 375T260 383V157Q260 124 268 103T295 68T347 49T426 43Q479 43 516 50T578 76T618 123T643
197H681L666 0H45V38Q80 39 101 44T135 61T151 95T155 152V618Q155 653 152 674T138 708T107 725T55 732V770H633L642 594H607Q601 634 588 659T551 700T491 721T404 727H277Q260 727 260 710V423ZM434 960L543 851H498L379 905L260 851H215L324 960H434Z" />
<glyph unicode="&#xcb;" glyph-name="Edieresis" horiz-adv-x="726" d="M260 423Q314 423 350 429T408 450T439 486T449 538H484V265H449Q449 295 441 317T411 353T353 375T260 383V157Q260 124 268 103T295 68T347 49T426 43Q479 43 516 50T578 76T618 123T643
197H681L666 0H45V38Q80 39 101 44T135 61T151 95T155 152V618Q155 653 152 674T138 708T107 725T55 732V770H633L642 594H607Q601 634 588 659T551 700T491 721T404 727H277Q260 727 260 710V423ZM224 910Q224 931 238 945T274 960Q296 960 310 946T325 910Q325
888 311 874T274 859Q253 859 239 873T224 910ZM406 910Q406 931 420 945T457 960Q478 960 492 946T507 910Q507 888 493 874T457 859Q435 859 421 873T406 910Z" />
<glyph unicode="&#xcc;" glyph-name="Igrave" horiz-adv-x="415" d="M260 189Q260 139 264 110T279 65T312 44T369 38V0H45V38Q80 39 101 44T135 65T151 107T155 182V588Q155 630 152 657T138 701T107 723T55 732V770H359V732Q327 731 308 724T278 701T264 655T260
581V189ZM252 850L132 878Q98 886 78 897T57 925Q57 942 67 951T95 960Q115 960 134 952T182 927L312 850H252Z" />
<glyph unicode="&#xcd;" glyph-name="Iacute" horiz-adv-x="415" d="M260 189Q260 139 264 110T279 65T312 44T369 38V0H45V38Q80 39 101 44T135 65T151 107T155 182V588Q155 630 152 657T138 701T107 723T55 732V770H359V732Q327 731 308 724T278 701T264 655T260
581V189ZM106 850L236 927Q264 944 283 952T323 960Q340 960 350 951T361 925Q361 909 341 898T286 878L166 850H106Z" />
<glyph unicode="&#xce;" glyph-name="Icircumflex" horiz-adv-x="415" d="M260 189Q260 139 264 110T279 65T312 44T369 38V0H45V38Q80 39 101 44T135 65T151 107T155 182V588Q155 630 152 657T138 701T107 723T55 732V770H359V732Q327 731 308 724T278 701T264
655T260 581V189ZM261 960L370 851H325L206 905L87 851H42L151 960H261Z" />
<glyph unicode="&#xcf;" glyph-name="Idieresis" horiz-adv-x="415" d="M260 189Q260 139 264 110T279 65T312 44T369 38V0H45V38Q80 39 101 44T135 65T151 107T155 182V588Q155 630 152 657T138 701T107 723T55 732V770H359V732Q327 731 308 724T278 701T264
655T260 581V189ZM67 910Q67 931 81 945T117 960Q139 960 153 946T168 910Q168 888 154 874T117 859Q96 859 82 873T67 910ZM249 910Q249 931 263 945T300 960Q321 960 335 946T350 910Q350 888 336 874T300 859Q278 859 264 873T249 910Z" />
<glyph unicode="&#xd0;" glyph-name="Eth" horiz-adv-x="882" d="M76 383V436H156V618Q156 653 153 674T139 708T108 725T56 732V770H407Q497 770 573 740T705 657T792 531T823 372Q823 290 794 222T713 104T587 28T427 0H36V38Q74 39 97 43T134 60T151 94T156
152V383H76ZM278 721Q261 721 261 704V436H425V383H261V163Q261 49 410 49Q547 49 620 130T693 370Q693 453 673 518T616 628T525 697T405 721H278Z" />
<glyph unicode="&#xd1;" glyph-name="Ntilde" horiz-adv-x="902" d="M694 -10L219 616H215V189Q215 139 218 110T232 65T262 44T314 38V0H45V38Q80 39 101 44T135 65T151 107T155 182V588Q155 630 152 657T138 701T107 723T55 732V770H253L690 187H694V581Q694
630 691 659T677 705T647 726T595 732V770H864V732Q829 731 808 726T774 705T758 662T754 588V-10H694ZM293 846Q301 897 330 928T399 960Q419 960 438 953T477 937T516 921T554 914Q573 914 583 923T601 956H634Q629 905 601 872T534 838Q514 838 494 845T454
862T413 878T372 886Q353 886 344 878T327 846H293Z" />
<glyph unicode="&#xd2;" glyph-name="Ograve" horiz-adv-x="946" d="M473 780Q561 780 637 749T769 664T857 537T889 379Q889 298 857 227T768 104T636 21T473 -10Q386 -10 310 20T178 103T90 227T57 379Q57 464 89 537T177 664T309 749T473 780ZM473 45Q539 45
591 68T681 134T739 238T759 376Q759 456 739 520T682 630T592 700T473 725Q407 725 354 701T264 631T207 521T187 376Q187 300 207 239T264 134T354 68T473 45ZM520 850L400 878Q366 886 346 897T325 925Q325 942 335 951T363 960Q383 960 402 952T450 927L580
850H520Z" />
<glyph unicode="&#xd3;" glyph-name="Oacute" horiz-adv-x="946" d="M473 780Q561 780 637 749T769 664T857 537T889 379Q889 298 857 227T768 104T636 21T473 -10Q386 -10 310 20T178 103T90 227T57 379Q57 464 89 537T177 664T309 749T473 780ZM473 45Q539 45
591 68T681 134T739 238T759 376Q759 456 739 520T682 630T592 700T473 725Q407 725 354 701T264 631T207 521T187 376Q187 300 207 239T264 134T354 68T473 45ZM374 850L504 927Q532 944 551 952T591 960Q608 960 618 951T629 925Q629 909 609 898T554 878L434
850H374Z" />
<glyph unicode="&#xd4;" glyph-name="Ocircumflex" horiz-adv-x="946" d="M473 780Q561 780 637 749T769 664T857 537T889 379Q889 298 857 227T768 104T636 21T473 -10Q386 -10 310 20T178 103T90 227T57 379Q57 464 89 537T177 664T309 749T473 780ZM473 45Q539
45 591 68T681 134T739 238T759 376Q759 456 739 520T682 630T592 700T473 725Q407 725 354 701T264 631T207 521T187 376Q187 300 207 239T264 134T354 68T473 45ZM529 960L638 851H593L474 905L355 851H310L419 960H529Z" />
<glyph unicode="&#xd5;" glyph-name="Otilde" horiz-adv-x="946" d="M473 780Q561 780 637 749T769 664T857 537T889 379Q889 298 857 227T768 104T636 21T473 -10Q386 -10 310 20T178 103T90 227T57 379Q57 464 89 537T177 664T309 749T473 780ZM473 45Q539 45
591 68T681 134T739 238T759 376Q759 456 739 520T682 630T592 700T473 725Q407 725 354 701T264 631T207 521T187 376Q187 300 207 239T264 134T354 68T473 45ZM303 846Q311 897 340 928T409 960Q429 960 448 953T487 937T526 921T564 914Q583 914 593 923T611
956H644Q639 905 611 872T544 838Q524 838 504 845T464 862T423 878T382 886Q363 886 354 878T337 846H303Z" />
<glyph unicode="&#xd6;" glyph-name="Odieresis" horiz-adv-x="946" d="M473 780Q561 780 637 749T769 664T857 537T889 379Q889 298 857 227T768 104T636 21T473 -10Q386 -10 310 20T178 103T90 227T57 379Q57 464 89 537T177 664T309 749T473 780ZM473 45Q539
45 591 68T681 134T739 238T759 376Q759 456 739 520T682 630T592 700T473 725Q407 725 354 701T264 631T207 521T187 376Q187 300 207 239T264 134T354 68T473 45ZM333 910Q333 931 347 945T383 960Q405 960 419 946T434 910Q434 888 420 874T383 859Q362 859
348 873T333 910ZM515 910Q515 931 529 945T566 960Q587 960 601 946T616 910Q616 888 602 874T566 859Q544 859 530 873T515 910Z" />
<glyph unicode="&#xd7;" glyph-name="multiply" horiz-adv-x="519" d="M68 184L223 339L69 493L104 528L258 374L413 529L450 492L295 337L449 183L414 148L260 302L105 147L68 184Z" />
<glyph unicode="&#xd8;" glyph-name="Oslash" horiz-adv-x="946" d="M473 780Q535 780 591 765T695 720L782 830H851L740 689Q809 634 849 555T889 379Q889 298 857 227T768 104T636 21T473 -10Q407 -10 349 7T239 56L131 -81H63L196 87Q131 141 94 216T57 379Q57
464 89 537T177 664T309 749T473 780ZM473 45Q539 45 591 68T681 134T739 238T759 376Q759 454 741 516T688 623L284 113Q358 45 473 45ZM187 376Q187 239 248 154L650 663Q579 725 473 725Q407 725 354 701T264 631T207 521T187 376Z" />
<glyph unicode="&#xd9;" glyph-name="Ugrave" horiz-adv-x="861" d="M722 310Q722 231 707 171T657 71T567 11T434 -10Q360 -10 305 4T213 52T158 140T140 273V537Q140 611 137 651T116 710Q104 723 84 727T29 732V770H370V732Q336 732 315 728T282 708Q268 690
264 651T260 537V265Q260 214 270 175T305 108T367 66T462 52Q562 52 612 107T662 271V512Q662 601 655 647T629 712Q615 725 594 728T542 732V770H832V732Q800 732 780 727T747 705Q732 684 727 640T722 512V310ZM505 850L385 878Q351 886 331 897T310 925Q310
942 320 951T348 960Q368 960 387 952T435 927L565 850H505Z" />
<glyph unicode="&#xda;" glyph-name="Uacute" horiz-adv-x="861" d="M722 310Q722 231 707 171T657 71T567 11T434 -10Q360 -10 305 4T213 52T158 140T140 273V537Q140 611 137 651T116 710Q104 723 84 727T29 732V770H370V732Q336 732 315 728T282 708Q268 690
264 651T260 537V265Q260 214 270 175T305 108T367 66T462 52Q562 52 612 107T662 271V512Q662 601 655 647T629 712Q615 725 594 728T542 732V770H832V732Q800 732 780 727T747 705Q732 684 727 640T722 512V310ZM359 850L489 927Q517 944 536 952T576 960Q593
960 603 951T614 925Q614 909 594 898T539 878L419 850H359Z" />
<glyph unicode="&#xdb;" glyph-name="Ucircumflex" horiz-adv-x="861" d="M722 310Q722 231 707 171T657 71T567 11T434 -10Q360 -10 305 4T213 52T158 140T140 273V537Q140 611 137 651T116 710Q104 723 84 727T29 732V770H370V732Q336 732 315 728T282 708Q268
690 264 651T260 537V265Q260 214 270 175T305 108T367 66T462 52Q562 52 612 107T662 271V512Q662 601 655 647T629 712Q615 725 594 728T542 732V770H832V732Q800 732 780 727T747 705Q732 684 727 640T722 512V310ZM514 960L623 851H578L459 905L340 851H295L404
960H514Z" />
<glyph unicode="&#xdc;" glyph-name="Udieresis" horiz-adv-x="861" d="M722 310Q722 231 707 171T657 71T567 11T434 -10Q360 -10 305 4T213 52T158 140T140 273V537Q140 611 137 651T116 710Q104 723 84 727T29 732V770H370V732Q336 732 315 728T282 708Q268
690 264 651T260 537V265Q260 214 270 175T305 108T367 66T462 52Q562 52 612 107T662 271V512Q662 601 655 647T629 712Q615 725 594 728T542 732V770H832V732Q800 732 780 727T747 705Q732 684 727 640T722 512V310ZM318 910Q318 931 332 945T368 960Q390 960
404 946T419 910Q419 888 405 874T368 859Q347 859 333 873T318 910ZM500 910Q500 931 514 945T551 960Q572 960 586 946T601 910Q601 888 587 874T551 859Q529 859 515 873T500 910Z" />
<glyph unicode="&#xdd;" glyph-name="Yacute" horiz-adv-x="733" d="M114 646Q99 672 86 688T60 715T31 728T-5 732V770H310V732Q260 732 240 725T219 698Q219 677 242 638L397 373H401L514 563Q546 617 559 648T573 698Q573 717 559 724T508 732V770H737V732Q716
732 700 726T665 702T626 652T573 568L419 308V189Q419 140 422 111T437 65T470 44T528 38V0H204V38Q240 38 261 43T294 64T310 108T314 182V304L114 646ZM278 850L408 927Q436 944 455 952T495 960Q512 960 522 951T533 925Q533 909 513 898T458 878L338 850H278Z"
/>
<glyph unicode="&#xde;" glyph-name="Thorn" horiz-adv-x="699" d="M262 596H371Q440 596 493 581T584 539T640 474T660 391Q660 338 643 298T590 231T495 190T352 176H262V157Q262 120 266 97T285 60T327 43T400 38V0H47V38Q82 39 103 44T137 61T153 95T157 152V618Q157
653 153 675T137 709T104 726T47 732V770H400V732Q355 732 328 728T286 710T267 674T262 613V596ZM262 226H333Q433 226 481 264T530 391Q530 476 492 512T371 549H279Q262 549 262 532V226Z" />
<glyph unicode="&#xdf;" glyph-name="germandbls" horiz-adv-x="658" d="M338 830Q384 830 423 817T490 779T533 720T549 644Q549 575 516 530T405 467V462Q449 462 486 444T551 393T594 316T610 218Q610 169 594 127T549 55T482 7T400 -10Q348 -10 319 12T290
70Q290 93 300 105T325 118Q353 118 366 84Q369 76 372 68T380 52T391 41T407 36Q424 36 439 49T465 87T483 144T490 215Q490 262 479 302T445 372T388 419T305 436V487Q369 487 399 522T429 633Q429 780 324 780Q287 780 261 765T220 719Q211 699 208 671T204
592V161Q204 124 206 100T216 63T236 44T268 38V0H24V38Q52 38 69 42T95 58T107 92T110 153V586Q110 700 170 765T338 830Z" />
<glyph unicode="&#xe0;" glyph-name="agrave" horiz-adv-x="554" d="M349 296Q292 274 253 253T189 211T155 169T144 126Q144 93 166 72T224 51Q250 51 272 64T312 99T339 152T349 217V296ZM349 339V380Q349 502 245 502Q228 502 216 499T196 489T182 469T169
437Q158 408 148 399T117 389Q67 389 67 439Q67 487 118 513T263 540Q363 540 405 505T447 384V160Q447 46 492 46Q506 46 519 49T541 68L555 44Q543 21 511 6T444 -10Q400 -10 379 18T357 97H352Q326 48 280 20T178 -9Q115 -9 79 23T43 109Q43 133 51 155T79 197T129
236T205 276L349 339ZM318 651L181 716Q157 727 144 739T130 768Q130 785 140 794T168 803Q199 803 235 770L365 651H318Z" />
<glyph unicode="&#xe1;" glyph-name="aacute" horiz-adv-x="554" d="M349 296Q292 274 253 253T189 211T155 169T144 126Q144 93 166 72T224 51Q250 51 272 64T312 99T339 152T349 217V296ZM349 339V380Q349 502 245 502Q228 502 216 499T196 489T182 469T169
437Q158 408 148 399T117 389Q67 389 67 439Q67 487 118 513T263 540Q363 540 405 505T447 384V160Q447 46 492 46Q506 46 519 49T541 68L555 44Q543 21 511 6T444 -10Q400 -10 379 18T357 97H352Q326 48 280 20T178 -9Q115 -9 79 23T43 109Q43 133 51 155T79 197T129
236T205 276L349 339ZM175 651L305 770Q341 803 372 803Q389 803 399 794T410 768Q410 752 397 740T359 716L222 651H175Z" />
<glyph unicode="&#xe2;" glyph-name="acircumflex" horiz-adv-x="554" d="M349 296Q292 274 253 253T189 211T155 169T144 126Q144 93 166 72T224 51Q250 51 272 64T312 99T339 152T349 217V296ZM349 339V380Q349 502 245 502Q228 502 216 499T196 489T182 469T169
437Q158 408 148 399T117 389Q67 389 67 439Q67 487 118 513T263 540Q363 540 405 505T447 384V160Q447 46 492 46Q506 46 519 49T541 68L555 44Q543 21 511 6T444 -10Q400 -10 379 18T357 97H352Q326 48 280 20T178 -9Q115 -9 79 23T43 109Q43 133 51 155T79 197T129
236T205 276L349 339ZM310 780L429 651H384L265 719L146 651H101L220 780H310Z" />
<glyph unicode="&#xe3;" glyph-name="atilde" horiz-adv-x="554" d="M349 296Q292 274 253 253T189 211T155 169T144 126Q144 93 166 72T224 51Q250 51 272 64T312 99T339 152T349 217V296ZM349 339V380Q349 502 245 502Q228 502 216 499T196 489T182 469T169
437Q158 408 148 399T117 389Q67 389 67 439Q67 487 118 513T263 540Q363 540 405 505T447 384V160Q447 46 492 46Q506 46 519 49T541 68L555 44Q543 21 511 6T444 -10Q400 -10 379 18T357 97H352Q326 48 280 20T178 -9Q115 -9 79 23T43 109Q43 133 51 155T79 197T129
236T205 276L349 339ZM95 660Q103 711 132 742T201 774Q221 774 240 767T279 751T318 735T356 728Q375 728 385 737T403 770H436Q431 719 403 686T336 652Q316 652 296 659T256 676T215 692T174 700Q155 700 146 692T129 660H95Z" />
<glyph unicode="&#xe4;" glyph-name="adieresis" horiz-adv-x="554" d="M349 296Q292 274 253 253T189 211T155 169T144 126Q144 93 166 72T224 51Q250 51 272 64T312 99T339 152T349 217V296ZM349 339V380Q349 502 245 502Q228 502 216 499T196 489T182 469T169
437Q158 408 148 399T117 389Q67 389 67 439Q67 487 118 513T263 540Q363 540 405 505T447 384V160Q447 46 492 46Q506 46 519 49T541 68L555 44Q543 21 511 6T444 -10Q400 -10 379 18T357 97H352Q326 48 280 20T178 -9Q115 -9 79 23T43 109Q43 133 51 155T79 197T129
236T205 276L349 339ZM124 709Q124 734 140 750T182 767Q207 767 223 751T240 709Q240 684 224 668T182 651Q157 651 141 667T124 709ZM291 709Q291 734 307 750T349 767Q374 767 390 751T407 709Q407 684 391 668T349 651Q324 651 308 667T291 709Z" />
<glyph unicode="&#xe5;" glyph-name="aring" horiz-adv-x="554" d="M349 296Q292 274 253 253T189 211T155 169T144 126Q144 93 166 72T224 51Q250 51 272 64T312 99T339 152T349 217V296ZM349 339V380Q349 502 245 502Q228 502 216 499T196 489T182 469T169 437Q158
408 148 399T117 389Q67 389 67 439Q67 487 118 513T263 540Q363 540 405 505T447 384V160Q447 46 492 46Q506 46 519 49T541 68L555 44Q543 21 511 6T444 -10Q400 -10 379 18T357 97H352Q326 48 280 20T178 -9Q115 -9 79 23T43 109Q43 133 51 155T79 197T129 236T205
276L349 339ZM186 742Q186 780 210 805T272 830Q310 830 335 805T360 742Q360 705 335 681T272 656Q235 656 211 680T186 742ZM225 742Q225 722 238 709T272 695Q292 695 304 708T317 742Q317 762 305 774T272 787Q252 787 239 775T225 742Z" />
<glyph unicode="&#xe6;" glyph-name="ae" horiz-adv-x="852" d="M802 93Q714 -10 594 -10Q520 -10 465 24T380 118Q352 57 301 24T182 -9Q117 -9 80 22T43 109Q43 164 82 204T205 276L349 329V380Q349 443 324 472T243 502Q211 502 197 489T169 437Q158 408 148
399T118 389Q67 389 67 439Q67 487 118 513T264 540Q333 540 372 524T430 471Q463 504 507 522T606 540Q700 540 753 487T806 339Q806 328 800 323T775 317H466Q462 305 462 273Q462 166 504 104T622 42Q699 42 771 121L802 93ZM349 286Q241 246 193 209T144 126Q144
93 166 72T224 51Q249 51 272 62T312 94T339 140T349 197V286ZM637 363Q657 363 669 364T687 367T695 375T697 390Q697 436 668 464T590 492Q542 492 514 461T473 363H637Z" />
<glyph unicode="&#xe7;" glyph-name="ccedilla" horiz-adv-x="536" d="M506 83Q473 42 422 19T311 -9L288 -72Q412 -72 412 -158Q412 -206 378 -233T286 -260Q235 -260 203 -239T171 -184Q171 -148 202 -148Q213 -148 219 -154T235 -180Q244 -201 253 -209T280
-217Q302 -217 316 -204T330 -167Q330 -113 251 -113Q243 -113 234 -113T216 -115L213 -110L257 -8Q210 -2 172 19T107 76T64 158T49 261Q49 325 69 376T125 464T213 520T327 540Q366 540 398 534T453 516T490 488T503 452Q503 432 490 421T454 410Q436 410 424
417T393 451Q373 474 355 483T307 493Q236 493 200 438T163 276Q163 161 203 102T322 42Q364 42 401 58T476 112L506 83Z" />
<glyph unicode="&#xe8;" glyph-name="egrave" horiz-adv-x="573" d="M522 93Q437 -10 311 -10Q252 -10 204 9T122 64T68 149T49 259Q49 320 69 372T125 461T212 519T323 540Q420 540 473 488T526 337Q526 323 521 320T495 317H166Q164 309 163 298T162 272Q162
220 174 178T210 105T266 59T339 42Q381 42 417 60T491 121L522 93ZM357 363Q377 363 389 364T407 368T415 376T417 391Q417 437 388 464T307 492Q199 492 173 363H357ZM399 651L262 716Q238 727 225 739T211 768Q211 785 221 794T249 803Q280 803 316 770L446
651H399Z" />
<glyph unicode="&#xe9;" glyph-name="eacute" horiz-adv-x="573" d="M522 93Q437 -10 311 -10Q252 -10 204 9T122 64T68 149T49 259Q49 320 69 372T125 461T212 519T323 540Q420 540 473 488T526 337Q526 323 521 320T495 317H166Q164 309 163 298T162 272Q162
220 174 178T210 105T266 59T339 42Q381 42 417 60T491 121L522 93ZM357 363Q377 363 389 364T407 368T415 376T417 391Q417 437 388 464T307 492Q199 492 173 363H357ZM240 651L370 770Q406 803 437 803Q454 803 464 794T475 768Q475 752 462 740T424 716L287
651H240Z" />
<glyph unicode="&#xea;" glyph-name="ecircumflex" horiz-adv-x="573" d="M522 93Q437 -10 311 -10Q252 -10 204 9T122 64T68 149T49 259Q49 320 69 372T125 461T212 519T323 540Q420 540 473 488T526 337Q526 323 521 320T495 317H166Q164 309 163 298T162 272Q162
220 174 178T210 105T266 59T339 42Q381 42 417 60T491 121L522 93ZM357 363Q377 363 389 364T407 368T415 376T417 391Q417 437 388 464T307 492Q199 492 173 363H357ZM358 780L477 651H432L313 719L194 651H149L268 780H358Z" />
<glyph unicode="&#xeb;" glyph-name="edieresis" horiz-adv-x="573" d="M522 93Q437 -10 311 -10Q252 -10 204 9T122 64T68 149T49 259Q49 320 69 372T125 461T212 519T323 540Q420 540 473 488T526 337Q526 323 521 320T495 317H166Q164 309 163 298T162 272Q162
220 174 178T210 105T266 59T339 42Q381 42 417 60T491 121L522 93ZM357 363Q377 363 389 364T407 368T415 376T417 391Q417 437 388 464T307 492Q199 492 173 363H357ZM172 709Q172 734 188 750T230 767Q255 767 271 751T288 709Q288 684 272 668T230 651Q205
651 189 667T172 709ZM339 709Q339 734 355 750T397 767Q422 767 438 751T455 709Q455 684 439 668T397 651Q372 651 356 667T339 709Z" />
<glyph unicode="&#xec;" glyph-name="igrave" horiz-adv-x="341" d="M228 162Q228 123 231 99T245 62T273 43T321 37V0H34V37Q64 38 83 43T112 61T126 96T130 154V278Q130 336 129 373T123 424Q118 448 100 456T32 465V502L228 540V162ZM207 651L70 716Q46 727
33 739T19 768Q19 785 29 794T57 803Q88 803 124 770L254 651H207Z" />
<glyph unicode="&#xed;" glyph-name="iacute" horiz-adv-x="341" d="M228 162Q228 123 231 99T245 62T273 43T321 37V0H34V37Q64 38 83 43T112 61T126 96T130 154V278Q130 336 129 373T123 424Q118 448 100 456T32 465V502L228 540V162ZM90 651L220 770Q256 803
287 803Q304 803 314 794T325 768Q325 752 312 740T274 716L137 651H90Z" />
<glyph unicode="&#xee;" glyph-name="icircumflex" horiz-adv-x="341" d="M228 162Q228 123 231 99T245 62T273 43T321 37V0H34V37Q64 38 83 43T112 61T126 96T130 154V278Q130 336 129 373T123 424Q118 448 100 456T32 465V502L228 540V162ZM225 780L344 651H299L180
719L61 651H16L135 780H225Z" />
<glyph unicode="&#xef;" glyph-name="idieresis" horiz-adv-x="341" d="M228 162Q228 123 231 99T245 62T273 43T321 37V0H34V37Q64 38 83 43T112 61T126 96T130 154V278Q130 336 129 373T123 424Q118 448 100 456T32 465V502L228 540V162ZM39 709Q39 734 55 750T97
767Q122 767 138 751T155 709Q155 684 139 668T97 651Q72 651 56 667T39 709ZM206 709Q206 734 222 750T264 767Q289 767 305 751T322 709Q322 684 306 668T264 651Q239 651 223 667T206 709Z" />
<glyph unicode="&#xf0;" glyph-name="eth" horiz-adv-x="640" d="M175 244Q175 144 210 90T309 35Q373 35 410 91T448 244Q448 340 411 394T310 449Q246 449 211 395T175 244ZM179 780Q226 766 271 750T352 712L482 787L507 755L390 687Q434 656 468 615T526 524T562
420T575 308Q575 238 555 180T500 79T415 14T308 -10Q254 -10 207 9T125 62T70 142T50 244Q50 297 69 343T121 423T200 478T300 498Q354 498 393 476T453 412L456 414Q436 494 405 552T330 652L200 577L176 609L297 680Q274 697 243 712T160 746L179 780Z" />
<glyph unicode="&#xf1;" glyph-name="ntilde" horiz-adv-x="689" d="M216 157Q216 116 218 93T228 57T253 40T299 34V0H37V34Q65 36 81 40T107 56T118 90T121 150V283Q121 402 115 428Q112 441 108 449T94 462T71 468T35 470V502L195 540L207 441H211Q249 488
300 514T411 540Q457 540 495 525T553 484Q570 461 577 425T584 324V157Q584 116 586 93T597 57T621 40T665 34V0H406V34Q434 35 450 39T475 56T486 90T489 150V282Q489 339 483 378T464 441T428 475T375 486Q330 486 293 463T234 398Q229 388 226 379T220 358T217
331T216 291V157ZM175 660Q183 711 212 742T281 774Q301 774 320 767T359 751T398 735T436 728Q455 728 465 737T483 770H516Q511 719 483 686T416 652Q396 652 376 659T336 676T295 692T254 700Q235 700 226 692T209 660H175Z" />
<glyph unicode="&#xf2;" glyph-name="ograve" horiz-adv-x="654" d="M325 540Q382 540 433 520T522 463T583 378T606 269Q606 208 584 157T523 69T433 11T325 -10Q269 -10 219 10T130 68T70 156T48 269Q48 328 70 378T130 464T218 520T325 540ZM325 492Q288 492
258 476T206 431T173 360T161 268Q161 216 172 174T205 103T257 57T325 41Q363 41 394 57T447 103T481 175T493 268Q493 318 481 359T447 429T394 475T325 492ZM398 651L261 716Q237 727 224 739T210 768Q210 785 220 794T248 803Q279 803 315 770L445 651H398Z"
/>
<glyph unicode="&#xf3;" glyph-name="oacute" horiz-adv-x="654" d="M325 540Q382 540 433 520T522 463T583 378T606 269Q606 208 584 157T523 69T433 11T325 -10Q269 -10 219 10T130 68T70 156T48 269Q48 328 70 378T130 464T218 520T325 540ZM325 492Q288 492
258 476T206 431T173 360T161 268Q161 216 172 174T205 103T257 57T325 41Q363 41 394 57T447 103T481 175T493 268Q493 318 481 359T447 429T394 475T325 492ZM235 651L365 770Q401 803 432 803Q449 803 459 794T470 768Q470 752 457 740T419 716L282 651H235Z"
/>
<glyph unicode="&#xf4;" glyph-name="ocircumflex" horiz-adv-x="654" d="M325 540Q382 540 433 520T522 463T583 378T606 269Q606 208 584 157T523 69T433 11T325 -10Q269 -10 219 10T130 68T70 156T48 269Q48 328 70 378T130 464T218 520T325 540ZM325 492Q288
492 258 476T206 431T173 360T161 268Q161 216 172 174T205 103T257 57T325 41Q363 41 394 57T447 103T481 175T493 268Q493 318 481 359T447 429T394 475T325 492ZM370 780L489 651H444L325 719L206 651H161L280 780H370Z" />
<glyph unicode="&#xf5;" glyph-name="otilde" horiz-adv-x="654" d="M325 540Q382 540 433 520T522 463T583 378T606 269Q606 208 584 157T523 69T433 11T325 -10Q269 -10 219 10T130 68T70 156T48 269Q48 328 70 378T130 464T218 520T325 540ZM325 492Q288 492
258 476T206 431T173 360T161 268Q161 216 172 174T205 103T257 57T325 41Q363 41 394 57T447 103T481 175T493 268Q493 318 481 359T447 429T394 475T325 492ZM147 660Q155 711 184 742T253 774Q273 774 292 767T331 751T370 735T408 728Q427 728 437 737T455
770H488Q483 719 455 686T388 652Q368 652 348 659T308 676T267 692T226 700Q207 700 198 692T181 660H147Z" />
<glyph unicode="&#xf6;" glyph-name="odieresis" horiz-adv-x="654" d="M325 540Q382 540 433 520T522 463T583 378T606 269Q606 208 584 157T523 69T433 11T325 -10Q269 -10 219 10T130 68T70 156T48 269Q48 328 70 378T130 464T218 520T325 540ZM325 492Q288
492 258 476T206 431T173 360T161 268Q161 216 172 174T205 103T257 57T325 41Q363 41 394 57T447 103T481 175T493 268Q493 318 481 359T447 429T394 475T325 492ZM184 709Q184 734 200 750T242 767Q267 767 283 751T300 709Q300 684 284 668T242 651Q217 651
201 667T184 709ZM351 709Q351 734 367 750T409 767Q434 767 450 751T467 709Q467 684 451 668T409 651Q384 651 368 667T351 709Z" />
<glyph unicode="&#xf7;" glyph-name="divide" horiz-adv-x="599" d="M237 162Q237 190 256 209T302 228Q330 228 349 209T368 162Q368 135 349 116T302 97Q275 97 256 116T237 162ZM237 512Q237 540 256 559T302 578Q330 578 349 559T368 512Q368 485 349 466T302
447Q275 447 256 466T237 512ZM534 313H66V363H534V313Z" />
<glyph unicode="&#xf8;" glyph-name="oslash" horiz-adv-x="651" d="M324 540Q367 540 406 529T479 495L556 592H625L522 462Q560 426 582 377T605 269Q605 208 583 157T522 69T432 11T324 -10Q284 -10 248 0T179 29L108 -61H40L136 61Q95 99 71 151T47 269Q47
328 69 378T129 464T217 520T324 540ZM324 492Q287 492 257 476T205 431T172 360T160 268Q160 184 189 128L436 441Q415 465 387 478T324 492ZM492 268Q492 338 467 393L221 82Q262 41 324 41Q362 41 393 57T446 103T480 175T492 268Z" />
<glyph unicode="&#xf9;" glyph-name="ugrave" horiz-adv-x="670" d="M463 370Q463 411 461 434T451 470T426 487T380 495V530H561V223Q561 166 562 130T567 76Q569 63 573 56T587 44T610 38T648 36V1L483 -11L472 109H468Q430 47 381 19T277 -10Q235 -10 196 6T136
49Q119 71 112 110T104 211V370Q104 411 102 434T92 470T67 487T21 495V530H202V257Q202 148 227 99T309 50Q397 50 446 165Q451 177 454 187T459 209T462 236T463 272V370ZM366 651L229 716Q205 727 192 739T178 768Q178 785 188 794T216 803Q247 803 283 770L413
651H366Z" />
<glyph unicode="&#xfa;" glyph-name="uacute" horiz-adv-x="670" d="M463 370Q463 411 461 434T451 470T426 487T380 495V530H561V223Q561 166 562 130T567 76Q569 63 573 56T587 44T610 38T648 36V1L483 -11L472 109H468Q430 47 381 19T277 -10Q235 -10 196 6T136
49Q119 71 112 110T104 211V370Q104 411 102 434T92 470T67 487T21 495V530H202V257Q202 148 227 99T309 50Q397 50 446 165Q451 177 454 187T459 209T462 236T463 272V370ZM223 651L353 770Q389 803 420 803Q437 803 447 794T458 768Q458 752 445 740T407 716L270
651H223Z" />
<glyph unicode="&#xfb;" glyph-name="ucircumflex" horiz-adv-x="670" d="M463 370Q463 411 461 434T451 470T426 487T380 495V530H561V223Q561 166 562 130T567 76Q569 63 573 56T587 44T610 38T648 36V1L483 -11L472 109H468Q430 47 381 19T277 -10Q235 -10
196 6T136 49Q119 71 112 110T104 211V370Q104 411 102 434T92 470T67 487T21 495V530H202V257Q202 148 227 99T309 50Q397 50 446 165Q451 177 454 187T459 209T462 236T463 272V370ZM358 780L477 651H432L313 719L194 651H149L268 780H358Z" />
<glyph unicode="&#xfc;" glyph-name="udieresis" horiz-adv-x="670" d="M463 370Q463 411 461 434T451 470T426 487T380 495V530H561V223Q561 166 562 130T567 76Q569 63 573 56T587 44T610 38T648 36V1L483 -11L472 109H468Q430 47 381 19T277 -10Q235 -10 196
6T136 49Q119 71 112 110T104 211V370Q104 411 102 434T92 470T67 487T21 495V530H202V257Q202 148 227 99T309 50Q397 50 446 165Q451 177 454 187T459 209T462 236T463 272V370ZM172 709Q172 734 188 750T230 767Q255 767 271 751T288 709Q288 684 272 668T230
651Q205 651 189 667T172 709ZM339 709Q339 734 355 750T397 767Q422 767 438 751T455 709Q455 684 439 668T397 651Q372 651 356 667T339 709Z" />
<glyph unicode="&#xfd;" glyph-name="yacute" horiz-adv-x="639" d="M281 -157Q235 -260 138 -260Q75 -260 75 -213Q75 -188 92 -177T157 -157Q178 -154 193 -149T220 -135T241 -113T260 -81L295 -11L103 406Q90 434 81 450T61 476T37 489T4 495V530H269V495Q202
495 202 462Q202 449 210 421T230 364L340 98H345L436 323Q449 356 457 377T470 411T476 434T478 451Q478 477 464 486T408 495V530H628V495Q609 495 596 490T570 468T540 417T499 328L281 -157ZM259 651L389 770Q425 803 456 803Q473 803 483 794T494 768Q494
752 481 740T443 716L306 651H259Z" />
<glyph unicode="&#xfe;" glyph-name="thorn" horiz-adv-x="654" d="M91 604Q91 705 78 733Q75 740 71 744T59 752T37 759T-1 765V790L187 830V459H191Q223 501 261 520T351 540Q405 540 451 519T532 461T586 374T606 265Q606 206 586 156T532 68T450 10T348 -11Q300
-11 260 6T191 56V-90Q191 -130 195 -154T211 -191T245 -209T305 -215V-250H-3V-215Q27 -214 45 -209T74 -191T87 -156T91 -97V604ZM189 209Q189 171 200 140T230 86T277 50T337 37Q372 37 400 53T449 98T481 169T493 262Q493 313 481 355T448 428T398 476T333
493Q292 493 260 474T211 419Q189 375 189 298V209Z" />
<glyph unicode="&#xff;" glyph-name="ydieresis" horiz-adv-x="639" d="M281 -157Q235 -260 138 -260Q75 -260 75 -213Q75 -188 92 -177T157 -157Q178 -154 193 -149T220 -135T241 -113T260 -81L295 -11L103 406Q90 434 81 450T61 476T37 489T4 495V530H269V495Q202
495 202 462Q202 449 210 421T230 364L340 98H345L436 323Q449 356 457 377T470 411T476 434T478 451Q478 477 464 486T408 495V530H628V495Q609 495 596 490T570 468T540 417T499 328L281 -157ZM208 709Q208 734 224 750T266 767Q291 767 307 751T324 709Q324
684 308 668T266 651Q241 651 225 667T208 709ZM375 709Q375 734 391 750T433 767Q458 767 474 751T491 709Q491 684 475 668T433 651Q408 651 392 667T375 709Z" />
<glyph unicode="&#x2013;" glyph-name="endash" horiz-adv-x="724" d="M77 248V331H647V248H77Z" />
<glyph unicode="&#x2014;" glyph-name="emdash" horiz-adv-x="1112" d="M77 248V331H1035V248H77Z" />
<glyph unicode="&#x2018;" glyph-name="quoteleft" horiz-adv-x="257" d="M198 803Q152 768 133 737T113 667Q126 675 143 675Q166 675 180 660T195 620Q195 593 177 576T127 559Q56 559 56 653Q56 678 62 699T81 741T118 783T175 830L198 803Z" />
<glyph unicode="&#x2019;" glyph-name="quoteright" horiz-adv-x="254" d="M64 586Q110 621 129 652T149 722Q136 714 119 714Q96 714 82 729T67 769Q67 796 85 813T135 830Q206 830 206 736Q206 710 200 689T181 648T144 606T87 559L64 586Z" />
<glyph unicode="&#x201a;" glyph-name="quotesinglbase" horiz-adv-x="275" d="M66 -138Q112 -103 131 -72T151 -2Q138 -10 121 -10Q98 -10 84 5T69 45Q69 72 87 89T137 106Q208 106 208 12Q208 -14 202 -35T183 -76T146 -118T89 -165L66 -138Z" />
<glyph unicode="&#x201c;" glyph-name="quotedblleft" horiz-adv-x="449" d="M390 803Q344 768 325 737T305 667Q318 675 335 675Q358 675 372 660T387 620Q387 593 369 576T319 559Q248 559 248 653Q248 678 254 699T273 741T310 783T367 830L390 803ZM198 803Q152
768 133 737T113 667Q126 675 143 675Q166 675 180 660T195 620Q195 593 177 576T127 559Q56 559 56 653Q56 678 62 699T81 741T118 783T175 830L198 803Z" />
<glyph unicode="&#x201d;" glyph-name="quotedblright" horiz-adv-x="446" d="M64 586Q110 621 129 652T149 722Q136 714 119 714Q96 714 82 729T67 769Q67 796 85 813T135 830Q206 830 206 736Q206 710 200 689T181 648T144 606T87 559L64 586ZM256 586Q302 621
321 652T341 722Q328 714 311 714Q288 714 274 729T259 769Q259 796 277 813T327 830Q398 830 398 736Q398 710 392 689T373 648T336 606T279 559L256 586Z" />
<glyph unicode="&#x201e;" glyph-name="quotedblbase" horiz-adv-x="467" d="M66 -138Q112 -103 131 -72T151 -2Q138 -10 121 -10Q98 -10 84 5T69 45Q69 72 87 89T137 106Q208 106 208 12Q208 -14 202 -35T183 -76T146 -118T89 -165L66 -138ZM258 -138Q304 -103
323 -72T343 -2Q330 -10 313 -10Q290 -10 276 5T261 45Q261 72 279 89T329 106Q400 106 400 12Q400 -14 394 -35T375 -76T338 -118T281 -165L258 -138Z" />
<glyph unicode="&#x2022;" glyph-name="bullet" horiz-adv-x="476" d="M235 216Q205 216 178 228T130 260T97 309T84 369Q84 401 96 428T130 476T179 509T240 521Q271 521 298 509T347 477T380 429T392 369Q392 337 380 309T346 261T297 228T235 216Z" />
<glyph unicode="&#x2039;" glyph-name="guilsinglleft" horiz-adv-x="318" d="M49 262L219 421L239 400L140 262L238 124L219 104L49 262Z" />
<glyph unicode="&#x203a;" glyph-name="guilsinglright" horiz-adv-x="318" d="M99 104L80 124L178 262L79 400L99 421L269 262L99 104Z" />
</font>
</defs>
</svg>
