<?xml version="1.0" encoding="utf-8"?>
<!-- Generator: Adobe Illustrator 25.0.1, SVG Export Plug-In . SVG Version: 6.00 Build 0)  -->
<svg version="1.1" id="Layer_1" xmlns="http://www.w3.org/2000/svg" xmlns:xlink="http://www.w3.org/1999/xlink" x="0px" y="0px"
	 width="1200px" height="818.8px" viewBox="0 0 1200 818.8" style="enable-background:new 0 0 1200 818.8;" xml:space="preserve">
<style type="text/css">
	.st0{fill:#F2F2F2;}
	.st1{fill:#FAFAFA;}
	.st2{fill:#FFFFFF;}
	.st3{fill:#8FB0D7;}
	.st4{fill:#9DCDEB;}
	.st5{fill:#7F7F7F;}
	.st6{fill:#FCED9E;}
	.st7{fill:#BEBFBF;}
	.st8{fill:#F1A692;}
	.st9{fill:#F8B294;}
	.st10{fill:#E29E89;}
	.st11{fill:#BFBFF8;}
	.st12{fill:#A598E1;}
	.st13{fill:#C6EAFD;}
	.st14{fill:#8DBBDF;}
	.st15{fill:#7FBCE5;}
	.st16{fill:#AAD9D9;}
	.st17{fill:#F4AEAE;}
	.st18{fill:#DFC2DF;}
	.st19{fill:#FBDC9E;}
	.st20{fill:#D2D7DB;}
	.st21{fill:#99CBE0;}
	.st22{fill:#FEFEFE;}
	.st23{fill:#98CBE1;}
	.st24{fill:#95CAE0;}
	.st25{fill:#92C9DF;}
	.st26{fill:#27272A;}
	.st27{fill:#FFC905;}
	.st28{fill:#FAEF8E;}
	.st29{fill:#7D7D7D;}
</style>
<rect x="-4.6" y="-9.1" class="st0" width="1207.6" height="827.8"/>
<circle class="st1" cx="599.5" cy="337.9" r="480.9"/>
<circle class="st2" cx="600" cy="338.2" r="294.3"/>
<path class="st3" d="M540.3,614.9L540.3,614.9L540.3,614.9L540.3,614.9L540.3,614.9 M576.4,581.6L576.4,581.6l-6.7,77.1l-29.2,7.9
	h-0.1v-11.2l-22.8-6.7l-1.5-17h11.3l0.7,8.8l12.1,3.1h0.1v-17.8l-25-0.1l0,0l0,0l-0.9-10.7l25.8-10.8l0,0v-0.6h-26.9l-1.3-10.9h28.2
	v-11.1H576.4 M584.7,574.2h-88.9l8.3,90.3l36.1,9.7l36.1-9.7L584.7,574.2"/>
<path class="st4" d="M540.3,625.6v17.8l12.5-3.5l0.8-14.2L540.3,625.6 M541.8,603.5h-1.5v0.6L541.8,603.5 M576.3,581.5h-36v11h27.7
	l-1.1,10.9l0,0l-26.5,11.3l0,0h25.6l-2.9,33.9l-22.7,6.6l0,0v11.2h0.1l29.2-7.9L576.3,581.5"/>
<polyline class="st2" points="566.8,603.5 541.8,603.5 540.3,604.1 540.2,604.1 514.4,614.9 515.3,625.6 515.3,625.5 514.4,614.9 
	540.2,614.9 540.2,614.9 540.3,614.9 566.8,603.5 "/>
<polyline class="st2" points="565.9,614.9 540.3,614.9 540.2,614.9 514.4,614.9 515.3,625.5 515.3,625.6 540.3,625.6 553.6,625.7 
	552.8,639.9 540.3,643.4 540.2,643.4 528,640.4 527.3,631.6 516,631.6 517.5,648.6 540.3,655.3 540.3,655.3 563,648.7 565.9,614.9 
	"/>
<polyline class="st2" points="567.9,592.6 540.3,592.6 512.1,592.6 513.4,603.5 540.3,603.5 541.8,603.5 566.8,603.5 566.8,603.5 
	567.9,592.6 "/>
<path class="st5" d="M36.2,377.6H36c-0.4,0.3-0.9,0.5-1.4,0.6l-0.3,0.5c0,0.2,0.1,0.4,0.2,0.6c0.7-0.1,1.4-0.4,2.1-0.8h0.2v0.4h0.4
	l0.3-0.2c0-0.2,0.1-0.3,0.1-0.5V378h-0.3v-0.1c0,0-0.1-0.1-0.1-0.1l-0.4,0.2h-0.4L36.2,377.6 M91,377.4h-0.1h-0.2c0,0.2,0,0.3,0,0.5
	l0.6-0.1v-0.2C91.3,377.4,91.2,377.3,91,377.4 M38.7,375.1c-0.4,0.4-0.8,0.8-1.2,1.3c0-0.4-0.2-0.6-0.4-0.6l0,0
	c-0.3,0.1-0.4,0.2-0.4,0.5l0,0.6h0.2c0.2,0,0.3,0,0.5,0c0.1-0.1,0.2-0.1,0.3-0.1l0,0c0.2,0,0.3,0.1,0.4,0.4c0.1,0,0.2,0,0.3-0.1
	c0.2-0.3,0.4-0.5,0.5-0.6c0.1-0.4,0.2-0.8,0.3-1.2L38.7,375.1 M74.9,373.4l-0.3,0.1l-0.3,0.2c0,0.1,0.1,0.2,0.3,0.2h0.1
	c0.2,0,0.3-0.2,0.2-0.4L74.9,373.4 M43.6,372.7l-0.6,0.1c-0.3,0.1-0.4,0.2-0.4,0.4H43c0.2-0.1,0.4-0.2,0.6-0.2L43.6,372.7
	 M49.9,372.7c-0.4,0.1-0.8,0.3-1,0.7H49C49,373.2,49.3,373,49.9,372.7 M74,370.7c-0.2,0-0.3,0.2-0.2,0.3c0,0,0,0,0,0v0.2
	c0.2,0,0.3-0.2,0.2-0.4L74,370.7 M74.2,370.2l-0.2,0.5h0.2l0,0l-0.1-0.3L74.2,370.2 M75.2,370.2c0.1,0.3-0.1,0.6-0.5,1v0.2l0.1,0.3
	l0.2,0.2c-0.1,0-0.1,0.1-0.1,0.2v0.2l0.3-0.1c0.5-0.4,0.7-0.8,0.6-1.1l0,0l0,0c0-0.4,0.2-0.6,0.5-0.7v-0.2c-0.1,0-0.1,0-0.2,0
	C75.8,370.2,75.5,370.2,75.2,370.2 M53,369.6L53,369.6c-0.8,0.7-1.7,1.1-2.7,1.2v0.4h0.2c0.9-0.6,1.8-1,2.9-1.3
	C53.4,369.7,53.2,369.6,53,369.6 M43.3,367.2c-0.3,0.1-0.4,0.2-0.4,0.4v0.2c0.3,0,0.4-0.2,0.4-0.4V367.2 M103.5,366.6h-0.1
	c-0.2,0.2-0.5,0.3-0.8,0.4l-0.4,0.7c0,0.2,0.1,0.3,0.2,0.5c0.6-0.1,1.1-0.3,1.6-0.6h0.2v0.3h0.3c0.1-0.2,0.2-0.5,0.2-0.7v0h-0.1
	v-0.3c-0.1,0-0.2,0-0.2-0.1l-0.3,0.2h-0.3L103.5,366.6 M96.1,366.1c-0.3,0.1-0.9,1.4-1.6,4c-0.5,1.1-0.9,2.2-1.1,3.4
	c-0.4,1-0.7,2-0.9,3c-0.4,0.1-0.6,0.5-0.5,1.4c-0.1,0.2-0.1,0.3-0.2,0.5c0.1,0,0.1,0.1,0.1,0.2v0.2l-0.6,0.1l0,0l0,0h-0.8l0.1,0.5
	h-0.2c-0.1,0-0.1,0-0.1-0.1c0,0,0,0,0,0l0,0c-0.1,0.4-0.2,0.8-0.2,1.1h0.1c0.1,0,0.3,0,0.4,0.1l0.3-0.2c0,0.1,0.1,0.1,0.2,0.1h0
	l-0.1-0.5h0.8c0.2-0.1,0.4-0.4,0.6-0.9c0-0.7,0.1-1.2,0.4-1.3v-0.2c1.2-3.1,2.1-6.4,2.8-9.6l0.5-1.4l-0.1-0.3 M62.7,365.3
	c-4,2.4-7.1,4.1-9.3,5.2l0,0c0.2,0,0.4,0.1,0.4,0.3c-1,0.3-2,0.7-2.9,1.3h-0.2v-0.4c1-0.1,1.9-0.5,2.6-1.2c-1.1,0.6-2.3,1.1-3.5,1.5
	c0,0.1-0.4,0.4-1.2,0.9h-0.1c-0.2,0-0.4-0.1-0.4-0.3c0,0,0,0,0,0c0.1-0.6,0.7-0.9,1.8-1v-0.2l-0.6,0.1c-1.3,0.4-2.5,1-3.7,1.7
	l1.3-0.1v0.4c-1.1,0.2-2.3,0.6-3.3,1.1c-0.4-0.2-0.9-0.3-1.4-0.3h-0.3c-0.6,0.4-1,1-0.9,1.8c0.2,0.1,0.4,0.2,0.6,0.2
	c0.2-0.4,0.5-0.8,0.8-1h0.3c0.4,0,0.7,0.1,1.1,0.2c0.8-0.4,1.9-0.8,3.1-1.3l-0.8,0.1c1.2-0.7,2.4-1.3,3.7-1.7h0.6
	c1-0.4,2.3-0.9,4.2-1.6c0.6-0.6,2.7-1.8,6.3-3.6c1.2-0.9,1.8-1.4,1.8-1.6L62.7,365.3 M105.2,364.8c-0.3,0.3-0.6,0.6-0.9,1
	c0-0.3-0.1-0.4-0.3-0.4l0,0c-0.2,0.1-0.3,0.2-0.3,0.3v0.5h0.1c0.3,0,0.5,0.1,0.8,0.2c0,0,0.1,0,0.1,0c0.4,0,0.7-0.5,0.8-1.5
	L105.2,364.8 M44.5,364.4c-0.6,0.4-0.9,1.2-0.9,1.9v0.2C43.9,366.5,44.2,365.8,44.5,364.4 M135.7,363.8h-0.2c0,0.4-0.2,0.9-0.5,1.2
	c-0.1,0.7-0.2,1.3-0.4,2h0.2c0.1-0.2,0.2-0.4,0.4-0.5c0.3-0.8,0.6-1.4,0.8-1.7v0l0,0c0.1-0.2,0.2-0.3,0.2-0.3
	C136,364,135.8,363.8,135.7,363.8 M131.8,363.2l0.1,0.6c0,0.3,0.9,0.6,2.5,0.8c0.1-0.4,0.1-0.8,0.1-1.1c-0.1,0-0.2,0.1-0.2,0.2
	c0,0,0,0,0,0C133.4,363.6,132.6,363.5,131.8,363.2 M108.9,362.9h-0.5c-0.2,0-0.3,0.2-0.3,0.3h0.3c0.1-0.1,0.3-0.2,0.5-0.2
	L108.9,362.9 M172.4,362.6l-4,0.3l-0.8-0.1l-0.1,0.3v0.2l4.9-0.4L172.4,362.6 M173,362.6L173,362.6l0,0.3l0,0L173,362.6
	 M175.9,361.8L175.9,361.8l-0.1,0.3h0.1L175.9,361.8 M131.2,361.2c-0.1,0.2-0.2,0.4-0.3,0.6c0,0.1,0.1,0.2,0.4,0.3l0.3-0.5v-0.4
	L131.2,361.2 M143.7,360.7l-0.9,0.1v0.2l0.9-0.1V360.7 M142.6,360.7l-2.5,0.2v0.4h0.4l1.2,0.1C142.3,361.1,142.6,360.9,142.6,360.7
	 M116,360.5L116,360.5c-0.5,0.5-1.2,0.9-2,0.9v0.3h0.2c0.7-0.4,1.4-0.7,2.2-0.9C116.3,360.6,116.2,360.5,116,360.5
	C116.1,360.5,116.1,360.5,116,360.5 M164.5,360.3c0,0.1,0,0.2,0,0.2l0,0V360.3 M175.3,361.2v-0.3h0.1v0.3L175.3,361.2 M174.9,360.3
	l-0.3,0.2l-0.5,0c-1.2,0.1-1.5,0.1-2.9,0.1L170,361c-2.4,0-3.7,0-4.1,0c-0.2,0.2-0.5,0.3-0.8,0.4v0.1l0,0c-0.1,0-0.2-0.1-0.3-0.2
	l-0.3-0.1l-0.3,0.7v0.2h0.1c0.4,0,0.7,0.1,1.1,0.3c0.4,0,0.7-0.2,1-0.4h0.6l0.1-0.1l0.8,0.1l3.5-0.3l0.3-0.1c1,0,1.9,0,2.9-0.1h0.2
	l0.1-0.1l0.2,0l0.2-0.1v0.2h0.4l0.4-0.1l0.3,0.1l0,0c0.3-0.1,0.7-0.2,1-0.2c0-0.2-0.1-0.3-0.3-0.3l0,0c-0.2,0.1-0.4,0.2-0.6,0.2
	v-0.3l0.7-0.1v-0.2c-0.5-0.1-1-0.1-1.5-0.1c-0.2,0-0.5,0-1,0L174.9,360.3 M179.3,360.2l-1.9,0.2h-0.1v0.2l0.8-0.1l0,0
	c0.1,0,0.1,0,0.1,0.1c0.3-0.2,0.7-0.3,1-0.2L179.3,360.2 M193.1,359.9L193.1,359.9c-1.6,0.5-3.3,0.7-5,0.8v0.3h0.3h0.2l0,0l0.4-0.2
	c3.7-0.4,4.1-0.3,4.1-0.7L193.1,359.9 M193.8,359.9v0.3l0.5,0.1V360L193.8,359.9 M163.2,359c-0.1,0.2-0.3,0.4-0.5,0.5h-0.3
	c0-0.1,0.1-0.3,0.1-0.4l-0.5,0.1v0.3c-1.4,0.1-2.1,0.2-2.1,0.3c-0.2-0.1-0.4-0.1-0.5-0.1h-0.1c-1.4,0.2-2.1,0.4-2.1,0.5
	c0.1,0.6-0.5,1-1.7,1l-4.4,0.4l0,0c-0.1,0-0.2-0.1-0.2-0.2l-0.4,0.2h-0.4l0,0c-0.1,0-0.2-0.1-0.2-0.1c0,0,0,0,0,0l-0.4,0.2
	c-5.8,0.6-9.9,1-12.2,1.2c-0.4,0.6-0.7,1.2-1,1.8c0.1,0.2,0.2,0.3,0.3,0.5c-0.2,0.1-1.1,2-2.6,5.8l0.2,0.4h0.2
	c1.8-4.5,2.9-7,3.4-7.5c2.3-0.2,6.4-0.6,12.2-1.2l0.4-0.2c0,0.1,0.1,0.2,0.2,0.2c0,0,0,0,0,0l0,0h0.4l0.4-0.2c0,0.1,0.1,0.2,0.2,0.2
	c0,0,0,0,0,0l0,0l4.4-0.4c1.2-0.1,1.7-0.5,1.7-1c0-0.1,0.7-0.3,2-0.5h0.1c0.2,0,0.4,0.1,0.5,0.1c0-0.1,0.7-0.2,2.1-0.4
	c0-0.7,0.3-1.1,0.7-1.1L163.2,359 M108.7,358.7c-0.2,0.1-0.3,0.2-0.3,0.3v0.2c0.2,0,0.3-0.1,0.3-0.2c0,0,0-0.1,0-0.1L108.7,358.7
	 M164,358.5h-0.2c-0.4,0.6-0.6,1.3-0.8,2h0.3c0.4-0.2,0.6-0.6,0.6-1h0.1c0.1-0.3,0.2-0.6,0.4-0.9L164,358.5 M187.5,360v-0.3
	c1.7,0,3.4-0.3,5-0.7l0,0v0.1c0,0.4-0.4,0.3-4.1,0.7l-0.4,0.2l0,0h-0.2L187.5,360 M193.8,359.2l-0.5-0.1v-0.3l0.5,0.1V359.2
	 M196.2,357.9c-0.2,0.1-0.3,0.1-0.5,0.1c-0.1,0.1-0.2,0.1-0.3,0.1c-8.1,1.7-8.8,1.3-10.5,1.4v-0.2l-0.3,0.2h-0.4l-1.2,0.2v0.2
	l2.2-0.1h0.4c0.2,0,0.4,0,0.6-0.1l0,0h0.1h0.1l0,0h0.9v0.3h-0.4c-0.1,0-0.1,0-0.1-0.2c-0.2,0.1,0.2,0.1-0.4,0.2v-0.1
	c-1,0.3-2,0.5-3.1,0.6v-0.1c-0.1,0-0.1,0-0.1,0.1c-1.5,0.2-1.5,0.3-2.2,0.4l-0.9,0.1l-0.1,0v0.1h-0.3h-0.1c-0.2,0-0.4,0.1-0.6,0.2
	c0-0.1-0.1-0.1-0.1-0.1l0,0h-0.2h-0.1h-0.5v0.1l-0.7,0.1v0.3c0.2,0,0.4-0.1,0.6-0.2l0,0c0.2,0,0.3,0.1,0.3,0.3c-0.3,0-0.7,0.1-1,0.2
	l-0.3-0.1c-0.5,0.1-0.4,0.2-0.7,0.2l-0.5-0.1l-0.1,0.1c0,0.1,0.1,0.3,0.2,0.3c0,0,0,0,0,0l0,0l0.5,0l2.7-0.2l1-0.2l0.1,0.1l0.5-0.2
	l0.9-0.1c0.7-0.1,0.7-0.1,2.2-0.4c0-0.1,0-0.1,0.1-0.1v0.1c1-0.1,2.1-0.3,3.1-0.6v0.1c0.6-0.1,0.3-0.1,0.4-0.2
	c0,0.1,0.1,0.2,0.1,0.2h0.4v-0.3h-0.9l0,0h-0.1h-0.1l0,0c-0.2,0-0.4,0.1-0.6,0.1h-0.4l-2.2,0.1v-0.2l1.2-0.2h0.5l0.2-0.2v0.2
	c1.8-0.1,2.4,0.3,10.5-1.4c0.4,0,0.4-0.4,0.7-1.2h-0.1C196.3,357.9,196.2,357.9,196.2,357.9 M160.5,357.5l-3.1,0.1
	c-1.6,0.4-3.2,0.7-4.8,0.8v0.2l0.8-0.1l0.4-0.2c0.6,0.1,0.9,0.2,1,0.3l0.4-0.2h0.2c0.1,0,0.2,0,0.2,0.1l0.4-0.2l2.8-0.1
	c0.2-0.1,0.4-0.3,0.3-0.5h0.1c0.2,0,0.3,0.1,0.3,0.3c0,0,0,0,0,0l0.1-0.1c0.1,0,0.1,0,0.2,0l0.9-0.2L160.5,357.5 M179.7,357.5
	L179.7,357.5c-0.5,0-0.4,0.1-1.4,0.3l0,0c-0.1,0-0.1,0-0.1-0.1c0,0,0,0,0,0l-0.8,0.2l-0.9,0.1v0.2l1.1-0.1l2.5-0.2
	C180,357.6,179.9,357.5,179.7,357.5 M181,357.4l-0.9,0.1v0.1h0.2c0.2,0,0.3,0,0.8,0.1c0.2-0.1-0.2-0.1-0.1-0.1L181,357.4
	 M181.7,357.3l-0.5,0v0.1h0.5V357.3 M198.3,357.3h-0.1v0.3l0.7-0.1C198.9,357.3,198.5,357.3,198.3,357.3 M123.5,357.2
	c-5.3,3.2-8.6,4.9-9.8,5.1c0,0.1-0.3,0.3-0.9,0.7h-0.1c-0.1,0-0.3-0.1-0.3-0.2c0,0,0,0,0-0.1c0.1-0.4,0.6-0.7,1.4-0.8v-0.1h-0.5
	c-1,0.3-1.9,0.8-2.8,1.3l1-0.1v0.3c-0.9,0.2-1.7,0.5-2.5,0.8h-0.1h-0.3c0,0,0-0.1,0-0.1c-0.2-0.1-0.5-0.1-0.7-0.1h-0.3
	c-0.5,0.2-0.8,0.7-0.7,1.3c0.2,0.1,0.5,0.2,0.7,0.2c0.1-0.2,0.3-0.4,0.5-0.5h0.3h0.3c0.7-0.3,1.6-0.7,2.7-1.2
	c0.3-0.2,0.8-0.4,1.4-0.6c0.4-0.4,0.9-0.6,1.5-0.8v-0.1l0.4,0c0.3-0.1,0.7-0.3,1.1-0.4c0.2-0.1,0.4-0.3,0.6-0.5h0.1
	c0.1,0,0.2,0,0.2,0.1l0.5-0.2c1.5-1,3.1-1.9,4.8-2.7c0.9-0.7,1.4-1.1,1.4-1.2L123.5,357.2 M182.7,357.1L182.7,357.1
	c-0.2,0.1-0.3,0.2-0.4,0.2v0.1h0.8C183.1,357.2,182.9,357,182.7,357.1 M184.4,357h-0.6v0.2l0.6,0V357 M196.4,356.9l-0.6,0
	c0.1,0,0.1,0,0.2,0h0c-0.1,0.2-0.1,0.4-0.2,0.6l0.3-0.2c0,0.1-0.2,0.2-0.1,0.2l0,0h0.2c0.1,0,0.2-0.1,0.2-0.3L196.4,356.9
	 M193.1,356.9L193.1,356.9H193v0.1c0,0.2,0.1,0.3,0.2,0.3l0,0h0.1C193.3,357.1,193.2,357,193.1,356.9 M184.8,356.9
	c-0.1,0-0.2,0.1-0.2,0.3c0,0,0,0,0,0l0.6,0.1v-0.1l-0.1-0.2l-0.1,0.1L184.8,356.9 M197.1,356.7L197.1,356.7L197.1,356.7
	 M109.6,356.6c-0.4,0.4-0.6,0.9-0.6,1.4v0.1C109.2,358.1,109.4,357.6,109.6,356.6 M190.2,356.5l-0.3,0.2h0.2h0.1L190.2,356.5
	 M197.3,356.4c-0.1,0.1,0.1,0.2-0.1,0.2v0.1l0.1-0.1l-0.1,0.1l0,0l-0.2,0.3l0.5-0.2h0.1v-0.3h-0.1
	C197.5,356.5,197.5,356.5,197.3,356.4 M186.5,356.3L186.5,356.3l-0.9,0.1c0.5,0,0.8,0,1,0C186.5,356.4,186.5,356.3,186.5,356.3
	 M188.5,356.2h-0.2v0.2c-0.3,0-0.3,0.1-0.9,0.4c-0.4-0.1-0.4-0.1-0.5-0.1l-0.7,0.1c0,0.1,0,0.2,0.1,0.2c0.6,0,1.3-0.1,1.9-0.3
	c0,0.1,0,0.2,0.1,0.2c0.1-0.1,0.3-0.2,0.4-0.2h0.2h0.6c-0.1,0-0.2,0-0.3-0.1h-0.4l-0.4-0.1L188.5,356.2 M188.1,356.2
	c-0.3,0.1-0.7,0.1-1,0.1h-0.3c-0.1,0-0.2,0.1-0.2,0.1C187.1,356.4,187.6,356.3,188.1,356.2L188.1,356.2 M193.8,355.5
	c-1.7,0.3-3.3,0.6-5,0.7l0.8,0.1v0.1l0.2-0.2c0.1,0,0.1,0,0.1,0.2l0.4-0.2l0.6,0c0.1,0,0.1,0,0.1,0.2c0.3-0.2,0.6-0.2,1.2-0.2l0.5,0
	l0,0c0.1,0,0.2,0.1,0.2,0.2h0.1h0.3c0-0.3,0.4-0.4,0.6-0.4L193.8,355.5 M136.1,355h-0.4c-0.4,0.8-0.7,1.7-0.9,2.6l0.6,0
	C135.8,356.7,136,355.9,136.1,355 M136.5,354.2c-0.3,0.1-0.4,0.2-0.4,0.4v0.2c0.3,0,0.4-0.2,0.4-0.4L136.5,354.2 M78.5,355.1v-0.2
	l1.6-0.5l0.8-0.2l0.1,0.3c-0.3,0.1-0.1,0.1-0.5,0.3C79.8,354.8,79.1,354.9,78.5,355.1 M81.9,354.4c-0.2,0-0.3-0.1-0.3-0.3l0.5-0.1
	h0.1c0.2,0,0.2,0.1,0.3,0.2L81.9,354.4L81.9,354.4 M82.2,353.6l-0.2,0.1H82l-0.2,0.1l0.1-0.2l0,0l-1.5,0.4L80,354h-0.2
	c-0.1,0-0.2,0-0.4,0l-0.2,0c-0.1,0-0.1,0.1-0.1,0.2c-0.3,0-0.7,0.1-1,0.1l-0.7,0.2c-1.2,2.8-3.9,5.8-8,8.8c-2,1.3-4.9,3.4-8.8,6.4
	c-1.3,0.8-2.7,1.3-4.2,1.4v0.2h0.2l1-0.3v0.2c-1.8,1.3-4,2.1-6.2,2.1c-1.9,1-3.9,1.8-5.9,2.5c-1.4,0.6-2.4,1.1-3,1.4h-0.1
	c-0.2,0-0.5-0.1-0.7-0.2c-0.7,0.2-1.3,0.4-2,0.6c-0.9,1.8-2,3.4-3.3,4.9c-0.2,0.5-0.4,1-0.6,1.6v0.2h0.4c1.6-1.7,2.9-3.7,4-5.8
	c4-1.1,8-2.6,11.7-4.4c2.2-0.1,4.4-0.8,6.2-2.1v-0.2l-1,0.3H57V372c1.5-0.1,2.9-0.6,4.2-1.4c3.9-3,6.8-5.1,8.8-6.4
	c4.1-3,6.8-5.9,8-8.8l0.7-0.1c0.3,0,0.7,0,1-0.1c0-0.1,0-0.2,0.1-0.2c0,0,0,0,0,0c0.2,0,0.3,0,0.5,0h0.2l0.3,0l1.4-0.3l0.4-0.6
	l-0.1-0.5c-0.1,0-0.3,0-0.4,0H82L82.2,353.6 M80.2,353.3l-0.7,0.2l-1.6,0.5v0.2c0.5-0.1,1.1-0.2,1.7-0.2l0.3,0
	c0.3-0.2,0.1-0.2,0.4-0.2L80.2,353.3 M81.6,353.1h-0.1l-0.5,0.1c0,0.1,0.2,0.3,0.3,0.3h0.1l0.4-0.1
	C81.9,353.2,81.7,353.1,81.6,353.1 M79.7,352.8c-1,0.2-1.2,0.2-1.8,0.3l-0.1,0.2l1.8-0.4L79.7,352.8 M166.2,352h-0.1l-0.3,0.2
	l0.2,0.3h0L166.2,352 M77,351.4l-0.4,0.1v0.2l0.3-0.1L77,351.4 M57.8,351.4l-0.9,0.1v0.2l0.9-0.1L57.8,351.4 M57.5,352.7v-0.2
	l0.9-0.1v0.2L57.5,352.7 M65.9,350.2c-0.4,0-0.8,0-1.2,0l-1.3,0.1c-5.2,2-9,3.2-11.4,3.4c-5.5,10.9-8.3,16.7-8.5,17.4h0.2
	c0.3,0,0.5-0.1,0.8-0.2c1-2.3,3.7-7.7,8-16.3c2.4-0.2,6.2-1.3,11.4-3.4l1.3-0.1c0.4,0,0.8-0.1,1.2-0.1c1.5-0.1,2.9,0.3,4.2,1.1
	l-0.1-0.5C69.2,350.6,67.5,350,65.9,350.2 M76.4,350l0.1,0.8l0.3-0.2h0.1l0,0l0.2,0C77.1,350.4,76.8,350.2,76.4,350 M92.4,351.4
	c-0.1,0-0.3-0.1-0.3-0.2l2.2-0.5l0.7-0.3l0.2,0.3c-0.3,0-0.5,0.2-0.8,0.3l-0.3-0.1c-0.5,0.2-0.9,0.3-1.4,0.5l-0.3,0.1L92.4,351.4
	 M97.6,349.5h-0.2c-5.4,1.2-8,2.2-7.8,2.9c-5,6.4-11.1,15.8-13.7,18.6c0.2,0,0.4,0,0.5,0c0.1,0,0.1,0,0.2,0v0.2
	c-0.3,0.1-0.5,0.3-0.5,0.7v0.2h0.2c2.5-2.8,8.8-12.2,13.8-18.7c-0.2-0.7,2.3-1.6,7.4-2.8c0-0.3,0-0.5,0-0.8
	c-0.5,0.1-0.9,0.3-1.4,0.5v-0.2c0.2,0,0.3-0.1,0.4-0.3l1-0.2L97.6,349.5 M69.8,349.4l-0.6,0.1c0.3,0.5,0.8,0.8,1.4,0.9h0.1v-0.2
	C70.7,349.9,70.4,349.7,69.8,349.4 M94.5,349.4l-0.7,0.3l-2.2,0.5c0,0.1,0.2,0.2,0.3,0.2h0.1l0.3-0.1c0.5-0.1,0.9-0.3,1.4-0.5
	L94,350c0.2-0.2,0.5-0.3,0.8-0.3L94.5,349.4 M97.7,348.6l-1.6,0.4c-0.1,0.1-0.3,0.2-0.4,0.3v0.1c0.6-0.3,1.3-0.5,2-0.6L97.7,348.6
	 M56,348l-0.8,0.1v0.4l0.8-0.1L56,348 M119.8,346.7l-0.6,0.1v0.2l0.6-0.1V346.7 M104.8,346.1l-0.3,0.1v0.1l0.2,0.3
	c-1.1,0.6-1.7,1.8-1.8,3c-4,13.8-7.2,23.2-9.5,28.3c-0.1,0.2-0.1,0.4-0.2,0.6l0.3,1.2h0.2c2.3-4.9,5.5-14.6,9.8-29
	c0.1-1.2,0.8-2.3,1.8-3l-0.2-0.3v-0.1c0.4-0.1,0.7-0.3,1-0.6C106,346.6,105.5,346.4,104.8,346.1 M135.2,346c0,0.7,0,1.3-0.2,2v0.3
	c-0.1,0.1-0.1,0.3-0.2,0.4c-0.8,2.3-2.9,4.7-6.2,7.1c-1.5,1-3.8,2.6-6.7,4.9c-0.8,0.5-1.8,0.8-2.7,1l-0.4,0.2h0.1l0.8-0.2v0.2
	c-1.2,0.9-2.6,1.4-4.2,1.6c-1.4,0.5-2.1,0.9-2.1,1.1c-1.8,0.6-3.5,1.4-5.1,2.3h-0.1c-0.3,0-0.6-0.1-0.8-0.2v-0.1l-1.4,0.4
	c-0.4,0.9-0.9,1.7-1.5,2.5c-0.1,0.1-0.1,0.2-0.2,0.4c-0.5,0.7-0.9,1.5-1.1,2.4v0h0.3c1.2-1.3,2.2-2.8,3-4.4c3.1-0.8,6.1-1.9,8.9-3.4
	c1.7,0,3.4-0.6,4.7-1.6v-0.1l-0.8,0.2h-0.2v-0.2c1.1-0.1,2.2-0.4,3.2-1c3-2.3,5.2-3.9,6.7-4.9c4.7-3.4,6.9-6.7,6.6-9.9
	c-0.1-0.3-0.3-0.6-0.5-0.9 M119.6,347.9v-0.2l0.6-0.1v0.2L119.6,347.9 M125.8,345.8c-0.3,0-0.6,0-0.9,0l-1,0.1
	c-2.8,1.2-5.7,2.1-8.7,2.6c-4.2,8.3-6.3,12.7-6.5,13.2h0.2c0.3,0,0.6-0.1,0.9-0.2c0.9-1.9,2.9-5.9,6-12c3-0.5,5.9-1.4,8.7-2.6l1-0.1
	h0.9c1.1-0.1,2.2,0.2,3.1,0.8l-0.1-0.6C128.5,346.1,127.2,345.7,125.8,345.8 M73,345.7h-0.4v0.6l0,0c0.3,0,0.6,0.2,0.8,0.4
	c0.3,0,0.4-0.2,0.4-0.5L73,345.7 M133.8,345.7l0.2,2.1c0.1,0,0.3-0.1,0.4-0.4l-0.1-0.7l0,0l-0.1-0.6
	C134.3,345.9,134.1,345.8,133.8,345.7 M96.2,345.7c-1.1,0.3-1.6,0.6-1.6,0.8c0.2,0,0.3-0.1,0.5-0.1c0.1,0,0.2,0,0.2,0.1
	c0.1-0.1,0.3-0.2,0.4-0.3l0.5-0.1l-0.1-0.3C96.2,345.8,96.2,345.8,96.2,345.7 M128.7,345.2h-0.5c0.2,0.4,0.7,0.6,1.1,0.7h0.1v-0.1
	C129.4,345.6,129.2,345.4,128.7,345.2 M51.3,345h-0.4l0.1,1h0.2L51.3,345 M118.4,344.1l-0.6,0.1v0.3l0.6-0.1L118.4,344.1
	 M52.2,343.1H52c0.1,0.3-0.1,0.6-0.4,0.6c0,0-0.1,0-0.1,0v0.2h0.4l0.4-0.6L52.2,343.1 M131.4,342.4h-0.3v0.5l0,0
	c0.2,0,0.5,0.1,0.6,0.3c0.2,0,0.3-0.1,0.3-0.3L131.4,342.4 M162.5,342.4c-1.4,0.4-2.8,0.7-4.2,0.8l-3.4,0.3l-1.1,0.3
	c-0.2-0.1-0.4-0.1-0.6-0.1h-0.3c-1.5,0.6-3,0.9-4.5,1.1l-0.8-0.1l-1.5,0.5c-0.2-0.1-0.4-0.1-0.6-0.1l0,0c-0.6,0.4-1.3,1.6-2,3.5
	c-2.5,5.5-3.7,8.6-3.6,9.2l0.7,0.1c0.4-1.4,1.6-4.1,3.5-8.3c0.7-1.9,1.4-3,2-3.5l0,0c0.2,0,0.4,0.1,0.6,0.1l1.5-0.5l0.8,0.1
	c1.5-0.2,3.1-0.5,4.5-1.1h0.3c0.2,0,0.4,0,0.6,0.1l1.1-0.3l3.4-0.3c1.6-0.2,3.2-0.5,4.7-1v-0.4c-0.1,0-0.2,0-0.3,0
	c-0.4,0-0.7-0.1-0.7-0.3C162.6,342.4,162.6,342.4,162.5,342.4 M114.8,341.8h-0.3l0.1,0.8h0.2L114.8,341.8 M53.1,341h-0.4
	c0,0.4-0.1,0.7-0.3,1h0.2C52.9,342,53.1,341.6,53.1,341 M115.5,340.4h-0.2c0,0.3-0.1,0.5-0.4,0.5v0.1h0.3l0.3-0.5V340.4
	 M164.3,339.8H164v0.3l-2.5,0.2l-0.9,0.3v0.4h0.4c0.6,0,0.9,0.1,1,0.4h0.1l2.5-0.2v-0.4h-0.1h-1.4v-0.4l0.9-0.1
	c0.3,0,0.4-0.1,0.4-0.4 M53.7,339.6h-0.3l0.1,0.8h0.2l-0.1-0.8 M116.2,338.9h-0.3c0,0.3-0.1,0.6-0.3,0.8h0.2
	C116,339.6,116.2,339.4,116.2,338.9 M100.5,338.4c-3.2,4.1-4.7,6.3-4.7,6.4l0.1,0.4c0.1,0,0.2,0.1,0.3,0.1c0.1,0,0.2,0,0.3,0h0.1
	c0.6-0.9,1.9-2.7,4.1-5.5c0.1-0.4,0.1-0.8,0.1-1.2L100.5,338.4 M116.6,337.8h-0.2v0.6h0.2L116.6,337.8 M40.7,337.7
	c-0.2,0.2-0.4,0.5-0.6,0.7l0.2,0.4l0.7-0.6L40.7,337.7 M41.2,337.2l-0.2,0.2c0.1,0,0.2-0.1,0.2-0.1L41.2,337.2 M55.6,335.5h-0.2
	c0,0.2-0.2,0.6-0.5,1v0.4c0.3-0.6,0.6-0.9,0.8-0.9L55.6,335.5 M118.1,334.6H118c0,0.3-0.2,0.6-0.4,0.8v0.3c0.2-0.4,0.4-0.6,0.6-0.7
	V334.6 M151.4,334.4c-0.2,0-0.3,0.3-0.5,0.8v0.2h0.4c0-0.2,0-0.4,0.1-0.6L151.4,334.4 M111.9,331.6l-0.3,0.2v0.1L111.9,331.6
	 M108.2,336v-0.3l0.6-0.1v0.2c-0.2,0-0.3,0.1-0.5,0.2L108.2,336 M117.6,331.1c-2.6,0.9-5,2.2-7.1,3.9h-0.3c0-0.1-0.2-0.3-0.7-0.4
	l0.2,0.3h-0.2l-0.3-0.1l0,0c0,0-0.1,0.1-0.2,0.1l-0.3,0.2l0.3,0.4l0,0c-0.2,0-0.3-0.1-0.5-0.1h-0.2c-0.4,0.4-0.8,0.8-1.2,1.2
	l-0.4-0.6c0.1-0.1,0.3-0.2,0.4-0.2v-0.1v-0.4c-0.3,0.2-0.6,0.4-0.8,0.6l-2.1,9.1l0.7,0.2l2-8.3c0.5-0.4,0.7-0.6,0.8-0.6v0.5
	c-0.2,0-0.3,0.1-0.5,0.2l0.4,0.6c0.7-0.8,1.5-1.4,2.4-2c0.4,0.1,0.7,0.3,0.7,0.4h0.3c1.8-1.3,3.7-2.4,5.8-3.3c0-0.1,0-0.1,0-0.2
	c0.2,0,0.4-0.3,0.9-1v-0.3 M55,331c-3.4,1.2-6.5,2.9-9.4,5h-0.4c0-0.2-0.3-0.4-0.9-0.5l0,0c-0.3,0.2-0.6,0.4-0.9,0.6l0.2,0.2l0,0
	c-0.1,0-0.2,0-0.4-0.1l-0.4,0.3h0.5v0.2c-0.2,0-0.4,0.1-0.6,0.2h-0.2v0c-0.2,0.2-0.4,0.4-0.7,0.6l0,0v0.6c-0.2,0-0.4,0.1-0.6,0.2
	l0.5,0.8c0.9-1,2-1.9,3.2-2.7c0.6,0.1,0.9,0.3,0.9,0.5h0.4c2.5-1.9,5.2-3.4,8.1-4.6c0.3-0.3,0.5-0.7,0.8-1L55,331 M48,330.7
	l-1.2,0.7v0.4l0.2,0c0.6-0.5,0.9-0.8,0.9-0.9L48,330.7 M133.9,329.9h-0.3l0.1,0.7h-0.2c0.3,0.3,0.4,0.6,0.5,1h0.3l-0.1-0.7h0.3
	c0.2,0.1,0.5,0.3,0.7,0.5C135,330.7,134.6,330.2,133.9,329.9 M137.2,329.8L137.2,329.8v0.3c0.2,0.4,0.4,0.8,0.7,1.2
	c0-0.1-0.1-0.2-0.1-0.3v-0.3l0,0c0.1,0,0.2,0,0.2,0.1C137.7,330.1,137.4,329.8,137.2,329.8 M139.7,329.3c0.1,0.4,0.2,0.7,0.3,1.1
	v0.6c-0.2,2.6-0.7,4.5-1.6,5.6l-4.1,3.5c-1.4,0.8-2.1,1.4-2.1,1.9l0.6,0.7c0.5-0.7,1.2-1.2,2-1.6l4.1-3.5c0.9-1.2,1.4-3,1.6-5.7
	l-0.1-0.6C140.4,330.6,140.1,329.9,139.7,329.3 M145.7,329.3c-0.3,0.2-0.5,0.4-0.5,0.5v0.2h0.2l0.3-0.2L145.7,329.3 M76.4,329.3H76
	l0.1,1h-0.2c0.2,0.3,0.3,0.6,0.3,1h0.4l-0.1-1h0.4c0.4,0.2,0.8,0.5,1.1,0.8C77.8,330.3,77.2,329.6,76.4,329.3 M80.7,329.2
	L80.7,329.2v0.4c0.2,0.5,0.5,1,0.8,1.5l-0.3-0.5v-0.4l0,0c0.1,0,0.3,0.1,0.4,0.2C81.3,329.5,81,329.2,80.7,329.2 M126.4,329.1h-0.5
	c-1.5,0.3-2.2,0.6-2.2,1.1l-3.4,7.6c-0.4,0.2-0.7,1.2-1,2.8c-0.5,0.6-0.8,1.4-0.8,2.2v0.3h0.1c0.2,0,0.3,0,0.5,0.1
	c0.1-0.6,0.4-1.1,0.7-1.6c0.3-1.7,0.7-2.6,1-2.9l3.4-7.6c0-0.5,0.7-0.8,2.2-1.1h0.5v0.5c1.4-0.2,2.3-0.4,2.7-0.4s0.8,0,1.1,0
	c0.9-0.1,1.8,0.1,2.5,0.6c-0.1-1.1-1.2-1.6-3.1-1.6c-0.3,0-0.7,0-1.1,0s-1.3,0.2-2.7,0.4L126.4,329.1 M83.9,328.4
	c0.2,0.5,0.4,1.1,0.4,1.7l0.1,0.8c-0.2,3.4-0.9,5.9-2.1,7.4l-5.3,4.7c-1.9,1.1-2.8,1.9-2.8,2.4l0.6,0.7c0.2-0.5,1.1-1.2,2.7-2.1
	l5.3-4.7c1.2-1.5,1.9-4,2.1-7.4l-0.1-0.8C84.7,330.1,84.4,329.2,83.9,328.4 M66.4,328l-0.6,0.1c-2,0.3-2.9,0.8-2.9,1.4l-4.5,10
	c-0.5,0.3-1,1.6-1.4,3.8c-0.6,0.8-1,1.9-1,2.9v0.4h0.2c0.1,0,0.3,0,0.4,0c0.2-0.8,0.5-1.6,1-2.3c0.4-2.2,0.9-3.5,1.4-3.8l4.5-10
	c0-0.6,0.9-1.1,2.9-1.4H67v0.6c1.9-0.3,3.1-0.5,3.6-0.5s1-0.1,1.5-0.1c1.2-0.1,2.5,0.2,3.5,0.9c-0.3-1.3-1.6-1.9-4-1.9
	c-0.5,0-1,0-1.5,0.1s-1.7,0.2-3.6,0.5L66.4,328 M159.3,327l-1.4,0.1v0.2l1.4-0.1L159.3,327 M180.6,326.8h-0.3c0,0.2,0,0.4-0.1,0.6
	c-0.1-0.1-0.3-0.1-0.4-0.1c-0.7,2.8-1.6,5.5-2.6,8.2c-0.9,2.8-2,5.5-3.2,8.2c-0.1,0.8-0.4,1.5-1,2c0-0.1-0.1-0.1-0.1-0.1l0,0
	c0,0.6-0.2,1.2-0.7,1.6c-0.1,0.2-0.1,0.4-0.1,0.6v0.1h0.3c0,0.2-0.1,0.3-0.3,0.4l-0.3-0.1c-0.3,1.2-0.7,2.3-1.3,3.4v0.5h0.5v0.2
	c-0.2,0.1-0.4,0.2-0.6,0.4l0.2,0.3v0.3H170v-0.3l-0.7,1.2c-0.1,0.2-0.1,0.4-0.1,0.6v0.3h0.2v-0.1c0.1-0.4,0.2-0.9,0.4-1.3l0.3,0.1
	c-0.2,0.8-0.4,1.2-0.6,1.3v0.3c0,0.1-0.1,0.3-0.4,0.5h-0.2l0.1-0.3h-0.2c-0.3,0-0.6,0.5-0.7,1.5c0,0.1,0.2,0.2,0.7,0.3
	c0.1-0.5,0.3-0.8,0.6-0.8h0.2l-0.1,0.3h0.2c0.3-0.2,0.5-0.3,0.4-0.5v-0.3c0.2-0.1,0.4-0.5,0.6-1.3l-0.3-0.1
	c-0.2,0.4-0.3,0.8-0.4,1.3v0.1h-0.2v-0.3c0-0.2,0-0.4,0.1-0.6l0.7-1.2v0.3h0.3v-0.3l-0.2-0.3c0.2-0.2,0.4-0.3,0.6-0.4V353h-0.5v-0.5
	c0.6-1.1,1.1-2.2,1.4-3.4l0.3,0.1c0.2,0,0.3-0.1,0.3-0.3c0,0,0,0,0-0.1h-0.3v-0.1c0-0.2,0-0.4,0.1-0.6c0.5-0.4,0.7-1,0.7-1.6l0,0
	c0.1,0,0.1,0,0.1,0.1c0.4-0.2,0.8-0.9,1-2c1.3-2.7,2.3-5.4,3.2-8.2C180.3,329.3,180.2,328.5,180.6,326.8 M161.2,326.6L161.2,326.6
	l-0.8,0.1v0.1h0.3v0.2h-0.3l0,0l1-0.1C161.4,326.7,161.3,326.6,161.2,326.6 M133,326.3l2.8,1.2c0.6,0.1,1.2,0.3,1.8,0.5l0.1-0.1
	c0-0.3-0.2-0.5-0.4-0.7c-0.2-0.1-0.5-0.2-0.7-0.3l-0.1-0.1C135.3,326.4,134.1,326.3,133,326.3 M108.2,326.2
	c-0.3,2.7-0.8,5.4-1.5,8.1l-0.2,0.9c0.3-0.3,0.6-0.5,0.9-0.7c0.6-2.6,1-5.2,1.4-7.8v-0.2C108.6,326.5,108.4,326.3,108.2,326.2
	 M160.2,325.8l-0.7,0.1v0.2l0.7-0.1V325.8 M165.9,325.7l-2.4,0.4l-1.1-0.1c0,0.1,0.1,0.2,0.3,0.3h0.9l1.2-0.3c0.5,0,0.7,0.1,0.7,0.3
	c0.5-0.2,1-0.3,1.6-0.3v-0.2L165.9,325.7 M147,325.5h-0.6v0.4l0.6,0V325.5 M163.6,325.3l-1.2,0.1v0.2l1.2-0.1L163.6,325.3
	 M148.4,325l-1.2,0.5l0.2,0.3c0.2,0,0.4-0.1,0.6-0.2h0.3l0,0L148.4,325 M150.3,334.3v-0.2c0.2-0.5,0.3-0.7,0.5-0.8v0.4
	c-0.1,0.2-0.1,0.4-0.1,0.6L150.3,334.3 M158.5,328.2v-0.1l1.4-0.1v0.2L158.5,328.2 M160.9,328v-0.4l0.7-0.1h0.1
	c0.2,0,0.3,0.1,0.3,0.3L160.9,328 M173.1,324.8l-1.2,0.1c-0.6,0.1-1.3,0.2-1.9,0.4c-0.2-0.1-0.4-0.1-0.6-0.1h-0.3
	c-0.2,0.1-0.3,0.2-0.5,0.2v-0.2c-0.2,0.2-0.4,0.2-0.7,0.3v0.4l2.2-0.2v0.4c-2.8,0.3-5.1,0.7-7.1,1l0.9,0l2.4-0.4h1.2v0.2
	c-0.5,0-1,0.2-1.6,0.3c0-0.1-0.2-0.2-0.7-0.3l-1.2,0.4h-0.9c-0.1-0.1-0.2-0.2-0.3-0.3c-1,0.2-1.8,0.3-2.6,0.5l0,0
	c-0.2,0-0.3-0.1-0.5-0.1c-6,0.9-2.8,1.1-5.6,1.4c-0.6,0-1.4,1.2-2.4,3.5h-0.4v-0.2c0.2-0.3,0.3-0.6,0.3-0.9c-0.4,0-1.8,2.6-4.2,7.6
	l0.2,0.4c0.2-0.1,0.4-0.2,0.6-0.2c0,0,0,0,0.1,0.1c2.1-4.5,3.4-6.8,3.8-6.8c0,0.3-0.1,0.7-0.3,0.9v0.2h0.4c0.9-2.2,1.7-3.4,2.4-3.5
	c2.8-0.2-0.4-0.4,5.6-1.4c0.2,0.1,0.3,0.1,0.5,0.1l0,0c2.4-0.5,5.6-1,9.9-1.5v-0.4l-2.2,0.2v-0.4c0.2,0,0.5-0.1,0.7-0.2v0.2
	c0.2,0,0.4-0.1,0.5-0.2h0.3c0.2,0,0.4,0,0.6,0.1c0.6-0.2,1.2-0.3,1.9-0.4l1.4-0.1c0.3-0.2,0.5-0.4,0.5-0.6V325H174
	c-0.3,0-0.6,0-0.9-0.1C173.1,324.9,173.1,324.8,173.1,324.8 M75.1,324.5l2.7,1.1c1.2,0,2.4,0.4,3.4,1l0,0
	C81.2,325.4,79.1,324.7,75.1,324.5 M150.3,324.5h-0.2c-0.2,0.1-0.4,0.2-0.3,0.4v0.2l0.6,0c0.2,0,0.3-0.1,0.4-0.3c0,0,0,0,0-0.1
	L150.3,324.5 M107.3,324.5h-0.2l-0.1,0.1l0.3,0.3C107.3,324.8,107.3,324.7,107.3,324.5L107.3,324.5 M180.7,324.4
	c-0.1,0.2-0.1,0.4-0.1,0.6l0,0l0.3,1h0.3c0-0.4,0.1-0.8,0.2-1.3c0-0.2-0.1-0.2-0.4-0.3l-0.3,0.2
	C180.8,324.6,180.8,324.5,180.7,324.4 M180.1,324.1c-0.2,0.8-0.6,1.5-1,2.2v0.1l0,0c0.2,0,0.3,0.1,0.5,0.1c0.1-0.2,0.1-0.4,0.1-0.6
	h0.2c0.1-0.3,0.3-0.6,0.5-0.8h-0.1L180.1,324.1 M158.2,323.5c-0.7,0.2-1.5,0.4-2.2,0.4v0.1l0.9,0.1c0.2,0,0.5-0.1,0.7-0.2
	c0.2,0.1,0.4,0.1,0.5,0.1h0.1h0.4v-0.4h-0.1C158.3,323.6,158.2,323.6,158.2,323.5 M159.2,323.3H159c-0.2,0.1-0.3,0.2-0.3,0.4l0.5,0
	L159.2,323.3 M161.1,323.1l-1.6,0.1l-0.2,0.4h0.2c0.5-0.1,1-0.3,1.6-0.3L161.1,323.1 M177.3,323c-0.1,0.1-0.3,0.2-0.5,0.2
	c-0.1,0-0.2,0-0.2-0.2l-1.2,0.3l-2.6,0.2c-0.2,0.1-0.3,0.2-0.3,0.4c0.3,0.1,0.6,0.1,0.9,0.1h0.3v0.2c0,0.1-0.1,0.2-0.1,0.3l2.4-0.2
	h0.1l0.2-0.4h0.2c0.1,0.1,0.1,0.2,0.1,0.3l0.5-0.1c0.1-0.3,0.2-0.7,0.4-1h-0.2 M180.2,322.5c0,0.3,0,0.6,0,0.8l0.1-0.1
	c0,0.2-0.1,0.4-0.1,0.6l0,0l0.3-0.2c0.1,0,0.2,0,0.2,0.1c0-0.2,0-0.4,0-0.6h-0.2C180.4,322.9,180.2,322.7,180.2,322.5 M179.7,322.5
	l-0.5,0c-0.3,0.2-0.6,0.4-0.9,0.7H178c-0.1,0.3-0.2,0.7-0.3,1l0.2-0.1h0.2c-0.2,0.5-0.4,0.9-0.5,1.4h-0.3c-0.1,0.2-0.1,0.3-0.2,0.5
	l0.7,0.4l0.1-0.1c0.3-0.7,0.5-1.4,0.7-2.2h0.3c0.1-0.1,0.3-0.3,0.5-0.4C179.4,323.3,179.6,322.9,179.7,322.5 M179,321.1l-0.3,0.2
	v-0.2l-0.9,0.1c0,0.1,0.1,0.2,0.1,0.3l1.8-0.2c0,0.1,0,0.2,0.1,0.2h0.1l0.3-0.2c0,0.1,0.1,0.2,0.2,0.2c0,0,0,0,0,0l0,0l0.3-0.2
	c0,0.1,0.1,0.1,0.1,0.2c0,0,0,0,0,0l0,0h0.1v-0.4h-0.6L179,321.1"/>
<path class="st6" d="M74.3,372.5l-0.3,0.1l-0.3,0.2c0,0.2,0.1,0.2,0.3,0.2h0.1c0.2,0,0.3-0.2,0.2-0.4L74.3,372.5 M73.3,369.7
	c-0.2,0-0.3,0.2-0.2,0.3c0,0,0,0,0,0v0.2c0.2,0,0.3-0.2,0.2-0.4L73.3,369.7 M171.9,361.6h-0.5l-3.5,0.3l-0.8-0.1L167,362l-0.1,0.2
	v0.2l4.9-0.4L171.9,361.6 M172.5,361.6L172.5,361.6l-0.1,0.3h0.1V361.6 M175.3,360.9h-0.1v0.3h0.1V360.9 M192.4,359L192.4,359
	c-1.6,0.5-3.3,0.7-5,0.7v0.3h0.3h0.3l0,0l0.4-0.2c3.7-0.4,4.1-0.2,4.1-0.7L192.4,359 M193.2,359v0.3l0.5,0.1v-0.3L193.2,359
	 M197.8,356.4h-0.1v0.3l0.7-0.1C198.4,356.5,197.9,356.4,197.8,356.4 M196.6,355.8L196.6,355.8L196.6,355.8 M196.7,355.5
	c-0.1,0.1,0.1,0.1-0.1,0.2v0.1l0.1-0.1l-0.1,0.1l0,0l-0.2,0.3l0.5-0.2h0.1v-0.3h-0.1C197,355.6,197,355.6,196.7,355.5 M165.7,351
	h-0.2l-0.3,0.2l0.2,0.3c0.2,0,0.3-0.1,0.3-0.4L165.7,351 M82,349.2l-0.4,0.1l0.1,0.3l0.4-0.1L82,349.2 M150.9,333.4
	c-0.2,0-0.3,0.3-0.5,0.8v0.2h0.4c0-0.2,0-0.4,0.1-0.6L150.9,333.4 M146.5,324.5l-0.6,0v0.4l0.6,0L146.5,324.5 M90.6,377.9
	c0-0.2,0-0.3,0-0.5h0.2H91c0.1,0,0.2,0.1,0.3,0.2v0.2L90.6,377.9 M37.4,376.5c0.3-0.5,0.7-0.9,1.2-1.3l0.5,0.2
	c0,0.4-0.1,0.8-0.3,1.2c-0.1,0.3-0.3,0.5-0.5,0.6c-0.1,0-0.2,0.1-0.3,0.1l0,0c-0.2-0.1-0.4-0.2-0.7-0.2c-0.1,0-0.3,0-0.5,0h-0.2
	l0-0.6c0-0.2,0.1-0.4,0.4-0.5l0,0C37.2,375.9,37.3,376.1,37.4,376.5 M42.4,373.2c0-0.2,0.1-0.4,0.4-0.4l0.6-0.1v0.2
	c-0.2,0-0.4,0.1-0.6,0.2L42.4,373.2 M50.1,371.1v-0.4c1-0.1,1.9-0.5,2.6-1.2h0.1c0.2,0,0.4,0.1,0.4,0.4c-1,0.3-2,0.7-2.9,1.3H50.1
	 M42.8,367.7v-0.2c0-0.2,0.1-0.4,0.4-0.4v0.2C43.2,367.6,43.1,367.7,42.8,367.7 M53.3,370.5c2.2-1.1,5.3-2.9,9.3-5.2v0.4
	c0,0.2-0.6,0.7-1.8,1.6c-3.6,1.8-5.7,3-6.3,3.6c-1.8,0.6-3.2,1.1-4.2,1.6l-0.7,0.3c-0.6,0.3-0.9,0.5-0.9,0.6h-0.1l-1.8,0.7
	c-1.2,0.5-2.3,1-3.1,1.3s-1.3,0.6-1.8,0.9h0c-0.1,0-0.3,0-0.4-0.1c-0.2,0-0.4-0.1-0.6-0.1c-0.1-0.7,0.3-1.4,0.9-1.7h0.3
	c0.5,0,1,0.1,1.4,0.3c1.1-0.5,2.2-0.9,3.4-1.1V373l-1.3,0.1c1.2-0.7,2.4-1.3,3.7-1.7l0.6-0.1v0.2c-1.1,0.1-1.7,0.4-1.8,1
	c0,0.2,0.1,0.3,0.3,0.4c0,0,0,0,0,0h0.1c0.8-0.5,1.2-0.8,1.2-0.9c1.2-0.3,2.4-0.8,3.5-1.4h0.1 M104.4,365.8c0.3-0.4,0.5-0.7,0.9-1
	l0.3,0.1c-0.1,0.9-0.4,1.4-0.8,1.5l0,0h-0.1c-0.2-0.1-0.5-0.2-0.8-0.2h-0.1v-0.5c0-0.2,0.1-0.3,0.3-0.3l0,0
	C104.2,365.4,104.3,365.5,104.4,365.8 M43.7,366.6v-0.2c0-0.7,0.3-1.4,0.9-1.9C44.3,365.9,44,366.6,43.7,366.6 M108.2,363.4
	c0-0.2,0.1-0.3,0.3-0.3h0.5v0.2c-0.2,0-0.3,0.1-0.5,0.2L108.2,363.4 M114,361.8v-0.3c0.8-0.1,1.5-0.4,2-0.9l0,0
	c0.1,0,0.3,0.1,0.3,0.2c0,0,0,0,0,0c-0.8,0.2-1.5,0.5-2.2,0.9L114,361.8 M108.4,359.2V359c0-0.2,0.1-0.3,0.3-0.3v0.1
	C108.8,359,108.7,359.1,108.4,359.2C108.5,359.2,108.5,359.2,108.4,359.2 M112.8,363.1L112.8,363.1c0.7-0.4,1-0.6,1-0.7
	c1.2-0.2,4.4-1.9,9.8-5.1v0.3c0,0.1-0.4,0.5-1.4,1.2c-1.7,0.7-3.3,1.6-4.8,2.7l-0.5,0.2l-0.9,0.3c-0.4,0.1-0.8,0.3-1.1,0.4l-0.4,0.1
	c-0.5,0.2-1,0.4-1.5,0.8c0,0,0,0,0,0.1l-1.4,0.5c-1.1,0.5-2.1,0.9-2.7,1.2c-0.3,0.2-0.7,0.3-1,0.5h-0.1c-0.3,0-0.5-0.1-0.7-0.2
	c0-0.5,0.2-1,0.7-1.3h0.2c0.2,0,0.5,0,0.7,0.1l0.2,0.1h0.1c0.8-0.3,1.7-0.6,2.5-0.8v-0.3l-1,0.1c0.9-0.5,1.8-1,2.8-1.3h0.5v0.1
	c-0.8,0.1-1.3,0.3-1.4,0.8C112.5,362.9,112.6,363,112.8,363.1C112.7,363,112.7,363,112.8,363.1 M109,358.1V358
	c0-0.6,0.2-1.1,0.7-1.4C109.5,357.6,109.2,358.1,109,358.1 M77.9,354.1v-0.2l1.6-0.5l0.7-0.2l0.1,0.3c-0.3,0.1-0.1,0.1-0.4,0.2h-0.1
	h-0.2C79.1,353.8,78.5,353.9,77.9,354.1 M81.4,353.4c-0.2,0-0.3-0.1-0.3-0.3l0.5-0.1h0.1c0.2,0,0.2,0.1,0.3,0.3L81.4,353.4
	L81.4,353.4 M77.9,353.2l0.1-0.2c0.5-0.1,0.8-0.1,1.8-0.3v0.1L77.9,353.2 M57,351.7v-0.2l0.9-0.1v0.2L57,351.7 M77,351.4h0.2v0.2H77
	l-0.3,0.1v-0.2L77,351.4 M43.5,371.1c0.2-0.7,3-6.5,8.5-17.4c2.4-0.2,6.2-1.3,11.4-3.4l1.3-0.1c0.4,0,0.8,0,1.2,0
	c1.7-0.1,3.4,0.4,4.7,1.5l0.1,0.5v0.2c-1,2.8-2,4.4-3.2,4.9l-5.4,4.3c-4,2.6-6.2,3.9-6.5,4c-5.5,3-9.2,4.8-11.1,5.3
	c-0.3,0.1-0.5,0.1-0.8,0.2L43.5,371.1 M76.5,350.9l-0.1-0.8c0.4,0.2,0.6,0.3,0.7,0.5l-0.2,0l0,0h-0.1L76.5,350.9 M70.6,350.3
	c-0.6,0-1.1-0.4-1.4-0.9l0.6-0.1c0.6,0.3,0.9,0.5,0.9,0.7v0.2H70.6 M91.8,350.4c-0.1,0-0.3-0.1-0.3-0.2l2.2-0.5l0.7-0.3l0.2,0.3
	c-0.3,0-0.5,0.1-0.8,0.3l-0.3-0.1c-0.5,0.2-0.9,0.3-1.4,0.5l-0.3,0.1L91.8,350.4 M95.7,349.4v-0.1c0.2-0.1,0.3-0.1,0.4-0.3l1.6-0.4
	v0.2C97,348.9,96.3,349.1,95.7,349.4 M85.9,348.7v-0.2l0.8-0.2l0.1,0.3L85.9,348.7 M55.3,348.5v-0.4L56,348v0.4L55.3,348.5
	 M119.1,346.9v-0.2l0.6-0.1v0.2L119.1,346.9 M108.9,361.7c0.1-0.5,2.3-5,6.5-13.2c3-0.5,5.9-1.4,8.7-2.6l1-0.1c0.3,0,0.6,0,0.9,0
	c1.3-0.1,2.6,0.3,3.6,1.2l0.1,0.6l0,0c-0.7,2.1-1.6,3.3-2.4,3.7l-4.1,3.3c-1.6,1.1-3.2,2.1-4.9,3c-2.6,1.5-5.3,2.9-8.1,3.9
	c-0.3,0.1-0.6,0.2-0.9,0.2L108.9,361.7 M72.7,346.3v-0.6h0.4l0.9,0.5c0,0.3-0.1,0.4-0.4,0.5C73.4,346.5,73.1,346.4,72.7,346.3
	L72.7,346.3 M134.2,347.8l-0.2-2.1c0.3,0.1,0.5,0.2,0.5,0.4l0.1,0.6l0.1,0.6v0C134.5,347.6,134.4,347.8,134.2,347.8 M129.6,345.9
	c-0.5,0-0.9-0.3-1.1-0.7h0.5C129.4,345.4,129.7,345.6,129.6,345.9L129.6,345.9L129.6,345.9 M96.5,345.7c0.5-0.2,1.2-0.3,2-0.5
	l0.3-0.1l0.1,0.3l-2.4,0.7l-0.5,0.1c-0.2,0.1-0.3,0.2-0.4,0.3c0,0-0.1-0.1-0.2-0.1c-0.2,0-0.3,0-0.5,0.1
	C95,346.3,95.5,346,96.5,345.7 M51,346l-0.1-1h0.4l-0.1,1H51 M117.8,344.5v-0.3l0.6-0.1v0.3L117.8,344.5 M51.5,344v-0.2
	c0.3,0,0.5-0.2,0.6-0.5c0,0,0-0.1,0-0.1h0.2v0.2l-0.4,0.6L51.5,344 M131.1,342.8v-0.5h0.3l0.7,0.4c0,0.2-0.1,0.3-0.3,0.3
	C131.7,343,131.4,342.9,131.1,342.8L131.1,342.8 M114.7,342.6l-0.1-0.8h0.3l-0.1,0.8L114.7,342.6 M52.3,342c0.2-0.3,0.3-0.6,0.3-1
	h0.4c0,0.7-0.2,1-0.5,1H52.3 M114.9,341v-0.2c0.3,0,0.5-0.2,0.4-0.5h0.2v0.2l-0.3,0.5L114.9,341 M53.5,340.3l-0.1-0.8h0.2l0.1,0.8
	H53.5 M115.6,339.6c0.1-0.2,0.2-0.5,0.3-0.8h0.3c0,0.5-0.2,0.8-0.4,0.8L115.6,339.6 M96.2,345.2c-0.1,0-0.2,0-0.3-0.1l-0.1-0.4
	c0-0.2,1.5-2.3,4.7-6.4l0.4,0.1c0.1,0.4,0,0.8-0.1,1.2c-0.1,0.6-0.3,1.3-0.6,1.9c-0.2,1.9-0.9,3-2.1,3.3v-0.2l-1.2,0.4l-0.4,0.1
	h-0.1C96.4,345.2,96.3,345.2,96.2,345.2 M116.4,338.2v-0.6h0.2v0.6H116.4 M41.8,336.1v-0.4l0.8-0.1v0.2c-0.2,0-0.4,0.1-0.6,0.2
	L41.8,336.1 M54.9,336.8v-0.4c0.4-0.5,0.6-0.8,0.5-1h0.2v0.6C55.4,336,55.2,336.3,54.9,336.8 M107.6,335.1v-0.3l0.6-0.1v0.1
	c-0.2,0-0.3,0.1-0.5,0.2L107.6,335.1 M117.5,335.6v-0.3c0.2-0.2,0.4-0.5,0.4-0.8h0.2v0.5C118,335,117.8,335.2,117.5,335.6
	 M137.8,331.2c-0.3-0.4-0.5-0.8-0.7-1.2v-0.3l0,0c0.3,0,0.5,0.4,0.8,1.1c0,0.1,0.1,0.2,0.1,0.4v0.3l0,0
	C138,331.5,137.9,331.4,137.8,331.2 M81.4,330.9c-0.3-0.5-0.6-1-0.8-1.5V329l0,0c0.3,0,0.6,0.4,0.9,1.2c0.1,0.2,0.2,0.5,0.3,0.7v0.4
	l0,0C81.7,331.3,81.6,331.2,81.4,330.9 M118.5,343v-0.3c0-0.8,0.3-1.6,0.8-2.2c0.3-1.7,0.7-2.6,1-2.8l3.4-7.6c0-0.5,0.7-0.8,2.2-1.1
	h0.5v0.5c1.4-0.2,2.3-0.4,2.7-0.4s0.8,0,1.1,0c1.9,0,2.9,0.5,3.1,1.6c0,0,0,0.1,0,0.1h0.1h0.2l-0.1-0.7h0.3c0.6,0.3,1.1,0.8,1.2,1.5
	c0,0,0,0.1,0,0.1c0,0.6-0.2,1.2-0.6,1.6l0,0c-0.2,0-0.3-0.1-0.3-0.4h-0.3l-0.1,0.9c-1.4,2.1-2.3,3.1-3,3.2c-0.6,0.7-0.9,1.1-1.1,1.1
	c-1,1-2.2,1.9-3.5,2.6c-2.4,0.7-4.7,1.6-7,2.7h-0.1c-0.1,0-0.3-0.1-0.5-0.1h-0.1 M56.1,346.6v-0.4c0-1.1,0.4-2.1,1-2.9
	c0.4-2.2,0.9-3.5,1.4-3.8l4.5-10c0-0.6,0.9-1.1,2.9-1.4l0.6-0.1v0.6c1.9-0.3,3.1-0.5,3.6-0.5s1-0.1,1.5-0.1c2.4,0,3.7,0.6,4,1.9
	c0,0.1,0,0.2,0,0.3h0.2h0.2l-0.1-1h0.4c0.8,0.3,1.4,0.8,1.8,1.6c0,0.1,0.1,0.2,0.1,0.3c0,0.8-0.4,1.5-0.9,2.1l0,0
	c-0.2,0-0.4-0.2-0.4-0.6h-0.4l-0.1,1.2c-1.8,2.7-3.1,4.1-3.9,4.1c-0.7,1-1.2,1.5-1.4,1.5c-1.4,1.3-2.9,2.5-4.6,3.4
	c-0.8,0.1-3.9,1.3-9.3,3.6c-0.1,0-0.2-0.1-0.3-0.1c-0.1,0-0.3,0-0.4,0h-0.2 M135.8,327.5l-2.8-1.2c1.2,0,2.3,0.2,3.4,0.5
	c0.3,0.1,0.6,0.2,0.9,0.4c0.2,0.2,0.4,0.4,0.4,0.7l-0.1,0.1l-0.1,0.2L135.8,327.5 M77.9,325.8l-2.7-1.1c4,0.1,6,0.8,6.1,2.1l0,0
	l-0.2,0.4L77.9,325.8 M68.7,322c-4.2,0.4-9.6,1.8-16.2,4.4c-2,1.5-4.1,2.8-6.3,4v0.4c0.2,0,0.4-0.1,0.6-0.2h0.1
	c0.2,0,0.4,0.1,0.4,0.3c0,0,0,0,0,0l0.4-0.2h0.2v0.2c0,0.1-0.3,0.4-0.9,0.9s-1.9,1.4-3.5,2.5l0.2,0.4h-0.2l-0.5-0.2
	c0,0.1-0.2,0.2-0.6,0.2v0.2l0.5,0.5h0c-0.2,0-0.4-0.1-0.6-0.1c-1.2,0.2-2.2,1-2.8,2.1l0.2,0.4c0.4-0.4,0.9-0.8,1.4-1.1v0.5v0.1
	c-0.1,0-0.2,0-0.2,0.1c-0.1,0.1-0.3,0.1-0.4,0.2l0.1,0.1l0.3,0.5l0.1,0.1c0.2-0.2,0.4-0.4,0.6-0.6s0.4-0.4,0.7-0.6l0.4-0.3l0.4-0.3
	l0.2-0.2c0.3-0.2,0.6-0.4,0.9-0.6l0,0c0.6,0.1,0.8,0.3,0.9,0.5h0.4c2.9-2.2,6.1-4,9.6-5.2v0.4c-0.2,0.3-0.5,0.7-0.8,1
	c-0.1,0.1-0.2,0.2-0.4,0.3c0,0.3,0.1,0.6,0.3,0.8c0.1,0.5-1.3,4.1-4.2,10.6c-6.5,15.2-11.9,26.5-16.3,33.7c0,0.2,0.1,0.4,0.2,0.6
	l0.6-0.2c0.5-0.1,1-0.3,1.4-0.6h0.2v0.4h0.4l0.4-0.2c0,0.1,0,0.1,0.1,0.1c0.1,0,0.2,0,0.2,0h0.1l0,0v0.4c0,0.2,0,0.3-0.1,0.5
	c-0.1,0.5-0.4,1-0.6,1.4c-0.7,1-1.1,2-1.4,3.1v0.2h0.4c0.3-0.3,0.5-0.6,0.7-0.8c1.3-1.5,2.4-3.2,3.3-4.9c0.7-0.2,1.4-0.4,2-0.6
	c1.4-0.4,2.6-0.9,3.8-1.3c2-0.7,4-1.6,5.9-2.5c2.2-0.1,4.4-0.8,6.2-2.1V371l-1,0.3h-0.2V371c1.5-0.1,2.9-0.6,4.2-1.4
	c3.9-3,6.8-5.1,8.8-6.4c4.1-3,6.8-5.9,8-8.8l0.7-0.2c0.3,0,0.7,0,1-0.1c0-0.1,0-0.1,0.1-0.2c0,0,0.1,0,0.1,0h0.1c0.1,0,0.2,0,0.4,0
	H80l0.3-0.1l1.5-0.4l0,0l-0.1,0.2l0.2-0.1h-0.1l0.2-0.1l-0.1,0.1h0.2c0.1,0,0.3,0,0.4,0l0.1,0.5l-0.4,0.6l-6.6,10.5l-1.6,2l-0.8,2.5
	h0.2l0.8-0.3l-0.2,0.8v0.2l0.1,0.3l0,0l0.2,0.3c-0.1,0-0.1,0.1-0.1,0.2v0.2l0.3-0.1l0.1-0.1c0.4-0.4,0.6-0.7,0.5-1
	c0.3,0.1,0.5,0.1,0.8,0.1c0.1,0,0.1,0,0.2,0v0.2c-0.3,0.1-0.5,0.3-0.5,0.7l0,0v0.1h0.2l0.1-0.1c2.6-2.9,8.7-12.2,13.7-18.6
	c-0.2-0.7,2.4-1.7,7.8-2.9h0.2v0.1c0,0,0,0.1,0,0.2c0,0.3,0,0.5,0,0.8c-0.3,1.7-0.7,3.4-1.3,5c-0.4,1-0.7,2.1-0.9,3.2
	c-0.5,1.4-0.9,2.8-1.2,4.2l-1.9,6.2c-1.2,3.3-2.2,6.7-2.8,10.1h0.1c0.1,0,0.3,0,0.4,0.1l0.2-0.2l0,0c0,0.1,0.1,0.1,0.1,0.1
	c0,0,0,0,0,0h0.1l-0.1-0.5h0.8l0,0c0.2-0.1,0.4-0.3,0.4-0.5c0.1-0.1,0.1-0.3,0.2-0.5c0-0.8,0.1-1.3,0.5-1.4c0.2-1,0.5-2,0.9-3
	c0.2-1.2,0.6-2.3,1.1-3.4c0.7-2.6,1.2-3.9,1.6-4l0.1,0.3l-0.5,1.4c-0.7,3.3-1.6,6.5-2.8,9.6v0.2l0.2,1H93c0.1-0.2,0.2-0.5,0.3-0.7
	c2.3-5.1,5.4-14.5,9.5-28.3c0.1-1.2,0.8-2.4,1.8-3l-0.2-0.3v-0.1l0.3-0.1c0.3-0.1,0.5-0.3,0.7-0.5c0-0.1-0.2-0.2-0.6-0.3l-0.7-0.2
	l2.1-9.1c0.2-0.3,0.5-0.5,0.8-0.6v0.4v0.1l0,0c-0.2,0-0.3,0.1-0.4,0.2l0.4,0.6c0.4-0.4,0.8-0.8,1.2-1.2l0.4-0.3l0.3-0.2l0.2-0.1l0,0
	l0.3-0.2l0,0c0.4,0.1,0.6,0.3,0.7,0.4h0.3c2.2-1.6,4.6-2.9,7.1-3.8v0.3c-0.4,0.6-0.7,1-0.9,1c0,0.1,0,0.1,0,0.2
	c0,0.1,0.1,0.3,0.2,0.4c0,0.4-1,3.1-3.2,8.1c-4.9,11.5-9,20.1-12.4,25.6c0,0.2,0.1,0.3,0.2,0.5l0.8-0.2c0.3-0.1,0.5-0.2,0.8-0.4h0.1
	v0.3h0.3l0.3-0.2c0,0.1,0.1,0.1,0.2,0.1h0.1v0.3v0c0,0.2-0.1,0.5-0.2,0.7c-0.1,0.2-0.2,0.5-0.4,0.7c-0.5,0.7-0.9,1.5-1.1,2.4V371
	h0.3c0.5-0.6,1.1-1.2,1.5-1.9c0.6-0.8,1.1-1.6,1.5-2.5l1.4-0.4c2.6-0.7,5.1-1.7,7.5-2.9l0.6-0.1c1.5-0.1,2.9-0.7,4.2-1.6v-0.2
	l-0.8,0.2h-0.2v-0.2l0.4-0.1c1-0.1,1.9-0.4,2.7-1c3-2.3,5.2-3.9,6.7-4.9c3.3-2.4,5.4-4.8,6.2-7.1c0.1-0.2,0.2-0.5,0.2-0.7
	c0.2-0.7,0.2-1.3,0.2-2v-0.1c0-0.3-0.8-1.4-2.5-3.2l-0.6-0.7c0-0.4,0.6-1,2.1-1.9l4.1-3.5c0.9-1.2,1.4-3,1.6-5.6v-0.6
	c0-0.4-0.1-0.8-0.3-1.1c-0.8-1.5-2.1-2.7-3.7-3.2c-1.5-1-4.1-1.5-7.9-1.6c-4.2,0.6-8.4,1.7-12.3,3.4c-1.5,1.1-3.1,2.1-4.8,3v0.3
	c0.2,0,0.3-0.1,0.5-0.2h0.1c0.1,0,0.3,0.1,0.3,0.2c0,0,0,0,0,0l0.3-0.2h0.1v0.1c0,0.1-0.2,0.2-0.5,0.5l-0.3,0.2
	c-0.6,0.4-1.4,1.1-2.6,1.9l0.2,0.3h0.1l-0.4-0.1c0,0.1-0.2,0.2-0.5,0.2v0.1l0.3,0.4l0,0c-0.2,0-0.3-0.1-0.5-0.1
	c-0.2,0-0.4,0.1-0.6,0.1c-0.4,0.2-0.7,0.4-0.9,0.7l0.2-0.9c0.6-2.7,1.1-5.4,1.5-8.1c0-0.1,0-0.3,0-0.4v-0.2
	c-0.3-0.2-0.6-0.5-0.9-0.8l-0.3-0.3l-0.3-0.4c0-0.2,0-0.4,0-0.6v-0.1h-0.2c-1.6,2.4-4.7,6.5-9.3,12.4c-3.5,4.1-5.3,6.5-5.4,6.9
	c-1.4,1.5-2.1,2.4-2,2.7c-0.4,0.2-0.5,0.5-0.5,0.8h-0.1c-0.1,0-0.1-0.1-0.1-0.1c0,0,0,0,0,0c-0.6,1-1.6,1.7-2.7,1.9l-1.3,0.3
	c-0.2,0-0.2,0.1-0.2,0.4v0.2l0.5-0.1v0.1l-1.1,0.4l-1.9,0.4l-1,0.1c0,0,0,0.1,0.1,0.1H82h-0.1l-1.2,0.3c-0.2,0.1-0.5,0.1-0.7,0.1
	c-0.3,0-0.5-0.1-0.6-0.3h-0.1c0,0.1,0,0.2,0,0.3l-0.1-0.3l-1,0.2c-0.1-0.4-1.2-1.9-3.4-4.4l-0.6-0.7c0-0.6,0.9-1.4,2.8-2.4l5.3-4.7
	c1.2-1.5,1.9-4,2.1-7.4l-0.1-0.8c0-0.6-0.2-1.1-0.4-1.7c-0.7-1.6-2.3-3-4.8-4.1c-1.9-1.3-5.4-2-10.4-2.1 M162,321.5L162,321.5
	 M142.8,360.8v-0.2l0.9-0.1v0.2L142.8,360.8 M140.1,361.1v-0.4l2.5-0.2c0,0.2-0.3,0.4-0.9,0.6l-1.2-0.1L140.1,361.1 M177.3,360.4
	v-0.2h0.1l1.9-0.2v0.2c-0.3,0-0.7,0-1,0.2c0-0.1-0.1-0.1-0.1-0.1l0,0L177.3,360.4 M164.5,360.4c-0.1,0-0.2-0.1-0.3-0.3v-0.1h0.3v0.2
	L164.5,360.4L164.5,360.4 M178.4,357.6L178.4,357.6c1-0.2,0.9-0.2,1.4-0.3l0,0c0.1,0,0.2,0.1,0.2,0.3l-2.5,0.2l-1.1,0.1v-0.2
	l0.9-0.1l0.8-0.2C178.2,357.6,178.2,357.7,178.4,357.6C178.3,357.7,178.3,357.7,178.4,357.6 M180.1,357.5v-0.1l0.9-0.1v0.1
	c-0.1,0,0.3,0,0.1,0.1c-0.4,0-0.6-0.1-0.8-0.1L180.1,357.5 M181.1,357.4v-0.1l0.5,0v0.1L181.1,357.4 M183,357.3h-0.8v-0.1
	c0.1,0,0.3-0.1,0.4-0.2h0.1C182.9,356.9,183,357.1,183,357.3 M183.7,357.1v-0.2h0.6v0.1L183.7,357.1 M185.2,357.1l-0.6-0.1
	c0-0.1,0.1-0.3,0.2-0.3c0,0,0,0,0,0l0.2,0.3l0.1-0.1L185.2,357.1L185.2,357.1L185.2,357.1 M134.8,357.5c0.2-0.9,0.5-1.8,0.9-2.6h0.4
	c-0.1,0.9-0.4,1.8-0.7,2.6L134.8,357.5 M136.1,354.7v-0.2c0-0.2,0.1-0.3,0.4-0.4v0.2C136.5,354.5,136.3,354.7,136.1,354.7
	 M173.5,332.8v-0.5c0.2-0.5,0.4-0.8,0.6-0.8c-0.1,0.4-0.2,0.9-0.4,1.3L173.5,332.8 M174.2,331.3l-0.1-1.1c0.2,0,0.4-0.2,0.5-0.5
	c0.3-1.3,0.6-2.1,0.9-2.3v0.2c-0.2,1.2-0.4,1.9-0.8,1.9l0.1,0.8c-0.2,0.3-0.4,0.6-0.4,1L174.2,331.3 M157.9,327.2V327l1.4-0.1v0.2
	L157.9,327.2 M175.4,327.2v-0.5c0.2,0,0.3-0.1,0.5-0.2h0.2C175.8,327,175.6,327.2,175.4,327.2 M160.4,326.7v-0.1l0.7-0.1h0.1
	c0.2,0,0.3,0.1,0.3,0.3l-1,0.1L160.4,326.7 M159.5,326v-0.2l0.7-0.1v0.2L159.5,326 M163.5,326l2.4-0.4l1.2,0v0.2
	c-0.5,0-1,0.2-1.6,0.3c0-0.1-0.2-0.2-0.7-0.3l-1.2,0.3h-0.9c-0.2-0.1-0.3-0.2-0.3-0.3L163.5,326 M162.4,325.4v-0.2l1.2-0.1v0.2
	L162.4,325.4 M149.8,325v-0.2c0-0.2,0.1-0.3,0.3-0.4h0.2l0.4,0.2c0,0.2-0.1,0.4-0.3,0.4c0,0,0,0-0.1,0L149.8,325 M156.9,324l-0.9,0
	v-0.2c0.8-0.1,1.5-0.2,2.2-0.4c0,0.1,0.1,0.2,0.2,0.2h0.1v0.4h-0.4h-0.1c-0.2,0-0.4,0-0.5-0.1C157.3,324,157.1,324,156.9,324
	 M158.7,323.7c0-0.2,0.1-0.3,0.3-0.4h0.2v0.4L158.7,323.7 M159.4,323.6l0.2-0.4l1.6-0.1v0.2c-0.5,0.1-1,0.2-1.6,0.3L159.4,323.6
	 M179.1,322.3c0.2-0.1,0.4-0.2,0.6-0.3l-0.1,0.2c-0.1,0.5-0.2,0.9-0.4,1.3c-0.3,1-0.8,1.8-1.5,2.6l-0.1,0.1L177,326
	c0.1-0.2,0.1-0.4,0.2-0.5c0.2-0.5,0.4-1,0.5-1.4c0.1-0.3,0.2-0.7,0.3-1h0.3c0.3-0.3,0.6-0.5,0.9-0.7 M178.5,320.2l-0.3,0.2v-0.2
	c-8.2,0.7-12.8,1-14,1.2H164h-1.5c0,0.1-0.1,0.2-0.4,0.2l-0.4-0.2l-1.2,0.3h-0.3c-0.4,0-0.7,0-1.1-0.1c-0.2,0.1-0.4,0.2-0.7,0.2l0,0
	l3.5-0.2l0,0c1.1-0.1,2.2-0.1,2.6-0.2l-0.9,0.2h-0.2H163c-0.3,0-0.6,0-1,0c-0.3,0.2-0.5,0.3-0.9,0.3H161c-0.2,0-0.4,0-0.5-0.1
	c-0.8,0.3-1.7,0.5-2.6,0.6l-0.4-0.1l-5.7,0.9c-0.2-0.1-0.4-0.1-0.6-0.1H151c-0.5,0.1-1,0.2-1.5,0.3l-2.8,1.1l0.2,0.3
	c0.2,0,0.4-0.1,0.6-0.2l1,0.1v0.3l-0.1,0.6l0,0c-0.8,0.3-1.4,0.9-1.6,1.8c-1.4,0.6-2,1-2,1.3v0.2h0.2l0.4-0.2l0.4,0.5l0,0v0.5v0.2
	c0,0.2-2.3,5-6.8,14.4c-3.9,9-6,14-6.2,14.9c-1.4,0.4-2.1,0.9-2.4,1.7c0,0.2,0.3,0.3,0.9,0.4h0.4v0.4l-0.3,0.5l-0.1,0.1l0.1,0.7
	c0,0.1,0.2,0.3,0.5,0.4c0.8,0.2,1.6,0.4,2.5,0.5c0-0.1,0-0.2,0.1-0.2c0,0,0,0,0,0c0,0.4,0,0.8-0.1,1.1c-0.1,0.4-0.2,0.9-0.3,1.4h0.2
	c0.2-0.3,0.5-0.7,0.7-1c0.3-0.4,0.4-0.8,0.5-1.2h0.2c0.2,0,0.4,0.2,0.6,0.7c0,0-0.1,0.1-0.2,0.3v0.1c-0.2,0.3-0.4,0.9-0.8,1.7
	s-0.9,2.2-1.5,3.8l0.2,0.3h0.2c1-2.5,1.8-4.4,2.4-5.7c0.3-0.6,0.6-1.3,1-1.8c2.3-0.2,6.4-0.6,12.2-1.2l0.4-0.2
	c0,0.1,0.1,0.2,0.2,0.2c0,0,0,0,0,0l0,0h0.4l0.4-0.2c0,0.1,0.1,0.2,0.2,0.2l0,0l4.4-0.4c1.2-0.1,1.7-0.5,1.7-1
	c0-0.2,0.7-0.3,2.1-0.5h0.1c0.2,0,0.4,0,0.5,0.1c0-0.1,0.7-0.2,2.1-0.3v-0.3c0.1-0.5,0.3-0.8,0.7-0.9V358c-0.5,0.1-0.9,0.2-1.3,0.3
	c-0.5,0-1-0.1-1.6-0.2c-0.1,0-0.1,0-0.2,0l-0.1,0.1c-0.1,0.1-0.3,0.1-0.5,0.2h-0.3l-2.8,0.1l-0.4,0.2c0-0.1-0.1-0.1-0.2-0.1h-0.2
	l-0.4,0.2c0-0.1-0.3-0.2-1-0.3l-0.4,0.2l-0.8,0.1v-0.2c1.6-0.1,3.2-0.4,4.8-0.8c0.7-0.2,1.1-0.5,1.1-0.8h0.1c0.2,0,0.3,0.1,0.4,0.4
	l1.1-0.3v-0.4l-9.4,0.3c0,0.1-0.1,0.2-0.2,0.2l-1.1-0.1c-0.3,0-0.5,0.1-0.7,0.2l-0.4-0.1c-0.9,0-1.8,0.2-2.6,0.4c-0.3,0-0.7,0-1.1,0
	s-1,0-1.6,0.1l-2.1,0.2h-0.2l-0.7-0.1c0-0.6,1.2-3.7,3.6-9.2c0.7-1.9,1.4-3,2-3.5l0,0c0.2,0,0.4,0.1,0.6,0.1l1.5-0.5l0.8,0.1
	c1.5-0.2,3.1-0.5,4.5-1.1h0.3c0.2,0,0.4,0,0.6,0.1l1.1-0.3l3.4-0.3c1.4-0.1,2.9-0.4,4.2-0.8l0.5-0.1v-0.4h-0.3
	c-0.4,0-0.7-0.1-0.7-0.3c0-0.1,0-0.1-0.1-0.2c-0.1-0.3-0.4-0.4-1-0.4h-0.3v-0.4l0.9-0.3l2.5-0.2v-0.3v-0.1h-0.2h-1.4v-0.4l1-0.1
	c0.2,0,0.3-0.1,0.3-0.3c0,0,0-0.1,0-0.1h-0.6c-0.8,0-1.3-0.1-1.3-0.2c-5.5,0.3-9.3,0.4-11.4,0.4c-0.6,0-1.3,0-1.9-0.1
	c-0.1,0-0.1,0-0.1-0.1c-0.2,0-0.4,0.1-0.6,0.2l-0.2-0.4c2.4-5,3.8-7.6,4.2-7.6c0,0.3-0.1,0.7-0.3,0.9v0.2h0.4
	c0.9-2.2,1.7-3.4,2.4-3.5c2.8-0.2-0.4-0.4,5.6-1.4c0.2,0.1,0.3,0.1,0.5,0.1l0,0c0.8-0.2,1.6-0.3,2.6-0.5h0.2c2-0.3,4.3-0.7,7.1-1
	v-0.4l-2.2,0.2v-0.4c0.2,0,0.5-0.1,0.7-0.3v0.2c0.2,0,0.4-0.1,0.5-0.2h0.3c0.2,0,0.4,0,0.6,0.1c0.6-0.2,1.2-0.3,1.9-0.4l1.2-0.1h0.2
	c0.1-0.1,0.2-0.2,0.3-0.3c0.1-0.1,0.2-0.2,0.1-0.3v-0.2h-0.3c-0.3,0-0.6,0-0.9-0.1c0-0.2,0.1-0.3,0.3-0.4l2.6-0.2l1.2-0.3
	c0,0.1,0.1,0.2,0.2,0.2c0.2,0,0.4-0.1,0.5-0.2h0.2c-0.2,0.3-0.3,0.7-0.4,1l-0.1,0.4h-0.3c0-0.1,0-0.2-0.1-0.3c0-0.1-0.1-0.2-0.1-0.3
	h-0.2l-0.2,0.4c-3.1,8.5-4.5,12.6-7.4,19.3c-0.5,1.7-1,2.7-1.4,2.9c0,0.1,0.1,0.3,0.2,0.3c0,0,0,0,0.1,0h0.1
	c0.1,0.9-0.1,1.8-0.6,2.5c-0.3,1-0.7,1.9-0.9,2.6l-0.2,0.5c-0.4,1.2-0.9,2.3-1.6,3.3l0.3,1.8c0,0.2-0.1,0.3-0.2,0.3c0,0,0,0-0.1,0
	h-0.3c0-0.5-0.2-0.7-0.5-0.7h-0.2c-0.4,0.6-0.6,1.2-0.8,1.9c0,0.1-0.1,0.3-0.1,0.4h0.3c0.2-0.1,0.4-0.3,0.5-0.5
	c0.1-0.2,0.1-0.3,0.1-0.5h0.4h0.2l0.4,0.1c-0.2,0.3-0.3,0.6-0.4,0.9c0,0.1,0,0.1,0,0.2l0.2,0.3l-0.4,1v0.2h0.1
	c0.2,0,0.5,0.1,0.7,0.1l0.3,0.1l0.1,0.1h0.2c0.3-0.1,0.6-0.2,0.8-0.4c0.4,0,1.7,0,4.1,0l1.2-0.4c1.4,0,1.7,0,2.9-0.1l0.5,0l0.3-0.2
	v0.2c0.4,0,0.7,0,1,0c0.5,0,1,0.1,1.5,0.1v0.2l-0.7,0.1v0.3c0.2,0,0.4-0.1,0.6-0.2l0,0c0.2,0,0.3,0.1,0.3,0.3c-0.3,0-0.7,0.1-1,0.2
	l0,0l-0.3-0.1l-0.4,0.1c-0.1,0-0.2,0.1-0.3,0.1l-0.3,0l-0.2,0l-0.1,0.1l0,0c0,0.1,0.1,0.3,0.2,0.3c0,0,0,0,0,0l0,0l0.5,0l2.2-0.2
	h0.5h0.1l0.9-0.2l0.1,0.1h0.1l0.3-0.1l0.1,0l0.9-0.1c0.7-0.1,0.7-0.1,2.2-0.4c0-0.1,0-0.1,0.1-0.1v0.1c1-0.1,2.1-0.3,3.1-0.6v0.1
	c0.6-0.1,0.3-0.1,0.4-0.2c0,0.1,0.1,0.2,0.1,0.2h0.4v-0.3h-0.9l0,0h-0.1h-0.1l0,0c-0.2,0-0.4,0.1-0.6,0.1h-0.4l-2.2,0.1v-0.2
	l1.2-0.2h0.4l0.3-0.2v0.2c1.8-0.1,2.4,0.3,10.5-1.4c0.1,0,0.2-0.1,0.3-0.1c0.1-0.1,0.2-0.3,0.2-0.4c0-0.2,0.1-0.4,0.2-0.6H196
	c-0.1,0-0.1,0-0.2,0c-0.1,0-0.1,0-0.2-0.1c-0.7,0.2-1.5,0.3-2.2,0.3h-0.1l0,0c-0.1,0-0.2-0.1-0.2-0.3v-0.1h1.2
	c0.5,0,0.9-0.2,1.4-0.4c0,0.1-0.2,0.2-0.1,0.2l0,0h0.2c0.1,0,0.2-0.1,0.2-0.3l-0.1-0.3c-0.7,0-1.3,0.2-1.9,0.5v-0.2l-1,0.1
	c0-0.1,0-0.1,0-0.2s-0.1-0.2-0.2-0.2l0,0l-0.5,0c-0.6,0-0.9,0-1.2,0.2c0-0.1,0-0.2-0.1-0.2l-0.6,0l-0.4,0.2c0-0.1,0-0.2-0.1-0.2
	l-0.2,0.2v-0.1l-0.8-0.1h-0.1h-0.2l0,0v0.3l0.4,0.1h0.4c0.1,0,0.2,0.1,0.3,0.1h0.2l0.3-0.2v0.1h-0.1c-1,0.3-2,0.4-3.1,0.6
	c-0.1-0.1-0.2-0.1-0.3-0.1l0,0l0,0c-0.1,0-0.1,0-0.1-0.1c-0.1-0.1-0.1-0.1-0.1-0.2l0.7-0.1c0.1,0,0.1,0,0.5,0.1
	c0.6-0.3,0.6-0.4,0.9-0.4v-0.2v-0.1h-0.2c-0.5,0.1-1,0.2-1.5,0.2h-0.1c-0.2,0-0.5,0-1,0l-0.7,0.1h-0.1v-0.3c3-0.4,2-0.2,3.1-0.5
	c0,0.1,0,0.2,0.1,0.2c0.1-0.1,0.3-0.2,0.4-0.2h0.2c1.2,0,2.4-0.1,3.5-0.5v0.1l0.3-0.2h0.3c0-0.3,0.4-0.4,0.6-0.4v-0.3
	c-3.7,0.8-4.6,0.5-5.7,0.8v-0.1c-0.3,0.1-0.7,0.1-1,0.1h-0.3c-0.1,0-0.2,0.1-0.3,0.2c0-0.1,0-0.2-0.1-0.2H186l-3.1,0.5l-0.1-0.1
	c-1.1,0.3-2.2,0.5-3.4,0.6c-0.1,0-0.3,0.1-0.4,0.2c0-0.1-0.1-0.1-0.1-0.1c0,0,0,0,0,0l0,0l-1.3,0.1l-0.9,0.2c0-0.1-0.1-0.1-0.1-0.1
	c0,0,0,0,0,0l0,0c-0.4,0.1-0.9,0.2-1.3,0.2h-0.1c-0.1,0,0.1-0.1,0-0.1l-0.3,0.2h-1.5c-2.4,0.3-2.1,0.3-2.4,0.3l-0.9-0.1
	c0,0.1,0,0.1-0.1,0.1c-0.3,0-0.6-0.1-0.9-0.1c-0.4-0.1-0.7-0.2-0.7-0.3c0.1-0.9,0.4-1.4,0.7-1.5h0.2l-0.1,0.3h0.2
	c0.3-0.2,0.5-0.3,0.4-0.5V355c0.2-0.1,0.4-0.5,0.6-1.3l-0.3-0.1c-0.2,0.4-0.3,0.8-0.4,1.3v0.1h-0.2v-0.3c0-0.2,0-0.4,0.1-0.6
	l0.7-1.2v0.3h0.3v-0.3l-0.2-0.3c0.2-0.2,0.4-0.3,0.6-0.4v-0.2h-0.5v-0.5c0.6-1.1,1-2.2,1.3-3.4l0.3,0.1c0.2,0,0.3-0.1,0.3-0.4h-0.3
	v-0.1c0-0.2,0-0.4,0.1-0.6c0.5-0.4,0.7-1,0.7-1.6l0,0c0.1,0,0.1,0,0.1,0.1c0.6-0.5,0.9-1.2,1-2c1.3-2.7,2.3-5.4,3.2-8.2
	c1.1-2.7,2-5.4,2.6-8.2c0.1-0.5,0.2-1,0.3-1.5h-0.1H180c0,0.2,0,0.4-0.1,0.6c-0.2-0.1-0.3-0.1-0.5-0.1l0,0v-0.1
	c0-0.8,0.3-1.6,0.8-2.2H180v0.1l0.2,1h0.1h0.2l0,0c0-0.2,0-0.4,0.1-0.6c0-0.2,0.1-0.4,0.1-0.7c0-0.1-0.1-0.2-0.1-0.2
	c-0.1,0-0.2-0.1-0.2-0.1l-0.3,0.2l0,0c0-0.2,0-0.4,0-0.5c0-0.2,0-0.5,0-0.8c0-0.1,0-0.2,0-0.4h-0.2c-0.1-0.1-0.2-0.3-0.3-0.4
	c0-0.1-0.1-0.2-0.1-0.2l-1.8,0.2c0-0.1,0-0.2-0.1-0.3c0-0.1-0.1-0.2-0.1-0.2c0-0.2,0.4-0.3,1.2-0.5l0.4,0.1l0.3-0.2
	c0,0.1,0.1,0.1,0.1,0.2c0,0,0,0,0,0l0,0l0.3-0.2c0,0.1,0.1,0.1,0.1,0.2c0,0,0,0,0,0h0.2v-0.4h-0.6L178.5,320.2"/>
<polyline class="st5" points="903.8,200.8 855.6,200.8 855.6,212.4 873.4,212.4 873.4,266.3 885.9,266.3 885.9,212.4 903.8,212.4 
	903.8,200.8 "/>
<polyline class="st7" points="851.8,183.6 829.6,183.6 829.6,283.6 851.8,283.6 851.8,272.5 841.6,272.5 841.6,194.6 851.8,194.6 
	851.8,183.6 "/>
<polyline class="st7" points="929.6,183.6 907.5,183.6 907.5,194.7 917.7,194.7 917.7,272.5 907.5,272.5 907.5,283.6 929.6,283.6 
	929.6,183.6 "/>
<path class="st8" d="M655.4,25.1h-15.6l1,11.3h14.6V25.1 M691.4,3.1L691.4,3.1L684.5,80l-29.2,8.1V76.6l0,0v-0.1l0,0l-22.7-6.2
	L631.2,53h11.1l0.8,8.8l12.3,3.3h0V47.5h-24.7l-3-33.4h27.7v-11L691.4,3.1 M699.3-4.2h-88.1l8,90l36,10l36.1-10L699.3-4.2"/>
<path class="st9" d="M668.9,47.5h-13.6v17.6l12.3-3.3L668.9,47.5 M691.4,3.1h-36v11H683l-0.3,3l-0.5,5.6l-0.2,2.5h-26.6v11.3H681
	l-3,33.9l-22.6,6.3v11.5l29.2-8.1L691.4,3.1"/>
<path class="st2" d="M642.2,53h-11.1l1.5,17.3l22.6,6.2l0,0V65.1l0,0l0,0h0L643,61.8L642.2,53 M655.3,14.1h-27.6l3,33.4h24.7v-11
	h-14.6l-1-11.3h15.6L655.3,14.1"/>
<path class="st2" d="M681,36.5h-25.6v11H669l-1.2,14.3l-12.3,3.3l0,0v11.5l0,0l22.6-6.3L681,36.5 M683,14.1h-27.7v11H682l0.2-2.5
	l0.5-5.6L683,14.1"/>
<path class="st10" d="M1090.8,350.9c0,6.4-5.2,11.5-11.6,11.5c-0.6,0-1.2,0-1.7-0.1c-1.9,3-4.2,5.8-6.8,8.3c-4,3.8-8.7,6.7-13.8,8.6
	l-0.9,0.3l-0.9-0.5c-6.2-3-9.4-10-7.5-16.6c-1-0.1-2-0.4-3-0.8c-0.3,0.6-0.6,1.3-1,2c-1.9,3.9-3.9,8-4.6,12.3
	c-0.8,4.7-1.1,13.4,5.6,18c2.8,2,6.1,3,9.5,3c6.4,0,13.2-3.4,20.7-7.1c5.7-2.8,11.5-5.7,17.5-7.2c2.3-0.6,4.6-0.9,6.9-1.2
	c4.2-0.6,8.2-1.2,11.5-3.1c3.5-2,6-5.5,6.7-9.5c0.5-2.9,0.1-6-1.3-8.6c-5.3,3.6-12.5,2.3-16.1-3c-1.3-1.9-2-4-2-6.3L1090.8,350.9
	 M1048.8,343.9c-3.9,0-7,3.1-7,7s3.1,7,7,7s7-3.1,7-7S1052.7,343.9,1048.8,343.9L1048.8,343.9 M1079.3,343.8c-3.9,0-7,3.1-7,7
	s3.1,7,7,7s7-3.1,7-7S1083.1,343.8,1079.3,343.8 M1109.6,343.8c-3.9,0-7,3.1-7,7s3.1,7,7,7s7-3.1,7-7S1113.5,343.8,1109.6,343.8
	 M1118.2,306.2h-48l11.3,33.3c0.5,0.1,1,0.2,1.5,0.4l11.2-22.7l11.2,22.8c0.5-0.2,1-0.3,1.4-0.5L1118.2,306.2"/>
<path class="st2" d="M1048.8,357.9c-3.9,0-7-3.1-7-7s3.1-7,7-7s7,3.1,7,7S1052.7,357.9,1048.8,357.9 M1079.2,357.9c-3.9,0-7-3.1-7-7
	s3.1-7,7-7s7,3.1,7,7S1083.1,357.9,1079.2,357.9 M1109.6,357.9c-3.9,0-7-3.1-7-7s3.1-7,7-7s7,3.1,7,7S1113.4,357.9,1109.6,357.9
	 M1090.8,350.9L1090.8,350.9c0-3.4-1.4-6.5-3.9-8.7l7.3-14.7l7.4,15c-2.3,2.2-3.6,5.2-3.6,8.4v0.2c0.1,6.4,5.4,11.5,11.7,11.4
	c2.3,0,4.6-0.8,6.4-2.1c1.3,2.7,1.8,5.7,1.3,8.6c-0.7,4-3.2,7.4-6.7,9.5c-3.3,1.9-7.3,2.5-11.5,3.1c-2.2,0.3-4.6,0.7-6.9,1.2
	c-6,1.5-11.9,4.4-17.5,7.2c-7.5,3.7-14.3,7.1-20.7,7.1c-3.4,0-6.7-1-9.5-3c-6.7-4.7-6.4-13.3-5.6-18c0.7-4.4,2.7-8.4,4.6-12.3
	c0.3-0.7,0.7-1.3,1-2c1,0.4,2,0.6,3,0.8c-1.9,6.6,1.3,13.6,7.4,16.6l0.9,0.5l0.9-0.3c5.2-1.9,9.9-4.8,13.8-8.6
	c2.6-2.5,4.9-5.3,6.8-8.3c0.6,0.1,1.2,0.1,1.7,0.1C1085.6,362.4,1090.8,357.2,1090.8,350.9 M1083,339.9c-0.5-0.2-1-0.3-1.5-0.4
	l-11.3-33.3h48l-11.3,33.4c-0.5,0.1-1,0.3-1.4,0.5l-11.2-22.8L1083,339.9 M1124.5,301.6h-60.7l12.8,37.9c-6.2,1.4-10.2,7.6-8.8,13.8
	c0.7,3,2.6,5.7,5.2,7.3c-1.6,2.4-3.5,4.6-5.6,6.6c-3.3,3.1-7.1,5.6-11.3,7.2c-4-2.4-5.8-7.4-4-11.7l0.1-0.3l0.3-0.6
	c6.1-2.1,9.3-8.7,7.2-14.8c-2.1-6.1-8.7-9.3-14.8-7.2c-6.1,2.1-9.3,8.7-7.2,14.8c0.6,1.7,1.5,3.2,2.8,4.5c-0.4,0.8-0.8,1.7-1.2,2.5
	c-2,4-4.2,8.5-5,13.6c-1.7,10,1,18,7.5,22.5c3.5,2.5,7.7,3.8,12,3.8c7.6,0,15.3-3.8,22.8-7.6c5.4-2.7,11-5.5,16.6-6.9
	c2.1-0.5,4.2-0.8,6.4-1.1c4.5-0.6,9.1-1.3,13.1-3.7c4.7-2.7,7.9-7.3,8.9-12.6c0.8-4.5-0.1-9-2.5-12.9c3.3-5.5,1.6-12.6-3.8-15.9
	c-1.2-0.7-2.5-1.2-3.9-1.5L1124.5,301.6"/>
<path class="st11" d="M203.5,584.5c-0.3,0-0.5,0.1-0.8,0.2l-19,11c-0.5,0.3-0.8,0.8-0.8,1.3v21.9c0,0.5,0.3,1.1,0.8,1.3l19,11
	c0.2,0.1,0.5,0.2,0.8,0.2c0.3,0,0.5-0.1,0.8-0.2l19-11c0.5-0.3,0.8-0.8,0.8-1.3V597c0-0.5-0.3-1.1-0.8-1.3l-19-11
	C204.1,584.6,203.8,584.5,203.5,584.5"/>
<path class="st12" d="M203.4,643.5c-0.3,0-0.6-0.1-0.8-0.2l-28.9-16.7c-0.5-0.3-0.8-0.8-0.9-1.4v-33.4c0-0.6,0.3-1.1,0.9-1.4
	l28.9-16.7c0.5-0.3,1.1-0.3,1.6,0l28.9,16.7c0.5,0.3,0.8,0.8,0.9,1.4v33.4c0,0.6-0.3,1.1-0.9,1.4l-28.9,16.7
	C203.9,643.4,203.6,643.5,203.4,643.5 M226,564.2h-45.4c-1.7,0.1-3.2,1-4,2.5L154,606.1c-0.8,1.4-0.8,3.2,0,4.7l22.7,39.2
	c0.8,1.4,2.4,2.2,4,2.2H226c1.6,0.1,3.2-0.8,4-2.1l22.7-39.2c0.8-1.4,0.8-3.1,0-4.5L230,566.7C229.2,565.2,227.7,564.3,226,564.2"/>
<path class="st13" d="M1037.8,93.6l-28,15.4v19.8l44.9-25.4L1037.8,93.6 M977.8,93.6l-16.9,9.8l44.9,25.4V109L977.8,93.6
	 M957.8,47.4v53.2l16.4-9.5V56.9L957.8,47.4 M1057.8,47.4l-16.4,9.5v34.2l16.4,9.5V47.4 M1005.8,17.9l-46,26.1l16.3,9.4l29.8-16.4
	L1005.8,17.9 M1009.9,17.9V37l29.8,16.4l16.3-9.4L1009.9,17.9"/>
<path class="st14" d="M978.2,60v30.1l27.6,15.2V76L978.2,60 M1037.5,60l-27.6,16v29.3l27.6-15.2V60 M1007.8,41.3l-27.7,15.3l27.7,16
	l27.7-16L1007.8,41.3"/>
<path class="st5" d="M329.3,441.5h-11.1l-11.1,13.9l-11.1-13.9H285v38.1h11.1v-21.8l11.1,13.9l11.1-13.9v21.8h11.1L329.3,441.5
	 M360.2,441.5h-11.1v19.7H338l16.6,18.4l0,0l16.6-18.7h-11.1L360.2,441.5 M276.7,490.7c-1.5,0-2.7-1.2-2.8-2.7c0,0,0-0.1,0-0.1
	v-54.7c0.1-1.5,1.3-2.7,2.8-2.8h99.1c1.5,0,2.7,1.2,2.8,2.7c0,0,0,0.1,0,0.1v54.7c0,1.5-1.2,2.7-2.7,2.8c0,0-0.1,0-0.1,0H276.7
	 M375.7,424.9h-99.1c-4.6,0.1-8.2,3.7-8.3,8.3v54.7c0.1,4.6,3.7,8.3,8.3,8.3h99.4c4.5-0.1,8.1-3.8,8-8.3c0,0,0,0,0-0.1v-54.7
	C384,428.6,380.3,424.9,375.7,424.9"/>
<path class="st15" d="M314.5,183.8v-4.1l17.5-0.1c9.6,0,17.5,0,17.5,0.1c0.1,1.4,0.2,2.7,0.1,4.1v4h-13v37h-9.2v-37h-13L314.5,183.8
	L314.5,183.8 M368.7,217.1c1.8,0.1,3.6-0.5,5-1.6c0.9-0.7,1.4-1.8,1.3-3c0.1-0.9-0.2-1.8-0.8-2.6c-0.8-1.1-2.4-2-6.9-4
	c-5.2-2.2-7.4-3.6-9.4-5.8c-1.2-1.5-2.2-3.2-2.8-5c-0.4-2.1-0.5-4.3-0.1-6.4c1.1-5,4.9-8.5,10.2-9.5c0.9-0.1,1.8-0.2,2.8-0.2
	c1.6,0,3.3,0.1,4.9,0.4v0.1c2.4,0.5,4.6,1.8,6.2,3.6c0.9,1,1.7,2,2.4,3.2c0,0.1-4.3,3.1-7,4.7l0,0c-0.1,0-0.5-0.4-0.9-1
	c-1-1.7-2.8-2.7-4.7-2.8h-0.5c-2.7,0-4.5,1.5-4.5,4c0,0.7,0.1,1.3,0.5,1.9c0.7,1.4,1.9,2.2,5.8,3.9c7.1,3.1,10.2,5.1,12.1,8
	c2.2,3.7,2.6,8.1,1.2,12.2c-1.6,4.2-5.5,7-11.1,7.9c-1.1,0.1-2.2,0.2-3.3,0.2c-1.4,0-2.9-0.1-4.3-0.3c-3.9-0.7-7.4-2.5-10.2-5.3
	c-1-1.2-1.9-2.5-2.6-3.9l1-0.6l3.8-2.2l2.8-1.6l0.6,0.9c1,1.4,2.2,2.7,3.7,3.7C365.5,216.7,367.1,217.1,368.7,217.1 M392.6,133.6
	h-100v100h100V133.6"/>
<path class="st2" d="M332,179.6l-17.5,0.1v4.1h-0.1v4.1h13v37h9.2v-37h13v-4c0.1-1.4,0-2.8-0.1-4.1
	C349.5,179.7,341.6,179.6,332,179.6 M368,179.1c-0.9,0-1.8,0-2.8,0.2c-5.4,1-9.2,4.5-10.2,9.5c-0.3,2.1-0.3,4.3,0.1,6.4
	c0.6,1.8,1.5,3.5,2.8,5c2,2.1,4.2,3.6,9.4,5.8c4.5,2,6.1,2.9,6.9,4c0.5,0.7,0.8,1.6,0.8,2.6c0,1.2-0.4,2.3-1.3,3
	c-1.4,1.1-3.2,1.7-5,1.6c-1.6,0-3.2-0.4-4.7-1.2c-1.5-1-2.7-2.2-3.8-3.6l-0.6-0.9l-2.8,1.6l-3.8,2.2l-1,0.6c0.7,1.4,1.6,2.7,2.6,3.9
	c2.8,2.8,6.3,4.6,10.2,5.3c1.4,0.2,2.9,0.3,4.3,0.3c1.1,0,2.2-0.1,3.3-0.2c5.6-0.9,9.5-3.8,11.1-7.9c1.4-4,1-8.5-1.2-12.2
	c-1.9-2.9-5-4.9-12.1-8c-3.9-1.7-5.1-2.5-5.8-3.9c-0.3-0.6-0.5-1.2-0.5-1.9c0-2.5,1.8-4,4.5-4h0.5c1.9,0.1,3.7,1.1,4.7,2.8
	c0.4,0.6,0.7,1,0.9,1l0,0c2.6-1.6,7-4.6,7-4.7c-0.7-1.2-1.5-2.2-2.4-3.2c-1.7-1.8-3.9-3-6.2-3.6v-0.1c-1.6-0.3-3.2-0.5-4.9-0.4"/>
<path class="st16" d="M218.5,45.7h-4.8c-1.3,0-2.4,1.1-2.4,2.4c0,1.3,1.1,2.4,2.4,2.4c0,0,0,0,0,0h4.8c1.3,0,2.4-1.1,2.4-2.4
	S219.9,45.7,218.5,45.7L218.5,45.7"/>
<path class="st17" d="M166.2,121.8h-23.8c-1.3,0-2.4,1.1-2.4,2.4c0,1.3,1.1,2.4,2.4,2.4h23.8c1.3,0,2.4-1.1,2.4-2.4
	C168.5,122.9,167.5,121.8,166.2,121.8L166.2,121.8"/>
<path class="st18" d="M213.8,83.8h-14.3c-1.3,0.1-2.3,1.2-2.2,2.5c0.1,1.2,1,2.2,2.2,2.2h14.3c1.3-0.1,2.3-1.2,2.2-2.5
	C215.9,84.8,215,83.8,213.8,83.8"/>
<path class="st17" d="M190,83.8h-19c-1.3-0.1-2.5,0.9-2.5,2.2c-0.1,1.3,0.9,2.5,2.2,2.5c0.1,0,0.2,0,0.3,0h19
	c1.3-0.1,2.3-1.2,2.2-2.5C192.2,84.8,191.2,83.8,190,83.8"/>
<path class="st16" d="M161.4,83.8h-19c-1.3,0.1-2.3,1.2-2.2,2.5c0.1,1.2,1,2.2,2.2,2.2h19c1.3-0.1,2.3-1.2,2.2-2.5
	C163.6,84.8,162.6,83.8,161.4,83.8"/>
<path class="st18" d="M166.2,102.8h-23.8c-1.3,0-2.4,1.1-2.4,2.4c0,1.3,1.1,2.4,2.4,2.4h23.8c1.3,0,2.4-1.1,2.4-2.4
	C168.5,103.9,167.5,102.8,166.2,102.8L166.2,102.8"/>
<path class="st18" d="M166.2,64.7h-23.8c-1.3,0-2.4,1.1-2.4,2.4c0,1.3,1.1,2.4,2.4,2.4h23.8c1.3,0,2.4-1.1,2.4-2.4
	C168.5,65.8,167.5,64.7,166.2,64.7L166.2,64.7"/>
<path class="st19" d="M213.8,36.1h-47.6c-1.3,0-2.4,1.1-2.4,2.4s1.1,2.4,2.4,2.4h47.6c1.3,0,2.4-1.1,2.4-2.4S215.1,36.1,213.8,36.1
	L213.8,36.1"/>
<path class="st17" d="M156.6,36.1h-14.3c-1.3,0-2.4,1.1-2.4,2.4s1.1,2.4,2.4,2.4h14.3c1.3,0,2.4-1.1,2.4-2.4S158,36.1,156.6,36.1
	L156.6,36.1"/>
<path class="st19" d="M166.2,112.3h-4.8c-1.3,0-2.4,1.1-2.4,2.4c0,1.3,1.1,2.4,2.4,2.4h4.8c1.3,0,2.4-1.1,2.4-2.4
	C168.5,113.4,167.5,112.3,166.2,112.3"/>
<path class="st16" d="M166.2,55.2h-4.8c-1.3,0-2.4,1.1-2.4,2.4s1.1,2.4,2.4,2.4h4.8c1.3,0,2.4-1.1,2.4-2.4S167.5,55.2,166.2,55.2"/>
<path class="st16" d="M151.9,112.3h-9.5c-1.3,0-2.4,1.1-2.4,2.4c0,1.3,1.1,2.4,2.4,2.4h9.5c1.3,0,2.4-1.1,2.4-2.4
	C154.3,113.4,153.2,112.3,151.9,112.3"/>
<path class="st19" d="M151.9,55.2h-9.5c-1.3,0-2.4,1.1-2.4,2.4s1.1,2.4,2.4,2.4h9.5c1.3,0,2.4-1.1,2.4-2.4S153.2,55.2,151.9,55.2"/>
<path class="st20" d="M209,112.3h-4.8c-1.3,0-2.4,1.1-2.4,2.4c0,1.3,1.1,2.4,2.4,2.4h4.8c1.3,0,2.4-1.1,2.4-2.4
	C211.4,113.4,210.3,112.3,209,112.3L209,112.3"/>
<path class="st20" d="M194.7,112.3h-19.1c-1.3,0-2.4,1.1-2.4,2.4c0,1.3,1.1,2.4,2.4,2.4h19.1c1.3,0,2.4-1.1,2.4-2.4
	C197.1,113.4,196.1,112.3,194.7,112.3L194.7,112.3"/>
<path class="st20" d="M237.6,112.3h-19.1c-1.3,0-2.4,1.1-2.4,2.4c0,1.3,1.1,2.4,2.4,2.4h19.1c1.3,0,2.4-1.1,2.4-2.4
	C240,113.4,238.9,112.3,237.6,112.3L237.6,112.3"/>
<path class="st16" d="M218.5,74.2h-38.1c-1.3,0-2.4,1.1-2.4,2.4c0,1.3,1.1,2.4,2.4,2.4h38.1c1.3,0,2.4-1.1,2.4-2.4
	C220.9,75.3,219.9,74.2,218.5,74.2L218.5,74.2"/>
<path class="st19" d="M170.9,74.2h-14.3c-1.3,0-2.4,1.1-2.4,2.4c0,1.3,1.1,2.4,2.4,2.4h14.3c1.3,0,2.4-1.1,2.4-2.4
	C173.3,75.3,172.2,74.2,170.9,74.2"/>
<path class="st17" d="M147.1,74.2h-4.8c-1.3,0-2.4,1.1-2.4,2.4c0,1.3,1.1,2.4,2.4,2.4h4.8c1.3,0,2.4-1.1,2.4-2.4
	C149.5,75.3,148.4,74.2,147.1,74.2"/>
<path class="st18" d="M204.3,45.7h-19c-1.3,0-2.4,1.1-2.4,2.4c0,1.3,1.1,2.4,2.4,2.4c0,0,0,0,0,0h19c1.3,0,2.4-1.1,2.4-2.4
	S205.6,45.7,204.3,45.7L204.3,45.7"/>
<path class="st16" d="M175.7,45.7h-33.3c-1.3,0-2.4,1.1-2.4,2.4c0,1.3,1.1,2.4,2.4,2.4c0,0,0,0,0,0h33.3c1.3,0,2.4-1.1,2.4-2.4
	S177,45.7,175.7,45.7"/>
<path class="st19" d="M199.5,93.3h-42.9c-1.3,0-2.4,1.1-2.4,2.4c0,1.3,1.1,2.4,2.4,2.4h42.9c1.3,0,2.4-1.1,2.4-2.4
	C201.9,94.3,200.8,93.3,199.5,93.3"/>
<path class="st18" d="M147.1,93.3h-4.8c-1.3,0-2.4,1.1-2.4,2.4c0,1.3,1.1,2.4,2.4,2.4h4.8c1.3,0,2.4-1.1,2.4-2.4
	C149.5,94.3,148.4,93.3,147.1,93.3"/>
<path class="st17" d="M223.3,55.2h-23.8c-1.3,0-2.4,1.1-2.4,2.4s1.1,2.4,2.4,2.4h23.8c1.3,0,2.4-1.1,2.4-2.4S224.6,55.2,223.3,55.2
	L223.3,55.2"/>
<path class="st19" d="M223.3,64.7h-23.8c-1.3,0-2.4,1.1-2.4,2.4c0,1.3,1.1,2.4,2.4,2.4h23.8c1.3,0,2.4-1.1,2.4-2.4
	C225.7,65.8,224.6,64.7,223.3,64.7L223.3,64.7"/>
<path class="st16" d="M199.5,26.6h-57.1c-1.3,0-2.4,1.1-2.4,2.4c0,1.3,1.1,2.4,2.4,2.4c0,0,0,0,0,0h57.1c1.3,0,2.4-1.1,2.4-2.4
	C201.9,27.7,200.8,26.6,199.5,26.6"/>
<path class="st20" d="M237.6,26.6H209c-1.3,0-2.4,1.1-2.4,2.4c0,1.3,1.1,2.4,2.4,2.4h28.6c1.3,0,2.4-1.1,2.4-2.4
	C239.9,27.7,238.9,26.6,237.6,26.6"/>
<path class="st20" d="M218.5,93.3H209c-1.3,0.2-2.2,1.4-2.1,2.7c0.1,1.1,1,1.9,2.1,2.1h9.5c1.3,0,2.4-1.1,2.4-2.4
	C220.9,94.3,219.8,93.2,218.5,93.3L218.5,93.3"/>
<path class="st20" d="M237.6,93.3h-9.5c-1.3,0-2.4,1.1-2.4,2.4c0,1.3,1.1,2.4,2.4,2.4l0,0h9.5c1.3,0,2.4-1.1,2.4-2.4
	C240,94.3,238.9,93.3,237.6,93.3L237.6,93.3"/>
<path class="st20" d="M237.6,83.8h-14.3c-1.3,0.1-2.3,1.2-2.2,2.5c0.1,1.2,1,2.2,2.2,2.2h14.3c1.3-0.1,2.3-1.2,2.2-2.5
	C239.7,84.8,238.8,83.8,237.6,83.8"/>
<path class="st20" d="M237.6,36.1h-14.3c-1.3,0-2.4,1.1-2.4,2.4s1.1,2.4,2.4,2.4h14.3c1.3,0,2.4-1.1,2.4-2.4S238.9,36.1,237.6,36.1
	L237.6,36.1"/>
<path class="st20" d="M237.6,74.2h-9.5c-1.3,0-2.4,1.1-2.4,2.4c0,1.3,1.1,2.4,2.4,2.4l0,0h9.5c1.3,0,2.4-1.1,2.4-2.4
	C240,75.3,238.9,74.2,237.6,74.2L237.6,74.2"/>
<path class="st20" d="M237.6,45.7h-9.5c-1.3,0-2.4,1.1-2.4,2.4c0,1.3,1.1,2.4,2.4,2.4c0,0,0,0,0,0h9.5c1.3,0,2.4-1.1,2.4-2.4
	S238.9,45.7,237.6,45.7L237.6,45.7"/>
<path class="st20" d="M237.6,55.2h-4.8c-1.3,0-2.4,1.1-2.4,2.4s1.1,2.4,2.4,2.4h4.8c1.3,0,2.4-1.1,2.4-2.4S238.9,55.2,237.6,55.2
	L237.6,55.2"/>
<path class="st20" d="M237.6,64.7h-4.8c-1.3,0-2.4,1.1-2.4,2.4c0,1.3,1.1,2.4,2.4,2.4h4.8c1.3,0,2.4-1.1,2.4-2.4
	C240,65.8,238.9,64.7,237.6,64.7L237.6,64.7"/>
<path class="st20" d="M237.6,102.8h-42.8c-1.3,0-2.4,1.1-2.4,2.4c0,1.3,1.1,2.4,2.4,2.4h42.8c1.3,0,2.4-1.1,2.4-2.4
	C240,103.9,238.9,102.8,237.6,102.8L237.6,102.8"/>
<path class="st20" d="M185.2,102.8h-9.5c-1.3,0-2.4,1.1-2.4,2.4c0,1.3,1.1,2.4,2.4,2.4h9.5c1.3,0,2.4-1.1,2.4-2.4
	C187.6,103.9,186.5,102.8,185.2,102.8"/>
<path class="st20" d="M237.6,121.8h-23.8c-1.3,0-2.4,1.1-2.4,2.4c0,1.3,1.1,2.4,2.4,2.4h23.8c1.3,0,2.4-1.1,2.4-2.4
	C240,122.9,238.9,121.8,237.6,121.8L237.6,121.8"/>
<path class="st20" d="M204.3,121.8h-28.6c-1.3,0-2.4,1.1-2.4,2.4c0,1.3,1.1,2.4,2.4,2.4h28.6c1.3,0,2.4-1.1,2.4-2.4
	C206.6,122.9,205.6,121.8,204.3,121.8"/>
<path class="st20" d="M190,55.2h-14.3c-1.3,0-2.4,1.1-2.4,2.4s1.1,2.4,2.4,2.4H190c1.3,0,2.4-1.1,2.4-2.4S191.3,55.2,190,55.2"/>
<path class="st20" d="M190,64.7h-14.3c-1.3,0-2.4,1.1-2.4,2.4c0,1.3,1.1,2.4,2.4,2.4H190c1.3,0,2.4-1.1,2.4-2.4
	C192.4,65.8,191.3,64.7,190,64.7"/>
<path class="st21" d="M980.4,599.5c0.3-1.3,0.8-2.5,1.4-3.6c0.5-1.1,1.5-2,2.7-2.4c0.9-0.3,1.6-0.8,2.3-1.5c2.2-2.3,5.2-3.7,8.4-4
	c0.5,0,0.9-0.3,1-0.8c0.5-1.2,1.1-2.3,1.9-3.4c0.9-1.3,2.3-2.2,3.9-2.2h0.3c1.1,0,2.2,0.6,2.8,1.5c0.8,1.1,1.5,2.2,2,3.4
	c0.1,0.3,0.3,0.5,0.5,0.5h0.3c0.3-0.1,0.6-0.1,0.9-0.1c1.3,0,2.5,0.8,3,2.1c0.8,1.9,1.3,3.9,1.5,5.9c0.9,6.7-0.8,13.6-4.7,19.1
	c-0.2,0.2-0.2,0.4,0,0.7c3.8,4.1,5.8,9.6,5.5,15.2v0.4l0,0c0.2,0,0.5-0.1,0.7-0.3c1.7-0.9,3.2-2,5-2.8c2.3-1.3,4.9-1.9,7.6-2h0.1
	c2.9-0.1,5.4,2.1,5.5,5c0,0.9-0.1,1.7-0.5,2.5c-0.6,1.4-1.8,2.4-3.2,2.7c-2.7,0.7-5.2,1.8-7.5,3.4c-3.8,2.5-8,4.5-12.4,5.9
	c-0.3,0.1-0.6,0.2-0.8,0.4c-1.2,0.8-2.6,1.3-4,1.4c-4.3,0.6-8.7,0.9-13,1h-0.6c-1.6,0-3.2-0.3-4.5-1.1c-0.4-0.3-0.8-0.8-1.2-0.8H985
	c-0.4,0-0.8,0.3-1.3,0.5c-2.7,0.6-5.5,0.1-7.8-1.4c-1.4-0.8-2.1-2.3-2-3.9c0-0.4-0.1-0.8-0.4-1.1c-1.1-1.6-1.8-3.5-2-5.4
	c-0.6-3.8,0.8-7,3.3-9.8c0.2-0.2,0.3-0.5,0.3-0.9c-0.1-3.8,0.8-7.5,2.7-10.8c1.1-1.8,2.5-3.5,4.1-4.9c0.3-0.2,0.3-0.5,0.2-0.7
	c0,0,0,0,0-0.1c-0.6-1.1-1.1-2.3-1.5-3.6l0,0c0,0,0,0.2-0.1,0.2s0,0,0,0c-0.1-0.3-0.2-0.6-0.2-0.9c-0.1-1.1,0-2.1,0.2-3.2
	L980.4,599.5 M998.9,564.6c-27.6-0.3-50.3,21.8-50.6,49.4s21.8,50.3,49.4,50.6h1.2c27.6,0,50-22.4,50-50S1026.5,564.6,998.9,564.6
	L998.9,564.6"/>
<path class="st22" d="M997.4,590.8c0.3,0,0.6-0.2,0.6-0.5c0.5-1.4,1.1-2.8,1.9-4.1c0.3-0.5,0.7-0.9,1.1-1.3c0.3-0.3,0.6-0.4,1-0.4
	c0.5,0,0.9,0.3,1.1,0.8c1,1.6,1.8,3.3,2.6,5.1c0.1,0.3,0.2,0.5,0.4,0.5c0.1,0,0.3-0.1,0.4-0.2c0.5-0.3,1.1-0.6,1.7-0.8
	c0.1,0,0.2-0.1,0.4-0.1c0.3,0,0.5,0.2,0.6,0.5c0.6,1.5,1,3,1.1,4.6c0.1,0.4,0.1,0.9,0.1,1.3l0,0l0,0c0.1,1.4,0.1,2.8,0,4.1l0,0
	c-0.1,2.6-0.7,5.1-1.8,7.4c-1,2.2-2.2,4.3-3.7,6.2c-0.5,0.8-0.5,0.8,0.2,1.4c3.3,3,5.4,7,5.9,11.4c0,0.2,0,0.4,0,0.5l0,0l0,0
	c0.1,1,0.1,2,0,3l0,0c-0.1,1-0.2,2-0.4,3c-0.1,0.7,0,0.9,0.3,0.9c0.2,0,0.3,0,0.5-0.1c1.9-0.4,3.8-1.1,5.5-2.1
	c1.8-1.1,3.6-2.1,5.5-3c1.5-0.6,3.1-1,4.7-1c1.3-0.1,2.4,0.7,2.6,2c0.2,1.1-0.5,2.2-1.6,2.5c-3.2,0.8-6.2,2.2-8.8,4.1
	c-3.7,2.3-7.7,4.1-11.8,5.4c-0.2,0-0.3,0.1-0.5,0.2c-1,0.9-2.3,1.4-3.6,1.4c-3.7,0.5-7.4,0.7-11.1,0.9c-0.5,0-0.9,0-1.4,0
	c-0.6,0-1.2,0-1.8-0.2c-1.7-0.3-2.4-1-2.7-2.4c-0.2-1.3,0.4-2.6,1.6-3.3l0.5-0.3c-0.7-0.4-1.2-0.9-1.7-1.5c-0.1-0.1-0.1-0.2-0.2-0.2
	s-0.2,0.1-0.2,0.3l-0.6,2.4c-0.1,0.5-0.3,1-0.5,1.5c-0.6,1.4-1.9,2.3-3.3,2.3h-0.7c-1.3,0-2.6-0.3-3.8-0.9c-0.9-0.3-1.3-1.3-1-2.1
	c0,0,0-0.1,0-0.1c0.2-0.6,0.5-1.1,0.9-1.6c-0.2,0-0.3,0-0.5,0c-1,0-1.5-0.7-1.9-1.5c-1-2-1.4-4.2-1-6.4c0.4-1.7,1.3-3.3,2.6-4.5
	c0.7-0.6,1-1.5,0.9-2.5c-0.3-5.7,2.2-11.1,6.7-14.6c0.4-0.3,0.8-0.7,1.2-1c0.3-0.2,0.3-0.3,0.1-0.6c-1.2-1.4-2.1-3.2-2.5-5
	c-0.4-2,0.1-4.1,1.3-5.8c0.2-0.2,0.4-0.4,0.7-0.5c1.3-0.5,2.5-1.2,3.5-2.2c2.1-2.1,4.9-3.3,7.9-3.2L997.4,590.8 M1001.9,581.6
	c-1.6,0.1-3.1,0.9-3.9,2.2c-0.8,1-1.4,2.2-1.9,3.4c-0.1,0.4-0.5,0.7-1,0.8c-3.2,0.3-6.2,1.7-8.4,4c-0.6,0.7-1.4,1.2-2.3,1.5
	c-1.2,0.4-2.1,1.3-2.7,2.4c-0.6,1.2-1.1,2.4-1.4,3.6l0,0c0,0.1,0,0.2,0,0.3l0,0c0,0.1,0,0.3,0,0.4c0,0,0,0.1,0,0.1v1.4
	c0,0,0,0,0,0.1c0,0.2,0,0.4,0,0.5l0,0c0.1,0.3,0,0.6,0.1,0.8l0,0c0.3,1.3,0.8,2.5,1.5,3.6c0.2,0.2,0.2,0.6-0.1,0.8c0,0,0,0-0.1,0
	c-1.6,1.4-3,3.1-4.1,4.9c-1.9,3.3-2.8,7-2.7,10.8c0,0.3-0.1,0.6-0.3,0.9c-2.5,2.8-3.9,6-3.3,9.8c0.2,1.9,0.9,3.8,2,5.4
	c0.3,0.3,0.4,0.7,0.4,1.1c-0.1,1.6,0.6,3.1,2,3.9c2.3,1.5,5.1,2,7.8,1.4c0.4-0.1,0.9-0.5,1.3-0.5h0.1c0.4,0.1,0.8,0.6,1.2,0.8
	c1.4,0.8,3,1.2,4.5,1.1h0.6c4.3-0.2,8.7-0.4,13-1c1.4-0.1,2.8-0.6,4-1.4c0.2-0.2,0.5-0.3,0.8-0.4c4.4-1.4,8.5-3.4,12.4-5.9
	c2.3-1.6,4.8-2.7,7.5-3.4c1.5-0.3,2.7-1.3,3.2-2.7c1.2-2.6,0.1-5.8-2.5-7c-0.8-0.4-1.6-0.5-2.5-0.5h-0.1c-2.6,0.1-5.2,0.7-7.6,2
	c-1.7,0.9-3.3,2-5,2.8c-0.2,0.1-0.4,0.2-0.7,0.3l0,0v-0.4c0.3-5.6-1.7-11.1-5.5-15.2c-0.2-0.3-0.2-0.4,0-0.7
	c4-5.5,5.6-12.4,4.7-19.1c-0.2-2-0.7-4-1.5-5.9c-0.5-1.2-1.7-2.1-3-2.1c-0.3,0-0.6,0-0.9,0.1h-0.3c-0.3,0-0.4-0.2-0.5-0.5
	c-0.5-1.2-1.2-2.3-2-3.4c-0.7-0.9-1.7-1.5-2.8-1.5h-0.2"/>
<path class="st23" d="M980.4,599.3c-0.2,1-0.3,2.1-0.2,3.2c0,0.3,0.1,0.6,0.2,0.9v0c0,0,0-0.1,0.1-0.2l0,0c-0.2-0.3,0-0.6-0.1-0.8
	l0,0c-0.2-0.2-0.1-0.4-0.1-0.6v0.1c0,0,0,0,0-0.1v-1.4c0,0,0-0.1,0-0.1c0,0,0,0.1,0,0.1c0-0.2-0.1-0.4,0.1-0.6l0,0
	c0-0.1,0-0.2,0-0.3l0,0L980.4,599.3"/>
<path class="st21" d="M1002,584.5c-0.4,0-0.7,0.2-1,0.4c-0.4,0.4-0.8,0.8-1.1,1.3c-0.8,1.3-1.4,2.7-1.9,4.1c0,0.3-0.3,0.5-0.6,0.5
	h-0.7c-3,0-5.8,1.1-7.9,3.2c-1,1-2.2,1.8-3.5,2.2c-0.3,0.1-0.5,0.2-0.7,0.5c-1.2,1.7-1.7,3.7-1.3,5.8c0.5,1.8,1.3,3.6,2.5,5
	c0.2,0.3,0.2,0.4-0.1,0.6c-0.4,0.3-0.8,0.7-1.2,1c-4.5,3.5-7,8.9-6.7,14.6c0.1,0.9-0.3,1.8-0.9,2.5c-1.3,1.2-2.2,2.7-2.6,4.5
	c-0.4,2.2,0,4.4,1,6.4c0.4,0.8,0.9,1.5,1.9,1.5c0.2,0,0.3,0,0.5,0c-0.4,0.5-0.7,1-0.9,1.6c-0.4,0.8,0,1.8,0.8,2.2c0,0,0.1,0,0.1,0
	c1.2,0.6,2.4,0.9,3.8,0.9h0.7c1.5,0,2.8-0.9,3.3-2.3c0.2-0.5,0.4-1,0.5-1.5l0.6-2.4c0-0.2,0.1-0.3,0.2-0.3s0.1,0,0.2,0.2
	c0.4,0.6,1,1.1,1.7,1.5l-0.5,0.3c-1.2,0.6-1.8,1.9-1.6,3.3c0.3,1.4,1,2,2.7,2.4c0.6,0.1,1.2,0.2,1.8,0.2c0.5,0,0.9,0,1.4,0
	c3.7-0.2,7.4-0.4,11.1-0.9c1.3,0,2.6-0.5,3.6-1.4c0.1-0.1,0.3-0.2,0.5-0.2c4.2-1.3,8.2-3.1,11.8-5.4c2.7-1.9,5.6-3.3,8.8-4.1
	c1.1-0.3,1.8-1.3,1.6-2.5c-0.2-1.3-1.3-2.1-2.6-2c-1.6,0-3.2,0.4-4.7,1c-1.9,0.9-3.8,1.9-5.5,3c-1.7,1-3.5,1.7-5.5,2.1
	c-0.2,0-0.3,0.1-0.5,0.1c-0.4,0-0.4-0.2-0.3-0.9c0.2-1,0.3-2,0.4-3l0,0c-0.1-0.8-0.1-1.7-0.1-2.5c0-0.2,0-0.3,0.1-0.5l0,0
	c0-0.2,0-0.4,0-0.5c-0.5-4.4-2.6-8.5-5.9-11.4c-0.7-0.6-0.7-0.6-0.2-1.4c1.4-1.9,2.7-4,3.7-6.2c1.1-2.3,1.7-4.9,1.8-7.4l0,0
	c-0.1-0.1-0.1-0.3-0.1-0.4v-3.3c0-0.1,0-0.3,0.1-0.4l0,0c0-0.4,0-0.9-0.1-1.3c-0.2-1.6-0.5-3.1-1.1-4.6c-0.2-0.4-0.3-0.5-0.6-0.5
	c-0.1,0-0.3,0-0.4,0.1c-0.6,0.2-1.2,0.5-1.7,0.8c-0.1,0.1-0.2,0.1-0.4,0.2c-0.2,0-0.3-0.2-0.4-0.5c-0.7-1.7-1.6-3.4-2.6-5.1
	C1002.9,585,1002.5,584.7,1002,584.5"/>
<path class="st24" d="M1010.4,596.2L1010.4,596.2c-0.1,0.1-0.1,0.2-0.1,0.4v3.4c0,0.1,0,0.3,0.1,0.4l0,0
	C1010.6,599,1010.6,597.6,1010.4,596.2"/>
<path class="st25" d="M1011.1,627.4L1011.1,627.4c-0.1,0.1-0.1,0.3-0.1,0.5c0,0.8,0,1.7,0.1,2.5l0,0
	C1011.3,629.4,1011.3,628.4,1011.1,627.4"/>
<path class="st21" d="M980.3,601.8c0,0.2-0.1,0.4,0.1,0.6l0,0C980.4,602.3,980.4,602.1,980.3,601.8L980.3,601.8 M980.5,599.8
	c-0.2,0.2-0.1,0.4-0.1,0.6c0,0,0-0.1,0-0.1C980.4,600.2,980.4,600,980.5,599.8L980.5,599.8"/>
<path class="st26" d="M431.6,299.5c0.6,1.3,0.1,3-1.3,3.6c-0.1,0-0.2,0.1-0.3,0.1c-13.7,4.9-23.5,17.5-23.5,32.2v2.7h-15.5v-2.7
	c0-20.9,13.7-38.7,33-45.8c1.3-0.5,2.8,0.1,3.4,1.4L431.6,299.5z"/>
<rect x="391.1" y="343.3" class="st26" width="15.5" height="41.2"/>
<path class="st26" d="M494.2,335.4v2.7h-15.5v-2.7c0-14.8-9.8-27.3-23.5-32.2c-1.4-0.5-2.1-2-1.7-3.4c0-0.1,0.1-0.2,0.1-0.3l4.1-8.5
	c0.6-1.3,2.1-1.9,3.4-1.4C480.5,296.7,494.2,314.5,494.2,335.4z"/>
<rect x="478.7" y="343.3" class="st26" width="15.5" height="41.2"/>
<path class="st27" d="M452.5,282.1c1.5,0.2,2.5,1.6,2.3,3c0,0,0,0,0,0c0,0.3-0.1,0.5-0.2,0.8l-0.7,1.5l-5.7,12
	c-0.5,1-1.5,1.6-2.6,1.5c-0.9,0-1.9-0.1-2.8-0.1s-1.9,0-2.8,0.1c-1.1,0.1-2.1-0.5-2.6-1.5l-5.7-12l-0.7-1.5c-0.6-1.3-0.1-3,1.3-3.6
	c0,0,0,0,0,0c0.2-0.1,0.5-0.2,0.8-0.2C439.4,281.2,445.9,281.2,452.5,282.1L452.5,282.1z"/>
<path class="st27" d="M473.6,335.4v49.1h-15.5v-49.1c0-8.1-6.9-14.7-15.5-14.7s-15.5,6.6-15.5,14.7v49.1h-15.5v-49.1
	c0-16.3,13.9-29.4,30.9-29.4S473.6,319.1,473.6,335.4z"/>
<path class="st26" d="M584.2,379c-2.2-1-4.2-2.4-5.7-4.3L555.1,348c7-1.3,12.1-3.8,15.4-7.5c2.4-2.9,4-6.4,4.5-10.1
	c0.2-1.3,0.3-2.5,0.3-3.8c0-6.1-2.6-10.8-7.9-14.3s-12.8-5.1-22.5-5.1h-34.7v4c1.7,0.1,3.4,0.3,5,0.7c1.1,0.2,2.1,0.8,2.9,1.7
	c0.7,1,1.2,2.2,1.3,3.4c0.2,1.9,0.3,3.8,0.3,5.7V369c0,1.9-0.1,3.9-0.4,5.8c-0.2,1.3-0.7,2.5-1.5,3.5c-0.9,0.9-2,1.5-3.2,1.7
	c-1.8,0.3-3.6,0.5-5.4,0.5v4H549v-4c-2.6,0-5.1-0.1-7.7-0.5c-1.6-0.2-3.1-0.8-4.4-1.8c-1.1-1-1.8-2.3-2-3.7c-0.4-2-0.5-4-0.5-6.1
	v-19.7c1.2,0,2.4,0.4,3.5,1c1.7,1.1,3.1,2.6,4.3,4.2l24.9,30.5h23.8v-4C588.6,380.5,586.3,380,584.2,379z M540.9,342.8h-6.5v-28.3
	c0-1.1,0.6-1.7,1.8-1.7h8.7c4.6,0,8.2,1.3,10.8,3.9c2.7,2.8,4.1,6.5,3.9,10.3c0,1.1-0.1,2.2-0.2,3.3c-0.5,3.9-2,6.8-4.5,8.8
	C551.9,341.6,547.2,342.8,540.9,342.8z"/>
<path class="st26" d="M647.2,346.5c-1.5-3.3-3.7-6.2-6.4-8.5c-2.8-2.4-6-4.4-9.4-5.7c-2.6-1-5.4-1.7-8.2-1.9c-1-0.1-2.1-0.1-3.2-0.1
	s-2.1,0-3.2,0.1c-2.7,0.3-5.4,0.9-8,1.8c-3.4,1.3-6.6,3.2-9.3,5.6c-2.7,2.4-4.8,5.3-6.3,8.6c-1.5,3.4-2.3,7.2-2.3,10.9
	c0,3.9,0.7,7.7,2.3,11.3c1.5,3.4,3.6,6.4,6.3,8.9c3.7,3.4,8.3,5.8,13.2,7c4.8,1.1,9.9,1.1,14.7,0c1.4-0.3,2.7-0.7,4-1.2
	c3.5-1.3,6.7-3.3,9.4-5.8c2.7-2.5,4.9-5.5,6.4-8.8c1.6-3.5,2.4-7.4,2.3-11.2C649.7,353.7,648.9,349.9,647.2,346.5z M632.9,366.4
	c-0.6,2.4-1.5,4.7-2.8,6.9c-1.1,1.8-2.6,3.3-4.4,4.4c-1.7,1-3.7,1.6-5.7,1.5c-2,0-3.9-0.5-5.6-1.6c-1.7-1.1-3.2-2.6-4.2-4.4
	c-1.3-2.1-2.2-4.4-2.7-6.8c-0.7-3-1-6-1-9c0-3,0.3-5.9,1-8.8c0.5-2.4,1.5-4.7,2.7-6.7c1.1-1.8,2.5-3.3,4.3-4.4
	c1.7-1,3.6-1.6,5.5-1.6c2,0,4,0.5,5.7,1.6c1.8,1.1,3.3,2.6,4.4,4.4c1.3,2.1,2.2,4.4,2.8,6.8c0.7,2.9,1,5.8,1,8.7
	C633.9,360.5,633.6,363.5,632.9,366.4L632.9,366.4z"/>
<path class="st26" d="M754.7,379.9c-1.1-0.2-2-0.8-2.6-1.7c-0.7-1.1-1.1-2.4-1.2-3.7c-0.2-1.6-0.2-3.8-0.2-6.5v-15.4
	c0.1-3.5-0.3-6.9-1-10.3c-0.5-2.2-1.5-4.3-3-6c-1.9-2-4.3-3.5-7-4.3c-3.4-1.1-6.9-1.6-10.5-1.5c-3.7,0-7.4,0.8-10.7,2.4
	c-3.3,1.5-6.3,3.8-8.6,6.6h-0.4c-1.4-2.8-3.7-5.1-6.5-6.6c-6.6-3-14.1-3.1-20.8-0.3c-3.2,1.7-6.1,3.9-8.5,6.7h-0.6l-1.2-8.7
	l-19.3,3.8v3.4c1.6,0,2.9,0,3.9,0.1c0.8,0.1,1.7,0.3,2.5,0.6c0.6,0.3,1.1,0.7,1.4,1.2c0.3,0.6,0.6,1.3,0.8,2.1
	c0.4,1.7,0.5,3.5,0.5,5.2c0.1,2.5,0.2,5.7,0.2,9.5v12.4c0,2-0.1,4-0.3,6.1c-0.1,1.2-0.5,2.4-1.2,3.5c-0.7,0.8-1.6,1.4-2.7,1.6
	c-1.6,0.3-3.2,0.5-4.8,0.6v4h31.7v-4c-1.6-0.1-3.2-0.3-4.7-0.6c-1-0.2-2-0.8-2.6-1.6c-0.7-1.1-1.1-2.4-1.1-3.7
	c-0.1-1.6-0.2-3.8-0.2-6.6v-13.2c0-2.2,0.2-4.3,0.7-6.4c0.4-1.9,1.1-3.8,2-5.5c0.8-1.7,2.1-3.2,3.6-4.3c1.6-1.1,3.5-1.7,5.5-1.6
	c1.9,0,3.8,0.3,5.5,1c1.5,0.7,2.7,1.8,3.6,3.1c1,1.8,1.7,3.8,2,5.8c0.4,2.9,0.6,5.9,0.6,8.8v13.1c0,2-0.1,4.1-0.3,6.1
	c-0.1,1.2-0.5,2.4-1.2,3.5c-0.7,0.8-1.6,1.4-2.7,1.6c-1.6,0.3-3.2,0.5-4.8,0.6v4h31.8v-4c-1.6-0.1-3.3-0.3-4.9-0.6
	c-1.1-0.2-2-0.8-2.7-1.7c-0.7-1.1-1.1-2.4-1.1-3.7c-0.1-1.6-0.2-3.8-0.2-6.5v-13.3c-0.1-4.1,0.8-8.1,2.7-11.7
	c0.9-1.7,2.2-3.2,3.8-4.4c1.7-1.2,3.7-1.8,5.8-1.7c1.8-0.1,3.6,0.3,5.2,1c1.5,0.7,2.7,1.8,3.4,3.2c1,1.8,1.6,3.8,1.9,5.8
	c0.4,2.9,0.6,5.9,0.6,8.8v13.1c0,2-0.1,4-0.2,6c-0.1,1.2-0.5,2.4-1.2,3.5c-0.7,0.9-1.6,1.5-2.7,1.7c-1.6,0.4-3.2,0.5-4.8,0.5v4h31.7
	v-4C757.9,380.4,756.3,380.2,754.7,379.9z"/>
<path class="st26" d="M812.8,349.6c-0.4-5.7-2.4-10.3-5.8-13.6c-3.3-3.2-7.7-5-13.2-5.6c-1.1-0.1-2.2-0.1-3.3-0.1s-2.2,0-3.3,0.1
	c-2.8,0.2-5.6,0.9-8.3,2c-3.4,1.3-6.5,3.3-9.1,5.9c-2.6,2.5-4.6,5.6-6,8.9c-1.4,3.6-2.2,7.5-2.1,11.4c-0.1,3.7,0.6,7.4,2,10.9
	c2.6,6.5,7.7,11.6,14.3,14c1.2,0.4,2.4,0.8,3.6,1.1c2.5,0.6,5.1,0.9,7.7,0.9c2.5,0,5-0.3,7.5-0.9c6-1.5,11.4-4.8,15.3-9.6l-2.8-3.5
	c-2.4,2.2-5.1,4-8.1,5.4c-2.6,1.2-5.5,1.9-8.4,1.9c-4.6,0.2-8.9-2-11.6-5.7c-2.8-3.8-4.2-9-4.2-15.5c-0.1-1.1,0.1-2.2,0.4-3.3h32.3
	c1,0.1,1.9,0,2.8-0.4c0.2-0.2,0.4-0.5,0.4-0.9c0.1-0.4,0.1-0.7,0.1-1.1C812.9,351.2,812.9,350.4,812.8,349.6z M797.8,348.2
	c-1.7,0.4-3.4,0.6-5.2,0.5h-14.5c0.5-3.4,2-6.5,4.4-9.1c1.9-2.2,4.7-3.5,7.7-3.6c2.4,0,4.7,1,6.3,2.8c1.7,2,2.6,4.6,2.5,7.2
	C798.9,347.2,798.5,347.9,797.8,348.2L797.8,348.2z"/>
<g>
	<rect x="784.7" y="455.8" class="st28" width="100" height="100"/>
	<path class="st29" d="M851.8,533.9c2,3.3,4.6,5.7,9.3,5.7c3.9,0,6.4-1.9,6.4-4.6c0-3.2-2.6-4.4-6.8-6.2l-2.3-1
		c-6.8-2.9-11.3-6.5-11.3-14.2c0-7,5.4-12.4,13.8-12.4c6,0,10.3,2.1,13.4,7.5l-7.3,4.7c-1.6-2.9-3.3-4-6-4c-2.8,0-4.5,1.7-4.5,4
		c0,2.8,1.7,4,5.8,5.7l2.3,1c8,3.4,12.5,6.9,12.5,14.8c0,8.5-6.6,13.1-15.6,13.1c-8.7,0-14.4-4.2-17.1-9.6L851.8,533.9z
		 M818.6,534.7c1.5,2.6,2.8,4.8,6,4.8c3.1,0,5-1.2,5-5.9v-32h9.4v32.1c0,9.7-5.7,14.2-14,14.2c-7.5,0-11.9-3.9-14.1-8.6L818.6,534.7
		z"/>
</g>
</svg>
