<?xml version="1.0" encoding="utf-8"?>
<!-- Generator: Adobe Illustrator 25.0.1, SVG Export Plug-In . SVG Version: 6.00 Build 0)  -->
<svg version="1.1" id="Layer_1" xmlns="http://www.w3.org/2000/svg" xmlns:xlink="http://www.w3.org/1999/xlink" x="0px" y="0px"
	 width="1200px" height="818.8px" viewBox="0 0 1200 818.8" style="enable-background:new 0 0 1200 818.8;" xml:space="preserve">
<style type="text/css">
	.st0{fill:#2C2C2F;}
	.st1{fill:#2A2A2B;}
	.st2{fill:#272728;}
	.st3{opacity:0.5;}
	.st4{fill:#007ACC;}
	.st5{fill:#FFFFFF;}
	.st6{fill:#2062AF;}
	.st7{fill:#3C9CD7;}
	.st8{fill:#F9DC3E;}
	.st9{fill:#7E7F7F;}
	.st10{fill:#E44D26;}
	.st11{fill:#F16529;}
	.st12{fill:#C63D14;}
	.st13{fill:#8080F2;}
	.st14{fill:#4B32C3;}
	.st15{fill:#8ED6FB;}
	.st16{fill:#1C78C0;}
	.st17{fill:#3398C2;}
	.st18{fill:#FEFEFE;}
	.st19{fill:#3298C3;}
	.st20{fill:#2B95C1;}
	.st21{fill:#2693BF;}
	.st22{fill:#56B3B4;}
	.st23{fill:#EA5E5E;}
	.st24{fill:#BF85BF;}
	.st25{fill:#F7BA3E;}
	.st26{opacity:0.5;fill:#D0D4D8;enable-background:new    ;}
	.st27{fill:#FFC905;}
	.st28{fill:#F7DF1E;}
</style>
<rect x="-4.6" y="-9.1" class="st0" width="1207.6" height="827.8"/>
<circle class="st1" cx="599.5" cy="337.9" r="480.9"/>
<circle class="st2" cx="600" cy="338.2" r="294.3"/>
<g class="st3">
	<path class="st4" d="M292.5,183.6v-50h100v100h-100"/>
	<path class="st5" d="M314.4,183.8v4.1h13v37h9.2v-37h13v-4c0.1-1.4,0-2.8-0.1-4.1c0-0.1-7.9-0.1-17.5-0.1l-17.5,0.1L314.4,183.8
		L314.4,183.8L314.4,183.8z M372.8,179.6c2.4,0.5,4.6,1.8,6.2,3.6c0.9,1,1.7,2,2.4,3.2c0,0.1-4.3,3.1-7,4.7c-0.1,0.1-0.5-0.4-0.9-1
		c-1-1.7-2.8-2.7-4.7-2.8c-3-0.2-5,1.4-5,4c0,0.7,0.1,1.3,0.5,1.9c0.7,1.4,1.9,2.2,5.8,3.9c7.1,3.1,10.2,5.1,12.1,8
		c2.2,3.7,2.6,8.1,1.2,12.2c-1.6,4.2-5.5,7-11.1,7.9c-2.5,0.3-5.1,0.3-7.6-0.1c-3.9-0.7-7.4-2.5-10.2-5.3c-1-1.2-1.9-2.5-2.6-3.9
		l1-0.6l3.8-2.2l2.8-1.6l0.6,0.9c1,1.4,2.3,2.7,3.8,3.6c3.2,1.7,7.6,1.4,9.8-0.5c0.9-0.7,1.4-1.8,1.3-3c0.1-0.9-0.2-1.8-0.8-2.6
		c-0.8-1.1-2.4-2-6.9-4c-5.2-2.2-7.4-3.6-9.4-5.8c-1.2-1.5-2.2-3.2-2.8-5c-0.4-2.1-0.5-4.3-0.1-6.4c1.1-5,4.9-8.5,10.2-9.5
		c2.5-0.3,5.1-0.2,7.6,0.2v0.1L372.8,179.6z"/>
</g>
<g class="st3">
	<path class="st5" d="M376.1,496.2h-99.4c-4.6-0.1-8.3-3.8-8.3-8.3v-54.7c0.1-4.6,3.7-8.2,8.3-8.3h99.1c4.6,0.1,8.2,3.7,8.3,8.3
		v54.7C384.2,492.4,380.6,496.1,376.1,496.2C376.1,496.2,376.1,496.2,376.1,496.2z M276.7,430.4c-1.5,0.1-2.7,1.3-2.8,2.8v54.7
		c0,1.5,1.2,2.7,2.7,2.8c0,0,0.1,0,0.1,0h99.1c1.5,0,2.7-1.2,2.8-2.7c0,0,0-0.1,0-0.1v-54.7c0-1.5-1.2-2.7-2.7-2.8c0,0-0.1,0-0.1,0
		L276.7,430.4z M285,479.6v-38.1h11.1l11.1,13.9l11.1-13.9h11.1v38.1h-11.1v-21.8l-11.1,13.9l-11.1-13.9v21.8L285,479.6z
		 M354.6,479.6L338,461.2h11.1v-19.7h11.1v19.4h11.1L354.6,479.6L354.6,479.6z"/>
</g>
<g class="st3">
	<path class="st6" d="M576.4,664.5l-36.1,9.7l-36.1-9.7l-8.3-90.3h88.9L576.4,664.5z"/>
	<path class="st7" d="M540.3,581.6v84.9h0.1l29.2-7.9l6.7-77.1L540.3,581.6z"/>
	<path class="st5" d="M540.2,604.1l-25.8,10.8l0.9,10.7l25-10.7l26.6-11.4l1.1-10.9L540.2,604.1L540.2,604.1z"/>
	<path class="st5" d="M514.4,614.9l0.9,10.7l38.3,0.1l-0.8,14.2l-12.6,3.5l-12.2-3.1l-0.7-8.8H516l1.5,17l22.8,6.7l22.8-6.6
		l2.9-33.8H514.4z"/>
	<path class="st5" d="M512.1,592.6h55.8l-1.1,10.9h-53.4L512.1,592.6L512.1,592.6z"/>
</g>
<g class="st3">
	<path d="M147,325.8v-0.4h-0.6v0.4H147z M150.9,335.1v0.2h0.4c0-0.2,0-0.4,0.1-0.6v-0.4C151.2,334.4,151,334.6,150.9,335.1z
		 M135.9,346.8c0-0.3-1.1-1.6-3.1-3.9c0-0.4,0.7-1,2.1-1.9l4.1-3.5c0.9-1.2,1.4-3,1.6-5.7l-0.1-0.6c-0.2-1.8-1.5-3.3-3.9-4.4
		c-1.5-1-4.1-1.5-7.9-1.6c-4.2,0.6-8.4,1.7-12.3,3.4c-1.5,1.1-3.1,2.1-4.8,3v0.3c0.2,0,0.3-0.1,0.5-0.2c0.2,0,0.3,0.1,0.3,0.3
		l0.3-0.2h0.1v0.2c0,0.2-1.1,1-3.3,2.6l0.2,0.3h-0.2l-0.4-0.1c0,0.1-0.1,0.2-0.4,0.2v0.1l0.3,0.4c-0.2,0-0.4-0.1-0.5-0.1
		c-0.6,0.1-1.1,0.4-1.5,0.8l0.2-0.9c0.7-2.8,1.2-5.7,1.5-8.5v-0.2c-0.6-0.4-1.1-0.8-1.5-1.4c0-0.2,0-0.4,0-0.6v-0.1h-0.2
		c-1.6,2.4-4.7,6.5-9.3,12.4c-3.5,4.1-5.3,6.5-5.4,6.9c-1.4,1.5-2.1,2.4-2,2.7c-0.4,0.2-0.5,0.5-0.5,0.8c-0.1,0-0.2,0-0.2-0.1
		c0,0,0,0,0,0c-0.6,1-1.7,1.7-2.8,1.9l-1.3,0.3c-0.2,0-0.3,0.2-0.2,0.3c0,0,0,0,0,0v0.2l0.5-0.1v0.1l-1.1,0.4l-1.9,0.4l-1,0.1
		c-0.2,0.1,0.8,0,0.4,0.1l-1.2,0.3c-0.8,0.2-1.2,0.1-1.2-0.2h-0.1c0,0.1,0,0.2,0,0.3l-0.1-0.3l-1,0.2c-0.1-0.5-1.4-2.1-4.1-5.1
		c0-0.6,0.9-1.4,2.8-2.4l5.3-4.7c1.2-1.5,1.9-4,2.1-7.4l-0.1-0.8c-0.2-2.4-1.9-4.3-5.2-5.8c-1.9-1.3-5.4-2-10.4-2.1
		c-4.1,0.4-9.5,1.9-16.1,4.5c-2,1.4-4.1,2.8-6.3,4v0.4c0.2,0,0.4-0.1,0.6-0.2c0.3,0,0.4,0.1,0.4,0.3l0.4-0.2h0.2v0.2
		c0,0.2-1.4,1.3-4.4,3.4l0.2,0.4h-0.2l-0.5-0.2c0,0.1-0.2,0.2-0.6,0.2v0.2l0.5,0.5c-0.2,0-0.5,0-0.7-0.1c-1.2,0.2-2.2,1-2.8,2.1
		l0.2,0.4c0.4-0.4,0.9-0.8,1.4-1.1v0.6c-0.2,0-0.4,0.1-0.6,0.2l0.5,0.8c0.9-1,2-1.9,3.2-2.7c0.6,0.1,0.9,0.3,0.9,0.5h0.4
		c2.8-2.2,6-3.9,9.4-5v0.4c-0.6,0.9-1,1.3-1.2,1.3c0,0.3,0.1,0.6,0.3,0.8c0,0.5-1.4,4.1-4.2,10.6c-6.5,15.2-11.9,26.5-16.3,33.7
		c0,0.2,0.1,0.4,0.2,0.6c0.7-0.1,1.4-0.4,2.1-0.8h0.2v0.4H37l0.4-0.2c0,0.1,0.2,0.2,0.4,0.1v0.4c-0.1,0.7-0.3,1.3-0.7,1.9
		c-0.6,0.9-1,2-1.2,3.1v0.2h0.4c1.6-1.7,2.9-3.7,4-5.8c4-1.1,8-2.6,11.7-4.4c2.2-0.1,4.4-0.8,6.2-2.1v-0.2l-1,0.3h-0.2V372
		c1.5-0.1,2.9-0.6,4.2-1.4c3.9-3,6.8-5.1,8.8-6.4c4.1-3,6.8-5.9,8-8.8l0.7-0.1c0.3,0,0.7,0,1-0.1c0-0.1,0-0.2,0.1-0.2c0,0,0,0,0,0
		c0.9-0.1,0.5,0.1,1.1-0.1l1.5-0.4c-0.1,0-0.1,0.1-0.1,0.2l0.2-0.1c0,0-0.1,0-0.1,0l0.2-0.1l-0.1,0.1c0.2,0,0.4,0,0.6,0l0.1,0.5
		l-7,11.1l-1.6,1.9l-0.8,2.5h0.2l0.8-0.3l-0.2,1l0.1,0.3l0.2,0.2c-0.1,0-0.1,0.1-0.1,0.2v0.2l0.3-0.1c0.5-0.4,0.7-0.8,0.6-1.1
		c0.3,0.1,0.7,0.1,1,0.1v0.2c-0.3,0.1-0.5,0.3-0.5,0.7v0.2h0.2c2.5-2.8,8.8-12.2,13.8-18.7c-0.2-0.7,2.4-1.6,7.8-2.9h0.2
		c0.2,0.8-0.2,2.9-1.2,6.1c-0.4,1-0.7,2.1-0.9,3.2c-0.5,1.3-0.9,2.6-1.2,4l-1.9,6.2c-1.3,3.3-2.2,6.7-2.8,10.1c0.2,0,0.4,0,0.5,0
		l0.3-0.2c0,0.1,0.1,0.1,0.2,0.1c0,0,0,0,0,0l-0.1-0.5h0.8c0.2-0.1,0.4-0.4,0.6-0.9c0-0.8,0.1-1.3,0.5-1.4c0.2-1,0.5-2,0.9-3
		c0.2-1.2,0.6-2.3,1.1-3.4c0.7-2.6,1.2-3.9,1.6-4l0.1,0.3l-0.5,1.3c-0.7,3.3-1.6,6.5-2.8,9.6l0.3,1.2h0.2c2.3-4.9,5.5-14.6,9.8-29
		c0.1-1.2,0.8-2.3,1.8-3l-0.2-0.3v-0.1c0.4-0.1,0.7-0.3,1-0.6c0-0.1-0.4-0.3-1.3-0.5l2.1-9.1c0.5-0.4,0.7-0.6,0.8-0.6v0.5
		c-0.2,0-0.3,0.1-0.5,0.2l0.4,0.6c0.7-0.8,1.5-1.4,2.4-2c0.4,0.1,0.7,0.3,0.7,0.4h0.3c2.2-1.6,4.6-2.9,7.1-3.8v0.3
		c-0.4,0.6-0.7,1-0.9,1c0,0.2,0.1,0.4,0.2,0.6c0,0.4-1,3.1-3.2,8.1c-4.9,11.5-8.9,19.9-12.3,25.5c0,0.2,0.1,0.3,0.2,0.5
		c0.6-0.1,1.1-0.3,1.6-0.6h0.2v0.3h0.3l0.3-0.2c0,0.1,0.1,0.1,0.3,0.1v0.3c0,0.5-0.2,1-0.5,1.4c-0.5,0.7-0.9,1.5-1.1,2.4v0.1h0.3
		c1.2-1.3,2.2-2.8,3-4.4c3.1-0.8,6.1-1.9,8.9-3.4c1.7,0,3.4-0.6,4.7-1.6v-0.2l-0.8,0.2h-0.2v-0.2c1.1-0.1,2.2-0.4,3.2-1
		c3-2.3,5.2-3.9,6.7-4.9c4.7-3.4,6.9-6.7,6.6-9.9L135.9,346.8z M135.1,347l0.1,1.2c-0.1,0.3-0.3,0.5-0.5,0.5l-0.2-2.1
		C134.8,346.7,135,346.9,135.1,347L135.1,347z M42.6,337.1h-0.2v-0.4l0.8-0.1v0.2C43,336.8,42.8,336.9,42.6,337.1L42.6,337.1z
		 M38.5,378.2c-0.4-0.2-0.9-0.3-1.3-0.3v-0.6c0-0.2,0.1-0.4,0.4-0.5s0.4,0.2,0.5,0.6c0.3-0.5,0.7-0.9,1.2-1.3l0.5,0.2
		C39.5,377.5,39.1,378.2,38.5,378.2L38.5,378.2z M82.5,332.2c-0.2,0-0.6-0.6-1.2-1.9v-0.4c0.4,0,0.8,0.6,1.2,1.9V332.2z M81.9,327.7
		l-0.2,0.4l-6-2.5C79.7,325.7,81.8,326.4,81.9,327.7L81.9,327.7z M56.6,349.3l-0.8,0.1V349l0.8-0.1L56.6,349.3z M55.9,336.3h0.2v0.6
		c-0.2,0-0.5,0.3-0.8,0.9v-0.4C55.7,337.1,55.9,336.8,55.9,336.3L55.9,336.3z M54.2,340.5l0.1,0.8H54l-0.1-0.8L54.2,340.5z
		 M53.2,342h0.4c0,0.7-0.2,1-0.5,1h-0.2C53.1,342.7,53.2,342.4,53.2,342z M52.5,344.1h0.2v0.2l-0.4,0.6H52v-0.2
		c0.3,0,0.5-0.2,0.6-0.5C52.5,344.2,52.5,344.1,52.5,344.1L52.5,344.1z M51.8,345.9l-0.1,1h-0.2l-0.1-1H51.8z M45,365.4
		c-0.3,1.4-0.6,2.1-0.9,2.1v-0.2C44.1,366.6,44.4,365.8,45,365.4z M43.8,368.1v0.2c0,0.3-0.1,0.4-0.4,0.4v-0.2
		C43.3,368.3,43.5,368.2,43.8,368.1z M43.4,373.8l0.6-0.1v0.2c-0.2,0-0.4,0.1-0.6,0.2H43C43,374,43.1,373.8,43.4,373.8L43.4,373.8z
		 M61.5,368.2c-3.6,1.8-5.7,3-6.3,3.6c-3.9,1.3-5.8,2.2-5.7,2.5c-2.3,0.9-4.6,1.9-6.8,3c-0.4,0-0.8-0.1-1.1-0.3
		c-0.1-0.7,0.3-1.4,0.9-1.7c0.6-0.1,1.2,0,1.7,0.3c1.1-0.5,2.2-0.8,3.3-1.1V374l-1.3,0.1c1.2-0.7,2.4-1.3,3.7-1.7l0.6-0.1v0.2
		c-1.1,0.1-1.7,0.4-1.8,1c0,0.2,0.2,0.4,0.4,0.3c0.8-0.5,1.2-0.8,1.2-0.9c1.5-0.3,5.8-2.5,12.9-6.7v0.4
		C63.2,366.8,62.6,367.3,61.5,368.2L61.5,368.2z M50.7,371.7c1-0.1,1.9-0.5,2.6-1.2c0.3,0,0.5,0.1,0.5,0.3c-1,0.3-2,0.7-2.9,1.3
		h-0.2L50.7,371.7L50.7,371.7z M68.1,358.4l-5.4,4.3c-2.1,1.5-4.2,2.8-6.5,4c-6.4,3.5-10.3,5.3-11.9,5.5h-0.2
		c0.2-0.7,3-6.5,8.5-17.4c2.4-0.2,6.2-1.3,11.4-3.4l1.3-0.1c2.6-0.2,4.6,0.3,5.9,1.5l0.1,0.8C70.3,356.3,69.2,357.9,68.1,358.4
		L68.1,358.4z M57.5,352.5l0.9-0.1v0.2l-0.9,0.1L57.5,352.5z M69.7,350.4l0.6-0.1c0.6,0.3,0.9,0.5,0.9,0.7v0.2
		C70.6,351.3,70,351,69.7,350.4L69.7,350.4z M71.4,340.6c-1.4,1.3-2.9,2.5-4.6,3.4c-0.8,0.1-3.9,1.3-9.3,3.6
		c-0.3-0.1-0.6-0.2-0.8-0.1v-0.4c0-1,0.4-2.1,1-2.9c0.4-2.2,0.9-3.5,1.4-3.8l4.5-10c0-0.6,0.9-1.1,2.9-1.4H67v0.6
		c1.9-0.3,3.1-0.5,3.6-0.5c3.5-0.3,5.4,0.4,5.5,2.1h0.4l-0.1-1h0.4c0.9,0.4,1.5,1.2,1.7,2.1c0,0.8-0.4,1.5-0.9,2.1
		c-0.3,0-0.4-0.2-0.4-0.6h-0.4l-0.1,1.2c-1.8,2.7-3.1,4.1-3.9,4.1C72.1,340.1,71.6,340.6,71.4,340.6z M74.2,347.6
		c-0.3-0.2-0.6-0.3-0.9-0.3v-0.6h0.4l0.9,0.5c0.1,0.2,0,0.4-0.2,0.4C74.3,347.6,74.2,347.6,74.2,347.6L74.2,347.6z M77,351
		c0.4,0.2,0.6,0.3,0.7,0.5h-0.2l0,0h-0.1l-0.3,0.2L77,351z M77.3,352.7v-0.1l0.5-0.1v0.2L77.3,352.7z M78.5,354
		c0.5-0.1,0.8-0.1,1.8-0.3v0.2l-1.8,0.4C78.4,354.2,78.4,354.1,78.5,354L78.5,354z M80.3,354.8c-0.6,0-1.2,0.1-1.8,0.3v-0.2l1.6-0.5
		l0.8-0.2l0.1,0.3C80.5,354.6,80.7,354.6,80.3,354.8L80.3,354.8z M81.9,354.4c-0.2,0.1-0.3,0-0.4-0.2c0,0,0,0,0,0L82,354
		c0.1-0.1,0.3,0,0.4,0.2c0,0,0,0,0,0.1L81.9,354.4z M86.4,349.6v-0.2l0.8-0.2l0.1,0.3L86.4,349.6z M91.2,378.8c0-0.2,0-0.3,0-0.5
		h0.2c0.1-0.1,0.3,0,0.4,0.2c0,0,0,0,0,0.1v0.2L91.2,378.8z M94.5,350.8l-0.3-0.1c-0.5,0.2-0.9,0.3-1.4,0.5l-0.3,0.1
		c-0.2,0.1-0.3,0-0.4-0.2c0,0,0,0,0,0l2.2-0.5l0.7-0.3l0.2,0.3C95,350.6,94.7,350.7,94.5,350.8L94.5,350.8z M96.2,350.3v-0.2
		c0.2,0,0.3-0.1,0.4-0.3l1.6-0.4v0.2C97.6,349.8,96.9,350,96.2,350.3L96.2,350.3z M96.5,347.1c-0.2,0.1-0.3,0.2-0.4,0.3
		c0-0.1-0.2-0.1-0.7,0c-0.1-0.3,1.1-0.7,3.5-1.3l0.3-0.1l0.1,0.3C97.6,346.8,96.7,347.1,96.5,347.1L96.5,347.1z M100.8,342.5
		c-0.2,1.9-0.9,3-2.1,3.3v-0.2l-1.1,0.4l-0.5,0.1c-0.2,0.1-0.4,0.1-0.7,0l-0.1-0.4c0-0.2,1.5-2.3,4.7-6.4l0.4,0.1
		C101.5,340.4,101.2,341.5,100.8,342.5L100.8,342.5z M108.3,336h-0.1v-0.3l0.6-0.1v0.2C108.7,335.8,108.5,335.9,108.3,336L108.3,336
		z M105.2,367.3c-0.3-0.2-0.7-0.2-1-0.2v-0.5c0-0.2,0.1-0.3,0.3-0.3s0.3,0.1,0.3,0.4c0.3-0.4,0.5-0.7,0.9-1l0.3,0.1
		C105.9,366.8,105.7,367.3,105.2,367.3L105.2,367.3z M138.6,332.4c-0.1,0-0.5-0.5-0.9-1.5v-0.3c0.3,0,0.6,0.5,0.9,1.4V332.4z
		 M138.1,328.9l-0.1,0.3l-4.5-1.9C136.5,327.4,138.1,327.9,138.1,328.9L138.1,328.9z M119,345.3l-0.6,0.1v-0.3h0.6L119,345.3z
		 M118.5,335.4h0.2v0.5c-0.2,0-0.3,0.2-0.6,0.7v-0.3C118.3,336.1,118.4,335.8,118.5,335.4L118.5,335.4z M117.2,338.6v0.6H117v-0.6
		L117.2,338.6z M116.4,339.8h0.3c0,0.5-0.2,0.8-0.4,0.8h-0.2C116.3,340.3,116.4,340,116.4,339.8z M115.9,341.3h0.2v0.2l-0.3,0.5
		h-0.3v-0.2C115.8,341.8,115.9,341.6,115.9,341.3L115.9,341.3z M115.4,342.7l-0.1,0.8h-0.2l-0.1-0.8L115.4,342.7L115.4,342.7z
		 M110.2,357.5c-0.2,1-0.4,1.5-0.7,1.6V359C109.5,358.4,109.7,357.9,110.2,357.5L110.2,357.5z M109.2,359.6v0.1
		c0,0.2-0.1,0.3-0.2,0.4c0,0-0.1,0-0.1,0v-0.2C108.9,359.8,109,359.7,109.2,359.6L109.2,359.6z M108.9,363.9h0.5v0.2
		c-0.2,0-0.3,0.1-0.5,0.2h-0.3C108.6,364.1,108.7,364,108.9,363.9L108.9,363.9z M122.6,359.7c-1.7,0.7-3.3,1.6-4.8,2.7
		c-2.9,1-4.4,1.7-4.4,1.9c-1.7,0.6-3.5,1.4-5.1,2.2c-0.3,0-0.6-0.1-0.8-0.2c0-0.5,0.2-1,0.7-1.3c0.4,0,0.9,0,1.3,0.2
		c0.8-0.4,1.7-0.6,2.5-0.8v-0.3l-1,0.1c0.9-0.5,1.8-1,2.8-1.3h0.5v0.1c-0.8,0.1-1.3,0.3-1.4,0.8c0,0.1,0.1,0.3,0.2,0.3
		c0,0,0.1,0,0.1,0c0.6-0.4,0.9-0.6,0.9-0.7c1.2-0.2,4.5-1.9,9.8-5.2v0.3C124,358.6,123.6,359,122.6,359.7L122.6,359.7z M114.5,362.4
		c0.8-0.1,1.5-0.4,2-0.9c0.2,0,0.3,0.1,0.3,0.3c-0.8,0.2-1.5,0.5-2.2,0.9h-0.2V362.4L114.5,362.4z M127.7,352.2l-4.1,3.3
		c-1.6,1.1-3.3,2.1-5,3c-4.8,2.7-7.8,4-9,4.1h-0.2c0.1-0.5,2.3-5,6.5-13.2c3-0.5,5.9-1.4,8.7-2.6l1-0.1c1.6-0.3,3.2,0.1,4.4,1.2
		l0.1,0.6C129.3,350.6,128.5,351.8,127.7,352.2L127.7,352.2z M119.7,347.7l0.6-0.1v0.2l-0.6,0.1L119.7,347.7z M128.9,346.1h0.5
		c0.4,0.2,0.7,0.4,0.7,0.6v0.1C129.6,346.9,129.1,346.6,128.9,346.1L128.9,346.1z M130.2,338.7c-1.1,1-2.2,1.9-3.5,2.6
		c-2.4,0.7-4.7,1.6-7,2.7c-0.2-0.1-0.4-0.1-0.7-0.1v-0.3c0-0.8,0.3-1.6,0.8-2.2c0.3-1.7,0.7-2.6,1-2.9l3.4-7.6
		c0-0.5,0.7-0.8,2.2-1.1h0.5v0.5c1.4-0.2,2.3-0.4,2.7-0.4c2.7-0.2,4.1,0.3,4.2,1.6h0.3l-0.1-0.7h0.3c0.7,0.3,1.1,0.9,1.2,1.5
		c0,0.6-0.2,1.2-0.6,1.6c-0.2,0-0.3-0.1-0.4-0.4h-0.3l-0.1,0.9c-1.3,2.1-2.3,3.1-3,3.2C130.6,338.4,130.3,338.8,130.2,338.7
		L130.2,338.7z M131.6,343.8v-0.5h0.3l0.7,0.4c0,0.2-0.1,0.3-0.3,0.3C132.1,343.9,131.9,343.8,131.6,343.8L131.6,343.8z M74.8,373.4
		l-0.3,0.1l-0.3,0.2c0,0.2,0.2,0.3,0.3,0.2c0,0,0,0,0.1,0c0.2,0,0.3-0.2,0.2-0.4L74.8,373.4z M73.6,371v0.2c0.2,0,0.3-0.2,0.2-0.4
		v-0.2C73.7,370.6,73.6,370.8,73.6,371C73.6,371,73.6,371,73.6,371z M82.2,350.5l0.4-0.1l-0.1-0.3l-0.4,0.1L82.2,350.5z M193,359.9
		c-1.6,0.5-3.3,0.7-5,0.8v0.3h0.3h0.2l0,0l0.4-0.2c3.7-0.4,4.1-0.3,4.1-0.7L193,359.9L193,359.9z M173,362.5v0.3l0,0V362.5z
		 M170.7,354.5l-0.3-0.1c-0.2,0.4-0.3,0.8-0.4,1.3v0.1C170.2,355.8,170.5,355.4,170.7,354.5L170.7,354.5z M193.7,359.9v0.3l0.5,0.1
		V360L193.7,359.9z M168.4,363l-0.8-0.1l-0.1,0.3v0.2l4.9-0.4v-0.3L168.4,363z M166.2,352.1V352H166l-0.3,0.2l0.2,0.3
		C166.1,352.5,166.2,352.3,166.2,352.1L166.2,352.1z M196,357.6h0.2c0.1,0,0.2-0.1,0.2-0.3l-0.1-0.3c-0.7,0-1.3,0.2-1.9,0.5v-0.2
		l-1,0.1c0-0.3-0.1-0.5-0.2-0.5h-0.5c-0.6,0-0.9,0-1.2,0.3c0-0.1-0.1-0.2-0.1-0.2l-0.6,0l-0.4,0.2c0-0.1,0-0.2-0.1-0.2l-0.2,0.2
		v-0.2l-0.8-0.1h-0.2v0.3l0.4,0.1h0.4c0.1,0.1,0.3,0.1,0.4,0.1l0.4-0.2v0.1c-1.1,0.3-2.1,0.5-3.2,0.6c-0.1-0.1-0.2-0.1-0.3-0.1l0,0
		c-0.1,0-0.2-0.1-0.2-0.3c0,0,0,0,0,0l0.7-0.1c0.2,0,0.3,0.1,0.5,0.1c0.6-0.3,0.6-0.4,0.9-0.4v-0.3c-1.1,0.2-2.3,0.3-3.5,0.3h-0.1
		v-0.3c3-0.4,2-0.2,3.1-0.5c0,0.1,0,0.2,0.1,0.2c0.1-0.1,0.3-0.2,0.4-0.2h0.1c1.2,0,2.4-0.1,3.5-0.5v0.1l0.3-0.2h0.3
		c0-0.3,0.4-0.4,0.6-0.4v-0.3c-3.7,0.7-4.6,0.5-5.7,0.8v-0.1c-0.4,0.1-0.8,0.1-1.2,0.1c-0.1,0-0.2,0.1-0.3,0.2
		c0-0.1-0.1-0.2-0.1-0.2h-0.1l-3.1,0.5c0-0.1-0.1-0.1-0.1-0.1c-1.1,0.3-2.2,0.5-3.4,0.6c-0.1,0-0.3,0.1-0.4,0.2
		c0-0.1-0.1-0.1-0.2-0.1l-1.3,0.1l-0.9,0.2c0-0.1-0.1-0.1-0.2-0.1c-0.4,0.1-0.9,0.2-1.3,0.2l0,0c-0.2,0,0.1-0.1-0.1-0.1l-0.3,0.2
		c-0.4,0-0.2,0-1.5,0c-2.4,0.3-2.1,0.3-2.4,0.4l-0.9-0.1c0,0.1,0,0.1-0.1,0.1c0,0,0,0,0,0c-1-0.1-1.5-0.3-1.5-0.5
		c0.1-1,0.4-1.5,0.7-1.5h0.2l-0.1,0.3h0.2c0.3-0.2,0.5-0.3,0.4-0.5v-0.3h-0.3v-0.3c0-0.2,0-0.4,0.1-0.6l0.7-1.2v0.3h0.3v-0.3
		l-0.2-0.3c0.2-0.2,0.4-0.3,0.6-0.4V353h-0.5v-0.5c0.6-1.1,1-2.2,1.3-3.4l0.3,0.1c0.2,0,0.3-0.1,0.3-0.3c0,0,0,0,0-0.1h-0.3v-0.1
		c0-0.2,0-0.4,0.1-0.6c0.5-0.4,0.7-1,0.7-1.6c0.1,0,0.1,0,0.2,0.1c0.4-0.2,0.8-0.9,1-2c1.3-2.7,2.3-5.4,3.2-8.2c2.7-7.2,2.6-8,3-9.7
		h-0.3c0,0.2,0,0.4-0.1,0.6c-0.2-0.1-0.3-0.1-0.5-0.1v-0.1c0-0.8,0.3-1.6,0.8-2.2h0.1l0.3,1h0.3c0-0.4,0.1-0.8,0.2-1.3
		c0-0.2-0.1-0.2-0.4-0.3l-0.3,0.2c0-0.6,0-1.1,0-1.7h-0.2c-0.2-0.2-0.4-0.4-0.4-0.7l-1.8,0.2c0-0.2-0.1-0.4-0.2-0.5
		c0-0.1,0.4-0.3,1.2-0.5l0.4,0.1l0.3-0.2c0,0.1,0.1,0.1,0.2,0.1c0,0,0,0,0,0l0.3-0.2c0,0.1,0.1,0.2,0.2,0.1h0.2v-0.4
		c-0.2,0-0.9,0-1.9,0l-0.3,0.2v-0.2c-8.2,0.7-12.8,1.1-13.9,1.2c-0.1,0-0.7,0-1.7,0c0,0.1-0.1,0.2-0.4,0.2l-0.4-0.2l-1.2,0.3
		c-0.5,0-0.9,0-1.4-0.1c-0.2,0.2-0.4,0.2-0.7,0.3l3.5-0.2c-0.3,0.2-0.6,0.3-0.9,0.3c-0.2,0-0.5,0-0.7-0.1c-0.9,0.3-1.7,0.5-2.6,0.6
		l-0.4-0.1l-5.7,0.9c-0.2-0.1-0.5-0.1-0.8-0.1c-0.5,0.1-1,0.2-1.5,0.3l-2.8,1.1l0.2,0.3c0.2,0,0.4-0.1,0.6-0.2l1,0.1l-0.1,0.9
		c-0.8,0.3-1.4,0.9-1.6,1.8c-1.4,0.6-2,1-2,1.3v0.2h0.2l0.4-0.2l0.4,0.5l0.1,0.7c0,0.2-2.3,5-6.8,14.4c-4,9-6,14-6.2,14.9
		c-1.4,0.4-2.1,0.9-2.4,1.7c0,0.2,0.4,0.4,1.2,0.5v0.4l-0.4,0.6l0.1,0.7c0,0.4,1,0.6,3,0.8c0-0.1,0.1-0.2,0.2-0.2
		c0,0.9-0.1,1.7-0.4,2.6h0.2c0.6-0.6,1-1.4,1.1-2.3h0.2c0.2,0,0.4,0.2,0.6,0.7c-0.2,0.1-1.1,2-2.6,5.8l0.2,0.4h0.2
		c1.8-4.5,2.9-7,3.4-7.5c2.3-0.2,6.4-0.6,12.2-1.2l0.4-0.2c0,0.1,0.1,0.2,0.2,0.2c0,0,0,0,0,0h0.4l0.4-0.2c0,0.1,0.1,0.2,0.2,0.2
		l4.4-0.4c1.2-0.1,1.7-0.5,1.7-1c0-0.1,0.7-0.3,2-0.5c0.2,0,0.4,0,0.6,0.1c0-0.1,0.7-0.2,2.1-0.3c0-0.7,0.3-1.1,0.7-1.2v-0.4
		c-0.5,0.1-0.9,0.2-1.3,0.3c-0.6,0-1.2-0.1-1.8-0.2c-0.2,0.1-0.4,0.2-0.6,0.2l-3.1,0.1l-0.4,0.2c0-0.1-0.1-0.2-0.2-0.1H156l-0.4,0.2
		c0-0.1-0.3-0.2-1-0.3l-0.4,0.2l-0.8,0.1v-0.2c3.9-0.4,5.9-1,5.8-1.6c0.2,0,0.4,0.1,0.4,0.3c0,0,0,0.1,0,0.1l1.1-0.3v-0.4l-9.4,0.2
		c0,0.1-0.1,0.2-0.2,0.2l-1.1-0.1c-0.3,0-0.5,0.1-0.7,0.3l-0.4-0.2c-0.9,0.1-1.8,0.2-2.6,0.4c-0.9-0.1-1.8-0.1-2.7,0l-2.1,0.2
		l-1-0.1c-0.1-0.6,1.2-3.7,3.6-9.2c0.7-1.9,1.4-3,2-3.5c0.2,0,0.4,0.1,0.6,0.1l1.5-0.5l0.8,0.1c1.5-0.2,3.1-0.5,4.5-1.1
		c0.3-0.1,0.7,0,1,0.1l1.1-0.3l3.4-0.3c1.6-0.2,3.2-0.5,4.7-1v-0.4c-0.6,0.1-1,0-1-0.3c0-0.5-0.5-0.7-1.4-0.6v-0.4l0.9-0.3l2.5-0.2
		v-0.4c-0.1,0-0.6,0-1.5,0v-0.4l0.9-0.1c0.3,0,0.4-0.1,0.4-0.4c-1.3,0-1.9,0-1.9-0.2c-8.9,0.4-13.4,0.5-13.4,0.2
		c-0.2,0-0.4,0.1-0.6,0.2l-0.2-0.4c2.4-5,3.8-7.6,4.2-7.6c0,0.3-0.1,0.7-0.3,0.9v0.2h0.4c0.9-2.2,1.7-3.4,2.4-3.5
		c2.8-0.2-0.4-0.4,5.6-1.4c0.2,0.1,0.3,0.1,0.5,0.1c2.4-0.5,5.6-1,9.9-1.5v-0.4l-2.2,0.2v-0.4c0.2,0,0.5-0.1,0.7-0.2v0.2
		c0.2,0,0.4-0.1,0.5-0.2c0.3-0.1,0.6,0,0.9,0.1c0.6-0.2,1.2-0.3,1.9-0.4l1.4-0.1c0.3-0.2,0.5-0.4,0.5-0.6V325c-0.4,0-0.8,0-1.2-0.1
		c0-0.2,0.1-0.3,0.3-0.4l2.6-0.2l1.2-0.3c0,0.1,0.1,0.2,0.2,0.2c0.2,0,0.4-0.1,0.5-0.2h0.2c-0.2,0.5-0.4,0.9-0.5,1.4h-0.4
		c0-0.2-0.1-0.4-0.2-0.6h-0.2c-3.2,8.8-4.6,13-7.5,19.7c-0.5,1.7-1,2.7-1.4,2.9c0,0.2,0.1,0.3,0.3,0.3c0.1,0.9-0.1,1.8-0.6,2.5
		c-1.4,3.9-2.3,6-2.7,6.4l0.3,1.8c0,0.2-0.1,0.3-0.3,0.3H165c0-0.5-0.2-0.8-0.6-0.7h-0.2c-0.4,0.7-0.8,1.5-0.9,2.3h0.3
		c0.4-0.2,0.6-0.6,0.6-1l0.6-0.1l0.4,0.1c-0.2,0.3-0.4,0.7-0.4,1.1l0.2,0.3l-0.4,1v0.2c0.4,0,0.8,0.1,1.2,0.3c0.4,0,0.7-0.2,1-0.4
		c0.4,0,1.7,0,4.1,0l1.2-0.4c1,0,1.9,0,2.9-0.1l0.5,0l0.3-0.2v0.2c0.8-0.1,1.6-0.1,2.4,0.1v0.2l-0.7,0.1v0.3c0.2,0,0.4-0.1,0.6-0.2
		c0.2,0,0.3,0.1,0.3,0.3c-0.3,0-0.7,0.1-1,0.2l-0.3-0.1c-0.5,0.1-0.4,0.2-0.7,0.2l-0.5-0.1c0,0.1,0,0.1-0.1,0.1c0,0,0,0,0,0
		c0,0.2,0.1,0.3,0.3,0.3l0.5,0l2.7-0.2l1-0.2c0,0.1,0,0.1,0.1,0.1l0.5-0.2l0.9-0.1c0.7-0.1,0.7-0.1,2.2-0.4c0-0.1,0-0.1,0.1-0.1v0.1
		c1-0.1,2.1-0.3,3.1-0.6v0.1c0.6-0.1,0.3-0.1,0.4-0.2c0,0.1,0.1,0.2,0.1,0.2h0.4v-0.3h-0.9l0,0h-0.1H187l0,0c-0.3,0.1-0.7,0.1-1,0.1
		l-2.2,0.1v-0.2l1.2-0.2h0.5l0.2-0.2v0.2c1.8-0.1,2.4,0.3,10.5-1.4c0.4,0,0.4-0.4,0.7-1.2c-0.1,0-0.3,0-0.4-0.1
		c-0.8,0.2-1.5,0.3-2.3,0.3c-0.1,0-0.2-0.1-0.2-0.3v-0.1h1.2c0.5,0,0.9-0.2,1.4-0.4c0,0.1-0.2,0.2-0.1,0.1L196,357.6z M135.9,358.6
		l-0.6,0c0.2-0.9,0.5-1.8,0.9-2.6h0.4C136.5,357,136.3,357.8,135.9,358.6L135.9,358.6z M136.6,355.8v-0.2c0-0.2,0.1-0.3,0.4-0.4v0.1
		C137.1,355.6,136.9,355.7,136.6,355.8L136.6,355.8z M144.3,361.7v0.2l-0.9,0.1v-0.2L144.3,361.7z M143.1,361.6
		c0,0.2-0.3,0.4-0.9,0.6l-1.2-0.1h-0.4v-0.4L143.1,361.6L143.1,361.6z M150.8,326.1l-0.6,0V326c0-0.2,0.1-0.3,0.3-0.4h0.2l0.4,0.2
		C151.2,325.9,151.1,326.1,150.8,326.1C150.9,326.1,150.9,326.1,150.8,326.1L150.8,326.1z M159.6,324.4h0.2v0.4h-0.5
		C159.2,324.6,159.3,324.4,159.6,324.4L159.6,324.4z M157.4,325.2l-0.9-0.1v-0.2c0.8-0.1,1.5-0.2,2.2-0.4c0,0.1,0.1,0.2,0.4,0.2v0.4
		h-0.3c-0.2,0-0.5,0-0.7-0.1C157.8,325,157.6,325.1,157.4,325.2L157.4,325.2z M158.4,328.3v-0.1l1.4-0.1v0.2L158.4,328.3z
		 M159.9,327.1v-0.2l0.7-0.1v0.1L159.9,327.1z M160.1,324.7H160l0.2-0.4l1.6-0.1v0.2C161.2,324.5,160.7,324.6,160.1,324.7
		L160.1,324.7z M160.9,328.1v-0.4l0.7-0.1c0.2,0,0.4,0.1,0.4,0.3L160.9,328.1z M165,322.5l-0.9,0.2H164c-0.5,0-1.1,0-1.6,0
		C163.6,322.5,164.7,322.5,165,322.5L165,322.5z M164.1,326.4v0.2l-1.2,0.1v-0.2L164.1,326.4z M166.1,327.3c0-0.1-0.2-0.2-0.7-0.3
		l-1.2,0.4h-0.9c-0.2-0.1-0.3-0.2-0.3-0.3l1.1,0.1l2.4-0.4h1.2v0.2C167.1,327,166.6,327.1,166.1,327.3L166.1,327.3z M178.6,324h0.3
		c0.4-0.4,0.9-0.8,1.4-1c-0.3,1.6-1,3.1-2.1,4.3l-0.7-0.4C177.9,325.9,178.3,325,178.6,324L178.6,324z M176.4,327.6h0.2
		c-0.2,0.4-0.4,0.7-0.6,0.7v-0.5C176.2,327.8,176.3,327.7,176.4,327.6L176.4,327.6z M175.1,330.8c0.1-0.8,0.4-1.6,0.9-2.3v0.2
		c-0.2,1.2-0.4,1.9-0.8,1.9l0.1,0.8c-0.2,0.3-0.4,0.6-0.4,1h-0.2l-0.1-1.1C174.8,331.4,175,331.2,175.1,330.8L175.1,330.8z
		 M174.6,332.6c-0.1,0.4-0.2,0.9-0.4,1.3H174v-0.5C174.3,332.9,174.5,332.6,174.6,332.6L174.6,332.6z M164.7,361.2v-0.1h0.3v0.5
		C164.9,361.5,164.8,361.4,164.7,361.2L164.7,361.2z M178.8,361.6c0-0.1-0.1-0.2-0.2-0.1l-0.8,0.1v-0.2h0.1l1.9-0.1v0.1
		C179.2,361.4,178.9,361.5,178.8,361.6L178.8,361.6z M177.9,361.2C177.9,361.2,177.9,361.2,177.9,361.2
		C177.9,361.3,177.8,361.2,177.9,361.2L177.9,361.2z M178,359l-1,0.1v-0.2l1-0.1l0.8-0.2c0,0.1,0.1,0.1,0.2,0.1
		c0.5-0.1,0.9-0.2,1.4-0.2c0.2,0,0.3,0.1,0.3,0.3L178,359z M181.7,358.7c-0.3-0.1-0.7-0.1-1-0.1v-0.1l0.9-0.1v0.1
		C181.5,358.5,181.9,358.5,181.7,358.7L181.7,358.7z M181.8,358.5v-0.1l0.5,0v0.1L181.8,358.5z M182.9,358.4v-0.1
		c0.1,0,0.3-0.1,0.4-0.2c0.2,0,0.4,0.1,0.4,0.3c0,0,0,0,0,0L182.9,358.4z M184.3,358.2v-0.2l0.6,0v0.2L184.3,358.2z M185.2,358.2
		c0-0.2,0.1-0.3,0.2-0.3l0.2,0.3c0-0.1,0-0.1,0.1-0.1l0.2,0.3L185.2,358.2L185.2,358.2z M176,362.2v-0.3h-0.1L176,362.2L176,362.2z
		 M197.4,356.6c0.1-0.1,0.1-0.1-0.1-0.2c-0.1,0.1,0.1,0.2-0.1,0.2v0.1L197.4,356.6l-0.2,0.1l0,0l-0.2,0.3l0.5-0.2h0.1v-0.3
		L197.4,356.6z M198.3,357.3h-0.1v0.3l0.7-0.1C199,357.3,198.5,357.3,198.3,357.3L198.3,357.3z M197.2,356.8L197.2,356.8z"/>
	<path class="st8" d="M150.3,334.1v0.2h0.4c0-0.2,0-0.4,0.1-0.6v-0.4C150.6,333.4,150.5,333.6,150.3,334.1z M146.4,324.9v-0.4
		l-0.6,0v0.4L146.4,324.9z M135.2,345.9c0-0.3-1.1-1.6-3.1-3.9c0-0.4,0.6-1,2.1-1.9l4.1-3.5c0.9-1.2,1.4-3,1.6-5.6v-0.6
		c-0.2-1.8-1.5-3.3-3.9-4.4c-1.5-1-4.1-1.5-7.9-1.6c-4.2,0.6-8.4,1.7-12.3,3.4c-1.5,1.1-3.1,2.1-4.8,3v0.3c0.2,0,0.3-0.1,0.5-0.2
		c0.2,0,0.3,0.1,0.3,0.3l0.3-0.2h0.1v0.1c0,0.2-1.1,1-3.3,2.6l0.2,0.3H109l-0.4-0.1c0,0.1-0.2,0.2-0.5,0.2v0.1l0.3,0.4
		c-0.2,0-0.3,0-0.5-0.1c-0.6,0.1-1.1,0.4-1.5,0.8l0.2-0.9c0.7-2.8,1.2-5.7,1.5-8.5v-0.2c-0.6-0.4-1.1-0.8-1.5-1.4c0-0.2,0-0.4,0-0.6
		v-0.1h-0.2c-1.6,2.4-4.7,6.5-9.3,12.4c-3.5,4.1-5.3,6.5-5.4,6.9c-1.4,1.5-2.1,2.4-2,2.7c-0.4,0.2-0.5,0.5-0.5,0.8
		c-0.1,0-0.2,0-0.2-0.1c-0.6,1-1.6,1.7-2.7,1.9l-1.3,0.3c-0.2,0-0.2,0.1-0.2,0.4v0.2l0.5-0.1v0.1l-1.1,0.4l-1.9,0.4l-1,0.1
		c-0.2,0.1,0.8,0,0.4,0.1l-1.2,0.3c-0.8,0.2-1.2,0.1-1.2-0.2h-0.1c0,0.1,0,0.2,0,0.3l-0.1-0.3l-1,0.2c-0.1-0.5-1.4-2.1-4.1-5
		c0-0.6,0.9-1.4,2.8-2.4l5.3-4.7c1.2-1.5,1.9-4,2.1-7.4l-0.1-0.8c-0.2-2.4-1.9-4.3-5.2-5.8c-1.9-1.3-5.4-2-10.4-2.1
		c-4.2,0.4-9.6,1.8-16.2,4.4c-2,1.5-4.1,2.8-6.3,4v0.4c0.2,0,0.4-0.1,0.6-0.2c0.3,0,0.4,0.1,0.4,0.3l0.4-0.2h0.2v0.2
		c0,0.2-1.4,1.3-4.4,3.4l0.2,0.4h-0.2l-0.5-0.2c0,0.1-0.2,0.2-0.6,0.2v0.2l0.5,0.5c-0.2,0-0.5-0.1-0.7-0.1c-1.2,0.2-2.2,1-2.8,2.1
		l0.2,0.4c0.4-0.4,0.9-0.8,1.4-1.1l0,0.6c-0.2,0-0.4,0.1-0.6,0.2l0.5,0.8c0.9-1,2-1.9,3.2-2.7c0.6,0.1,0.9,0.3,0.9,0.5h0.4
		c2.9-2.2,6-3.9,9.4-5.1v0.4c-0.6,0.9-1,1.3-1.2,1.3c0,0.3,0.1,0.6,0.3,0.8c0.1,0.5-1.3,4.1-4.2,10.6c-6.5,15.2-11.9,26.5-16.3,33.7
		c0,0.2,0.1,0.4,0.2,0.6c0.7-0.1,1.4-0.4,2.1-0.8h0.2v0.4h0.4l0.4-0.2c0,0.1,0.2,0.2,0.4,0.2v0.4c-0.1,0.7-0.3,1.3-0.7,1.9
		c-0.7,1-1.1,2-1.4,3.1v0.2h0.4c1.6-1.7,2.9-3.7,4-5.8c4-1.1,8-2.6,11.7-4.4c2.2-0.1,4.4-0.8,6.2-2.1V371l-1,0.3h-0.2v-0.2
		c1.5-0.1,2.9-0.6,4.2-1.4c3.9-3,6.8-5.1,8.8-6.4c4.1-3,6.8-5.9,8-8.8l0.7-0.2c0.6,0,0.9,0,1-0.1s0-0.2,0.1-0.2
		c0.9-0.1,0.5,0.1,1.1-0.1l1.5-0.4l0.2-0.1l-0.1,0.1c0.2,0,0.4,0,0.6,0l0.1,0.5l-7,11.1l-1.6,1.9l-0.8,2.5h0.2l0.8-0.3l-0.2,1
		l0.1,0.3l0.2,0.3c-0.1,0-0.1,0.1-0.1,0.2v0.2l0.3-0.1c0.5-0.4,0.7-0.8,0.6-1.1c0.3,0.1,0.7,0.1,1,0.1v0.2c-0.3,0.1-0.5,0.3-0.5,0.7
		v0.2h0.2c2.5-2.8,8.8-12.3,13.8-18.7c-0.2-0.7,2.4-1.7,7.8-2.9h0.2c0.2,0.8-0.2,2.9-1.2,6.1c-0.4,1-0.7,2.1-0.9,3.2
		c-0.5,1.4-0.9,2.8-1.2,4.2l-1.9,6.2c-1.2,3.3-2.2,6.7-2.8,10.1c0.2,0,0.4,0,0.5,0l0.3-0.2c0,0.1,0.1,0.1,0.2,0.1c0,0,0,0,0,0
		l-0.1-0.5h0.8c0.2-0.1,0.4-0.4,0.6-0.9c0-0.8,0.1-1.3,0.5-1.4c0.2-1,0.5-2,0.9-3c0.2-1.2,0.6-2.3,1.1-3.4c0.7-2.6,1.2-3.9,1.6-4
		l0.1,0.3l-0.5,1.4c-0.7,3.3-1.6,6.5-2.8,9.6l0.3,1.2H93c2.3-4.9,5.5-14.5,9.8-29c0.1-1.2,0.8-2.4,1.8-3l-0.2-0.3v-0.1
		c0.4-0.1,0.7-0.3,1-0.6c0-0.1-0.4-0.3-1.3-0.5l2.1-9.1c0.2-0.3,0.5-0.5,0.8-0.6v0.5c-0.2,0-0.3,0.1-0.5,0.2l0.4,0.6
		c0.7-0.8,1.5-1.5,2.4-2c0.4,0.1,0.7,0.3,0.7,0.4h0.3c2.2-1.6,4.6-2.9,7.1-3.8v0.3c-0.4,0.6-0.7,1-0.9,1c0,0.2,0.1,0.4,0.2,0.6
		c0,0.4-1,3.1-3.2,8.1c-4.9,11.5-9,20.1-12.4,25.6c0,0.2,0.1,0.3,0.2,0.5c0.6-0.1,1.1-0.3,1.6-0.6h0.1v0.3h0.3l0.3-0.2
		c0,0.1,0.1,0.1,0.3,0.1v0.3c-0.1,0.5-0.2,1-0.5,1.4c-0.5,0.7-0.9,1.5-1.1,2.4V371h0.3c1.2-1.3,2.2-2.8,3-4.4c3.1-0.8,6.1-2,8.9-3.4
		c1.7,0,3.4-0.6,4.7-1.6v-0.2l-0.8,0.2h-0.2v-0.2c1.1-0.1,2.2-0.4,3.2-1c3-2.3,5.2-3.9,6.7-4.9C133.3,352.3,135.5,349,135.2,345.9
		L135.2,345.9z M134.4,346.1l0.1,1.2c-0.1,0.3-0.3,0.5-0.5,0.5l-0.2-2.1C134.3,345.8,134.4,345.9,134.4,346.1L134.4,346.1z
		 M42,336.1h-0.2v-0.4l0.8-0.1v0.2C42.4,335.9,42.2,336,42,336.1z M37.9,377.2c-0.4-0.2-0.9-0.3-1.3-0.3l0-0.6
		c0-0.2,0.1-0.4,0.4-0.5s0.4,0.2,0.5,0.6c0.3-0.5,0.7-0.9,1.2-1.3l0.5,0.2C38.9,376.6,38.5,377.2,37.9,377.2z M81.9,331.2
		c-0.2,0-0.6-0.6-1.2-1.9V329c0.4,0,0.8,0.6,1.2,1.9V331.2z M81.3,326.7l-0.2,0.4l-6-2.5C79.1,324.7,81.1,325.4,81.3,326.7
		L81.3,326.7z M56.1,348.3l-0.8,0.1V348l0.8,0L56.1,348.3z M55.4,335.3h0.2v0.6c-0.2,0-0.5,0.3-0.8,0.9v-0.4
		C55.2,335.9,55.4,335.6,55.4,335.3L55.4,335.3z M53.6,339.5l0.1,0.8h-0.2l-0.1-0.8H53.6z M52.7,341h0.4c0,0.7-0.2,1-0.5,1h-0.2
		C52.5,341.7,52.7,341.4,52.7,341z M52,343.1h0.2v0.2l-0.4,0.6h-0.4v-0.2c0.3,0,0.5-0.2,0.6-0.5C52,343.2,52,343.1,52,343.1z
		 M51.3,345l-0.1,1H51l-0.1-1H51.3L51.3,345z M44.5,364.5c-0.3,1.4-0.6,2.1-0.9,2.1v-0.2C43.5,365.6,43.9,364.9,44.5,364.5
		L44.5,364.5z M43.2,367.2v0.2c0,0.3-0.1,0.4-0.4,0.4v-0.2C42.8,367.4,42.9,367.2,43.2,367.2L43.2,367.2z M42.8,372.8l0.6-0.1v0.2
		c-0.2,0-0.4,0.1-0.6,0.2h-0.4C42.4,373,42.5,372.9,42.8,372.8L42.8,372.8z M60.9,367.3c-3.6,1.8-5.7,3-6.3,3.6
		c-3.9,1.4-5.8,2.2-5.7,2.5c-2.3,0.9-4.6,1.9-6.8,3c-0.4,0-0.8-0.1-1.1-0.4c-0.1-0.7,0.3-1.4,0.9-1.7c0.6-0.1,1.2,0,1.7,0.3
		c1.1-0.5,2.2-0.9,3.4-1.1V373l-1.3,0.1c1.2-0.7,2.4-1.3,3.7-1.7l0.6-0.1v0.2c-1.1,0.1-1.7,0.4-1.8,1c0,0.2,0.1,0.3,0.3,0.4
		c0,0,0.1,0,0.1,0c0.8-0.5,1.2-0.8,1.2-0.9c1.6-0.3,5.8-2.5,12.9-6.7v0.4C62.7,365.8,62.1,366.4,60.9,367.3L60.9,367.3z M50.1,370.8
		c1-0.1,1.9-0.5,2.6-1.2c0.3,0,0.5,0.1,0.5,0.3c-1,0.3-2,0.7-2.9,1.3h-0.2L50.1,370.8L50.1,370.8z M67.5,357.4l-5.4,4.3
		c-4,2.6-6.2,3.9-6.5,4c-6.4,3.5-10.3,5.3-11.9,5.5h-0.2c0.2-0.7,3-6.5,8.5-17.4c2.4-0.2,6.2-1.3,11.4-3.4l1.3-0.1
		c2.6-0.2,4.6,0.3,5.9,1.5l0.1,0.8C69.7,355.3,68.7,357,67.5,357.4L67.5,357.4z M57,351.5l0.9-0.1v0.2l-0.9,0.1V351.5z M69.2,349.4
		l0.6-0.1c0.6,0.3,0.9,0.5,0.9,0.7v0.2C70.1,350.3,69.5,350,69.2,349.4L69.2,349.4z M70.9,339.6c-1.4,1.3-2.9,2.5-4.6,3.4
		c-0.8,0.1-3.9,1.3-9.3,3.6c-0.3-0.1-0.6-0.2-0.8-0.1v-0.4c0-1.1,0.4-2.1,1-2.9c0.4-2.2,0.9-3.5,1.4-3.8l4.5-10
		c0-0.6,0.9-1.1,2.9-1.4l0.6-0.1v0.6c1.9-0.3,3.1-0.5,3.6-0.5c3.5-0.3,5.4,0.4,5.5,2.1H76l-0.1-1h0.4c0.8,0.3,1.5,1.1,1.7,2
		c0,0.8-0.4,1.5-0.9,2.1c-0.3,0-0.4-0.2-0.4-0.6h-0.4l-0.1,1.2c-1.8,2.7-3.1,4.1-3.9,4.1C71.5,339.1,71.1,339.6,70.9,339.6
		L70.9,339.6z M73.6,346.6c-0.2-0.2-0.6-0.3-0.9-0.4v-0.6h0.4l0.9,0.5C74,346.5,74,346.6,73.6,346.6L73.6,346.6z M76.4,350
		c0.4,0.2,0.6,0.3,0.7,0.5l-0.2,0l0,0h-0.1l-0.3,0.2L76.4,350z M76.7,351.7v-0.2l0.5-0.1v0.2L76.7,351.7z M77.9,353.1
		c0.5-0.1,0.8-0.1,1.8-0.3v0.1l-1.8,0.4C77.9,353.2,77.9,353.1,77.9,353.1L77.9,353.1z M79.7,353.8c-0.6,0-1.2,0.1-1.8,0.2v-0.2
		l1.6-0.5l0.7-0.2l0.1,0.3C79.9,353.6,80.2,353.6,79.7,353.8L79.7,353.8z M81.4,353.4c-0.2,0-0.4-0.1-0.4-0.2l0.5-0.1
		c0.2-0.1,0.3,0,0.4,0.2c0,0,0,0.1,0,0.1L81.4,353.4z M85.9,348.6v-0.2l0.8-0.2l0.1,0.3L85.9,348.6z M90.6,377.9c0-0.2,0-0.3,0-0.5
		h0.2c0.2,0,0.3,0,0.4,0.2v0.2L90.6,377.9z M94,349.9l-0.3-0.1c-0.5,0.2-0.9,0.3-1.4,0.5l-0.3,0.1c-0.2,0.1-0.3,0-0.4-0.2
		c0,0,0,0,0,0l2.2-0.5l0.7-0.3l0.2,0.3C94.5,349.6,94.2,349.7,94,349.9L94,349.9z M95.7,349.4v-0.1c0.2-0.1,0.3-0.1,0.4-0.3l1.6-0.4
		v0.2C97,348.9,96.4,349.1,95.7,349.4L95.7,349.4z M95.9,346.1c-0.2,0.1-0.3,0.2-0.4,0.3c0-0.1-0.2-0.1-0.7,0
		c-0.1-0.3,1.1-0.7,3.5-1.3l0.3-0.1l0.1,0.3C97.1,345.8,96.1,346.1,95.9,346.1L95.9,346.1z M100.2,341.5c-0.2,1.9-0.9,3-2.1,3.3
		v-0.2l-1.2,0.4l-0.5,0.1c-0.2,0.1-0.4,0.1-0.7,0l-0.1-0.4c0-0.2,1.5-2.3,4.7-6.4l0.4,0.1C100.9,339.5,100.7,340.5,100.2,341.5
		L100.2,341.5z M107.8,335.1h-0.1v-0.3l0.6-0.1v0.1C108.1,334.9,107.9,335,107.8,335.1L107.8,335.1z M104.7,366.3
		c-0.3-0.2-0.7-0.2-1-0.2v-0.5c0-0.2,0.1-0.3,0.3-0.3s0.3,0.1,0.3,0.4c0.3-0.4,0.5-0.7,0.9-1l0.3,0.1
		C105.4,365.8,105.1,366.3,104.7,366.3L104.7,366.3z M138,331.4c-0.1,0-0.5-0.5-0.9-1.5v-0.3c0.3,0,0.6,0.5,0.9,1.4V331.4z
		 M137.6,327.9l-0.1,0.3l-4.5-1.9C135.9,326.4,137.5,327,137.6,327.9L137.6,327.9z M118.4,344.4l-0.6,0.1v-0.3l0.6-0.1L118.4,344.4z
		 M117.9,334.5h0.2v0.5c-0.2,0-0.3,0.2-0.6,0.7v-0.3C117.7,335.1,117.8,334.8,117.9,334.5L117.9,334.5z M116.6,337.7v0.6h-0.2v-0.6
		H116.6z M115.8,338.8h0.3c0,0.5-0.2,0.8-0.4,0.8h-0.2C115.7,339.3,115.8,339.1,115.8,338.8L115.8,338.8z M115.3,340.4h0.2v0.1
		l-0.3,0.5h-0.3v-0.2C115.2,340.8,115.4,340.6,115.3,340.4L115.3,340.4z M114.8,341.8l-0.1,0.8h-0.2l-0.1-0.8L114.8,341.8
		L114.8,341.8z M109.6,356.6c-0.2,1-0.4,1.5-0.7,1.6V358C108.9,357.4,109.2,356.9,109.6,356.6L109.6,356.6z M108.6,358.6v0.1
		c0,0.1,0,0.3-0.2,0.3c0,0-0.1,0-0.1,0V359C108.4,358.8,108.5,358.7,108.6,358.6L108.6,358.6z M108.3,362.9h0.5v0.2
		c-0.2,0-0.3,0.1-0.5,0.2H108C108.1,363.1,108.2,363,108.3,362.9L108.3,362.9z M122,358.7c-1.7,0.7-3.3,1.6-4.8,2.7
		c-2.9,1-4.4,1.7-4.4,1.9c-1.7,0.6-3.5,1.4-5.1,2.3c-0.3,0-0.6-0.1-0.8-0.2c0-0.5,0.2-1,0.7-1.3c0.4,0,0.9,0,1.3,0.2
		c0.8-0.3,1.7-0.6,2.5-0.8v-0.3l-1,0.1c0.9-0.5,1.8-1,2.8-1.3h0.5v0.1c-0.8,0.1-1.3,0.3-1.4,0.8c0,0.2,0.1,0.3,0.3,0.3
		c0.6-0.4,0.9-0.6,0.9-0.7c1.2-0.2,4.4-1.9,9.8-5.1v0.3C123.4,357.6,122.9,358,122,358.7L122,358.7z M113.9,361.4
		c0.8-0.1,1.5-0.4,2-0.9c0.2,0,0.3,0.1,0.3,0.3c-0.8,0.2-1.5,0.5-2.2,0.9h0v-0.3L113.9,361.4z M127.1,351.2l-4.1,3.3
		c-1.6,1.1-3.2,2.1-4.9,3c-4.8,2.7-7.8,4-9,4.1h-0.2c0.1-0.5,2.3-5,6.5-13.2c3-0.5,5.9-1.4,8.7-2.6l1-0.1c1.6-0.3,3.2,0.1,4.4,1.2
		l0.1,0.6C128.8,349.6,128,350.8,127.1,351.2L127.1,351.2z M119.1,346.7l0.6-0.1v0.2l-0.6,0.1L119.1,346.7z M128.3,345.2h0.5
		c0.4,0.2,0.7,0.4,0.7,0.6v0.1C129,345.9,128.5,345.6,128.3,345.2L128.3,345.2z M129.6,337.7c-1.1,1-2.2,1.9-3.5,2.6
		c-2.4,0.7-4.7,1.6-7,2.7c-0.2-0.1-0.4-0.1-0.6-0.1v-0.3c0-0.8,0.3-1.6,0.8-2.2c0.3-1.7,0.7-2.6,1-2.8l3.4-7.6
		c0-0.5,0.7-0.8,2.2-1.1h0.5v0.5c1.4-0.2,2.3-0.4,2.7-0.4c2.7-0.2,4.1,0.3,4.2,1.6h0.3l-0.1-0.7h0.3c0.7,0.3,1.1,0.8,1.2,1.5
		c0,0.6-0.3,1.2-0.6,1.6c-0.2,0-0.3-0.1-0.4-0.4h-0.3l-0.1,0.9c-1.4,2.1-2.3,3.1-3,3.2C130,337.4,129.7,337.8,129.6,337.7
		L129.6,337.7z M131,342.8v-0.5h0.3l0.7,0.4c0,0.2-0.1,0.3-0.2,0.3c0,0,0,0-0.1,0C131.5,342.9,131.3,342.9,131,342.8L131,342.8z
		 M74.3,372.5l-0.3,0.1l-0.3,0.2c0,0.1,0.1,0.3,0.3,0.2c0,0,0.1,0,0.1,0c0.2,0,0.3-0.2,0.2-0.4L74.3,372.5z M73.1,370.1v0.2
		c0.2,0,0.3-0.2,0.2-0.4v-0.2C73.2,369.7,73,369.8,73.1,370.1C73.1,370,73.1,370,73.1,370.1z M81.7,353.8l0.2-0.1c0,0-0.1,0-0.1,0
		C81.7,353.7,81.7,353.8,81.7,353.8C81.7,353.8,81.7,353.8,81.7,353.8L81.7,353.8z M81.7,349.6l0.4-0.1l-0.1-0.3l-0.4,0.1
		L81.7,349.6z M168,361.9l-0.8-0.1l-0.1,0.3v0.2l4.9-0.4v-0.3L168,361.9z M172.5,361.6v0.3h0.1L172.5,361.6L172.5,361.6z
		 M193.2,358.9v0.3l0.5,0.1V359L193.2,358.9z M192.5,358.9c-1.6,0.5-3.3,0.7-5,0.8v0.3h0.3h0.2l0,0l0.4-0.2c3.7-0.4,4.1-0.2,4.1-0.7
		L192.5,358.9L192.5,358.9z M170.2,353.5l-0.3-0.1c-0.2,0.4-0.3,0.8-0.4,1.3v0.1C169.7,354.8,170,354.4,170.2,353.5L170.2,353.5z
		 M165.7,351.1V351h-0.2l-0.3,0.2l0.2,0.3C165.7,351.5,165.8,351.3,165.7,351.1L165.7,351.1z M175.4,361.1v-0.3h-0.1L175.4,361.1
		L175.4,361.1z M195.6,356.6h0.2c0.1,0,0.2-0.1,0.2-0.3l-0.1-0.3c-0.7,0-1.3,0.2-1.9,0.5v-0.2l-1,0.1c0-0.3-0.1-0.5-0.2-0.5l-0.5,0
		c-0.6,0-0.9,0-1.2,0.2c0-0.1,0-0.2-0.1-0.2l-0.6,0l-0.4,0.2c0-0.1,0-0.2-0.1-0.2l-0.2,0.2v-0.2l-0.8-0.1h-0.2v0.3l0.4,0.1h0.4
		c0.1,0.1,0.3,0.1,0.4,0.1l0.4-0.2v0.1c-1.1,0.3-2.1,0.5-3.2,0.6c-0.1-0.1-0.2-0.1-0.3-0.1l0,0c-0.1,0-0.2-0.1-0.2-0.3c0,0,0,0,0,0
		l0.7-0.1c0.1,0,0.1,0,0.5,0.1c0.6-0.3,0.6-0.4,0.9-0.4v-0.3c-1.1,0.2-2.3,0.3-3.5,0.3h-0.1v-0.3c3-0.4,2-0.1,3.1-0.5
		c0,0.1,0,0.2,0.1,0.2c0.1-0.1,0.3-0.2,0.4-0.2h0.2c1.2,0,2.4-0.1,3.5-0.5v0.1l0.3-0.2h0.3c0-0.3,0.4-0.4,0.6-0.4v-0.3
		c-3.7,0.8-4.6,0.5-5.7,0.8v-0.1c-0.4,0.1-0.8,0.1-1.2,0.1c-0.1,0-0.2,0.1-0.3,0.2c0-0.1,0-0.2-0.1-0.2s0,0-0.1,0l-3.1,0.5
		c0-0.1,0-0.1-0.1-0.1c-1.1,0.3-2.2,0.5-3.4,0.6c-0.1,0-0.3,0.1-0.4,0.2c0-0.1-0.1-0.1-0.2-0.1l-1.3,0.1l-0.9,0.2
		c0-0.1-0.1-0.1-0.2-0.1c0,0,0,0,0,0c-0.4,0.1-0.9,0.2-1.3,0.2l0,0c-0.2,0,0.1-0.1-0.1-0.1l-0.3,0.2c-0.4,0-0.2,0-1.5,0
		c-2.4,0.3-2.1,0.3-2.4,0.3l-0.9-0.1c0,0.1,0,0.1-0.1,0.1c-1-0.1-1.5-0.3-1.5-0.5c0.1-0.9,0.4-1.4,0.7-1.5h0.2l-0.1,0.3h0.2
		c0.3-0.2,0.5-0.3,0.4-0.5v-0.3h-0.3v-0.3c0-0.2,0-0.4,0.1-0.6l0.7-1.2v0.3h0.3v-0.3l-0.2-0.3c0.2-0.2,0.4-0.3,0.6-0.4v-0.2h-0.5
		v-0.5c0.6-1.1,1-2.2,1.3-3.4l0.3,0.1c0.2,0,0.3-0.1,0.3-0.4h-0.3v-0.1c0-0.2,0-0.4,0.1-0.6c0.5-0.4,0.7-1,0.7-1.6
		c0.1,0,0.1,0,0.2,0.1c0.6-0.5,0.9-1.2,1-2c1.3-2.7,2.3-5.4,3.2-8.2c2.7-7.2,2.6-8,3-9.7H180c0,0.2,0,0.4-0.1,0.6
		c-0.2-0.1-0.3-0.1-0.5-0.1v-0.1c0-0.8,0.3-1.6,0.8-2.2H180l0.3,1h0.3c0.1-0.4,0.1-0.8,0.2-1.2c0-0.2-0.1-0.3-0.4-0.3l-0.3,0.2
		c0-0.6,0-1.1,0-1.7H180c-0.2-0.2-0.4-0.4-0.4-0.7l-1.8,0.2c0-0.2-0.1-0.4-0.2-0.5c0-0.2,0.4-0.3,1.2-0.5l0.4,0.1l0.3-0.2
		c0,0.1,0.1,0.2,0.2,0.1l0.3-0.2c0,0.1,0.1,0.2,0.2,0.1h0.1V320c-0.6,0-1.3,0-1.9,0l-0.3,0.2V320c-8.2,0.7-12.8,1-14,1.2
		c-0.1,0-0.7,0-1.7,0c0,0.1-0.1,0.2-0.4,0.2l-0.4-0.2l-1.2,0.3c-0.5,0-0.9,0-1.4-0.1c-0.2,0.1-0.4,0.2-0.7,0.2
		c-0.1,0,1.8-0.1,3.5-0.2c-0.3,0.2-0.6,0.3-0.9,0.3c-0.2,0-0.5,0-0.7-0.1c-0.8,0.3-1.7,0.5-2.6,0.6l-0.4-0.1l-5.7,0.9
		c-0.2-0.1-0.5-0.1-0.7,0c-0.5,0.1-1,0.2-1.5,0.3l-2.8,1.1l0.2,0.3c0.2,0,0.4-0.1,0.6-0.2l1,0.1l-0.1,0.9c-0.8,0.3-1.4,0.9-1.6,1.8
		c-1.4,0.6-2,1-2,1.3v0.2h0.2l0.4-0.2l0.4,0.5l0.1,0.7c0,0.2-2.3,5-6.8,14.4c-3.9,9-6,14-6.2,14.9c-1.4,0.4-2.1,0.9-2.4,1.7
		c0,0.2,0.4,0.4,1.2,0.5v0.4l-0.4,0.6l0.1,0.7c0,0.4,1,0.6,3,0.8c0-0.1,0-0.2,0.2-0.2c0,0.9-0.1,1.7-0.4,2.6h0.2
		c0.6-0.6,1-1.4,1.1-2.3h0.2c0.2,0,0.4,0.2,0.6,0.7c-0.2,0.1-1.1,2-2.6,5.8l0.2,0.3h0.2c1.8-4.5,2.9-7.1,3.4-7.5
		c2.3-0.2,6.4-0.6,12.2-1.2l0.4-0.2c0,0.1,0.1,0.2,0.2,0.2c0,0,0,0,0,0h0.4l0.4-0.2c0,0.1,0.1,0.2,0.2,0.2l4.4-0.4
		c1.2-0.1,1.7-0.5,1.7-1c0-0.2,0.7-0.3,2.1-0.5c0.2,0,0.4,0,0.6,0.1c0-0.1,0.7-0.2,2.1-0.3c0-0.7,0.3-1.1,0.7-1.2V358
		c-0.5,0.1-0.9,0.2-1.3,0.3c-0.6,0-1.2-0.1-1.8-0.2c-0.2,0.1-0.4,0.2-0.6,0.2l-3.1,0.1l-0.4,0.2c0-0.1-0.1-0.2-0.2-0.1h-0.2
		l-0.4,0.2c0-0.1-0.3-0.2-1-0.3l-0.4,0.2l-0.8,0.1v-0.2c3.9-0.4,5.9-1,5.8-1.6c0.2,0,0.4,0.1,0.4,0.3c0,0,0,0.1,0,0.1l1.1-0.3v-0.4
		l-9.4,0.3c0,0.1-0.1,0.2-0.2,0.2l-1.1-0.1c-0.3,0-0.5,0.1-0.7,0.2l-0.4-0.2c-0.9,0.1-1.8,0.2-2.6,0.4c-0.9-0.1-1.8-0.1-2.7,0
		l-2.1,0.2l-1-0.1c0-0.6,1.2-3.7,3.6-9.2c0.7-1.9,1.4-3,2-3.5c0.2,0,0.4,0.1,0.6,0.1l1.5-0.5l0.8,0.1c1.5-0.2,3.1-0.5,4.5-1.1
		c0.3,0,0.7,0,1,0.1l1.1-0.3l3.4-0.3c1.6-0.2,3.2-0.5,4.7-1v-0.4c-0.6,0.1-1,0-1-0.3c0-0.5-0.5-0.7-1.4-0.6v-0.4l0.9-0.3l2.5-0.2
		v-0.4c-0.1,0-0.6,0-1.5,0v-0.4l1-0.1c0.2,0,0.3-0.1,0.3-0.3c0,0,0-0.1,0-0.1c-1.3,0-1.9,0-1.9-0.2c-8.9,0.4-13.4,0.5-13.4,0.2
		c-0.2,0-0.4,0.1-0.6,0.2l-0.2-0.4c2.4-5,3.8-7.6,4.2-7.6c0,0.3-0.1,0.7-0.3,0.9v0.2h0.4c0.9-2.2,1.7-3.4,2.4-3.5
		c2.8-0.2-0.4-0.4,5.6-1.4c0.2,0.1,0.4,0.1,0.5,0.1c2.4-0.5,5.6-1,9.9-1.5v-0.4l-2.2,0.2v-0.4c0.2,0,0.5-0.1,0.7-0.3v0.2
		c0.2,0,0.4-0.1,0.5-0.2c0.3,0,0.6,0,0.9,0.1c0.6-0.2,1.2-0.3,1.9-0.4l1.4-0.1c0.3-0.2,0.5-0.4,0.5-0.6v-0.2c-0.4,0-0.8,0-1.2-0.1
		c0-0.2,0.1-0.3,0.3-0.4l2.6-0.2l1.2-0.3c0,0.1,0.1,0.2,0.2,0.2c0.2,0,0.4-0.1,0.5-0.2h0.2c-0.2,0.5-0.4,0.9-0.5,1.4H177
		c0-0.2-0.1-0.4-0.2-0.6h-0.2c-3.2,8.8-4.6,13-7.5,19.7c-0.5,1.7-1,2.7-1.4,2.9c0,0.2,0.1,0.3,0.3,0.3c0.1,0.9-0.1,1.8-0.6,2.5
		c-1.4,3.9-2.2,6-2.7,6.4l0.3,1.8c0,0.2-0.1,0.3-0.2,0.3c0,0,0,0-0.1,0h-0.3c0-0.5-0.2-0.8-0.6-0.7h-0.2c-0.4,0.7-0.8,1.5-0.9,2.3
		h0.3c0.4-0.2,0.6-0.6,0.6-1l0.6-0.1l0.4,0.1c-0.2,0.3-0.4,0.7-0.4,1.1l0.2,0.3l-0.4,1v0.2c0.4,0,0.8,0.1,1.2,0.3
		c0.4,0,0.7-0.2,1-0.4c0.4,0,1.7,0,4.1,0l1.2-0.4c1.4,0,1.7,0,2.9-0.1l0.5,0l0.3-0.2v0.2c0.8-0.1,1.6-0.1,2.4,0.1v0.2l-0.7,0.1v0.3
		c0.2,0,0.4-0.1,0.6-0.2c0.2,0,0.3,0.1,0.3,0.3c-0.3,0-0.7,0.1-1,0.2l-0.3-0.1c-0.5,0.1-0.4,0.2-0.7,0.2l-0.5-0.1
		c0,0.1,0,0.1-0.1,0.1c0,0,0,0-0.1,0c0,0.1,0.1,0.3,0.3,0.3c0,0,0,0,0.1,0l0.5,0l2.7-0.2l1-0.2c0,0.1,0,0.1,0.1,0.1l0.5-0.2l0.9-0.1
		c0.7-0.1,0.7-0.1,2.2-0.4c0-0.1,0-0.1,0.1-0.1v0.1c1-0.1,2.1-0.3,3.1-0.6v0.1c0.6-0.1,0.3-0.1,0.4-0.2c0,0.1,0.1,0.2,0.1,0.2h0.4
		v-0.3h-0.9l0,0h-0.1h-0.1l0,0c-0.3,0.1-0.7,0.1-1,0.1l-2.2,0.1v-0.2l1.2-0.2h0.4l0.3-0.2v0.2c1.8-0.1,2.4,0.3,10.5-1.4
		c0.4,0,0.4-0.4,0.7-1.2c-0.1,0-0.3,0-0.4-0.1c-0.8,0.2-1.5,0.3-2.3,0.3c-0.1,0-0.2-0.1-0.2-0.3V357h1.2c0.5,0,0.9-0.2,1.4-0.4
		c0,0.1-0.3,0.2-0.1,0.2L195.6,356.6z M135.5,357.6l-0.6,0c0.2-0.9,0.5-1.8,0.9-2.6h0.4C136.1,355.9,135.8,356.8,135.5,357.6
		L135.5,357.6z M136.2,354.8v-0.2c0-0.2,0.1-0.3,0.4-0.4v0.2C136.5,354.6,136.4,354.8,136.2,354.8L136.2,354.8z M143.8,360.7v0.2
		l-0.9,0.1v-0.2L143.8,360.7z M142.7,360.6c0,0.2-0.3,0.4-0.9,0.6l-1.2-0.1h-0.4v-0.4L142.7,360.6L142.7,360.6z M150.4,325.1l-0.6,0
		v-0.2c0-0.2,0.1-0.3,0.3-0.4h0.2l0.4,0.2C150.8,324.9,150.6,325.1,150.4,325.1C150.4,325.1,150.4,325.1,150.4,325.1L150.4,325.1z
		 M159.1,323.4h0.2v0.4l-0.5,0C158.8,323.6,158.8,323.4,159.1,323.4L159.1,323.4z M156.9,324.1L156,324v-0.2
		c0.8-0.1,1.5-0.2,2.2-0.4c0,0.1,0.1,0.2,0.4,0.2v0.4h-0.4c-0.2,0-0.5,0-0.7-0.1C157.3,324,157.1,324.1,156.9,324.1L156.9,324.1z
		 M158,327.3v-0.2l1.4-0.1v0.2L158,327.3z M159.5,326.1v-0.2l0.7-0.1v0.2L159.5,326.1z M159.6,323.7h-0.2l0.2-0.4l1.6-0.1v0.2
		C160.7,323.4,160.1,323.5,159.6,323.7L159.6,323.7z M160.4,327v-0.4l0.7-0.1c0.2,0,0.3,0.1,0.4,0.3L160.4,327z M164.6,321.4
		l-0.9,0.2h-0.2c-0.5,0-1.1,0-1.6,0C163,321.6,164.1,321.5,164.6,321.4L164.6,321.4z M163.6,325.3v0.2l-1.2,0.1v-0.2L163.6,325.3z
		 M165.6,326.3c0-0.1-0.2-0.2-0.7-0.3l-1.2,0.3h-0.9c-0.2-0.1-0.3-0.2-0.3-0.3l1.1,0.1l2.4-0.4l1.2,0v0.2
		C166.6,325.9,166.1,326.1,165.6,326.3L165.6,326.3z M178,323h0.3c0.4-0.4,0.9-0.8,1.5-1c-0.3,1.6-1,3.1-2.1,4.3L177,326
		C177.4,325.1,177.7,324.1,178,323L178,323z M175.9,326.6h0.2c-0.2,0.4-0.4,0.7-0.6,0.7v-0.5C175.6,326.8,175.8,326.8,175.9,326.6z
		 M174.5,329.9c0.3-1.3,0.6-2.1,0.9-2.3v0.2c-0.2,1.2-0.4,1.9-0.8,1.9l0.1,0.8c-0.2,0.3-0.4,0.6-0.4,1h-0.2l-0.1-1.1
		C174.3,330.4,174.4,330.2,174.5,329.9L174.5,329.9z M174,331.6c-0.1,0.4-0.2,0.9-0.4,1.3h-0.2v-0.5
		C173.7,331.9,173.9,331.6,174,331.6L174,331.6z M164.2,360.2v-0.1h0.3v0.5C164.3,360.6,164.2,360.5,164.2,360.2L164.2,360.2z
		 M178.2,360.6c0-0.1-0.1-0.2-0.2-0.1l-0.8,0.1v-0.2h0.1l1.9-0.2v0.2C178.9,360.3,178.5,360.4,178.2,360.6L178.2,360.6z
		 M177.3,360.2c0.1,0,0,0.1,0,0.1S177.2,360.3,177.3,360.2L177.3,360.2z M177.4,358l-1.1,0.1v-0.2l0.9-0.1l0.8-0.2
		c0,0.1,0.1,0.1,0.2,0.1c1-0.2,0.9-0.2,1.4-0.3c0.2,0,0.3,0.1,0.3,0.3L177.4,358L177.4,358z M181.1,357.7c-0.3-0.1-0.7-0.1-1-0.1
		v-0.1l0.9-0.1v0.1C180.9,357.5,181.3,357.5,181.1,357.7L181.1,357.7z M181.1,357.5v-0.1l0.5,0v0.1L181.1,357.5z M182.3,357.4v-0.1
		c0.1,0,0.3-0.1,0.4-0.2c0.2,0,0.4,0.1,0.4,0.3c0,0,0,0,0,0L182.3,357.4z M183.7,357.2v-0.2l0.6,0v0.2L183.7,357.2z M184.6,357.2
		c0-0.1,0.1-0.3,0.2-0.3c0,0,0,0,0,0l0.2,0.3c0-0.1,0-0.1,0.1-0.1c0,0,0,0,0,0l0.2,0.3L184.6,357.2L184.6,357.2z M196.6,355.7
		L196.6,355.7z M196.8,355.6c0.1-0.1,0.1-0.1-0.1-0.1c-0.1,0.1,0.1,0.1-0.1,0.2v0.1L196.8,355.6l-0.2,0.1l0,0l-0.2,0.3l0.5-0.2h0.1
		v-0.3L196.8,355.6z M197.7,356.3h-0.1v0.3l0.7-0.1C198.3,356.3,197.8,356.3,197.7,356.3L197.7,356.3z"/>
</g>
<g class="st3">
	<path class="st5" d="M903.8,200.8v11.6h-17.9v53.9h-12.5v-53.9h-17.9v-11.6H903.8z"/>
	<path class="st9" d="M829.7,183.6h22.1v11h-10.2v77.9h10.2v11.1h-22.1V183.6z"/>
	<path class="st9" d="M929.7,283.6h-22.2v-11h10.2v-77.9h-10.2v-11.1h22.2V283.6z"/>
</g>
<g class="st3">
	<path class="st10" d="M619.3,85.7l-8-90h88.2l-8,90l-36.1,10L619.3,85.7z"/>
	<path class="st11" d="M684.5,80l6.9-76.9h-36v85L684.5,80z"/>
	<path class="st5" d="M655.3,14.1h-27.6l3,33.4h24.7v-11h-14.6l-1-11.3h15.6L655.3,14.1L655.3,14.1z M655.3,65.1L655.3,65.1
		L643,61.8l-0.8-8.8h-11.1l1.5,17.3l22.6,6.2h0L655.3,65.1z"/>
	<path class="st5" d="M655.3,47.5h13.6l-1.2,14.3l-12.3,3.3v11.5l22.7-6.3l3-33.9h-25.6L655.3,47.5z M682.7,17.1l0.3-3h-27.7v11H682
		l0.2-2.5L682.7,17.1z"/>
</g>
<g class="st3">
	<path class="st12" d="M1118.9,350.8c0-5.1-4.2-9.3-9.3-9.3l0,0c-0.3,0-0.7,0-1,0.1l12.8-37.7H1067l12.8,37.7h-0.6
		c-5.1,0-9.3,4.2-9.3,9.3c0,4,2.6,7.6,6.5,8.9c-2,3.4-4.4,6.5-7.3,9.2c-3.7,3.6-8.2,6.3-13,8.1c-5.7-2.9-8.4-9.4-5.9-15.1
		c0.3-0.6,0.6-1.3,0.8-1.9c5-1.2,8.1-6.2,6.9-11.2c-1.2-5-6.2-8.1-11.2-6.9c-5,1.2-8.1,6.2-6.9,11.2c0.5,2.2,1.8,4.2,3.7,5.5
		c-2.3,5.2-5.7,10.7-6.7,17.1c-1.3,7.6,0,15.7,6.6,20.3c15.4,10.6,32-6.6,49.6-10.9c6.4-1.6,13.4-1.3,19-4.6c4.1-2.3,7-6.4,7.8-11
		c0.7-4.4-0.3-9-3-12.6C1118.1,355.2,1118.9,353,1118.9,350.8L1118.9,350.8z M1088.6,350.8L1088.6,350.8c0-3.3-1.7-6.3-4.5-8
		l10.2-20.5l10.2,20.8c-2.6,1.7-4.1,4.6-4.1,7.7v0.2L1088.6,350.8L1088.6,350.8z"/>
	<path class="st5" d="M1121.2,350.8c0-5.6-4-10.3-9.4-11.4l12.8-37.9h-60.7l12.8,37.9c-6.2,1.4-10.2,7.6-8.8,13.8
		c0.7,3,2.6,5.7,5.2,7.3c-1.6,2.4-3.5,4.6-5.6,6.6c-3.3,3.1-7.1,5.6-11.3,7.2c-4-2.4-5.8-7.4-4-11.7l0.1-0.3l0.3-0.6
		c6.1-2.1,9.3-8.7,7.2-14.8c-2.1-6.1-8.7-9.3-14.8-7.2c-6.1,2.1-9.3,8.7-7.2,14.8c0.6,1.7,1.5,3.2,2.8,4.5c-0.4,0.8-0.8,1.7-1.2,2.5
		c-2,4-4.2,8.5-5,13.6c-1.7,10,1,18,7.5,22.5c3.5,2.5,7.7,3.8,12,3.8c7.6,0,15.3-3.8,22.8-7.6c5.4-2.7,11-5.5,16.6-6.9
		c2.1-0.5,4.2-0.8,6.4-1.1c4.5-0.6,9.1-1.3,13.1-3.7c4.7-2.7,7.9-7.3,8.9-12.6c0.8-4.5-0.1-9-2.5-12.9
		C1120.6,355.1,1121.2,353,1121.2,350.8L1121.2,350.8z M1116.6,350.8c0,3.9-3.1,7-7,7s-7-3.1-7-7s3.1-7,7-7
		C1113.5,343.9,1116.6,347,1116.6,350.8z M1118.2,306.1l-11.3,33.4c-0.5,0.1-1,0.3-1.4,0.5l-11.2-22.8l-11.2,22.7
		c-0.5-0.2-1-0.3-1.5-0.4l-11.3-33.3L1118.2,306.1z M1079.2,343.8c3.9,0,7,3.1,7,7s-3.1,7-7,7s-7-3.1-7-7S1075.3,343.8,1079.2,343.8
		L1079.2,343.8z M1048.8,343.9c3.9,0,7,3.1,7,7s-3.1,7-7,7s-7-3.1-7-7C1041.8,347,1044.9,343.9,1048.8,343.9z M1117.4,369
		c-0.7,4-3.2,7.4-6.7,9.5c-3.3,1.9-7.3,2.5-11.5,3.1c-2.2,0.3-4.6,0.7-6.9,1.2c-6,1.5-11.9,4.4-17.5,7.2
		c-11.3,5.6-21.1,10.5-30.3,4.1c-6.7-4.7-6.4-13.3-5.6-18c0.7-4.4,2.7-8.4,4.6-12.3c0.3-0.7,0.7-1.3,1-2c1,0.4,2,0.6,3,0.8
		c-1.9,6.6,1.3,13.6,7.4,16.6l0.9,0.5l0.9-0.3c5.2-1.9,9.9-4.8,13.8-8.6c2.6-2.5,4.9-5.3,6.8-8.3c0.6,0.1,1.2,0.1,1.7,0.1
		c6.4,0,11.6-5.2,11.6-11.6c0-3.3-1.4-6.5-3.9-8.7l7.3-14.7l7.4,15c-4.6,4.4-4.8,11.7-0.4,16.4c3.9,4.2,10.3,4.8,15,1.5
		C1117.5,363,1117.9,366,1117.4,369L1117.4,369z"/>
</g>
<g class="st3">
	<path class="st13" d="M183.8,595.7l19-11c0.5-0.3,1.1-0.3,1.5,0l19,11c0.4,0.3,0.7,0.8,0.7,1.3v21.9c0,0.5-0.3,1.1-0.8,1.3l-19,11
		c-0.5,0.3-1.1,0.3-1.5,0l-19-11c-0.5-0.3-0.8-0.8-0.8-1.3V597C182.9,596.5,183.2,595.9,183.8,595.7"/>
	<path class="st14" d="M252.7,606.2L230,566.7c-0.8-1.5-2.3-2.4-4-2.5h-45.4c-1.7,0.1-3.2,1-4,2.5L154,606.1c-0.8,1.4-0.8,3.2,0,4.7
		l22.7,39.2c0.8,1.4,2.4,2.2,4,2.2H226c1.6,0.1,3.2-0.8,4-2.1l22.7-39.2C253.5,609.3,253.5,607.6,252.7,606.2L252.7,606.2z
		 M233.9,625.2c0,0.6-0.3,1.1-0.9,1.4l-28.9,16.7c-0.5,0.3-1.1,0.3-1.6,0l-28.9-16.7c-0.5-0.3-0.8-0.8-0.9-1.4v-33.4
		c0-0.6,0.3-1.1,0.9-1.4l28.9-16.7c0.5-0.3,1.1-0.3,1.6,0l28.9,16.7c0.5,0.3,0.8,0.8,0.9,1.4L233.9,625.2L233.9,625.2z"/>
</g>
<g class="st3">
	<path class="st15" d="M1054.8,103.3l-45,25.4V109l28-15.4L1054.8,103.3z M1057.8,100.6V47.4l-16.4,9.5v34.2L1057.8,100.6z
		 M960.9,103.3l44.9,25.4V109l-28-15.4L960.9,103.3z M957.8,100.6V47.4l16.4,9.5v34.2L957.8,100.6z M959.8,44l46.1-26.1V37
		l-29.8,16.4L959.8,44z M1055.9,44l-46.1-26.1V37l29.8,16.4L1055.9,44z"/>
	<path class="st16" d="M1005.9,105.3l-27.6-15.2V60l27.6,16V105.3z M1009.9,105.3l27.6-15.2V60l-27.6,16V105.3z M980.1,56.6
		l27.7-15.2l27.7,15.2l-27.7,16L980.1,56.6z"/>
</g>
<g class="st3">
	<path class="st17" d="M998.8,564.5c27.6,0,50,22.4,49.9,50.1c0,27.6-22.4,50-50.1,49.9c-26.7,0-48.7-21-49.9-47.7
		c-1.3-27.6,20-51,47.6-52.3C997.2,564.5,998,564.5,998.8,564.5z"/>
	<path class="st18" d="M980.4,599.5c0.3-1.3,0.8-2.5,1.4-3.7c0.5-1.1,1.5-2,2.7-2.4c0.9-0.3,1.6-0.8,2.3-1.5c2.2-2.3,5.2-3.7,8.4-4
		c0.5,0,0.9-0.3,1-0.8c0.5-1.2,1.1-2.3,1.9-3.4c0.9-1.4,2.5-2.3,4.2-2.2c1.1,0,2.2,0.6,2.8,1.5c0.8,1.1,1.5,2.2,2,3.4
		c0.2,0.4,0.3,0.5,0.8,0.4c1.6-0.4,3.3,0.4,3.9,2c0.8,1.9,1.3,3.9,1.5,5.9c0.9,6.7-0.8,13.6-4.7,19.1c-0.2,0.2-0.2,0.4,0,0.7
		c3.8,4.1,5.8,9.6,5.5,15.2v0.4c0.3,0,0.5-0.1,0.7-0.3c1.7-0.9,3.2-2,5-2.8c2.4-1.3,5-2,7.7-2c2.9-0.1,5.4,2.1,5.5,5
		c0,0.9-0.1,1.7-0.5,2.5c-0.6,1.4-1.8,2.4-3.2,2.7c-2.7,0.7-5.2,1.8-7.5,3.4c-3.8,2.5-8,4.5-12.4,5.9c-0.3,0.1-0.6,0.2-0.8,0.4
		c-1.2,0.8-2.6,1.3-4,1.4c-4.3,0.6-8.7,0.9-13,1c-1.8,0.2-3.6-0.2-5.2-1.1c-0.4-0.3-0.8-0.8-1.2-0.8s-0.9,0.3-1.4,0.4
		c-2.7,0.6-5.5,0.1-7.8-1.4c-1.4-0.8-2.1-2.3-2-3.9c0-0.4-0.1-0.8-0.4-1.1c-1.1-1.6-1.8-3.5-2-5.4c-0.6-3.8,0.8-7,3.3-9.8
		c0.2-0.2,0.3-0.5,0.3-0.9c-0.1-3.8,0.8-7.5,2.7-10.8c1.1-1.8,2.5-3.5,4.1-4.9c0.3-0.2,0.3-0.5,0.2-0.7c0,0,0,0,0-0.1
		c-0.6-1.1-1.1-2.3-1.5-3.6c-0.3-0.2-0.1-0.5-0.2-0.8c0-0.2,0-0.4-0.1-0.6v-1.4c0-0.2,0-0.4,0-0.6
		C980.3,599.8,980.3,599.7,980.4,599.5L980.4,599.5z"/>
	<path class="st19" d="M980.4,602.4c0.1,0.3,0,0.6,0.1,0.8c0,0,0,0.2-0.1,0.1c-0.1-0.3-0.2-0.6-0.2-1c-0.1-1,0-2.1,0.2-3.1
		c0,0.1,0,0.2,0,0.2c0,0.1,0,0.2,0,0.3c-0.1,0.2,0,0.4-0.1,0.6v1.4C980.4,602,980.3,602.3,980.4,602.4L980.4,602.4z"/>
	<path class="st17" d="M1011.1,630.4c-0.1,1-0.2,2-0.4,3c-0.1,0.9,0,1,0.9,0.8c1.9-0.4,3.8-1.1,5.5-2.1c1.8-1.1,3.6-2.1,5.5-3
		c1.5-0.6,3.1-1,4.7-1c1.3-0.1,2.4,0.7,2.6,2c0.2,1.1-0.5,2.2-1.6,2.5c-3.2,0.8-6.2,2.2-8.8,4.1c-3.7,2.3-7.7,4.1-11.8,5.4
		c-0.2,0-0.3,0.1-0.5,0.2c-1,0.9-2.3,1.4-3.6,1.4c-3.7,0.5-7.4,0.7-11.1,0.9c-1.1,0.1-2.1,0.1-3.2-0.1c-1.7-0.3-2.4-1-2.7-2.4
		c-0.2-1.3,0.4-2.6,1.6-3.3l0.5-0.3c-0.7-0.4-1.2-0.9-1.7-1.5c-0.2-0.3-0.3-0.1-0.4,0.1l-0.6,2.4c-0.1,0.5-0.3,1-0.5,1.5
		c-0.6,1.4-1.9,2.3-3.3,2.3c-1.5,0.1-3.1-0.2-4.4-0.9c-0.9-0.3-1.3-1.3-1-2.1c0,0,0-0.1,0-0.1c0.2-0.6,0.5-1.1,0.9-1.6
		c-1.3,0.3-1.9-0.5-2.4-1.4c-1-2-1.4-4.2-1-6.4c0.4-1.7,1.3-3.3,2.6-4.5c0.7-0.6,1-1.5,0.9-2.5c-0.3-5.7,2.2-11.1,6.7-14.6
		c0.4-0.3,0.8-0.7,1.2-1c0.3-0.2,0.3-0.3,0.1-0.6c-1.2-1.4-2.1-3.2-2.5-5c-0.4-2,0.1-4.1,1.3-5.8c0.2-0.2,0.4-0.4,0.7-0.5
		c1.3-0.5,2.5-1.2,3.5-2.2c2.2-2.3,5.3-3.4,8.5-3.2c0.3,0.1,0.6-0.1,0.7-0.4c0,0,0,0,0,0c0.5-1.4,1.1-2.8,1.9-4.1
		c0.3-0.5,0.7-0.9,1.1-1.3c0.4-0.5,1.2-0.5,1.7-0.1c0.1,0.1,0.2,0.3,0.3,0.4c1,1.6,1.8,3.3,2.6,5.1c0.2,0.4,0.3,0.6,0.8,0.3
		c0.5-0.3,1.1-0.6,1.7-0.8c0.3-0.2,0.7-0.1,0.9,0.2c0,0.1,0.1,0.1,0.1,0.2c0.6,1.5,1,3,1.1,4.6c0.1,0.4,0.1,0.9,0.1,1.3
		c0,1,0,1.9,0,2.9c-0.1,0.4-0.1,0.9,0,1.3c-0.1,2.6-0.7,5.1-1.8,7.4c-1,2.2-2.2,4.2-3.6,6.1c-0.5,0.8-0.5,0.8,0.2,1.4
		c3.3,3,5.4,7,5.9,11.4c0,0.2,0,0.4,0,0.5c-0.1,0.4-0.1,0.8,0,1.2C1011.1,629.2,1011,629.8,1011.1,630.4L1011.1,630.4z"/>
	<path class="st20" d="M1010.4,600.4c-0.1-0.1-0.1-0.3-0.1-0.4v-3.3c0-0.1,0-0.3,0.1-0.4C1010.6,597.6,1010.6,599,1010.4,600.4
		L1010.4,600.4z"/>
	<path class="st21" d="M1011.1,630.4c-0.1-0.8-0.1-1.7-0.1-2.5c0-0.2-0.1-0.4,0.1-0.5C1011.2,628.4,1011.2,629.4,1011.1,630.4z"/>
	<path class="st17" d="M980.3,600.4c0-0.2-0.1-0.4,0.1-0.6C980.4,600,980.4,600.2,980.3,600.4z M980.4,602.4
		c-0.2-0.2-0.1-0.4-0.1-0.6C980.4,602,980.4,602.2,980.4,602.4L980.4,602.4z"/>
</g>
<g class="st3">
	<g id="Page-1">
		<g id="prettier-icon-light">
			<g id="Icon-_Light_">
				<g id="Group">
					<path id="Rectangle" class="st22" d="M213.8,45.7h4.8c1.3,0,2.4,1.1,2.4,2.4c0,1.3-1.1,2.4-2.4,2.4c0,0,0,0,0,0h-4.8
						c-1.3,0-2.4-1.1-2.4-2.4S212.5,45.7,213.8,45.7z"/>
					<path id="Rectangle-2" class="st23" d="M142.4,121.8h23.8c1.3,0,2.4,1.1,2.4,2.4c0,1.3-1.1,2.4-2.4,2.4l0,0h-23.8
						c-1.3,0-2.4-1.1-2.4-2.4C140,122.9,141,121.8,142.4,121.8z"/>
					<path id="Rectangle-3" class="st24" d="M199.5,83.8h14.3c1.3,0.1,2.3,1.2,2.2,2.5c-0.1,1.2-1,2.2-2.2,2.2h-14.3
						c-1.3-0.1-2.3-1.2-2.2-2.5C197.3,84.8,198.3,83.8,199.5,83.8z"/>
					<path id="Rectangle-4" class="st23" d="M170.9,83.8h19c1.3,0.1,2.3,1.2,2.2,2.5c-0.1,1.2-1,2.2-2.2,2.2h-19
						c-1.3,0.1-2.5-0.9-2.5-2.2c-0.1-1.3,0.9-2.5,2.2-2.5C170.7,83.7,170.8,83.7,170.9,83.8z"/>
					<path id="Rectangle-5" class="st22" d="M142.4,83.8h19c1.3,0.1,2.3,1.2,2.2,2.5c-0.1,1.2-1,2.2-2.2,2.2h-19
						c-1.3-0.1-2.3-1.2-2.2-2.5C140.2,84.8,141.2,83.8,142.4,83.8z"/>
					<path id="Rectangle-6" class="st24" d="M142.4,102.8h23.8c1.3,0,2.4,1.1,2.4,2.4c0,1.3-1.1,2.4-2.4,2.4l0,0h-23.8
						c-1.3,0-2.4-1.1-2.4-2.4C140,103.9,141,102.8,142.4,102.8z"/>
					<path id="Rectangle-7" class="st24" d="M142.4,64.7h23.8c1.3,0,2.4,1.1,2.4,2.4c0,1.3-1.1,2.4-2.4,2.4l0,0h-23.8
						c-1.3,0-2.4-1.1-2.4-2.4C140,65.8,141,64.7,142.4,64.7z"/>
					<path id="Rectangle-8" class="st25" d="M166.2,36.1h47.6c1.3,0,2.4,1.1,2.4,2.4s-1.1,2.4-2.4,2.4l0,0h-47.6
						c-1.3,0-2.4-1.1-2.4-2.4S164.8,36.1,166.2,36.1z"/>
					<path id="Rectangle-9" class="st23" d="M142.4,36.1h14.3c1.3,0,2.4,1.1,2.4,2.4s-1.1,2.4-2.4,2.4l0,0h-14.3
						c-1.3,0-2.4-1.1-2.4-2.4S141,36.1,142.4,36.1z"/>
					<path id="Rectangle-10" class="st25" d="M161.4,112.3h4.8c1.3,0,2.4,1.1,2.4,2.4c0,1.3-1.1,2.4-2.4,2.4h-4.8
						c-1.3,0-2.4-1.1-2.4-2.4C159,113.4,160.1,112.3,161.4,112.3z"/>
					<path id="Rectangle-11" class="st22" d="M161.4,55.2h4.8c1.3,0.1,2.3,1.2,2.2,2.5c-0.1,1.2-1,2.2-2.2,2.2h-4.8
						c-1.3-0.1-2.3-1.2-2.2-2.5C159.2,56.2,160.2,55.3,161.4,55.2z"/>
					<path id="Rectangle-12" class="st22" d="M142.4,112.3h9.5c1.3,0,2.4,1.1,2.4,2.4c0,1.3-1.1,2.4-2.4,2.4h-9.5
						c-1.3,0-2.4-1.1-2.4-2.4C140,113.4,141,112.3,142.4,112.3z"/>
					<path id="Rectangle-13" class="st25" d="M142.4,55.2h9.5c1.3,0.1,2.3,1.2,2.2,2.5c-0.1,1.2-1,2.2-2.2,2.2h-9.5
						c-1.3-0.1-2.3-1.2-2.2-2.5C140.2,56.2,141.2,55.3,142.4,55.2z"/>
					<path id="Rectangle-14" class="st26" d="M204.3,112.3h4.7c1.3,0,2.4,1.1,2.4,2.4c0,1.3-1.1,2.4-2.4,2.4l0,0h-4.8
						c-1.3,0-2.4-1.1-2.4-2.4C201.9,113.4,202.9,112.3,204.3,112.3L204.3,112.3z"/>
					<path id="Rectangle-15" class="st26" d="M175.7,112.3h19.1c1.3,0,2.4,1.1,2.4,2.4c0,1.3-1.1,2.4-2.4,2.4l0,0h-19.1
						c-1.3,0-2.4-1.1-2.4-2.4C173.3,113.4,174.4,112.3,175.7,112.3z"/>
					<path id="Rectangle-16" class="st26" d="M218.5,112.3h19.1c1.3,0,2.4,1.1,2.4,2.4c0,1.3-1.1,2.4-2.4,2.4l0,0h-19.1
						c-1.3,0-2.4-1.1-2.4-2.4C216.2,113.4,217.2,112.3,218.5,112.3z"/>
					<path id="Rectangle-17" class="st22" d="M180.4,74.2h38.1c1.3,0,2.4,1.1,2.4,2.4c0,1.3-1.1,2.4-2.4,2.4l0,0h-38.1
						c-1.3,0-2.4-1.1-2.4-2.4C178.1,75.3,179.1,74.2,180.4,74.2z"/>
					<path id="Rectangle-18" class="st25" d="M156.6,74.2h14.3c1.3,0,2.4,1.1,2.4,2.4c0,1.3-1.1,2.4-2.4,2.4h-14.3
						c-1.3,0-2.4-1.1-2.4-2.4C154.3,75.3,155.3,74.2,156.6,74.2z"/>
					<path id="Rectangle-19" class="st23" d="M142.4,74.2h4.8c1.3,0,2.4,1.1,2.4,2.4c0,1.3-1.1,2.4-2.4,2.4h-4.8
						c-1.3,0-2.4-1.1-2.4-2.4C140,75.3,141,74.2,142.4,74.2z"/>
					<path id="Rectangle-20" class="st24" d="M185.2,45.7h19c1.3,0,2.4,1.1,2.4,2.4c0,1.3-1.1,2.4-2.4,2.4h-19
						c-1.3,0-2.4-1.1-2.4-2.4S183.9,45.7,185.2,45.7z"/>
					<path id="Rectangle-21" class="st22" d="M142.4,45.7h33.3c1.3,0,2.4,1.1,2.4,2.4c0,1.3-1.1,2.4-2.4,2.4h-33.3
						c-1.3,0-2.4-1.1-2.4-2.4S141,45.7,142.4,45.7z"/>
					<path id="Rectangle-22" class="st25" d="M156.6,93.3h42.9c1.3,0,2.4,1.1,2.4,2.4c0,1.3-1.1,2.4-2.4,2.4h-42.9
						c-1.3,0-2.4-1.1-2.4-2.4C154.3,94.3,155.3,93.3,156.6,93.3z"/>
					<path id="Rectangle-23" class="st24" d="M142.4,93.3h4.8c1.3,0,2.4,1.1,2.4,2.4c0,1.3-1.1,2.4-2.4,2.4h-4.8
						c-1.3,0-2.4-1.1-2.4-2.4C140,94.3,141,93.3,142.4,93.3z"/>
					<path id="Rectangle-24" class="st23" d="M199.5,55.2h23.8c1.3,0.1,2.3,1.2,2.2,2.5c-0.1,1.2-1,2.2-2.2,2.2h-23.8
						c-1.3-0.1-2.3-1.2-2.2-2.5C197.3,56.2,198.3,55.3,199.5,55.2z"/>
					<path id="Rectangle-25" class="st25" d="M199.5,64.7h23.8c1.3,0,2.4,1.1,2.4,2.4c0,1.3-1.1,2.4-2.4,2.4l0,0h-23.8
						c-1.3,0-2.4-1.1-2.4-2.4C197.1,65.8,198.2,64.7,199.5,64.7z"/>
					<path id="Rectangle-26" class="st22" d="M142.4,26.6h57.1c1.3,0,2.4,1.1,2.4,2.4c0,1.3-1.1,2.4-2.4,2.4h-57.1
						c-1.3,0-2.4-1.1-2.4-2.4C140,27.7,141,26.6,142.4,26.6C142.3,26.6,142.3,26.6,142.4,26.6z"/>
					<path id="Rectangle-27" class="st26" d="M209,26.6h28.6c1.3,0,2.4,1.1,2.4,2.4c0,1.3-1.1,2.4-2.4,2.4H209
						c-1.3,0-2.4-1.1-2.4-2.4C206.6,27.7,207.7,26.6,209,26.6z"/>
					<path id="Rectangle-28" class="st26" d="M209,93.3h9.5c1.3,0,2.4,1.1,2.4,2.4c0,1.3-1.1,2.4-2.4,2.4l0,0H209
						c-1.3,0-2.4-1.1-2.4-2.4C206.6,94.3,207.7,93.3,209,93.3z"/>
					<path id="Rectangle-29" class="st26" d="M228.1,93.3h9.5c1.3,0,2.4,1.1,2.4,2.4c0,1.3-1.1,2.4-2.4,2.4l0,0h-9.5
						c-1.3,0-2.4-1.1-2.4-2.4C225.7,94.3,226.8,93.3,228.1,93.3z"/>
					<path id="Rectangle-30" class="st26" d="M223.3,83.8h14.3c1.3,0.1,2.3,1.2,2.2,2.5c-0.1,1.2-1,2.2-2.2,2.2h-14.3
						c-1.3-0.1-2.3-1.2-2.2-2.5C221.2,84.8,222.1,83.8,223.3,83.8z"/>
					<path id="Rectangle-31" class="st26" d="M223.3,36.1h14.3c1.3,0,2.4,1.1,2.4,2.4s-1.1,2.4-2.4,2.4l0,0h-14.3
						c-1.3,0-2.4-1.1-2.4-2.4S222,36.1,223.3,36.1z"/>
					<path id="Rectangle-32" class="st26" d="M228.1,74.2h9.5c1.3,0,2.4,1.1,2.4,2.4c0,1.3-1.1,2.4-2.4,2.4l0,0h-9.5
						c-1.3,0-2.4-1.1-2.4-2.4C225.7,75.3,226.8,74.2,228.1,74.2z"/>
					<path id="Rectangle-33" class="st26" d="M228.1,45.7h9.5c1.3,0,2.4,1.1,2.4,2.4c0,1.3-1.1,2.4-2.4,2.4h-9.5
						c-1.3,0-2.4-1.1-2.4-2.4S226.8,45.7,228.1,45.7z"/>
					<path id="Rectangle-34" class="st26" d="M232.8,55.2h4.8c1.3,0.1,2.3,1.2,2.2,2.5c-0.1,1.2-1,2.2-2.2,2.2h-4.8
						c-1.3-0.1-2.3-1.2-2.2-2.5C230.7,56.2,231.6,55.3,232.8,55.2z"/>
					<path id="Rectangle-35" class="st26" d="M232.8,64.7h4.8c1.3,0,2.4,1.1,2.4,2.4c0,1.3-1.1,2.4-2.4,2.4l0,0h-4.8
						c-1.3,0-2.4-1.1-2.4-2.4C230.4,65.8,231.5,64.7,232.8,64.7z"/>
					<path id="Rectangle-36" class="st26" d="M194.7,102.8h42.8c1.3,0,2.4,1.1,2.4,2.4c0,1.3-1.1,2.4-2.4,2.4l0,0h-42.8
						c-1.3,0-2.4-1.1-2.4-2.4C192.4,103.9,193.4,102.8,194.7,102.8z"/>
					<path id="Rectangle-37" class="st26" d="M175.7,102.8h9.5c1.3,0,2.4,1.1,2.4,2.4c0,1.3-1.1,2.4-2.4,2.4h-9.5
						c-1.3,0-2.4-1.1-2.4-2.4C173.3,103.9,174.4,102.8,175.7,102.8z"/>
					<path id="Rectangle-38" class="st26" d="M213.8,121.8h23.8c1.3,0,2.4,1.1,2.4,2.4c0,1.3-1.1,2.4-2.4,2.4l0,0h-23.8
						c-1.3,0-2.4-1.1-2.4-2.4C211.4,122.9,212.5,121.8,213.8,121.8z"/>
					<path id="Rectangle-39" class="st26" d="M175.7,121.8h28.6c1.3,0,2.4,1.1,2.4,2.4c0,1.3-1.1,2.4-2.4,2.4h-28.6
						c-1.3,0-2.4-1.1-2.4-2.4C173.3,122.9,174.4,121.8,175.7,121.8z"/>
					<path id="Rectangle-40" class="st26" d="M175.7,55.2H190c1.3,0,2.4,1.1,2.4,2.4S191.3,60,190,60h-14.3
						c-1.3-0.1-2.3-1.2-2.2-2.5C173.5,56.3,174.5,55.3,175.7,55.2L175.7,55.2z"/>
					<path id="Rectangle-41" class="st26" d="M175.7,64.7H190c1.3,0,2.4,1.1,2.4,2.4c0,1.3-1.1,2.4-2.4,2.4h-14.3
						c-1.3,0-2.4-1.1-2.4-2.4C173.3,65.8,174.4,64.7,175.7,64.7z"/>
				</g>
			</g>
		</g>
	</g>
</g>
<path class="st5" d="M431.9,300.5c0.6,1.3,0.1,2.9-1.2,3.6l-0.3,0.1c-13.7,4.9-23.4,17.4-23.4,32.1v2.7h-15.4v-2.7
	c0-20.8,13.7-38.6,32.9-45.7c1.3-0.5,2.8,0.1,3.4,1.4L431.9,300.5z"/>
<rect x="391.6" y="344.2" class="st5" width="15.4" height="41.1"/>
<path class="st5" d="M494.3,336.3v2.7h-15.4v-2.7c0-14.7-9.7-27.2-23.4-32.1c-1.4-0.5-2.1-2-1.6-3.4c0-0.1,0.1-0.2,0.1-0.3l4.1-8.5
	c0.6-1.3,2.1-1.8,3.4-1.4C480.7,297.7,494.3,315.5,494.3,336.3z"/>
<rect x="478.9" y="344.2" class="st5" width="15.4" height="41.1"/>
<path class="st27" d="M452.7,283.2c1.5,0.2,2.5,1.5,2.3,3c0,0.3-0.1,0.5-0.2,0.8l-0.7,1.5l-5.7,12c-0.5,1-1.5,1.6-2.6,1.5
	c-0.9,0-1.9-0.1-2.8-0.1s-1.9,0-2.8,0.1c-1.1,0.1-2.1-0.5-2.6-1.5l-5.7-12l-0.7-1.5c-0.6-1.3-0.1-3,1.3-3.6c0,0,0,0,0,0
	c0.2-0.1,0.5-0.2,0.8-0.2C439.7,282.3,446.2,282.3,452.7,283.2L452.7,283.2z"/>
<path class="st27" d="M473.8,336.3v48.9h-15.4v-48.9c0-8.1-6.9-14.7-15.4-14.7s-15.4,6.6-15.4,14.7v48.9h-15.4v-48.9
	c0-16.2,13.9-29.3,30.9-29.3S473.8,320.1,473.8,336.3z"/>
<path class="st5" d="M584,379.8c-2.2-1-4.2-2.4-5.7-4.2l-23.2-26.6c7-1.3,12.1-3.8,15.3-7.5c2.4-2.9,4-6.4,4.5-10.1
	c0.2-1.3,0.3-2.5,0.3-3.8c0-6.1-2.6-10.8-7.9-14.2c-5.3-3.4-12.7-5.1-22.4-5.1h-34.6v4c1.7,0.1,3.4,0.3,5,0.6
	c1.1,0.2,2.1,0.8,2.8,1.7c0.7,1,1.2,2.2,1.3,3.4c0.2,1.9,0.3,3.8,0.3,5.7v46.2c0,1.9-0.1,3.8-0.4,5.8c-0.2,1.3-0.7,2.5-1.5,3.5
	c-0.9,0.9-2,1.5-3.2,1.7c-1.8,0.3-3.6,0.5-5.4,0.5v4h39.7v-4c-2.6,0-5.1-0.1-7.7-0.5c-1.6-0.2-3.1-0.8-4.4-1.8c-1.1-1-1.8-2.2-2-3.6
	c-0.4-2-0.6-4-0.5-6.1v-19.6c1.2,0,2.4,0.4,3.5,1c1.7,1.1,3.1,2.5,4.3,4.1l24.8,30.5h23.7v-4C588.4,381.3,586.1,380.8,584,379.8z
	 M540.9,343.7h-6.5v-28.2c0-1.1,0.6-1.7,1.8-1.7h8.7c4.6,0,8.2,1.3,10.8,3.9c2.7,2.8,4.1,6.5,3.9,10.3c0,1.1-0.1,2.2-0.2,3.3
	c-0.5,3.9-2,6.8-4.5,8.8C551.8,342.5,547.2,343.7,540.9,343.7L540.9,343.7z"/>
<path class="st5" d="M646.9,347.4c-1.5-3.2-3.7-6.1-6.4-8.5c-2.8-2.4-5.9-4.3-9.4-5.6c-2.6-1-5.4-1.6-8.2-1.9
	c-1-0.1-2.1-0.1-3.2-0.1s-2.1,0-3.2,0.1c-2.7,0.2-5.4,0.9-8,1.8c-3.4,1.3-6.6,3.2-9.3,5.6c-5.5,5-8.6,12.1-8.6,19.5
	c-0.1,3.9,0.7,7.7,2.2,11.2c1.5,3.3,3.6,6.4,6.3,8.9c2.7,2.5,5.9,4.4,9.3,5.7c1.3,0.5,2.5,0.9,3.8,1.2c4.8,1.1,9.9,1.1,14.7,0
	c1.4-0.3,2.7-0.7,4-1.2c3.5-1.3,6.6-3.3,9.4-5.8c2.7-2.5,4.9-5.5,6.4-8.8c1.6-3.5,2.4-7.3,2.3-11.2
	C649.3,354.5,648.5,350.8,646.9,347.4z M632.5,367.2c-0.6,2.4-1.5,4.7-2.8,6.9c-1.1,1.8-2.6,3.3-4.3,4.4c-1.7,1-3.7,1.6-5.6,1.5
	c-2,0-3.9-0.5-5.5-1.5c-1.7-1.1-3.1-2.6-4.2-4.3c-1.3-2.1-2.2-4.4-2.7-6.8c-0.7-3-1-6-1-9c0-2.9,0.3-5.9,1-8.7
	c0.5-2.4,1.4-4.6,2.7-6.7c1.1-1.8,2.5-3.2,4.2-4.3c1.6-1,3.5-1.6,5.5-1.5c2,0,3.9,0.5,5.6,1.5c1.8,1.1,3.3,2.6,4.3,4.4
	c1.3,2.1,2.2,4.4,2.8,6.7c0.7,2.8,1,5.8,1,8.7C633.6,361.3,633.3,364.3,632.5,367.2z"/>
<path class="st5" d="M754,380.7c-1.1-0.2-2-0.8-2.6-1.7c-0.7-1.1-1.1-2.4-1.1-3.7c-0.2-1.6-0.2-3.8-0.2-6.5v-15.4
	c0.1-3.5-0.2-6.9-1-10.3c-0.5-2.2-1.5-4.3-3-6c-1.9-2-4.3-3.5-6.9-4.3c-3.4-1.1-6.9-1.6-10.4-1.5c-3.7,0-7.3,0.8-10.7,2.3
	c-3.3,1.5-6.2,3.8-8.6,6.5H709c-1.4-2.8-3.7-5.1-6.5-6.6c-6.6-2.9-14.1-3-20.7-0.3c-3.2,1.6-6.1,3.9-8.4,6.7h-0.6l-1.2-8.7
	l-19.3,3.8v3.4c1.6,0,2.9,0,3.9,0.1c0.8,0.1,1.7,0.3,2.5,0.6c0.6,0.3,1.1,0.7,1.4,1.2c0.3,0.6,0.6,1.3,0.8,2
	c0.4,1.7,0.5,3.4,0.5,5.2c0.1,2.5,0.1,5.7,0.2,9.5v12.4c0,2-0.1,4-0.3,6c-0.1,1.2-0.5,2.4-1.2,3.4c-0.7,0.8-1.6,1.4-2.7,1.6
	c-1.6,0.3-3.2,0.5-4.8,0.6v4H684v-4c-1.6-0.1-3.1-0.3-4.7-0.6c-1-0.2-2-0.8-2.6-1.6c-0.7-1.1-1.1-2.4-1.1-3.6
	c-0.1-1.6-0.2-3.8-0.2-6.6v-13.1c0-2.1,0.2-4.3,0.7-6.4c0.4-1.9,1.1-3.8,2-5.5c0.8-1.7,2.1-3.2,3.5-4.3c1.6-1.1,3.5-1.7,5.4-1.6
	c1.9-0.1,3.7,0.3,5.5,1c1.5,0.7,2.7,1.8,3.5,3.1c1,1.8,1.7,3.8,1.9,5.8c0.4,2.9,0.6,5.8,0.6,8.8v13.1c0,2-0.1,4-0.2,6
	c-0.1,1.2-0.5,2.4-1.2,3.4c-0.7,0.8-1.6,1.4-2.7,1.6c-1.6,0.3-3.1,0.5-4.7,0.6v4h31.7v-4c-1.6-0.1-3.3-0.3-4.8-0.6
	c-1.1-0.2-2-0.8-2.7-1.7c-0.7-1.1-1.1-2.4-1.1-3.7c-0.1-1.6-0.2-3.8-0.2-6.5v-13.2c-0.1-4.1,0.8-8.1,2.6-11.7
	c0.9-1.7,2.2-3.2,3.8-4.4c1.7-1.2,3.7-1.8,5.7-1.7c1.8,0,3.6,0.3,5.2,1c1.5,0.7,2.7,1.8,3.5,3.1c1,1.8,1.6,3.8,1.9,5.8
	c0.4,2.9,0.6,5.8,0.6,8.8v13.1c0,2-0.1,4-0.2,6c-0.1,1.2-0.5,2.4-1.2,3.5c-0.7,0.9-1.6,1.5-2.7,1.7c-1.6,0.4-3.1,0.5-4.7,0.5v4h31.5
	v-4C757.1,381.2,755.5,381,754,380.7z"/>
<path class="st5" d="M812,350.5c-0.4-5.7-2.4-10.3-5.8-13.6c-3.3-3.2-7.7-5-13.2-5.5c-1.1-0.1-2.2-0.1-3.3-0.1s-2.2,0.1-3.3,0.1
	c-2.8,0.3-5.6,0.9-8.2,2c-3.4,1.3-6.5,3.3-9.1,5.8c-2.6,2.5-4.6,5.6-5.9,8.9c-1.4,3.6-2.1,7.5-2.1,11.3c0,3.7,0.6,7.4,2,10.9
	c2.6,6.5,7.7,11.5,14.2,13.9c1.2,0.4,2.4,0.8,3.6,1.1c2.5,0.6,5.1,0.9,7.7,0.9c2.5,0,5-0.3,7.4-0.9c5.9-1.5,11.3-4.8,15.2-9.4
	l-2.8-3.5c-2.4,2.2-5.1,4-8,5.4c-2.6,1.2-5.5,1.9-8.3,1.9c-4.6,0.2-8.9-2-11.5-5.7c-2.8-3.8-4.2-9-4.2-15.5
	c-0.1-1.1,0.1-2.2,0.4-3.3h32.2c0.9,0.1,1.9,0,2.8-0.4c0.2-0.2,0.4-0.5,0.4-0.8c0.1-0.4,0.1-0.7,0.1-1.1
	C812,352,812,351.2,812,350.5z M797,349.1c-1.7,0.4-3.4,0.6-5.1,0.5h-14.5c0.5-3.4,2-6.5,4.3-9c1.9-2.2,4.7-3.5,7.6-3.5
	c2.4-0.1,4.7,1,6.3,2.8c1.7,2,2.6,4.6,2.5,7.2C798.1,347.9,797.7,348.8,797,349.1L797,349.1z"/>
<g class="st3">
	<rect x="785" y="456.2" class="st28" width="100" height="100"/>
	<path d="M852.2,534.3c2,3.3,4.6,5.7,9.3,5.7c3.9,0,6.4-1.9,6.4-4.6c0-3.2-2.6-4.4-6.8-6.2l-2.3-1c-6.8-2.9-11.3-6.5-11.3-14.2
		c0-7,5.4-12.4,13.8-12.4c6,0,10.3,2.1,13.4,7.5l-7.3,4.7c-1.6-2.9-3.3-4-6-4c-2.8,0-4.5,1.7-4.5,4c0,2.8,1.7,4,5.8,5.7l2.3,1
		c8,3.4,12.5,6.9,12.5,14.8c0,8.5-6.6,13.1-15.6,13.1c-8.7,0-14.4-4.2-17.1-9.6L852.2,534.3z M819,535.1c1.5,2.6,2.8,4.8,6,4.8
		c3.1,0,5-1.2,5-5.9v-32h9.4v32.1c0,9.7-5.7,14.2-14,14.2c-7.5,0-11.9-3.9-14.1-8.6L819,535.1z"/>
</g>
</svg>
