<svg xmlns="http://www.w3.org/2000/svg" viewBox="0 0 32 32"><path d="M12.62 5.78a.82.82 0 01-.39 1.1h-.08A10.54 10.54 0 005 16.75v.82H.26v-.82a15 15 0 0110.09-14 .83.83 0 011 .42zM.26 19.15h4.72v12.6H.26zM31.74 16.75v.82H27v-.82a10.54 10.54 0 00-7.17-9.84.83.83 0 01-.51-1v-.08l1.24-2.61a.84.84 0 011-.42 15 15 0 0110.18 13.95zM27.02 19.15h4.72v12.6h-4.72zM19 .46a.82.82 0 01.7.93.67.67 0 01-.07.24l-.22.48-1.76 3.67a.84.84 0 01-.8.47h-1.7a.84.84 0 01-.8-.47l-1.76-3.67-.22-.48a.82.82 0 01.39-1.1.73.73 0 01.24-.07 22.32 22.32 0 016 0z"/><path d="M25.45 16.75v15h-4.73v-15a4.61 4.61 0 00-4.72-4.5 4.61 4.61 0 00-4.72 4.5v15H6.55v-15a9.23 9.23 0 019.45-9 9.23 9.23 0 019.45 9z"/></svg>