<svg width="30" height="30" viewBox="0 0 24 20" fill="none" xmlns="http://www.w3.org/2000/svg">
<path d="M7.548 19.7012C16.6044 19.7012 21.558 12.1976 21.558 5.69116C21.558 5.47756 21.558 5.26516 21.5436 5.05516C22.5074 4.35739 23.3392 3.4935 24 2.50396C23.1013 2.90236 22.1479 3.16368 21.1716 3.27916C22.1995 2.66364 22.969 1.69558 23.3364 0.555164C22.37 1.12862 21.3128 1.53284 20.2104 1.75036C19.4681 0.960476 18.486 0.43736 17.4163 0.262004C16.3466 0.0866508 15.249 0.268844 14.2933 0.780368C13.3376 1.29189 12.5773 2.10421 12.13 3.09156C11.6826 4.07889 11.5732 5.18618 11.8188 6.24196C9.86111 6.14385 7.94592 5.63515 6.19758 4.74889C4.44923 3.86262 2.9068 2.61859 1.6704 1.09756C1.04078 2.1814 0.847907 3.46447 1.13104 4.68552C1.41418 5.90658 2.15204 6.97381 3.1944 7.66996C2.41111 7.64728 1.64476 7.43656 0.96 7.05556V7.11796C0.960467 8.25471 1.35408 9.35632 2.07408 10.236C2.79408 11.1157 3.79616 11.7192 4.9104 11.9444C4.18537 12.1421 3.42467 12.1707 2.6868 12.0284C3.00139 13.0069 3.61402 13.8627 4.43896 14.4759C5.2639 15.0891 6.25988 15.4291 7.2876 15.4484C6.26654 16.2506 5.09735 16.8438 3.84688 17.1938C2.5964 17.5439 1.28918 17.6439 0 17.4884C2.25192 18.9336 4.87223 19.7001 7.548 19.6964" fill="#868E96"/>
</svg>
