<?xml version="1.0" standalone="no"?><!DOCTYPE svg PUBLIC "-//W3C//DTD SVG 1.1//EN" "http://www.w3.org/Graphics/SVG/1.1/DTD/svg11.dtd"><svg t="1653542093670" class="icon" viewBox="0 0 1024 1024" version="1.1" xmlns="http://www.w3.org/2000/svg" p-id="5117" xmlns:xlink="http://www.w3.org/1999/xlink" width="200" height="200"><defs><style type="text/css"></style></defs><path d="M808.768 197.312c10.432 0 17.408 6.912 17.408 17.344l0 485.568c0 10.368-6.976 17.344-17.408 17.344l-87.296 0c-19.136 0-34.944 15.552-34.944 34.624 0 19.136 15.808 34.688 34.944 34.688l104.768 0c38.464 0 69.824-31.168 69.824-69.312l0-520.32C896 159.168 864.64 128 826.176 128l-384 0c-38.4 0-69.824 31.232-69.824 69.312l0 34.688c0 19.072 15.68 34.688 34.88 34.688 19.2 0 34.88-15.616 34.88-34.688L442.112 214.656c0-10.432 6.976-17.344 17.408-17.344L808.768 197.312z" p-id="5118"></path><path d="M128 363.968l0 469.376C128 867.84 160.32 896 199.808 896l394.944 0c39.488 0 71.872-28.16 71.872-62.656L666.624 363.968c0-34.432-32.384-62.592-71.872-62.592L199.808 301.376C160.32 301.376 128 329.536 128 363.968z" p-id="5119"></path></svg>