<?xml version="1.0" standalone="no"?><!DOCTYPE svg PUBLIC "-//W3C//DTD SVG 1.1//EN" "http://www.w3.org/Graphics/SVG/1.1/DTD/svg11.dtd"><svg t="1653456215036" class="icon" viewBox="0 0 1024 1024" version="1.1" xmlns="http://www.w3.org/2000/svg" p-id="3792" xmlns:xlink="http://www.w3.org/1999/xlink" width="200" height="200"><defs><style type="text/css"></style></defs><path d="M549.044706 512l166.189176-166.249412a26.383059 26.383059 0 0 0 0-36.98447 26.383059 26.383059 0 0 0-37.044706 0L512 475.015529l-166.249412-166.249411a26.383059 26.383059 0 0 0-36.98447 0 26.383059 26.383059 0 0 0 0 37.044706L475.015529 512l-166.249411 166.249412a26.383059 26.383059 0 0 0 0 36.98447 26.383059 26.383059 0 0 0 37.044706 0L512 548.984471l166.249412 166.249411a26.383059 26.383059 0 0 0 36.98447 0 26.383059 26.383059 0 0 0 0-37.044706L548.984471 512zM512 1024a512 512 0 1 1 0-1024 512 512 0 0 1 0 1024z" fill="#E84335" p-id="3793"></path></svg>