<?xml version="1.0" standalone="no"?><!DOCTYPE svg PUBLIC "-//W3C//DTD SVG 1.1//EN" "http://www.w3.org/Graphics/SVG/1.1/DTD/svg11.dtd"><svg t="1653456164561" class="icon" viewBox="0 0 1024 1024" version="1.1" xmlns="http://www.w3.org/2000/svg" p-id="2963" xmlns:xlink="http://www.w3.org/1999/xlink" width="200" height="200"><defs><style type="text/css"></style></defs><path d="M512 981.333333C252.8 981.333333 42.666667 771.2 42.666667 512S252.8 42.666667 512 42.666667s469.333333 210.133333 469.333333 469.333333-210.133333 469.333333-469.333333 469.333333z m-50.432-326.101333L310.613333 504.32a32 32 0 0 0-45.226666 45.226667l174.72 174.762666a32.341333 32.341333 0 0 0 0.341333 0.341334l0.256 0.213333a32 32 0 0 0 50.048-6.144l337.450667-379.605333a32 32 0 1 0-47.872-42.496l-318.762667 358.613333z" fill="#52C41A" p-id="2964"></path></svg>