<?xml version="1.0" encoding="utf-8"?>
<!-- Generator: Adobe Illustrator 25.0.1, SVG Export Plug-In . SVG Version: 6.00 Build 0)  -->
<svg version="1.1" id="Layer_1" xmlns="http://www.w3.org/2000/svg" xmlns:xlink="http://www.w3.org/1999/xlink" x="0px" y="0px"
	 width="998.72px" height="190px" viewBox="0 0 998.72 190" style="enable-background:new 0 0 998.72 190;" xml:space="preserve">
<style type="text/css">
	.st0{fill:#29AAE1;}
</style>
<path class="st0" d="M69.56,147.51l-0.41-14c-4.94,5.08-10.79,9.19-17.24,12.11c-5.81,2.48-12.06,3.74-18.37,3.72
	c-5.17,0.12-10.31-0.65-15.22-2.27c-3.88-1.32-7.42-3.46-10.4-6.27c-2.7-2.61-4.76-5.82-6-9.37c-1.31-3.75-1.96-7.69-1.92-11.66
	c0-10.42,3.88-18.58,11.65-24.48c7.77-5.9,19.24-8.85,34.41-8.85H67.6v-9.11c0-6.15-1.97-11.06-5.9-14.75
	c-3.93-3.69-9.94-5.55-18.02-5.58c-5.84,0.01-11.65,0.68-17.34,2c-6.01,1.42-11.91,3.29-17.64,5.59V48.34
	c2.27-0.83,4.81-1.64,7.6-2.43s5.75-1.5,8.85-2.12s6.35-1.12,9.73-1.5c3.4-0.38,6.83-0.57,10.25-0.57c5.73-0.07,11.45,0.63,17,2.07
	c4.65,1.19,8.99,3.34,12.76,6.31c3.49,2.85,6.23,6.51,8,10.66c1.96,4.79,2.91,9.94,2.79,15.12v71.63H69.56z M67.56,100.2H44.72
	c-3.91-0.07-7.81,0.38-11.6,1.35c-2.9,0.72-5.62,2.02-8,3.83c-2.01,1.59-3.59,3.65-4.6,6c-1.04,2.48-1.55,5.14-1.52,7.82
	c-0.01,1.95,0.31,3.89,0.93,5.74c0.62,1.83,1.65,3.49,3,4.87c1.52,1.5,3.36,2.65,5.38,3.36c2.6,0.89,5.33,1.31,8.08,1.24
	c4.14,0,8.88-1.26,14.23-3.78c6.21-3.13,11.92-7.17,16.93-12L67.56,100.2z M295.41,143.68c-4.67,1.79-9.51,3.13-14.44,4
	c-5.03,0.88-10.12,1.32-15.22,1.32c-16.43,0-29.08-4.45-37.94-13.35s-13.3-21.9-13.31-39c-0.1-7.62,1.2-15.2,3.83-22.36
	c2.37-6.44,6.03-12.33,10.77-17.29c4.69-4.79,10.33-8.54,16.56-11c6.76-2.65,13.96-3.97,21.22-3.88c5.06-0.02,10.12,0.36,15.12,1.15
	c4.61,0.74,9.12,1.99,13.45,3.73v17.18c-4.33-2.29-8.94-4.01-13.71-5.12c-4.74-1.08-9.58-1.62-14.44-1.61
	c-4.5-0.03-8.96,0.87-13.1,2.64c-4.09,1.76-7.77,4.35-10.81,7.61c-3.25,3.5-5.76,7.62-7.39,12.11c-1.86,5.19-2.76,10.68-2.66,16.19
	c0,12.56,3.05,21.96,9.16,28.21c6.11,6.25,14.58,9.37,25.42,9.37c4.79,0.01,9.57-0.55,14.23-1.66c4.62-1.12,9.09-2.8,13.3-5
	L295.41,143.68z M398,147.51l-0.42-14c-4.93,5.08-10.78,9.19-17.23,12.11c-5.8,2.48-12.04,3.76-18.35,3.75
	c-5.16,0.12-10.31-0.65-15.21-2.27c-3.88-1.32-7.43-3.46-10.41-6.27c-2.7-2.62-4.75-5.82-6-9.37c-1.31-3.76-1.95-7.71-1.91-11.69
	c0-10.42,3.88-18.58,11.64-24.48s19.23-8.85,34.42-8.85h21.53v-9.11c0-6.15-1.97-11.06-5.9-14.75c-3.93-3.69-9.93-5.53-18-5.54
	c-5.84,0.01-11.65,0.68-17.34,2c-6.01,1.42-11.91,3.29-17.65,5.59V48.34c2.28-0.83,4.81-1.64,7.61-2.43s5.74-1.5,8.85-2.12
	s6.35-1.12,9.73-1.5c3.4-0.38,6.83-0.57,10.25-0.57c5.73-0.07,11.45,0.62,17,2.07c4.66,1.19,9.01,3.34,12.79,6.31
	c3.49,2.85,6.24,6.51,8,10.66c1.96,4.79,2.92,9.94,2.8,15.12v71.63H398z M396,100.2h-22.81c-3.91-0.07-7.8,0.38-11.59,1.35
	c-2.9,0.72-5.62,2.02-8,3.83c-2.01,1.59-3.6,3.65-4.61,6c-1.03,2.48-1.54,5.14-1.5,7.82c-0.01,1.95,0.31,3.89,0.93,5.74
	c0.63,1.83,1.65,3.49,3,4.87c1.52,1.5,3.36,2.65,5.38,3.36c2.59,0.89,5.33,1.31,8.07,1.24c4.14,0,8.89-1.26,14.24-3.78
	c6.21-3.13,11.91-7.17,16.92-12L396,100.2z M536.58,93.68c0,9.25-1.3,17.33-3.89,24.22c-2.28,6.43-5.93,12.3-10.69,17.19
	c-4.57,4.56-10.08,8.06-16.15,10.25c-6.47,2.32-13.3,3.47-20.18,3.41c-3.3,0-6.6-0.17-9.89-0.52c-3.37-0.36-6.71-0.94-10-1.76V190
	h-18V43.58h16L465,61c5.18-7.11,10.7-12.11,16.57-15c5.92-2.87,12.42-4.34,19-4.29c5.44-0.12,10.83,1.16,15.63,3.72
	c4.58,2.56,8.47,6.18,11.34,10.57c3.24,5,5.55,10.54,6.83,16.36c1.59,6.99,2.35,14.15,2.28,21.32H536.58z M518.15,94.51
	c0.03-5.02-0.37-10.04-1.19-15c-0.63-4.08-1.91-8.02-3.78-11.7c-1.55-3.04-3.82-5.66-6.62-7.61c-2.84-1.86-6.17-2.82-9.56-2.75
	c-2.36,0.01-4.7,0.38-6.94,1.09c-2.59,0.84-5.05,2.06-7.29,3.62c-2.88,1.98-5.56,4.23-8,6.73c-3.22,3.27-6.23,6.74-9,10.4v50.42
	c3.4,1.41,6.93,2.51,10.53,3.29c3.53,0.78,7.14,1.18,10.76,1.19c9.73,0,17.36-3.3,22.88-9.89c5.52-6.59,8.28-16.52,8.28-29.79
	H518.15z M599.72,58.51h-30.67V43.58h49v88.92h31v15h-83.42v-15h34.16L599.72,58.51z M606.1,0c1.92-0.02,3.82,0.35,5.59,1.09
	c1.7,0.7,3.23,1.74,4.51,3.05c1.27,1.3,2.28,2.83,3,4.5c0.74,1.75,1.11,3.64,1.09,5.54c0.01,1.88-0.36,3.75-1.09,5.49
	c-0.71,1.69-1.73,3.23-3,4.55c-1.28,1.31-2.82,2.35-4.51,3.06c-3.59,1.44-7.59,1.44-11.18,0c-1.69-0.71-3.22-1.75-4.5-3.06
	c-1.28-1.31-2.3-2.86-3-4.55c-0.73-1.74-1.1-3.61-1.09-5.49c-0.02-1.9,0.35-3.79,1.08-5.54c0.71-1.67,1.73-3.2,3-4.5
	c1.28-1.29,2.81-2.31,4.5-3C602.27,0.39,604.18,0,606.1,0z M764.69,146.06c-4.15,1.05-8.37,1.8-12.63,2.23
	c-4.4,0.45-8.82,0.67-13.25,0.67c-13.04,0-22.77-2.95-29.19-8.85c-6.42-5.9-9.63-14.96-9.62-27.17V58.69h-29.09V43.58H700V15
	l18-4.66v33.24h46.69v15.11H718v52.8c0,7.45,2,13.02,6,16.71c4,3.69,9.85,5.54,17.54,5.54c3.64-0.02,7.27-0.28,10.87-0.77
	c4.15-0.56,8.27-1.38,12.32-2.44L764.69,146.06z M864.27,147.51l-0.41-14c-4.94,5.08-10.79,9.19-17.24,12.11
	c-5.81,2.48-12.06,3.74-18.37,3.72c-5.17,0.13-10.33-0.63-15.25-2.24c-3.88-1.32-7.42-3.46-10.4-6.27c-2.7-2.62-4.75-5.82-6-9.37
	c-1.3-3.76-1.95-7.71-1.91-11.69c0-10.42,3.88-18.58,11.65-24.48c7.77-5.9,19.24-8.85,34.41-8.85h21.54v-9.11
	c0-6.15-1.97-11.06-5.9-14.75c-3.93-3.69-9.93-5.53-18-5.54c-5.84,0.01-11.65,0.68-17.34,2c-6.01,1.42-11.91,3.29-17.64,5.59V48.34
	c2.27-0.83,4.81-1.64,7.6-2.43s5.75-1.5,8.85-2.12s6.35-1.12,9.73-1.5c3.4-0.38,6.83-0.57,10.25-0.57c5.73-0.07,11.45,0.63,17,2.07
	c4.65,1.19,8.99,3.34,12.76,6.31c3.49,2.85,6.23,6.51,8,10.66c1.96,4.79,2.91,9.94,2.79,15.12v71.63H864.27z M862.27,100.2h-22.84
	c-3.91-0.07-7.81,0.38-11.6,1.35c-2.9,0.72-5.62,2.02-8,3.83c-2.01,1.59-3.59,3.65-4.6,6c-1.03,2.48-1.54,5.14-1.5,7.82
	c-0.01,1.95,0.31,3.89,0.93,5.74c0.62,1.83,1.65,3.49,3,4.87c1.52,1.5,3.36,2.65,5.38,3.36c2.6,0.89,5.33,1.31,8.08,1.24
	c4.14,0,8.88-1.26,14.23-3.78c6.21-3.13,11.92-7.17,16.93-12L862.27,100.2z M949.47,16h-30.75V1.24h49V132.5h31v15h-83.41v-15h34.16
	V16z M212.83,162.81H96.27V147.9h116.56V162.81z"/>
</svg>
